<?xml version="1.0" encoding="UTF-8"?><svg id="uuid-1395b8a8-0df6-4674-b6f6-65d9b2298ba3" xmlns="http://www.w3.org/2000/svg" viewBox="0 0 461.86 278.79"><g id="uuid-72ad97ed-7236-4e71-a506-80ed9ab92075"><path d="M24.33,5.9h437.03M24.33,26.68h437.03M24.33,47.45h437.03M24.33,68.23h437.03M24.33,89.01h437.03M24.33,109.79h437.03M24.33,130.57h437.03M24.33,151.34h437.03M24.33,172.12h437.03M24.33,192.9h437.03M24.33,212.99h437.03" style="fill:none; stroke:#d9d9d9; stroke-linejoin:round; stroke-width:1.04px;"/><polyline points="23.99 212.64 34.38 212.64 44.07 212.64 53.77 212.64 64.16 211.95 73.85 211.95 83.55 211.95 93.94 211.95 103.64 211.25 113.33 211.25 123.72 211.25 133.42 210.56 143.11 209.87 153.5 209.87 163.2 209.18 172.9 208.48 183.29 207.79 192.98 206.41 202.68 206.41 213.07 205.71 222.76 205.02 232.46 205.02 242.85 205.02 252.55 202.25 262.93 200.87 272.63 201.56 282.33 196.71 292.72 193.94 302.41 189.78 312.11 189.09 322.5 186.32 332.19 186.32 341.89 183.55 352.28 179.39 361.98 175.24 371.67 170.39 382.06 167.62 391.76 163.46 401.45 157.23 411.84 153.77 421.54 174.55 431.24 158.62 441.63 149.61 451.32 144.76 461.02 140.61" style="fill:none; stroke:#059bd5; stroke-linecap:round; stroke-linejoin:round; stroke-width:1.68px;"/><polyline points="23.99 200.17 34.38 200.87 44.07 201.56 53.77 200.87 64.16 201.56 73.85 201.56 83.55 197.4 93.94 193.25 103.64 190.48 113.33 189.78 123.72 184.94 133.42 182.17 143.11 178.01 153.5 177.32 163.2 173.16 172.9 166.93 183.29 165.54 192.98 168.31 202.68 168.31 213.07 165.54 222.76 162.08 232.46 162.77 242.85 160 252.55 149.61 262.93 141.3 272.63 141.99 282.33 139.22 292.72 127.45 302.41 108.06 312.11 117.06 322.5 108.06 332.19 92.13 341.89 90.74 352.28 85.89 361.98 77.58 371.67 88.66 382.06 82.43 391.76 70.66 401.45 60.27 411.84 63.73 421.54 94.9 431.24 94.2 441.63 78.97 451.32 62.35 461.02 48.49" style="fill:none; stroke:#fcbf0f; stroke-linecap:round; stroke-linejoin:round; stroke-width:1.68px;"/><path d="M6.95,212.69v-.24c0-.64.09-1.2.27-1.68.18-.48.44-.86.78-1.12.34-.27.75-.4,1.24-.4s.89.13,1.23.4c.34.27.6.64.77,1.12.18.48.27,1.04.27,1.69v.24c0,.48-.05.92-.15,1.31s-.25.73-.44,1.01c-.19.28-.43.5-.72.65-.28.15-.61.22-.97.22-.48,0-.89-.13-1.23-.4-.34-.26-.6-.64-.78-1.11-.18-.48-.27-1.04-.27-1.69ZM7.81,212.46v.22c0,.51.06.95.17,1.32.12.37.28.65.5.85.21.2.46.3.75.3s.55-.1.76-.3.38-.48.49-.85c.12-.37.17-.81.17-1.32v-.22c0-.51-.06-.95-.17-1.32s-.28-.65-.49-.85c-.21-.2-.47-.3-.76-.3s-.54.1-.75.3c-.21.2-.38.48-.5.85-.12.37-.17.81-.17,1.32Z"/><path d="M7.83,190.37h-.84v-.03c0-.24.04-.48.13-.7s.22-.42.39-.6c.17-.18.38-.32.64-.42.25-.1.54-.15.87-.15.41,0,.76.08,1.06.23s.53.36.69.62c.16.26.25.56.25.9,0,.26-.05.51-.15.73-.1.22-.23.43-.39.64-.16.21-.34.42-.54.65l-1.7,1.95v.05h2.9v.75h-4.12v-.54l2.4-2.73c.12-.13.23-.27.34-.42.11-.14.2-.3.28-.46s.11-.35.11-.54c0-.22-.05-.41-.15-.57-.1-.16-.24-.29-.41-.37s-.37-.13-.59-.13c-.25,0-.46.05-.63.16-.18.11-.31.25-.4.42s-.14.36-.14.56v.03Z"/><path d="M9.45,167.82h1.27v4.32h.83v.75h-.83v1.31h-.82v-1.31h-3.1v-.75c.4-.72.83-1.44,1.29-2.16.46-.72.91-1.44,1.37-2.16ZM7.65,172.14h2.25v-3.58h-.05c-.37.55-.75,1.14-1.13,1.75-.38.61-.74,1.21-1.07,1.79v.04Z"/><path d="M11.33,148.37h-.86c-.02-.1-.08-.2-.16-.31-.09-.11-.21-.2-.37-.28-.16-.08-.36-.12-.6-.12-.18,0-.34.03-.5.1-.16.07-.3.17-.42.31-.13.14-.24.31-.33.52-.09.21-.17.45-.21.73s-.08.6-.08.96h.05c.06-.15.16-.3.29-.44s.31-.27.53-.37c.22-.1.49-.15.79-.15.33,0,.65.08.96.23.3.16.55.38.75.69.2.3.29.67.29,1.12,0,.47-.1.87-.29,1.19-.19.33-.45.58-.79.75-.33.17-.71.26-1.13.26-.23,0-.46-.03-.68-.09-.22-.06-.44-.16-.63-.3-.2-.14-.37-.33-.52-.57-.15-.24-.26-.53-.35-.87-.08-.34-.13-.76-.13-1.24s.04-.93.11-1.32c.08-.39.19-.72.33-1s.31-.51.51-.7c.2-.18.42-.32.67-.41s.51-.14.79-.14c.3,0,.57.04.81.13.24.08.44.2.61.33.17.14.3.29.39.46.09.17.15.34.16.52ZM7.91,151.39c0,.3.06.56.19.77.12.21.29.37.5.49s.43.17.67.17.48-.05.68-.15.37-.26.49-.47c.12-.21.18-.48.18-.8s-.07-.57-.2-.77c-.13-.2-.3-.35-.5-.45-.2-.1-.42-.15-.65-.15-.26,0-.5.06-.7.17-.21.12-.37.28-.48.48-.12.2-.18.44-.18.7Z"/><path d="M9.16,132.78c-.44,0-.83-.08-1.17-.24s-.61-.38-.8-.66-.29-.61-.29-.98c0-.25.04-.47.12-.66.08-.19.19-.35.32-.47.13-.13.27-.23.42-.31.15-.08.29-.13.43-.16v-.04c-.15-.05-.3-.13-.46-.25-.16-.12-.3-.27-.41-.46-.11-.19-.17-.43-.17-.71,0-.33.09-.62.26-.88.17-.26.41-.46.72-.6s.65-.22,1.04-.22.74.07,1.04.22c.3.15.54.35.72.6.17.26.26.55.26.88,0,.28-.06.52-.17.72-.12.19-.25.35-.42.46-.16.11-.31.19-.46.24v.04c.13.03.28.09.43.16.15.08.29.18.42.31.13.13.24.29.32.47s.12.4.12.65c0,.37-.1.7-.29.98-.2.28-.47.5-.81.66s-.74.24-1.18.24ZM9.19,132.07c.27,0,.51-.05.73-.15.22-.1.39-.24.51-.42.12-.18.19-.39.19-.63s-.06-.45-.19-.63c-.12-.18-.29-.32-.51-.43-.21-.1-.46-.15-.73-.15s-.52.05-.73.15c-.22.1-.39.24-.51.43-.13.18-.19.39-.19.63s.06.45.19.63.3.32.51.42c.22.1.46.15.73.15ZM9.19,128.97c.23,0,.44-.05.61-.14.18-.09.32-.22.42-.38s.15-.34.15-.55-.05-.4-.15-.55-.24-.28-.42-.37c-.18-.09-.38-.13-.61-.13s-.44.04-.62.13-.32.21-.43.37c-.1.16-.15.34-.15.55s.05.39.15.55c.1.16.25.29.43.38s.39.14.62.14Z"/><path d="M3.11,111.87h-.85v-5.46h-.04c-.17.12-.33.24-.49.35-.16.12-.33.24-.49.36s-.33.24-.49.36v-.87c.25-.19.51-.38.76-.57s.51-.37.76-.56h.85v6.38Z"/><path d="M5.46,108.8v-.24c0-.64.09-1.2.27-1.68.18-.48.44-.86.78-1.12.34-.27.75-.4,1.24-.4s.89.13,1.23.4c.34.27.6.64.77,1.12.18.48.27,1.04.27,1.69v.24c0,.48-.05.92-.15,1.31s-.25.73-.44,1.01c-.19.28-.43.5-.72.65-.28.15-.61.22-.97.22-.48,0-.89-.13-1.23-.4-.34-.26-.6-.64-.78-1.11-.18-.48-.27-1.04-.27-1.69ZM6.32,108.57v.22c0,.51.06.95.17,1.32.12.37.28.65.5.85.21.2.46.3.75.3s.55-.1.76-.3.38-.48.49-.85c.12-.37.17-.81.17-1.32v-.22c0-.51-.06-.95-.17-1.32s-.28-.65-.49-.85c-.21-.2-.47-.3-.76-.3s-.54.1-.75.3c-.21.2-.38.48-.5.85-.12.37-.17.81-.17,1.32Z"/><path d="M3.11,91.09h-.85v-5.46h-.04c-.17.12-.33.24-.49.35-.16.12-.33.24-.49.36s-.33.24-.49.36v-.87c.25-.19.51-.38.76-.57s.51-.37.76-.56h.85v6.38Z"/><path d="M6.34,86.48h-.84v-.03c0-.24.04-.48.13-.7s.22-.42.39-.6c.17-.18.38-.32.64-.42.25-.1.54-.15.87-.15.41,0,.76.08,1.06.23s.53.36.69.62c.16.26.25.56.25.9,0,.26-.05.51-.15.73-.1.22-.23.43-.39.64-.16.21-.34.42-.54.65l-1.7,1.95v.05h2.9v.75h-4.12v-.54l2.4-2.73c.12-.13.23-.27.34-.42.11-.14.2-.3.28-.46s.11-.35.11-.54c0-.22-.05-.41-.15-.57-.1-.16-.24-.29-.41-.37s-.37-.13-.59-.13c-.25,0-.46.05-.63.16-.18.11-.31.25-.4.42s-.14.36-.14.56v.03Z"/><path d="M3.11,70.31h-.85v-5.46h-.04c-.17.12-.33.24-.49.35-.16.12-.33.24-.49.36s-.33.24-.49.36v-.87c.25-.19.51-.38.76-.57s.51-.37.76-.56h.85v6.38Z"/><path d="M7.96,63.93h1.27v4.32h.83v.75h-.83v1.31h-.82v-1.31h-3.1v-.75c.4-.72.83-1.44,1.29-2.16.46-.72.91-1.44,1.37-2.16ZM6.16,68.25h2.25v-3.58h-.05c-.37.55-.75,1.14-1.13,1.75-.38.61-.74,1.21-1.07,1.79v.04Z"/><path d="M3.11,49.53h-.85v-5.46h-.04c-.17.12-.33.24-.49.35-.16.12-.33.24-.49.36s-.33.24-.49.36v-.87c.25-.19.51-.38.76-.57s.51-.37.76-.56h.85v6.38Z"/><path d="M9.84,44.47h-.86c-.02-.1-.08-.2-.16-.31-.09-.11-.21-.2-.37-.28-.16-.08-.36-.12-.6-.12-.18,0-.34.03-.5.1-.16.07-.3.17-.42.31-.13.14-.24.31-.33.52-.09.21-.17.45-.21.73s-.08.6-.08.96h.05c.06-.15.16-.3.29-.44s.31-.27.53-.37c.22-.1.49-.15.79-.15.33,0,.65.08.96.23.3.16.55.38.75.69.2.3.29.67.29,1.12,0,.47-.1.87-.29,1.19-.19.33-.45.58-.79.75-.33.17-.71.26-1.13.26-.23,0-.46-.03-.68-.09-.22-.06-.44-.16-.63-.3-.2-.14-.37-.33-.52-.57-.15-.24-.26-.53-.35-.87-.08-.34-.13-.76-.13-1.24s.04-.93.11-1.32c.08-.39.19-.72.33-1s.31-.51.51-.7c.2-.18.42-.32.67-.41s.51-.14.79-.14c.3,0,.57.04.81.13.24.08.44.2.61.33.17.14.3.29.39.46.09.17.15.34.16.52ZM6.42,47.5c0,.3.06.56.19.77.12.21.29.37.5.49s.43.17.67.17.48-.05.68-.15.37-.26.49-.47c.12-.21.18-.48.18-.8s-.07-.57-.2-.77c-.13-.2-.3-.35-.5-.45-.2-.1-.42-.15-.65-.15-.26,0-.5.06-.7.17-.21.12-.37.28-.48.48-.12.2-.18.44-.18.7Z"/><path d="M3.11,28.75h-.85v-5.46h-.04c-.17.12-.33.24-.49.35-.16.12-.33.24-.49.36s-.33.24-.49.36v-.87c.25-.19.51-.38.76-.57s.51-.37.76-.56h.85v6.38Z"/><path d="M7.67,28.88c-.44,0-.83-.08-1.17-.24s-.61-.38-.8-.66-.29-.61-.29-.98c0-.25.04-.47.12-.66.08-.19.19-.35.32-.47.13-.13.27-.23.42-.31.15-.08.29-.13.43-.16v-.04c-.15-.05-.3-.13-.46-.25-.16-.12-.3-.27-.41-.46-.11-.19-.17-.43-.17-.71,0-.33.09-.62.26-.88.17-.26.41-.46.72-.6s.65-.22,1.04-.22.74.07,1.04.22c.3.15.54.35.72.6.17.26.26.55.26.88,0,.28-.06.52-.17.72-.12.19-.25.35-.42.46-.16.11-.31.19-.46.24v.04c.13.03.28.09.43.16.15.08.29.18.42.31.13.13.24.29.32.47s.12.4.12.65c0,.37-.1.7-.29.98-.2.28-.47.5-.81.66s-.74.24-1.18.24ZM7.7,28.18c.27,0,.51-.05.73-.15.22-.1.39-.24.51-.42.12-.18.19-.39.19-.63s-.06-.45-.19-.63c-.12-.18-.29-.32-.51-.43-.21-.1-.46-.15-.73-.15s-.52.05-.73.15c-.22.1-.39.24-.51.43-.13.18-.19.39-.19.63s.06.45.19.63.3.32.51.42c.22.1.46.15.73.15ZM7.7,25.08c.23,0,.44-.05.61-.14.18-.09.32-.22.42-.38s.15-.34.15-.55-.05-.4-.15-.55-.24-.28-.42-.37c-.18-.09-.38-.13-.61-.13s-.44.04-.62.13-.32.21-.43.37c-.1.16-.15.34-.15.55s.05.39.15.55c.1.16.25.29.43.38s.39.14.62.14Z"/><path d="M1.51,3.37h-.84v-.03c0-.24.04-.48.13-.7s.22-.42.39-.6c.17-.18.38-.32.64-.42.25-.1.54-.15.87-.15.41,0,.76.08,1.06.23s.53.36.69.62c.16.26.25.56.25.9,0,.26-.05.51-.15.73-.1.22-.23.43-.39.64-.16.21-.34.42-.54.65l-1.7,1.95v.05h2.9v.75H.7v-.54l2.4-2.73c.12-.13.23-.27.34-.42.11-.14.2-.3.28-.46s.11-.35.11-.54c0-.22-.05-.41-.15-.57-.1-.16-.24-.29-.41-.37s-.37-.13-.59-.13c-.25,0-.46.05-.63.16-.18.11-.31.25-.4.42s-.14.36-.14.56v.03Z"/><path d="M6.47,4.91v-.24c0-.64.09-1.2.27-1.68.18-.48.44-.86.78-1.12.34-.27.75-.4,1.24-.4s.89.13,1.23.4c.34.27.6.64.77,1.12.18.48.27,1.04.27,1.69v.24c0,.48-.05.92-.15,1.31s-.25.73-.44,1.01c-.19.28-.43.5-.72.65-.28.15-.61.22-.97.22-.48,0-.89-.13-1.23-.4-.34-.26-.6-.64-.78-1.11-.18-.48-.27-1.04-.27-1.69ZM7.32,4.68v.22c0,.51.06.95.17,1.32.12.37.28.65.5.85.21.2.46.3.75.3s.55-.1.76-.3.38-.48.49-.85c.12-.37.17-.81.17-1.32v-.22c0-.51-.06-.95-.17-1.32s-.28-.65-.49-.85c-.21-.2-.47-.3-.76-.3s-.54.1-.75.3c-.21.2-.38.48-.5.85-.12.37-.17.81-.17,1.32Z"/><path d="M9.41,243.46l-.65.55-3.51-4.18-.03.03c-.05.2-.1.39-.15.59-.05.2-.1.39-.15.59-.05.2-.1.39-.15.59l-.56-.66c.07-.31.14-.62.22-.92.08-.31.15-.61.22-.92l.65-.55,4.1,4.89Z"/><path d="M10.51,240.93l.66-.56c.08.06.19.1.32.11.13.02.27,0,.42-.05.15-.05.31-.14.47-.28.22-.19.37-.4.44-.64.07-.24.08-.49.02-.75-.06-.26-.17-.53-.33-.8-.16-.27-.36-.54-.6-.81l-.04.03c.06.18.09.37.08.57,0,.21-.06.41-.17.62-.1.2-.27.4-.49.59-.29.24-.6.4-.95.47-.35.07-.69.04-1.04-.09-.35-.13-.66-.37-.95-.71-.29-.35-.46-.71-.52-1.08-.06-.37-.01-.73.13-1.08.15-.35.38-.65.7-.92.21-.18.46-.32.72-.42.27-.1.56-.13.88-.1.32.04.66.17,1.03.4.37.23.75.59,1.17,1.09.49.58.83,1.13,1.03,1.63.2.5.24.97.13,1.4-.11.43-.37.82-.79,1.17-.23.19-.45.33-.67.42-.22.09-.44.14-.64.14-.2,0-.39-.02-.57-.09-.18-.06-.33-.16-.46-.28ZM11.09,236.4c-.2-.24-.42-.41-.65-.5-.23-.09-.46-.11-.69-.07s-.44.15-.64.31c-.18.15-.31.34-.39.55-.08.22-.1.45-.05.69.05.24.17.48.36.71.2.24.42.4.65.48.23.08.45.09.67.04.22-.05.42-.16.6-.31.17-.15.31-.32.4-.53.09-.21.12-.43.09-.67-.04-.24-.15-.47-.35-.71Z"/><path d="M16.92,237.33c-.34.28-.69.47-1.05.57-.36.1-.71.1-1.03,0s-.61-.28-.85-.56c-.16-.19-.27-.39-.33-.58-.06-.2-.08-.39-.06-.57.02-.18.06-.35.12-.51.06-.16.14-.29.22-.4l-.03-.03c-.14.05-.32.09-.51.11-.2.01-.4-.02-.61-.09-.21-.08-.4-.22-.58-.43-.21-.25-.33-.53-.36-.84-.03-.31.02-.62.16-.92.14-.31.36-.59.66-.84.3-.25.62-.42.94-.5.33-.08.64-.08.94,0,.3.08.55.25.76.51.18.22.29.44.33.66.04.22.03.43-.02.62-.05.19-.12.35-.2.48l.03.03c.12-.06.27-.11.43-.15.16-.04.34-.05.53-.03.19.02.37.07.55.16.18.09.35.23.51.42.24.29.37.6.4.94.03.34-.04.68-.2,1.03-.16.34-.41.66-.75.94ZM14.49,234.4c.18-.15.3-.32.38-.5.08-.19.1-.37.08-.56-.03-.19-.11-.36-.24-.52-.14-.16-.29-.27-.47-.33-.18-.05-.37-.06-.56-.01s-.38.15-.55.29-.31.31-.39.5-.11.37-.09.55.1.36.24.52c.13.16.29.27.47.33.18.06.37.06.57.02s.38-.14.56-.29ZM16.48,236.78c.21-.17.36-.37.46-.58.1-.22.14-.43.12-.65-.02-.22-.11-.42-.26-.6-.15-.18-.34-.3-.55-.36-.21-.06-.43-.06-.66,0-.23.06-.45.18-.66.35-.21.17-.36.37-.46.59-.1.22-.14.44-.12.66.02.22.11.42.26.61.15.18.33.3.55.36s.43.05.67,0c.23-.06.45-.18.66-.35Z"/><path d="M17.91,232.33l-.15-.18c-.41-.49-.7-.98-.88-1.46s-.21-.94-.12-1.36c.09-.42.32-.79.69-1.1.37-.31.77-.47,1.2-.49.43-.01.87.11,1.31.36.44.25.87.63,1.29,1.12l.15.18c.31.37.55.74.73,1.1.17.37.28.72.31,1.06.03.34-.01.66-.13.96-.12.3-.32.56-.6.79-.37.31-.77.47-1.2.49-.43.02-.87-.1-1.31-.35-.45-.25-.88-.62-1.29-1.12ZM18.42,231.6l.14.17c.33.39.66.69.98.9.33.21.63.32.92.33.29.02.55-.07.77-.26.23-.19.36-.43.39-.72.04-.29-.02-.61-.17-.96-.15-.36-.39-.73-.71-1.12l-.14-.17c-.33-.39-.66-.69-.98-.9-.33-.21-.63-.32-.92-.34-.29-.01-.55.07-.78.26-.22.19-.35.42-.39.71-.04.29.02.61.17.97.15.36.39.73.71,1.12Z"/><path d="M39.21,243.46l-.65.55-3.51-4.18-.03.03c-.05.2-.1.39-.15.59-.05.2-.1.39-.15.59-.05.2-.1.39-.15.59l-.56-.66c.07-.31.14-.62.22-.92.07-.31.15-.61.22-.92l.65-.55,4.1,4.89Z"/><path d="M40.32,240.93l.66-.56c.08.06.19.1.32.11.13.02.27,0,.42-.05.15-.05.31-.14.47-.28.22-.19.37-.4.44-.64.07-.24.08-.49.02-.75-.06-.26-.17-.53-.33-.8-.16-.27-.36-.54-.6-.81l-.04.03c.06.18.09.37.08.57,0,.21-.06.41-.17.62-.1.21-.27.4-.49.59-.29.24-.61.4-.95.47-.35.07-.69.04-1.04-.09-.35-.13-.66-.37-.95-.71-.29-.35-.46-.71-.52-1.08s-.01-.73.14-1.08c.15-.35.38-.65.7-.92.21-.18.46-.32.72-.42.27-.1.56-.13.88-.1.32.04.66.17,1.03.41.37.23.75.59,1.17,1.09.49.58.83,1.13,1.03,1.63.2.5.24.97.13,1.4-.11.43-.37.82-.79,1.17-.23.19-.45.33-.67.42-.22.09-.44.14-.64.15-.2,0-.39-.03-.57-.09-.17-.07-.33-.16-.46-.28ZM40.9,236.4c-.2-.24-.42-.41-.65-.5-.23-.09-.46-.11-.69-.07-.23.04-.44.15-.64.31-.18.15-.31.34-.39.55-.08.22-.1.44-.05.69.05.24.17.48.36.71.2.24.42.4.65.48.23.08.45.09.67.04.22-.05.42-.16.6-.31.17-.15.31-.32.4-.53.09-.21.12-.43.08-.67s-.15-.47-.35-.71Z"/><path d="M46.73,237.33c-.34.28-.69.47-1.05.57-.36.1-.71.1-1.03,0-.33-.09-.61-.28-.85-.56-.16-.19-.27-.39-.33-.58-.06-.2-.08-.39-.06-.57.02-.18.06-.35.12-.51.07-.16.14-.29.22-.4l-.03-.03c-.14.06-.32.09-.52.11-.2.01-.4-.02-.61-.09-.21-.08-.4-.22-.58-.43-.21-.25-.33-.53-.36-.84-.03-.31.02-.62.16-.92.14-.31.36-.59.66-.84s.61-.42.94-.5c.33-.08.64-.08.94,0,.3.08.55.25.76.5.18.22.29.44.33.66.04.22.03.43-.02.62-.05.19-.12.35-.2.48l.03.03c.12-.06.27-.11.43-.15.16-.04.34-.05.52-.03.19.01.37.07.55.16.18.09.35.23.51.42.24.28.37.6.4.94.03.34-.04.68-.2,1.03-.16.34-.41.66-.75.94ZM44.3,234.4c.18-.15.3-.32.38-.5s.1-.37.08-.56c-.03-.19-.11-.36-.24-.52-.14-.16-.29-.27-.47-.33-.18-.06-.37-.06-.56-.01-.19.05-.38.15-.55.29-.18.15-.31.31-.39.5-.08.18-.11.37-.09.55.02.19.1.36.24.52.13.16.29.27.47.33.18.06.37.06.57.02s.38-.14.56-.29ZM46.29,236.78c.21-.17.36-.37.46-.58.1-.22.14-.43.12-.65-.02-.22-.11-.42-.26-.6-.15-.18-.34-.31-.55-.36-.21-.06-.43-.06-.66,0-.23.06-.45.18-.66.35-.21.17-.36.37-.46.59-.1.22-.14.44-.12.66.02.22.11.42.26.61.15.18.34.3.55.36.21.06.44.05.67,0,.23-.06.45-.18.66-.35Z"/><path d="M48.84,231.57l-.47-.56.5-.42c.17-.14.29-.31.37-.49.07-.18.1-.37.07-.56s-.11-.37-.25-.52c-.2-.24-.44-.36-.73-.37-.29-.01-.56.1-.83.32-.13.11-.23.23-.31.35-.07.12-.12.25-.15.38-.03.13-.03.25,0,.37.02.12.07.23.14.32l-.63.53c-.13-.16-.22-.34-.28-.55s-.07-.42-.04-.64c.03-.22.11-.45.24-.67.13-.22.31-.44.56-.65.31-.26.62-.44.94-.52.32-.08.62-.08.91,0,.29.08.53.24.74.47.2.22.32.46.36.71.04.25.03.48-.03.7-.06.22-.14.39-.25.51l.03.04c.15-.1.34-.18.58-.23.24-.05.48-.04.75.02.26.07.5.23.73.49.18.21.31.44.37.69.07.25.08.51.03.77-.04.26-.15.52-.3.77-.15.25-.36.48-.61.69-.33.27-.65.45-.98.54-.33.09-.64.09-.93.02-.29-.08-.54-.23-.75-.45l.62-.52c.12.12.28.19.45.22.18.03.36.01.56-.05.2-.06.39-.17.58-.33.21-.18.37-.38.46-.59.09-.21.12-.42.1-.63-.03-.21-.12-.4-.27-.57-.15-.17-.32-.29-.52-.35s-.4-.06-.62,0-.42.17-.62.33l-.53.45Z"/><path d="M69.02,243.46l-.65.55-3.51-4.18-.03.03c-.05.2-.1.39-.15.59-.05.2-.1.39-.15.59-.05.2-.1.39-.14.59l-.56-.66c.07-.31.14-.62.22-.92.07-.31.15-.61.22-.92l.65-.55,4.1,4.89Z"/><path d="M70.13,240.93l.66-.56c.09.06.19.1.32.11.13.02.27,0,.42-.05.15-.05.31-.14.47-.28.22-.19.37-.4.44-.64.07-.24.08-.49.02-.75-.06-.26-.17-.53-.33-.8-.16-.27-.36-.54-.6-.81l-.04.03c.06.18.09.37.08.57s-.06.41-.17.62c-.1.2-.27.4-.49.59-.29.24-.61.4-.95.47-.34.07-.69.04-1.04-.09-.35-.13-.66-.37-.95-.71-.29-.35-.46-.71-.52-1.08-.06-.37,0-.73.13-1.08.15-.35.38-.65.7-.92.21-.18.46-.32.72-.42.27-.1.56-.13.88-.1.32.04.66.17,1.03.41.37.23.75.59,1.17,1.09.49.58.83,1.13,1.03,1.63.2.5.24.97.13,1.4-.11.43-.37.82-.79,1.17-.23.19-.45.33-.67.42-.22.09-.44.14-.64.15-.2,0-.39-.02-.57-.09-.17-.07-.33-.16-.46-.28ZM70.71,236.4c-.2-.24-.42-.41-.65-.5s-.46-.11-.69-.07c-.23.04-.44.15-.64.31-.18.15-.31.34-.39.55-.08.22-.1.45-.05.69.04.24.17.48.36.71.2.24.42.4.65.48.23.08.46.09.68.04.22-.05.42-.16.6-.31.17-.15.31-.32.4-.53.09-.21.12-.43.08-.67-.03-.24-.15-.47-.35-.71Z"/><path d="M76.53,237.33c-.34.28-.69.47-1.05.57-.36.1-.71.1-1.03,0-.33-.09-.61-.28-.85-.56-.16-.19-.27-.39-.33-.58-.06-.2-.08-.39-.06-.57.02-.18.06-.35.12-.51.07-.16.14-.29.22-.4l-.03-.03c-.14.06-.32.09-.52.11-.2.01-.4-.02-.61-.09s-.4-.22-.58-.43c-.21-.25-.33-.53-.36-.84s.02-.62.16-.92c.14-.31.36-.59.66-.84s.61-.42.94-.5c.33-.08.64-.08.94,0s.55.25.76.51c.18.22.29.44.33.66.04.22.03.43-.02.62-.05.19-.12.35-.2.48l.03.03c.12-.06.27-.11.43-.15.16-.04.34-.05.52-.03.19.01.37.07.55.16.18.09.35.23.51.42.24.28.37.6.4.94.03.34-.04.68-.2,1.03-.16.34-.42.66-.75.94ZM74.11,234.4c.18-.15.3-.32.38-.5s.1-.37.08-.56c-.03-.19-.11-.36-.24-.52-.14-.16-.29-.27-.47-.33s-.37-.06-.56-.01c-.19.05-.38.15-.55.29-.18.15-.31.31-.39.5-.08.18-.11.37-.09.55.02.19.1.36.24.52.13.16.29.27.47.32.18.06.37.06.57.02s.38-.14.56-.29ZM76.1,236.78c.21-.17.36-.37.46-.58s.14-.43.12-.65c-.02-.22-.11-.42-.26-.6-.15-.18-.34-.31-.55-.37s-.43-.06-.66,0c-.23.06-.45.18-.65.35-.21.17-.36.37-.46.58-.1.22-.14.44-.12.66s.11.42.26.61c.15.18.33.3.55.36.21.06.43.05.67,0,.23-.06.45-.18.66-.35Z"/><path d="M79.6,227.99l-.66.55c-.08-.06-.19-.11-.33-.13s-.29-.02-.46.02c-.17.04-.35.14-.53.29-.14.11-.24.25-.32.4s-.12.32-.13.51c0,.19.02.39.08.61.06.22.16.45.31.7.14.25.33.51.56.78l.04-.03c-.05-.15-.07-.33-.06-.53,0-.2.07-.41.17-.62.11-.22.28-.42.51-.62.26-.21.55-.36.88-.44.33-.08.67-.06,1.02.04.34.11.66.33.94.67.3.36.48.72.55,1.1.06.38.02.74-.12,1.08s-.38.65-.7.92c-.18.15-.37.27-.58.37s-.44.16-.68.18-.5-.02-.77-.1c-.26-.09-.54-.24-.83-.45-.29-.21-.58-.5-.89-.87-.32-.38-.57-.74-.76-1.08-.19-.34-.32-.67-.39-.98-.07-.31-.09-.59-.06-.86.03-.27.12-.51.25-.74.13-.23.3-.43.52-.61.23-.19.46-.33.7-.42.24-.09.46-.13.68-.13.22,0,.42.03.6.1.18.07.33.17.46.3ZM78.93,232.5c.19.23.41.39.64.47.23.08.46.1.69.05.23-.05.44-.15.62-.3.19-.16.33-.34.42-.55.09-.21.12-.43.07-.67-.04-.24-.17-.48-.37-.73-.2-.24-.42-.39-.65-.46-.23-.07-.46-.08-.67-.02-.22.05-.42.16-.59.3-.2.17-.34.36-.42.58-.08.22-.1.45-.06.68.04.23.15.45.32.65Z"/><path d="M98.83,243.46l-.65.55-3.51-4.18-.03.03c-.05.2-.1.39-.15.59-.05.2-.1.39-.15.59-.05.2-.1.39-.15.59l-.56-.66c.07-.31.14-.62.22-.92.08-.31.15-.61.22-.92l.65-.55,4.1,4.89Z"/><path d="M99.94,240.93l.66-.56c.09.06.19.1.32.11.13.02.27,0,.42-.05.15-.05.31-.14.47-.28.22-.19.37-.4.44-.64s.08-.48.02-.75c-.06-.26-.17-.53-.33-.8-.16-.27-.36-.54-.6-.81l-.04.03c.06.18.09.37.08.57,0,.21-.06.41-.17.62-.1.21-.27.4-.49.59-.29.24-.61.4-.95.47s-.69.04-1.04-.09c-.35-.13-.66-.37-.95-.71-.29-.35-.46-.71-.52-1.08-.06-.37-.01-.73.13-1.08.15-.35.38-.65.7-.92.21-.18.46-.32.72-.42.27-.1.56-.13.88-.1.32.04.66.17,1.03.41.37.23.75.59,1.17,1.09.49.58.83,1.13,1.03,1.63.2.5.24.97.13,1.4-.11.43-.37.82-.79,1.17-.23.19-.45.33-.67.42-.22.09-.43.14-.64.15-.2,0-.39-.02-.57-.09-.17-.06-.33-.16-.46-.28ZM100.52,236.4c-.2-.24-.42-.41-.65-.5s-.46-.11-.69-.07c-.23.04-.44.15-.64.31-.18.15-.31.34-.39.55-.08.22-.1.44-.05.69s.17.48.36.71c.2.24.42.4.65.48.23.08.45.09.67.04.22-.05.42-.16.61-.31.17-.15.31-.32.4-.53.09-.21.12-.43.08-.67-.04-.24-.15-.47-.35-.71Z"/><path d="M106.34,237.33c-.34.28-.69.47-1.05.57-.36.1-.71.1-1.03,0-.33-.09-.61-.28-.85-.56-.16-.19-.27-.39-.33-.58-.06-.2-.08-.39-.06-.57.02-.18.06-.35.12-.51s.14-.29.22-.4l-.03-.03c-.14.06-.32.09-.51.11-.2.01-.4-.02-.61-.09-.21-.08-.4-.22-.58-.43-.21-.25-.33-.53-.36-.84-.03-.31.02-.62.16-.92.14-.31.36-.59.66-.84s.62-.42.94-.5c.33-.08.64-.08.94,0,.3.08.55.25.76.5.18.22.29.44.33.66.04.22.03.43-.02.62-.05.19-.12.35-.2.48l.03.03c.12-.06.27-.11.43-.15.16-.04.34-.05.52-.03.19.01.37.07.55.16.18.09.35.23.51.42.24.28.37.6.4.94.03.34-.04.68-.2,1.03-.16.34-.41.66-.75.94ZM103.92,234.4c.18-.15.3-.32.38-.5.08-.19.1-.37.08-.56-.03-.19-.11-.36-.24-.52-.14-.16-.29-.27-.47-.33-.18-.06-.37-.06-.56-.01-.19.05-.38.15-.56.3-.18.15-.31.31-.39.5-.08.18-.11.37-.09.55.02.19.1.36.24.52.13.16.29.27.47.32.18.06.37.06.57.02.2-.05.38-.14.56-.29ZM105.91,236.78c.21-.17.36-.37.46-.58.1-.22.14-.43.12-.65-.02-.22-.11-.42-.26-.6-.15-.18-.34-.31-.55-.37s-.43-.06-.66,0c-.23.06-.45.18-.66.35-.21.17-.36.37-.46.59-.1.22-.14.44-.12.66s.11.42.26.61c.15.18.33.3.55.36.21.06.44.05.67,0,.23-.06.45-.18.66-.35Z"/><path d="M108.61,233.65l.66-.56c.09.06.19.09.32.11.13.02.27,0,.42-.05.15-.05.31-.14.47-.28.22-.19.37-.4.44-.64.07-.24.08-.48.02-.75-.06-.26-.17-.53-.33-.8-.16-.27-.36-.54-.6-.81l-.04.03c.06.18.09.37.08.57,0,.21-.06.41-.17.62-.1.21-.27.4-.49.59-.29.24-.61.4-.95.47-.35.07-.69.04-1.04-.09-.35-.13-.66-.37-.95-.71-.29-.35-.46-.71-.52-1.08-.06-.37-.01-.73.13-1.08.15-.35.38-.66.7-.92.21-.18.46-.32.72-.42.27-.1.56-.13.88-.1s.66.17,1.03.4c.37.23.75.59,1.17,1.09.49.58.83,1.13,1.03,1.63s.24.97.13,1.4c-.11.43-.37.82-.79,1.17-.23.19-.45.33-.67.42-.22.09-.43.14-.64.15s-.39-.02-.57-.09-.33-.16-.46-.28ZM109.19,229.12c-.2-.24-.42-.41-.65-.49-.23-.09-.46-.11-.69-.07s-.44.15-.64.31c-.18.15-.31.34-.39.55-.08.22-.1.44-.05.68.05.24.17.48.36.71.2.24.42.4.65.48.23.08.45.09.67.04.22-.05.42-.16.61-.31.17-.15.31-.32.4-.53.09-.21.12-.43.09-.67-.04-.24-.15-.47-.35-.71Z"/><path d="M128.64,243.46l-.65.55-3.51-4.18-.03.03c-.05.2-.1.39-.15.59-.05.2-.1.39-.15.59s-.1.39-.15.59l-.56-.66c.07-.31.14-.62.22-.92.07-.31.15-.61.22-.92l.65-.55,4.1,4.89Z"/><path d="M129.75,240.93l.66-.56c.08.06.19.1.32.11.13.02.27,0,.42-.05.15-.05.31-.14.47-.28.22-.19.37-.4.44-.64.07-.24.08-.49.02-.75-.06-.26-.17-.53-.33-.8-.16-.27-.36-.54-.6-.81l-.04.03c.06.18.09.37.08.57,0,.21-.06.41-.17.62-.1.2-.27.4-.49.59-.29.24-.61.4-.95.47-.35.07-.69.04-1.04-.09-.35-.13-.66-.36-.95-.71-.29-.35-.46-.71-.52-1.08-.06-.37-.01-.73.13-1.08.15-.35.38-.65.7-.92.22-.18.46-.32.72-.42.27-.1.56-.13.88-.1.32.04.66.17,1.03.41.37.23.75.59,1.17,1.09.49.58.83,1.13,1.03,1.63s.24.97.13,1.4c-.11.43-.37.82-.79,1.17-.23.19-.45.33-.67.42-.22.09-.43.14-.64.14-.2,0-.39-.02-.57-.09-.17-.07-.33-.16-.46-.28ZM130.32,236.4c-.2-.24-.42-.41-.65-.5-.23-.09-.46-.11-.69-.07s-.44.15-.64.31c-.18.15-.31.34-.39.55-.08.22-.1.45-.05.69.05.24.17.48.36.71.2.24.42.4.65.48.23.08.45.09.67.04.22-.05.42-.16.61-.31.17-.15.31-.32.4-.53.09-.21.12-.43.09-.67s-.15-.47-.35-.71Z"/><path d="M133.68,237.63l.66-.56c.08.06.19.1.32.11.13.02.27,0,.42-.05.15-.05.31-.14.47-.28.22-.19.37-.4.44-.64.07-.24.08-.49.02-.75-.06-.26-.17-.53-.33-.8-.16-.27-.36-.54-.6-.81l-.04.03c.06.18.09.37.08.57,0,.21-.06.41-.17.62-.11.2-.27.4-.49.59-.29.24-.6.4-.95.47-.35.07-.69.04-1.04-.09-.35-.13-.66-.36-.95-.71-.29-.35-.46-.71-.52-1.08-.06-.37-.01-.73.13-1.08.15-.35.38-.65.7-.92.21-.18.46-.32.72-.42.27-.1.56-.13.88-.1.32.04.66.17,1.03.41.37.23.75.59,1.17,1.09.49.58.83,1.13,1.03,1.63s.24.97.13,1.4c-.11.43-.37.82-.79,1.17-.23.19-.45.33-.67.42-.22.09-.44.14-.64.14-.2,0-.39-.02-.57-.09-.17-.06-.33-.16-.46-.28ZM134.26,233.1c-.2-.24-.42-.41-.65-.5-.23-.09-.46-.11-.69-.07-.23.04-.44.15-.64.31-.18.15-.31.34-.39.55-.08.22-.1.45-.05.69.05.24.17.48.36.71.2.24.42.4.65.48.23.08.45.09.67.04.22-.05.42-.16.6-.31.17-.15.31-.32.4-.53.09-.21.12-.43.09-.67s-.15-.47-.35-.71Z"/><path d="M136.83,230.58l-.64.54-.02-.03c-.16-.19-.27-.39-.35-.62-.08-.23-.11-.46-.09-.71s.09-.49.22-.73.32-.47.57-.68c.31-.26.63-.43.96-.5s.64-.07.93.03c.3.1.55.27.77.53.17.2.29.42.35.65.07.23.1.48.11.74,0,.26,0,.55,0,.85l-.05,2.58.03.04,2.22-1.87.48.57-3.16,2.65-.35-.42.08-3.64c0-.18,0-.36,0-.54,0-.18-.04-.36-.09-.54-.05-.17-.14-.33-.26-.49-.14-.17-.3-.28-.48-.34-.18-.06-.37-.07-.55-.02-.19.04-.37.14-.53.28-.19.16-.32.33-.38.53-.07.19-.08.39-.04.58.04.19.13.37.26.52,0,0,0,0,.01.01,0,0,0,0,0,.01Z"/><path d="M158.45,243.46l-.65.55-3.51-4.18-.03.03c-.05.2-.1.39-.15.59-.05.2-.1.39-.15.59-.05.2-.1.39-.15.59l-.56-.66c.07-.31.14-.62.22-.92s.15-.61.22-.92l.65-.55,4.1,4.89Z"/><path d="M159.55,240.93l.66-.56c.08.06.19.1.32.11.13.02.27,0,.42-.05.15-.05.31-.14.47-.28.22-.19.37-.4.44-.64.07-.24.08-.49.02-.75-.06-.26-.17-.53-.33-.8-.16-.27-.36-.54-.6-.81l-.04.03c.06.18.09.37.08.57,0,.21-.06.41-.17.62-.1.2-.27.4-.49.59-.29.24-.61.4-.95.47-.34.07-.69.04-1.04-.09-.35-.13-.66-.37-.95-.71-.29-.35-.46-.71-.52-1.08-.06-.37-.01-.73.13-1.08.15-.35.38-.65.7-.92.21-.18.46-.32.72-.42.27-.1.56-.13.88-.1.32.04.66.17,1.03.4.37.23.75.59,1.17,1.09.49.58.83,1.13,1.03,1.63.2.5.24.97.13,1.4-.11.43-.37.82-.79,1.17-.23.19-.45.33-.67.42-.22.09-.43.14-.64.14-.2,0-.39-.02-.57-.09-.17-.07-.33-.16-.46-.28ZM160.13,236.4c-.2-.24-.42-.41-.65-.5-.23-.09-.46-.11-.69-.07-.23.04-.44.15-.64.31-.18.15-.31.34-.39.55-.08.22-.1.45-.05.69.04.24.17.48.36.71.2.24.42.4.65.48.23.08.45.09.68.04s.42-.16.6-.31c.17-.15.31-.32.4-.53.09-.21.12-.43.08-.67-.03-.24-.15-.47-.35-.71Z"/><path d="M163.49,237.63l.66-.56c.08.06.19.1.32.11.13.02.27,0,.42-.05.15-.05.31-.14.47-.28.22-.19.37-.4.44-.64.07-.24.08-.49.02-.75s-.17-.53-.33-.8c-.16-.27-.36-.54-.6-.81l-.04.03c.06.18.09.37.08.57,0,.21-.06.41-.17.62-.1.2-.27.4-.49.59-.29.24-.61.4-.95.47-.35.07-.69.04-1.04-.09-.35-.13-.66-.37-.95-.71-.29-.35-.46-.71-.52-1.08-.06-.37-.01-.73.13-1.08.15-.35.38-.65.7-.92.21-.18.46-.32.72-.42s.56-.13.88-.1.66.17,1.03.4c.37.23.75.59,1.17,1.09.49.58.83,1.13,1.03,1.63.19.5.24.97.13,1.4-.11.43-.37.82-.79,1.17-.23.19-.45.33-.67.42-.22.09-.44.14-.64.14-.2,0-.39-.02-.57-.09-.17-.06-.33-.16-.46-.28ZM164.07,233.1c-.2-.24-.42-.41-.65-.5-.23-.09-.46-.11-.69-.07-.23.04-.44.15-.64.31-.18.15-.31.34-.39.55-.08.22-.1.45-.05.69.04.24.17.48.36.71.2.24.42.4.65.48s.45.09.67.04c.22-.05.42-.16.6-.31.17-.15.31-.32.4-.53.09-.21.12-.43.08-.67-.03-.24-.15-.47-.35-.71Z"/><path d="M168.02,233.49l.63-.53c.13.1.26.17.39.2s.27.04.41.01c.14-.02.27-.07.4-.13.13-.07.25-.15.36-.24.17-.14.29-.32.38-.54.09-.22.11-.45.07-.71-.04-.25-.16-.5-.36-.74-.18-.22-.39-.36-.61-.43-.23-.07-.45-.09-.68-.04-.23.05-.44.15-.62.3-.17.14-.29.29-.37.46s-.13.32-.15.48c-.02.15-.01.29,0,.41l-.56.47-2.14-2.99,2.76-2.32.48.57-2.2,1.85,1.18,1.68.04-.03c0-.08,0-.19.03-.33.03-.14.09-.29.19-.45.09-.16.23-.32.41-.47.28-.24.6-.39.94-.47.34-.07.68-.05,1.02.06.34.12.65.34.92.67.28.33.45.69.52,1.07s.03.75-.11,1.11c-.14.36-.38.69-.72.97-.22.19-.46.33-.7.43-.24.1-.48.15-.71.16-.24,0-.46-.03-.67-.11-.21-.08-.39-.21-.55-.37Z"/><path d="M188.26,243.46l-.65.55-3.51-4.18-.03.03c-.05.2-.1.39-.15.59-.05.2-.1.39-.15.59-.05.2-.1.39-.15.59l-.56-.66c.07-.31.14-.62.22-.92.08-.31.15-.61.22-.92l.65-.55,4.1,4.89Z"/><path d="M189.36,240.93l.66-.56c.08.06.19.1.32.11.13.02.27,0,.42-.05.15-.05.31-.14.47-.28.22-.19.37-.4.44-.64.07-.24.08-.49.02-.75s-.17-.53-.33-.8c-.16-.27-.36-.54-.6-.81l-.04.03c.06.18.09.37.08.57,0,.21-.07.41-.17.62-.1.2-.27.4-.49.59-.29.24-.61.4-.95.47-.35.07-.69.04-1.04-.09-.35-.13-.66-.37-.95-.71-.29-.35-.46-.71-.52-1.08-.06-.37-.01-.73.14-1.08s.38-.65.7-.92c.21-.18.46-.32.72-.42.27-.1.56-.13.88-.1.32.04.66.17,1.03.4.37.23.75.59,1.17,1.09.49.58.83,1.13,1.03,1.63.2.5.24.97.13,1.4-.11.43-.37.82-.79,1.17-.23.19-.45.33-.67.42-.22.09-.43.14-.64.14-.2,0-.39-.02-.57-.09-.17-.06-.33-.16-.46-.28ZM189.94,236.4c-.2-.24-.42-.41-.65-.5-.23-.09-.46-.11-.69-.07-.23.04-.44.15-.64.32-.18.15-.31.34-.39.55-.08.22-.1.45-.05.69.05.24.17.48.36.71.2.24.42.4.65.48.23.08.46.09.68.04.22-.05.42-.16.6-.31.17-.15.31-.32.4-.53.09-.21.12-.43.09-.67-.04-.24-.15-.47-.35-.71Z"/><path d="M193.3,237.63l.66-.56c.09.06.19.1.32.11.13.02.27,0,.42-.05.15-.05.31-.14.47-.28.22-.19.37-.4.44-.64.07-.24.08-.48.02-.75-.06-.26-.17-.53-.33-.8-.16-.27-.36-.54-.6-.81l-.04.03c.06.18.09.37.08.57,0,.21-.06.41-.17.62s-.27.4-.49.59c-.29.24-.6.4-.95.47-.35.07-.69.04-1.04-.09-.35-.13-.66-.37-.95-.71-.29-.35-.46-.71-.52-1.08-.06-.37-.01-.73.14-1.08s.38-.65.7-.92c.21-.18.46-.32.72-.42.27-.1.56-.13.88-.1s.66.17,1.03.4c.37.23.76.59,1.17,1.09.49.58.83,1.13,1.03,1.64.2.5.24.97.13,1.4-.11.43-.37.82-.79,1.17-.23.19-.45.33-.67.42-.22.09-.43.14-.64.14-.2,0-.39-.02-.57-.09-.17-.06-.33-.16-.46-.28ZM193.88,233.1c-.2-.24-.42-.41-.65-.5-.23-.09-.46-.11-.69-.07-.23.04-.44.15-.64.32-.18.15-.31.34-.39.55-.08.22-.1.45-.05.69.05.24.17.48.36.71.2.24.42.4.65.48s.45.09.68.04c.22-.05.42-.16.6-.31.17-.15.31-.32.4-.53.09-.21.12-.43.09-.67-.04-.24-.15-.47-.35-.71Z"/><path d="M200.51,233.35c-.34.28-.69.47-1.05.57s-.71.1-1.03,0c-.33-.09-.61-.28-.85-.56-.16-.19-.27-.39-.33-.58-.06-.2-.08-.39-.06-.57.02-.18.06-.35.12-.51.06-.16.14-.29.22-.4l-.03-.03c-.14.06-.32.09-.51.11-.2.01-.4-.02-.61-.09-.21-.08-.4-.22-.58-.43-.21-.25-.33-.53-.37-.84-.03-.31.02-.61.16-.92s.36-.59.66-.84c.3-.25.61-.42.94-.5s.64-.08.94,0c.3.08.55.25.77.5.18.22.29.44.33.66.04.22.03.43-.02.62-.05.19-.12.35-.2.48l.03.03c.12-.06.27-.11.43-.15.16-.04.34-.05.52-.03.19.02.37.07.55.16.18.09.35.23.51.42.24.29.37.6.4.94.03.34-.04.69-.2,1.03s-.41.66-.75.94ZM198.08,230.42c.18-.15.3-.32.38-.5.08-.19.1-.37.08-.56-.03-.19-.1-.36-.24-.52-.14-.16-.29-.27-.47-.33-.18-.05-.37-.06-.56-.01-.19.05-.38.15-.55.29-.18.15-.31.32-.39.5-.08.18-.11.37-.09.55.02.19.1.36.24.52.13.16.29.27.47.33.18.06.37.06.57.02.2-.05.38-.14.56-.29ZM200.07,232.8c.21-.17.36-.37.46-.58.1-.22.14-.43.12-.65-.02-.22-.11-.42-.26-.6-.15-.18-.34-.31-.55-.36-.21-.06-.43-.06-.66,0-.23.06-.45.18-.66.35-.21.17-.36.37-.46.59s-.14.44-.12.66c.02.22.11.42.26.61.15.18.34.3.55.36s.43.06.67,0c.23-.06.45-.18.66-.35Z"/><path d="M213.88,240.96l-.64.54-.02-.02c-.16-.19-.27-.39-.35-.62-.08-.23-.11-.46-.09-.71.02-.25.09-.49.22-.73.13-.24.32-.47.57-.68.31-.26.63-.43.96-.51.33-.08.64-.07.93.03.3.1.55.27.77.53.17.2.29.42.35.65.07.23.1.48.11.74s0,.55,0,.85l-.05,2.58.03.04,2.22-1.87.48.57-3.16,2.65-.35-.42.08-3.64c0-.18,0-.36,0-.54,0-.18-.04-.36-.09-.54-.05-.17-.14-.33-.26-.49-.14-.17-.3-.28-.48-.34s-.37-.07-.55-.02c-.19.04-.37.14-.53.28-.19.16-.32.33-.38.53-.07.19-.08.39-.04.58.04.19.13.37.26.52,0,0,0,0,.01.01s0,0,0,.01Z"/><path d="M218.66,238.96l-.15-.18c-.41-.49-.7-.98-.88-1.46-.17-.49-.21-.94-.12-1.36.09-.42.32-.79.69-1.1.37-.31.77-.47,1.2-.49.43-.01.87.11,1.31.36.44.25.87.63,1.29,1.12l.15.18c.31.37.55.74.73,1.1.18.37.28.72.31,1.06.03.34-.01.66-.13.96-.12.3-.32.56-.6.79-.37.31-.77.47-1.2.49-.43.02-.87-.1-1.31-.35-.45-.25-.88-.62-1.29-1.12ZM219.17,238.23l.14.17c.33.39.66.69.98.9.33.21.63.32.92.33s.55-.07.77-.26c.23-.19.36-.43.39-.72.04-.29-.02-.61-.17-.97-.15-.36-.39-.73-.71-1.12l-.14-.17c-.33-.39-.66-.69-.98-.9-.33-.21-.63-.32-.92-.34-.29-.02-.55.07-.77.26-.22.19-.35.42-.39.71s.02.61.17.97c.15.36.39.73.71,1.12Z"/><path d="M222.67,235.59l-.15-.18c-.41-.49-.7-.98-.88-1.47-.17-.49-.21-.94-.12-1.36.09-.42.32-.79.69-1.1s.77-.47,1.2-.49c.43-.01.87.11,1.31.36.44.25.87.63,1.29,1.12l.15.18c.31.37.55.74.73,1.1.18.37.28.72.31,1.06.03.34-.01.66-.13.96-.12.3-.32.56-.6.79-.37.31-.77.47-1.2.49-.43.02-.87-.1-1.31-.35-.45-.25-.88-.62-1.29-1.12ZM223.18,234.86l.14.17c.33.39.66.69.98.9.33.21.63.32.92.33.29.01.55-.07.77-.26.23-.19.36-.43.39-.72.04-.29-.02-.61-.17-.97-.15-.36-.39-.73-.71-1.12l-.14-.17c-.33-.39-.66-.69-.98-.9-.33-.21-.63-.32-.92-.34-.29-.02-.55.07-.77.26-.22.19-.35.42-.39.71-.04.29.02.61.17.97.15.36.39.73.71,1.12Z"/><path d="M231.36,232.3l-.65.55-3.51-4.18-.03.03c-.05.2-.1.39-.15.59-.05.2-.1.39-.15.59-.05.2-.1.39-.15.59l-.56-.66c.07-.31.14-.62.22-.92s.15-.61.22-.92l.65-.55,4.1,4.89Z"/><path d="M243.69,240.96l-.64.54-.02-.02c-.16-.19-.27-.39-.35-.62s-.11-.46-.09-.71.09-.49.22-.73c.13-.24.32-.47.57-.68.31-.26.63-.43.96-.5.33-.08.64-.07.93.03.3.1.55.27.76.53.17.2.29.42.35.65.07.23.1.48.11.74,0,.26,0,.55,0,.85l-.05,2.58.03.04,2.22-1.87.48.57-3.16,2.65-.35-.42.08-3.64c0-.18,0-.36,0-.54,0-.18-.04-.36-.09-.54s-.14-.33-.26-.49c-.14-.17-.3-.28-.48-.34-.18-.06-.37-.07-.55-.02-.19.04-.37.14-.53.28-.19.16-.32.33-.38.53s-.08.39-.04.58.13.37.26.52c0,0,0,0,.01.01s0,0,0,.01Z"/><path d="M248.47,238.96l-.15-.18c-.41-.49-.7-.98-.88-1.46-.17-.49-.21-.94-.12-1.36.09-.42.32-.79.69-1.1s.77-.47,1.2-.49c.43-.01.87.11,1.31.36.44.25.87.63,1.29,1.12l.15.18c.31.37.55.74.73,1.1.18.37.28.72.31,1.06.03.34-.01.66-.13.96-.12.3-.32.56-.6.79-.37.31-.77.47-1.2.49-.43.02-.87-.1-1.31-.35-.45-.25-.87-.62-1.29-1.12ZM248.97,238.23l.14.17c.33.39.66.69.98.9.33.21.63.32.93.33.29.01.55-.07.77-.26.23-.19.36-.43.39-.72.03-.29-.02-.61-.17-.97-.15-.36-.39-.73-.71-1.12l-.14-.17c-.33-.39-.66-.69-.98-.9-.33-.21-.63-.32-.92-.33-.29-.02-.55.07-.77.26-.22.19-.35.42-.39.71-.04.29.02.61.17.97.15.36.39.73.71,1.12Z"/><path d="M252.48,235.59l-.15-.18c-.41-.49-.7-.98-.88-1.46-.17-.49-.21-.94-.12-1.36.09-.42.32-.79.69-1.1.37-.31.77-.47,1.2-.49.43-.01.87.11,1.31.36.44.25.87.63,1.29,1.12l.15.18c.31.37.55.74.73,1.1.18.37.28.72.31,1.06.03.34-.01.66-.13.96-.12.3-.32.56-.6.79-.37.31-.77.47-1.2.49-.43.02-.87-.1-1.31-.35-.45-.25-.87-.62-1.29-1.12ZM252.99,234.86l.14.17c.33.39.66.69.98.9.33.21.63.32.93.33.29.02.55-.07.77-.26.23-.19.36-.43.39-.72.03-.29-.02-.61-.17-.97-.15-.36-.39-.73-.71-1.12l-.14-.17c-.33-.39-.66-.69-.98-.9-.33-.21-.63-.32-.92-.34-.29-.02-.55.07-.77.26-.22.19-.35.42-.39.71-.04.29.02.61.17.97.15.36.39.73.71,1.12Z"/><path d="M257.09,227.4l.97-.82,2.78,3.31.63-.53.48.57-.63.53.84,1-.63.53-.84-1-2.37,1.99-.48-.58c-.16-.81-.29-1.64-.4-2.48-.11-.84-.23-1.69-.34-2.53ZM258.49,231.87l1.72-1.45-2.3-2.75-.04.03c.07.66.16,1.35.26,2.06.1.71.21,1.4.33,2.06l.03.03Z"/><path d="M273.5,240.96l-.64.54-.02-.02c-.16-.19-.27-.39-.35-.62-.08-.23-.11-.46-.09-.71.02-.25.09-.49.22-.73.13-.24.32-.47.57-.68.31-.26.63-.43.96-.51s.64-.07.93.03c.29.1.55.27.77.53.17.2.29.42.35.65s.1.48.11.74c0,.26,0,.55,0,.85l-.05,2.58.03.04,2.22-1.87.48.57-3.16,2.65-.35-.42.08-3.64c0-.18,0-.36,0-.54,0-.18-.04-.36-.09-.53-.05-.17-.14-.34-.26-.49-.14-.17-.3-.28-.48-.34-.18-.06-.37-.07-.55-.02-.19.04-.37.14-.53.28-.19.16-.32.33-.38.53-.07.19-.08.39-.04.58.04.19.13.36.26.52,0,0,0,0,.01.01,0,0,0,0,0,.01Z"/><path d="M278.28,238.96l-.15-.18c-.41-.49-.7-.98-.87-1.46-.17-.48-.21-.94-.12-1.36.09-.42.32-.79.69-1.1.37-.31.77-.47,1.2-.49.43-.01.87.11,1.31.36.44.25.87.63,1.29,1.12l.15.18c.31.37.55.74.73,1.1.17.37.28.72.31,1.06.03.34-.01.66-.13.96-.12.3-.32.56-.6.79-.37.31-.77.47-1.2.49-.43.02-.87-.1-1.31-.35-.45-.25-.88-.62-1.29-1.12ZM278.78,238.23l.14.17c.33.39.66.69.98.9.33.21.63.32.92.33.29.01.55-.07.77-.26.23-.19.36-.43.39-.72s-.02-.61-.17-.97c-.15-.35-.39-.73-.71-1.12l-.14-.17c-.33-.39-.66-.69-.98-.9-.33-.21-.63-.32-.92-.34-.29-.02-.55.07-.78.26-.22.19-.35.42-.39.71-.04.29.02.61.17.97.15.36.39.73.71,1.12Z"/><path d="M282.29,235.59l-.15-.18c-.41-.49-.7-.98-.87-1.46-.17-.48-.21-.94-.12-1.36.09-.42.32-.79.69-1.1s.77-.47,1.2-.49c.43-.01.87.11,1.31.36.44.25.87.63,1.29,1.12l.15.18c.31.37.55.74.73,1.1.17.37.28.72.31,1.06.03.34-.01.66-.13.96-.12.3-.32.56-.6.79-.37.31-.77.47-1.2.49-.43.02-.87-.1-1.31-.35-.45-.25-.88-.62-1.29-1.12ZM282.8,234.86l.14.17c.33.39.66.69.98.9.33.21.63.32.92.33.29.01.55-.07.77-.26.23-.19.36-.43.39-.72.04-.29-.02-.61-.17-.97-.15-.35-.39-.73-.71-1.12l-.14-.17c-.33-.39-.66-.69-.98-.9s-.63-.32-.92-.33c-.29-.02-.55.07-.78.26-.22.19-.35.42-.39.71-.04.29.02.61.17.97.15.36.38.73.71,1.12Z"/><path d="M284.91,229.06l3.13-2.62.5.59,1.6,5.97-.69.58-1.56-5.97-.03-.04-2.46,2.06-.48-.57Z"/><path d="M303.3,240.96l-.64.54-.02-.03c-.16-.19-.27-.39-.35-.62-.08-.23-.11-.46-.09-.71.02-.25.09-.49.22-.73.13-.24.32-.47.57-.68.31-.26.63-.43.96-.5.33-.08.64-.07.93.03.29.1.55.27.76.53.17.2.29.42.35.65.07.23.1.48.11.74,0,.26,0,.55,0,.85l-.05,2.58.03.04,2.22-1.87.48.57-3.16,2.65-.35-.42.08-3.64c0-.18,0-.36,0-.54,0-.18-.04-.36-.09-.54-.05-.17-.14-.33-.26-.49-.14-.17-.3-.28-.48-.34-.18-.06-.37-.07-.55-.02s-.37.14-.53.28c-.19.16-.32.33-.38.53-.07.19-.08.39-.04.58.04.19.13.37.26.52,0,0,0,0,0,.01,0,0,0,0,0,.01Z"/><path d="M308.08,238.96l-.15-.18c-.41-.49-.7-.98-.88-1.46-.17-.49-.21-.94-.12-1.36.09-.42.32-.79.69-1.1s.77-.47,1.2-.49c.43-.01.87.11,1.31.36s.87.63,1.29,1.12l.15.18c.31.37.55.74.73,1.1.17.37.28.72.31,1.06s-.01.66-.13.96c-.12.3-.32.56-.6.79-.37.31-.77.47-1.2.49s-.87-.1-1.31-.35-.87-.62-1.29-1.12ZM308.59,238.23l.14.17c.33.39.66.69.98.9s.63.32.92.33c.29.02.55-.07.77-.26.23-.19.36-.43.39-.72.04-.29-.02-.61-.17-.96-.15-.36-.39-.73-.71-1.12l-.14-.17c-.33-.39-.66-.69-.98-.9-.33-.21-.63-.32-.92-.34-.29-.02-.55.07-.77.26-.22.19-.35.42-.39.71-.04.29.02.61.17.97.15.36.39.73.71,1.12Z"/><path d="M315.97,236.35l-.65.55-3.51-4.18-.03.03c-.05.2-.1.39-.15.59-.05.2-.1.39-.15.59-.05.2-.1.39-.15.59l-.56-.66c.07-.31.14-.62.22-.92.08-.31.15-.61.22-.92l.65-.55,4.1,4.89Z"/><path d="M315.8,232.49l-.15-.18c-.41-.49-.7-.98-.88-1.46-.17-.49-.21-.94-.12-1.36.09-.42.32-.79.69-1.1s.77-.47,1.2-.49c.43-.01.87.11,1.31.36.44.25.87.63,1.29,1.12l.15.18c.31.37.55.74.73,1.1s.28.72.31,1.06c.03.34-.01.66-.13.96-.12.3-.32.56-.6.79-.37.31-.77.47-1.2.49-.43.02-.87-.1-1.31-.35-.45-.25-.88-.62-1.29-1.12ZM316.3,231.76l.14.17c.33.39.65.69.98.9s.63.32.92.33c.29.02.55-.07.77-.26.23-.19.36-.43.39-.72.04-.29-.02-.61-.17-.96-.15-.36-.39-.73-.71-1.12l-.14-.17c-.33-.39-.66-.69-.98-.9-.33-.21-.63-.32-.92-.34-.29-.02-.55.07-.77.26-.22.19-.35.42-.39.71-.04.29.02.61.17.97.15.36.39.73.71,1.12Z"/><path d="M333.11,240.96l-.64.54-.02-.03c-.16-.19-.27-.39-.35-.62-.08-.23-.11-.46-.09-.71.02-.25.09-.49.22-.73.13-.24.32-.47.57-.68.31-.26.63-.43.96-.5.33-.08.64-.07.93.03.3.1.55.27.76.53.17.2.29.42.35.65s.1.48.11.74c0,.26,0,.55,0,.85l-.05,2.58.03.04,2.22-1.87.48.57-3.16,2.65-.35-.42.08-3.64c0-.18,0-.36,0-.54,0-.18-.04-.36-.09-.54-.05-.17-.14-.33-.26-.49-.14-.17-.3-.28-.48-.34-.18-.06-.37-.07-.55-.02-.19.04-.37.14-.53.28-.19.16-.32.33-.38.53-.07.19-.08.39-.04.58.04.19.13.37.26.52,0,0,0,0,0,.01,0,0,0,0,0,.01Z"/><path d="M337.89,238.96l-.15-.18c-.41-.49-.7-.98-.88-1.46s-.21-.94-.12-1.36c.09-.42.32-.79.69-1.1s.77-.47,1.2-.49c.43-.01.87.11,1.31.36s.87.63,1.29,1.12l.15.18c.31.37.55.74.73,1.1.17.37.28.72.31,1.06.03.34-.01.66-.13.96-.12.3-.32.56-.6.79-.37.31-.77.47-1.2.49-.43.02-.87-.1-1.32-.35-.44-.25-.87-.62-1.29-1.12ZM338.4,238.23l.14.17c.33.39.66.69.98.9.33.21.63.32.93.33.29.01.55-.07.77-.26.23-.19.36-.43.39-.72s-.02-.61-.17-.97c-.15-.35-.39-.73-.71-1.12l-.14-.17c-.33-.39-.66-.69-.98-.9-.33-.21-.63-.32-.92-.34-.29-.02-.55.07-.77.26-.22.19-.35.42-.39.71-.04.29.02.61.17.97.15.36.39.73.71,1.12Z"/><path d="M345.78,236.35l-.65.55-3.51-4.18-.03.03c-.05.2-.1.39-.15.59-.05.2-.1.39-.15.59-.05.2-.1.39-.15.59l-.56-.66c.07-.31.14-.62.22-.92.07-.31.15-.61.22-.92l.65-.55,4.1,4.89Z"/><path d="M346.72,231.74l-.47-.56.5-.42c.17-.14.29-.31.37-.49.07-.18.1-.37.07-.56s-.11-.36-.25-.52c-.2-.24-.44-.36-.73-.37-.29,0-.56.1-.83.32-.13.11-.23.23-.31.35-.07.12-.12.25-.15.38-.03.13-.03.25,0,.37s.07.23.14.32l-.63.53c-.13-.16-.22-.34-.28-.55-.06-.2-.07-.42-.04-.64.03-.22.11-.45.24-.67.13-.22.31-.44.56-.65.31-.26.62-.44.94-.52.32-.08.62-.08.91,0s.53.24.74.47c.2.22.32.46.36.71.04.25.03.48-.03.7-.06.22-.14.39-.25.51l.03.04c.15-.1.34-.18.58-.23.24-.05.48-.04.75.02.26.07.5.23.73.49.18.21.31.44.37.69.06.25.08.51.03.77-.04.26-.15.52-.3.77-.15.25-.36.48-.61.69-.32.27-.65.45-.98.54-.33.09-.64.09-.93.01s-.54-.23-.75-.45l.62-.52c.13.12.28.19.45.22.17.03.36.01.56-.05s.39-.17.58-.33c.21-.18.37-.38.46-.59.09-.21.12-.42.1-.63-.03-.21-.12-.4-.27-.57-.15-.17-.32-.29-.52-.35-.2-.06-.4-.06-.62,0-.21.05-.42.17-.62.33l-.53.45Z"/><path d="M362.92,240.96l-.64.54-.02-.02c-.16-.19-.27-.39-.35-.62-.08-.23-.11-.46-.09-.71s.09-.49.22-.73c.13-.24.32-.47.57-.68.31-.26.63-.43.96-.5.33-.08.64-.07.93.03.3.1.55.27.76.53.17.2.29.42.35.65.07.23.1.48.11.74,0,.26,0,.55,0,.85l-.05,2.58.03.04,2.22-1.87.48.57-3.16,2.65-.35-.42.08-3.64c0-.18,0-.36,0-.54,0-.18-.04-.36-.09-.53-.05-.17-.14-.33-.26-.49-.14-.17-.3-.28-.48-.34-.18-.06-.37-.07-.55-.02-.19.04-.37.14-.53.28-.19.16-.32.34-.38.53-.07.19-.08.39-.04.58.04.19.13.37.26.52,0,0,0,0,.01.01s0,0,.01.01Z"/><path d="M367.7,238.96l-.15-.18c-.41-.49-.7-.98-.88-1.47-.17-.48-.21-.94-.12-1.36.09-.42.32-.79.69-1.1s.77-.47,1.2-.49c.43-.01.87.11,1.31.36.44.25.87.63,1.29,1.12l.15.18c.31.37.55.74.73,1.1.18.37.28.72.31,1.06.03.34-.01.66-.13.96s-.32.56-.6.79c-.37.31-.77.47-1.2.49-.43.02-.87-.1-1.31-.35s-.87-.62-1.29-1.12ZM368.21,238.23l.14.17c.33.39.66.69.98.9.33.21.63.32.92.33s.55-.07.77-.26c.23-.19.36-.43.39-.72.03-.29-.02-.61-.17-.97-.15-.36-.39-.73-.71-1.12l-.14-.17c-.33-.39-.66-.69-.98-.9s-.63-.32-.92-.34c-.29-.02-.55.07-.77.26-.22.19-.35.42-.39.71-.04.29.02.61.17.97.15.36.39.73.71,1.12Z"/><path d="M375.58,236.35l-.65.55-3.51-4.18-.03.03c-.05.2-.1.39-.15.59-.05.2-.1.39-.15.59-.05.2-.1.39-.14.59l-.56-.66c.07-.31.14-.62.22-.92.07-.31.15-.61.22-.92l.65-.55,4.1,4.89Z"/><path d="M377.48,228.15l-.66.55c-.08-.06-.19-.11-.33-.13-.14-.03-.29-.02-.46.02-.17.04-.35.14-.53.3-.14.11-.24.25-.32.4-.08.15-.12.32-.13.51,0,.19.02.39.08.61.06.22.16.45.31.7.14.25.33.51.56.78l.04-.03c-.05-.15-.07-.33-.06-.53,0-.2.07-.41.17-.62.11-.22.28-.43.51-.62.26-.21.55-.36.88-.44s.67-.06,1.02.04c.34.1.66.33.94.67.3.36.48.72.55,1.1.06.37.02.73-.12,1.08-.14.34-.38.65-.7.92-.18.15-.37.27-.58.37s-.44.16-.68.18c-.24.02-.5-.01-.77-.1-.26-.09-.54-.24-.83-.45-.29-.21-.58-.5-.89-.87-.32-.38-.57-.74-.76-1.08-.19-.34-.32-.67-.39-.98-.07-.31-.09-.59-.06-.86.03-.27.12-.51.25-.74.13-.23.3-.43.52-.61.23-.19.46-.33.7-.42.24-.09.46-.13.68-.13.22,0,.42.03.6.1.18.07.33.17.46.3ZM376.81,232.67c.19.23.41.39.64.47.23.08.46.1.69.05.23-.05.44-.15.62-.3.19-.16.33-.34.42-.55.09-.21.12-.43.07-.67s-.17-.48-.37-.73c-.2-.24-.42-.39-.65-.46-.23-.07-.46-.08-.67-.02-.22.05-.42.16-.59.3-.2.17-.34.36-.42.58-.08.22-.1.45-.06.68.04.23.15.45.32.65Z"/><path d="M392.73,240.96l-.64.54-.02-.02c-.16-.19-.27-.39-.35-.62-.08-.23-.11-.46-.09-.71.02-.25.09-.49.22-.73.13-.24.32-.47.57-.68.31-.26.63-.43.96-.5.33-.08.64-.07.93.03.3.1.55.27.77.53.17.2.29.42.35.65.07.23.1.48.11.74,0,.26,0,.55,0,.85l-.05,2.58.03.04,2.22-1.87.48.57-3.16,2.65-.35-.42.08-3.64c0-.18,0-.36,0-.54,0-.18-.04-.36-.09-.54-.05-.17-.14-.33-.26-.49-.14-.17-.3-.28-.48-.34-.18-.06-.37-.07-.55-.02-.19.04-.37.14-.53.28-.19.16-.32.33-.38.53s-.08.39-.04.58c.04.19.13.37.26.52,0,0,0,0,.01.01s0,0,0,.01Z"/><path d="M397.51,238.96l-.15-.18c-.41-.49-.7-.98-.88-1.46-.17-.49-.21-.94-.12-1.36.09-.42.32-.79.69-1.1s.77-.47,1.2-.49c.43-.01.87.11,1.31.36.44.25.87.63,1.29,1.12l.15.18c.31.37.55.74.73,1.1.17.37.28.72.31,1.06.03.34-.01.66-.13.96-.12.3-.32.56-.6.79-.37.31-.77.47-1.2.49s-.87-.1-1.31-.35c-.44-.25-.87-.62-1.29-1.12ZM398.02,238.23l.14.17c.33.39.66.69.98.9.33.21.63.32.93.33.29.01.55-.07.77-.26.23-.19.36-.43.39-.72.03-.29-.02-.61-.17-.97-.15-.36-.39-.73-.71-1.12l-.14-.17c-.33-.39-.66-.69-.98-.9-.33-.21-.63-.32-.92-.33-.29-.02-.55.07-.77.26-.22.19-.35.42-.39.71-.04.29.02.61.17.97.15.36.39.73.71,1.12Z"/><path d="M405.39,236.35l-.65.55-3.51-4.18-.03.03c-.05.2-.1.39-.15.59-.05.2-.1.39-.15.59-.05.2-.1.39-.15.59l-.56-.66c.07-.31.14-.62.22-.92.07-.31.15-.61.22-.92l.65-.55,4.1,4.89Z"/><path d="M406.5,233.81l.66-.56c.08.06.19.1.32.11.13.02.27,0,.42-.05.15-.05.31-.14.47-.28.22-.19.37-.4.44-.64.07-.24.08-.49.02-.75-.06-.26-.17-.53-.33-.8-.16-.27-.36-.54-.6-.81l-.04.03c.06.18.09.37.08.57,0,.21-.06.41-.17.62-.1.2-.27.4-.49.59-.29.24-.61.4-.95.47-.35.07-.69.04-1.04-.09-.35-.13-.66-.37-.95-.71-.29-.35-.46-.71-.52-1.08-.06-.37-.01-.73.13-1.08s.38-.65.7-.92c.21-.18.46-.32.72-.42.27-.1.56-.13.88-.1.32.04.66.17,1.03.41.37.23.75.59,1.17,1.09.49.58.83,1.13,1.03,1.63.19.5.24.97.13,1.4-.11.43-.37.82-.79,1.17-.23.19-.45.33-.67.42-.22.09-.44.14-.64.14-.2,0-.39-.02-.57-.09-.17-.06-.33-.16-.46-.28ZM407.08,229.28c-.2-.24-.42-.41-.65-.49-.23-.09-.46-.11-.69-.07-.23.04-.44.15-.64.32-.18.15-.31.34-.39.55-.08.22-.1.45-.05.69.04.24.17.48.36.71.2.24.42.4.65.48.23.08.45.09.68.04.22-.05.42-.16.6-.31.17-.15.31-.32.4-.53.09-.21.12-.43.08-.67s-.15-.47-.35-.71Z"/><path d="M422.54,240.96l-.64.54-.02-.02c-.16-.19-.27-.39-.35-.62-.08-.23-.11-.46-.09-.71.02-.25.09-.49.22-.73.13-.24.32-.47.57-.68.31-.26.63-.43.96-.5.33-.08.64-.07.93.03.3.1.55.27.77.53.17.2.29.42.35.65.07.23.1.48.11.74,0,.26,0,.55,0,.85l-.05,2.58.03.04,2.22-1.87.48.57-3.16,2.65-.35-.42.08-3.64c0-.18,0-.36,0-.54s-.04-.36-.08-.54c-.05-.17-.14-.33-.26-.49-.14-.17-.3-.28-.48-.34-.18-.06-.37-.07-.55-.02-.19.04-.37.14-.53.28-.19.16-.32.34-.38.53-.07.19-.08.39-.04.58.04.19.13.37.26.52,0,0,0,0,.01.01s0,0,0,.01Z"/><path d="M427.32,238.96l-.15-.18c-.41-.49-.7-.98-.88-1.46-.17-.49-.21-.94-.12-1.36.09-.42.32-.79.69-1.1.37-.31.77-.47,1.2-.49.43-.01.87.11,1.31.36.44.25.87.63,1.29,1.12l.15.18c.31.37.55.74.73,1.1.18.37.28.72.31,1.06.03.34-.01.66-.13.96-.12.3-.32.56-.6.79-.37.31-.77.47-1.2.49-.43.02-.87-.1-1.31-.35-.45-.25-.87-.62-1.29-1.12ZM427.82,238.23l.14.17c.33.39.66.69.98.9.33.21.63.32.93.33.29.02.55-.07.77-.26.23-.19.36-.43.39-.72.03-.29-.02-.61-.17-.97-.15-.36-.39-.73-.71-1.12l-.14-.17c-.33-.39-.66-.69-.98-.9-.33-.21-.63-.32-.92-.34-.29-.02-.55.07-.77.26-.22.19-.35.42-.39.71-.04.29.02.61.17.97.15.36.39.73.71,1.12Z"/><path d="M431.02,233.85l-.64.54-.02-.02c-.16-.19-.27-.39-.35-.62-.08-.23-.11-.46-.09-.71.02-.25.09-.49.22-.73s.32-.47.57-.68c.31-.26.63-.43.96-.5.33-.08.64-.07.93.03s.55.27.76.53c.17.2.29.42.35.65.07.23.1.48.11.74,0,.26,0,.55,0,.85l-.05,2.58.03.04,2.22-1.87.48.57-3.16,2.65-.35-.42.08-3.64c0-.18,0-.36,0-.54,0-.18-.04-.36-.09-.54-.05-.17-.14-.34-.26-.49-.14-.17-.3-.28-.48-.34-.18-.06-.37-.07-.55-.02-.19.04-.37.14-.53.28-.19.16-.32.33-.38.53-.07.19-.08.39-.04.58.04.19.13.37.26.52,0,0,0,0,.01.01,0,0,0,0,0,.01Z"/><path d="M435.48,230.1l-.64.54-.02-.02c-.16-.19-.27-.39-.35-.62-.08-.23-.11-.46-.09-.71.02-.25.09-.49.22-.73.13-.24.32-.47.57-.68.31-.26.63-.43.96-.5.33-.08.64-.07.93.03.3.1.55.27.77.53.17.2.29.42.35.65.07.23.1.48.11.74,0,.26,0,.55,0,.85l-.05,2.58.03.04,2.22-1.87.48.57-3.16,2.65-.35-.42.08-3.64c0-.18,0-.36,0-.54s-.04-.36-.09-.54c-.05-.17-.14-.33-.26-.49-.14-.17-.3-.28-.48-.34-.18-.06-.37-.07-.55-.02-.19.04-.37.14-.53.28-.19.16-.32.34-.38.53-.07.19-.08.39-.04.58.04.19.13.37.26.52,0,0,0,0,.01.01s0,0,0,.01Z"/><line x1="20.52" y1="268.9" x2="47.54" y2="268.9" style="fill:none; stroke:#059bd5; stroke-linecap:round; stroke-linejoin:round; stroke-width:1.68px;"/><path d="M55.94,267.39h-1.24c-.03-.15-.08-.28-.15-.4-.07-.12-.16-.22-.27-.31s-.23-.15-.38-.2c-.14-.05-.3-.07-.48-.07-.46,0-.81.16-1.06.48-.25.32-.38.77-.38,1.36v.79c0,.37.05.7.16.98.1.28.27.5.48.66.22.16.49.24.83.24.29,0,.54-.05.73-.16.19-.1.34-.24.44-.42.1-.17.14-.37.14-.58v-.41h-1.31v-.94h2.51v1.27c0,.31-.05.6-.15.88-.1.28-.26.52-.47.73-.21.21-.47.38-.79.5s-.69.18-1.12.18c-.46,0-.86-.07-1.2-.21-.34-.14-.63-.34-.85-.6s-.4-.57-.51-.93c-.11-.36-.17-.75-.17-1.19v-.81c0-.58.11-1.08.32-1.51.21-.43.52-.77.93-1.01.41-.24.9-.36,1.47-.36.38,0,.72.05,1.02.16.3.11.55.25.76.44.21.19.38.4.5.65.12.24.2.51.22.79Z"/><path d="M57.5,265.48h2.33c.65,0,1.18.12,1.6.37.42.25.73.61.94,1.08s.31,1.05.31,1.72-.1,1.25-.31,1.73c-.21.48-.52.85-.95,1.1-.42.25-.96.38-1.6.38h-2.33v-6.38ZM58.76,266.51v4.32h.9c.3,0,.55-.04.77-.13.22-.09.4-.22.54-.4.14-.18.24-.4.31-.67.07-.27.11-.58.11-.94,0-.48-.06-.88-.18-1.2-.12-.32-.31-.56-.57-.72-.25-.16-.58-.24-.97-.24h-.9Z"/><path d="M65.82,265.48c.46,0,.85.09,1.17.28s.56.44.73.76c.17.32.25.68.25,1.08s-.08.76-.25,1.08c-.17.32-.42.57-.74.76s-.71.28-1.17.28h-1.28v2.14h-1.26v-6.38h2.55ZM66.69,267.6c0-.36-.1-.64-.29-.83-.2-.19-.47-.29-.82-.29h-1.05v2.24h1.05c.23,0,.43-.04.6-.13.17-.09.29-.22.38-.38.09-.17.13-.37.13-.61Z"/><path d="M72.96,271.86h-1.13v-6.38h1.29l1.82,4.14h.04l1.82-4.14h1.28v6.38h-1.14v-4.24h-.06l-1.51,3.45h-.82l-1.52-3.45h-.06v4.24Z"/><path d="M80.47,271.93c-.48,0-.88-.14-1.18-.41-.3-.27-.45-.64-.45-1.11s.15-.8.45-1.07.74-.4,1.32-.4h1.21v-.44c0-.25-.07-.44-.22-.56-.15-.12-.35-.18-.6-.18-.17,0-.31.02-.42.07-.11.04-.2.11-.26.19-.06.08-.1.17-.13.27h-1.16c.02-.2.06-.39.15-.57.08-.18.2-.33.36-.47.16-.13.36-.24.61-.32.25-.08.54-.12.88-.12.37,0,.71.05,1.01.16.31.11.55.29.73.54.18.25.27.58.27,1v3.33h-1.16v-.63h-.06c-.07.12-.16.24-.27.34s-.26.19-.44.26c-.18.07-.39.1-.63.1ZM80.87,271.03c.17,0,.33-.04.47-.11s.26-.17.34-.29c.09-.12.13-.27.13-.42v-.51h-.95c-.27,0-.48.06-.61.18-.13.12-.2.28-.2.47,0,.23.08.41.25.52s.35.17.56.17Z"/><path d="M85.15,271.86v-6.72h1.23v6.72h-1.23Z"/><path d="M89.34,266.83c.23,0,.45.03.64.1.19.07.35.16.49.28s.23.27.3.44h.06v-2.51h1.23v6.72h-1.21v-.79h-.06c-.04.13-.1.24-.19.35s-.2.19-.33.27c-.13.08-.27.13-.43.18-.16.04-.33.06-.51.06-.37,0-.7-.09-.98-.26-.28-.17-.49-.42-.65-.75-.15-.33-.23-.71-.23-1.17v-.74c0-.46.08-.84.23-1.17s.37-.57.65-.75.61-.26.98-.26ZM89.75,267.81c-.21,0-.38.05-.54.15-.15.1-.27.25-.35.45-.08.2-.12.43-.12.72v.48c0,.28.04.52.13.72s.2.35.36.45.34.15.55.15.39-.05.55-.15c.16-.1.28-.25.37-.44.09-.19.13-.42.13-.69v-.64c0-.25-.05-.46-.14-.64-.09-.18-.22-.32-.38-.42-.16-.1-.34-.15-.55-.15Z"/><path d="M93.86,265.44c0-.21.07-.37.21-.5s.33-.19.56-.19.42.06.56.19.21.29.21.5-.07.36-.21.49-.33.19-.56.19-.41-.06-.56-.19-.21-.29-.21-.49ZM94.02,271.86v-4.96h1.23v4.96h-1.23Z"/><path d="M97.89,271.86l-1.65-4.96h1.34l.98,3.81h.05l1.08-3.81h1.3l-1.74,4.96h-1.37Z"/><path d="M103.19,271.95c-.46,0-.86-.09-1.2-.26-.34-.18-.6-.43-.79-.77-.19-.34-.28-.75-.28-1.24v-.59c0-.49.1-.9.29-1.24s.46-.59.79-.77c.33-.17.71-.26,1.12-.26s.81.09,1.14.28.58.45.77.79c.19.34.28.74.28,1.21v.57h-3.18v.23c0,.32.09.59.29.8.19.21.45.31.77.31.17,0,.32-.02.45-.07.13-.05.24-.11.32-.2.08-.08.13-.18.15-.28h1.17c-.01.16-.06.32-.15.49-.09.17-.21.34-.38.49-.17.15-.38.28-.63.37-.26.1-.56.14-.92.14ZM102.13,268.9h1.99v-.05c0-.22-.04-.42-.12-.59-.08-.17-.2-.3-.35-.39-.15-.09-.32-.14-.52-.14s-.37.05-.52.14-.27.22-.35.39c-.08.17-.13.36-.13.59v.05Z"/><path d="M107.02,268.36c0-.37.09-.67.28-.9s.43-.39.73-.5c.3-.1.63-.16.98-.16.37,0,.7.06.98.17.29.11.51.28.67.49.16.22.24.48.24.79h-1.09c0-.1-.05-.2-.11-.29s-.16-.17-.27-.22-.27-.09-.44-.09c-.25,0-.44.05-.58.16-.14.11-.21.25-.21.44,0,.13.04.23.12.31.08.08.19.14.32.18.13.05.27.08.42.11.15.03.29.05.43.07.31.05.58.13.82.23.24.1.43.25.56.43.13.19.2.43.2.74,0,.34-.08.63-.25.87-.17.24-.41.42-.73.55-.32.13-.7.19-1.14.19s-.78-.06-1.08-.18c-.3-.12-.53-.29-.69-.51-.16-.22-.24-.47-.24-.77h1.19c.02.12.06.23.13.32.07.09.16.16.29.21.12.05.28.08.46.08.21,0,.37-.03.5-.08.13-.06.22-.13.28-.23.06-.1.09-.2.09-.31,0-.16-.06-.28-.17-.36s-.27-.14-.45-.18c-.19-.04-.39-.08-.6-.12-.3-.06-.57-.14-.81-.24-.24-.1-.44-.25-.58-.44-.15-.19-.22-.45-.22-.77Z"/><path d="M115.12,265.14h1.13c-.19.27-.37.6-.54.99s-.32.84-.43,1.34-.17,1.06-.17,1.67.05,1.16.15,1.67c.1.5.24.96.41,1.38.17.41.37.79.58,1.13h-1.14c-.23-.28-.44-.62-.63-1.03s-.34-.88-.46-1.4c-.11-.53-.17-1.1-.17-1.73s.06-1.19.17-1.68c.11-.49.27-.92.46-1.31s.41-.72.64-1.03Z"/><path d="M117.59,271.86v-6.38h2.67c.57,0,1.03.14,1.37.42s.51.66.51,1.15c0,.26-.05.48-.14.67-.1.19-.22.35-.39.47-.16.12-.35.21-.56.26v.06c.26.03.5.1.71.22s.39.3.52.52.19.5.19.82c0,.38-.1.7-.29.97-.19.27-.45.47-.79.61-.33.14-.72.21-1.15.21h-2.66ZM118.84,266.43v1.71h.83c.28,0,.51-.03.69-.1.18-.07.31-.17.4-.3s.13-.29.13-.47c0-.26-.08-.47-.25-.61-.16-.15-.39-.22-.69-.22h-1.12ZM118.84,269.01v1.9h.94c.5,0,.85-.08,1.07-.24.22-.16.33-.39.33-.69,0-.2-.04-.38-.13-.52-.09-.14-.21-.26-.39-.33-.17-.08-.38-.12-.63-.12h-1.2Z"/><path d="M123.6,265.44c0-.21.07-.37.21-.5s.33-.19.56-.19.42.06.56.19.21.29.21.5-.07.36-.21.49-.33.19-.56.19-.41-.06-.56-.19-.21-.29-.21-.49ZM123.76,271.86v-4.96h1.23v4.96h-1.23Z"/><path d="M126.56,271.86v-6.72h1.23v6.72h-1.23Z"/><path d="M129.14,271.86v-6.72h1.23v6.72h-1.23Z"/><path d="M131.61,265.44c0-.21.07-.37.21-.5s.33-.19.56-.19.42.06.56.19.21.29.21.5-.07.36-.21.49-.33.19-.56.19-.41-.06-.56-.19-.21-.29-.21-.49ZM131.77,271.86v-4.96h1.23v4.96h-1.23Z"/><path d="M136.59,266.81c.45,0,.85.09,1.19.28.34.18.6.45.79.79.19.34.28.75.28,1.21v.56c0,.49-.09.91-.28,1.25s-.45.6-.79.79c-.34.18-.74.27-1.19.27s-.86-.09-1.2-.27c-.34-.18-.61-.44-.79-.78-.19-.34-.28-.76-.28-1.25v-.55c0-.46.09-.86.29-1.2.19-.34.46-.61.8-.8.34-.19.74-.29,1.19-.29ZM136.59,267.76c-.23,0-.42.06-.58.18-.15.12-.27.29-.34.49-.08.21-.11.43-.11.68v.51c0,.25.04.48.11.68s.19.37.34.49c.15.12.35.18.58.18s.43-.06.58-.18c.15-.12.26-.29.33-.49.07-.21.11-.43.11-.68v-.51c0-.25-.04-.48-.11-.68-.07-.2-.19-.37-.34-.49-.15-.12-.34-.18-.57-.18Z"/><path d="M140.57,271.86v-4.96h1.2v.87h.06c.04-.13.11-.27.22-.42s.26-.27.46-.38c.2-.11.47-.16.79-.16.5,0,.9.14,1.2.43.3.29.45.71.45,1.29v3.32h-1.23v-2.98c0-.25-.04-.44-.12-.59-.08-.15-.19-.26-.32-.33s-.29-.11-.45-.11c-.22,0-.41.05-.57.16-.16.11-.27.25-.35.44s-.12.41-.12.66v2.75h-1.23Z"/><path d="M146.67,268.36c0-.37.09-.67.28-.9s.43-.39.73-.5c.3-.1.63-.16.98-.16.37,0,.7.06.98.17.29.11.51.28.67.49.16.22.24.48.24.79h-1.09c0-.1-.05-.2-.11-.29s-.16-.17-.27-.22-.27-.09-.44-.09c-.25,0-.44.05-.58.16-.14.11-.21.25-.21.44,0,.13.04.23.12.31.08.08.19.14.32.18.13.05.27.08.42.11.15.03.29.05.43.07.31.05.58.13.82.23.24.1.43.25.56.43.13.19.2.43.2.74,0,.34-.08.63-.25.87-.17.24-.41.42-.73.55-.32.13-.7.19-1.14.19s-.78-.06-1.08-.18c-.3-.12-.53-.29-.69-.51-.16-.22-.24-.47-.24-.77h1.19c.02.12.06.23.13.32.07.09.16.16.29.21.12.05.28.08.46.08.21,0,.37-.03.5-.08.13-.06.22-.13.28-.23.06-.1.09-.2.09-.31,0-.16-.06-.28-.17-.36s-.27-.14-.45-.18c-.19-.04-.39-.08-.6-.12-.3-.06-.57-.14-.81-.24-.24-.1-.44-.25-.58-.44-.15-.19-.22-.45-.22-.77Z"/><path d="M155.37,266.81c.45,0,.85.09,1.19.28.34.18.6.45.79.79.19.34.28.75.28,1.21v.56c0,.49-.09.91-.28,1.25s-.45.6-.79.79c-.34.18-.74.27-1.19.27s-.86-.09-1.2-.27c-.34-.18-.61-.44-.79-.78-.19-.34-.28-.76-.28-1.25v-.55c0-.46.09-.86.29-1.2.19-.34.46-.61.8-.8.34-.19.74-.29,1.19-.29ZM155.37,267.76c-.23,0-.42.06-.58.18-.15.12-.27.29-.34.49-.08.21-.11.43-.11.68v.51c0,.25.04.48.11.68s.19.37.34.49c.15.12.35.18.58.18s.43-.06.58-.18c.15-.12.26-.29.33-.49.07-.21.11-.43.11-.68v-.51c0-.25-.04-.48-.11-.68-.07-.2-.19-.37-.34-.49-.15-.12-.34-.18-.57-.18Z"/><path d="M159.78,271.86v-3.97h-.81v-.94h.81v-.49c0-.49.13-.85.39-1.07s.7-.33,1.31-.33c.12,0,.25,0,.39.01s.24.02.31.03v.88s-.11-.01-.21-.02c-.09,0-.18,0-.25,0-.26,0-.45.04-.56.13-.12.09-.17.25-.17.48v.39h1.11v.94h-1.09v3.97h-1.22Z"/><path d="M167.78,270.9c.39,0,.71-.12.95-.36.24-.24.36-.58.36-1.01v-4.06h1.27v4.18c0,.46-.11.87-.32,1.22s-.51.62-.9.81-.84.29-1.36.29-.98-.1-1.37-.29c-.39-.19-.69-.46-.9-.81s-.32-.76-.32-1.22v-4.18h1.27v4.06c0,.44.12.78.36,1.02.24.24.56.35.95.35Z"/><path d="M172.15,271.17c0-.25.08-.44.24-.59.16-.14.35-.22.58-.22s.43.07.59.22c.16.15.24.34.24.58s-.08.43-.24.57c-.16.14-.36.21-.59.21s-.42-.07-.58-.21c-.16-.14-.24-.33-.24-.57Z"/><path d="M174.47,270.12h1.22c.02.12.07.24.13.34.07.1.16.2.27.27.11.08.25.14.4.18.15.04.32.07.51.07.26,0,.48-.04.66-.11.18-.07.31-.18.4-.31.09-.13.14-.29.14-.46,0-.22-.08-.4-.24-.52s-.41-.23-.74-.31l-.99-.23c-.33-.08-.62-.19-.86-.34-.24-.15-.43-.35-.56-.58-.13-.24-.2-.52-.2-.84,0-.39.1-.73.3-1.02.2-.29.48-.51.84-.67.36-.16.77-.24,1.24-.24s.9.08,1.25.24c.34.16.61.38.8.65s.29.57.32.9h-1.2c-.03-.15-.09-.29-.19-.41-.1-.12-.23-.22-.4-.29-.17-.07-.36-.11-.59-.11-.35,0-.62.08-.82.24-.2.16-.3.37-.3.61,0,.19.08.35.23.48.15.12.37.22.65.28l.99.23c.35.08.65.19.9.33.26.15.46.34.6.57.14.24.21.53.21.89,0,.4-.1.74-.3,1.04-.2.3-.48.54-.86.7-.38.17-.83.25-1.37.25-.41,0-.76-.05-1.06-.14-.3-.1-.56-.23-.76-.4-.2-.17-.36-.37-.47-.6-.11-.22-.17-.46-.18-.72Z"/><path d="M180.92,271.17c0-.25.08-.44.24-.59.16-.14.35-.22.58-.22s.43.07.59.22c.16.15.24.34.24.58s-.08.43-.24.57c-.16.14-.36.21-.59.21s-.42-.07-.58-.21c-.16-.14-.24-.33-.24-.57Z"/><path d="M187.67,266.83c.23,0,.45.03.64.1.19.07.35.16.49.28s.23.27.3.44h.06v-2.51h1.23v6.72h-1.21v-.79h-.06c-.04.13-.1.24-.19.35s-.2.19-.33.27c-.13.08-.27.13-.43.18-.16.04-.33.06-.51.06-.37,0-.7-.09-.98-.26-.28-.17-.49-.42-.65-.75-.15-.33-.23-.71-.23-1.17v-.74c0-.46.08-.84.23-1.17s.37-.57.65-.75.61-.26.98-.26ZM188.08,267.81c-.21,0-.38.05-.54.15-.15.1-.27.25-.35.45-.08.2-.12.43-.12.72v.48c0,.28.04.52.13.72s.2.35.36.45.34.15.55.15.39-.05.55-.15c.16-.1.28-.25.37-.44.09-.19.13-.42.13-.69v-.64c0-.25-.05-.46-.14-.64-.09-.18-.22-.32-.38-.42-.16-.1-.34-.15-.55-.15Z"/><path d="M193.26,266.81c.45,0,.85.09,1.19.28.34.18.6.45.79.79.19.34.28.75.28,1.21v.56c0,.49-.09.91-.28,1.25s-.45.6-.79.79c-.34.18-.74.27-1.19.27s-.86-.09-1.2-.27c-.34-.18-.61-.44-.79-.78-.19-.34-.28-.76-.28-1.25v-.55c0-.46.09-.86.29-1.2.19-.34.46-.61.8-.8.34-.19.74-.29,1.19-.29ZM193.26,267.76c-.23,0-.42.06-.58.18-.15.12-.27.29-.34.49-.08.21-.11.43-.11.68v.51c0,.25.04.48.11.68s.19.37.34.49c.15.12.35.18.58.18s.43-.06.58-.18c.15-.12.26-.29.33-.49.07-.21.11-.43.11-.68v-.51c0-.25-.04-.48-.11-.68-.07-.2-.19-.37-.34-.49-.15-.12-.34-.18-.57-.18Z"/><path d="M197.27,271.86v-6.72h1.23v6.72h-1.23Z"/><path d="M199.85,271.86v-6.72h1.23v6.72h-1.23Z"/><path d="M203.76,271.93c-.48,0-.88-.14-1.18-.41-.3-.27-.45-.64-.45-1.11s.15-.8.45-1.07.74-.4,1.32-.4h1.21v-.44c0-.25-.07-.44-.22-.56-.15-.12-.35-.18-.6-.18-.17,0-.31.02-.42.07-.11.04-.2.11-.26.19-.06.08-.1.17-.13.27h-1.16c.02-.2.06-.39.15-.57.08-.18.2-.33.36-.47.16-.13.36-.24.61-.32.25-.08.54-.12.88-.12.37,0,.71.05,1.01.16.31.11.55.29.73.54.18.25.27.58.27,1v3.33h-1.16v-.63h-.06c-.07.12-.16.24-.27.34s-.26.19-.44.26c-.18.07-.39.1-.63.1ZM204.17,271.03c.17,0,.33-.04.47-.11s.26-.17.34-.29c.09-.12.13-.27.13-.42v-.51h-.95c-.27,0-.48.06-.61.18-.13.12-.2.28-.2.47,0,.23.08.41.25.52s.35.17.56.17Z"/><path d="M208.46,271.86v-4.96h1.23v.78h.06c.03-.12.1-.24.2-.37s.23-.24.4-.34.39-.14.65-.14c.08,0,.15,0,.22,0,.07,0,.12.01.17.02v1.07s-.12-.02-.21-.03c-.09,0-.18-.01-.28-.01-.27,0-.49.05-.67.14-.18.1-.31.23-.39.4-.08.17-.13.37-.13.59v2.84h-1.26Z"/><path d="M211.37,268.36c0-.37.09-.67.28-.9s.43-.39.73-.5c.3-.1.63-.16.98-.16.37,0,.7.06.98.17.29.11.51.28.67.49.16.22.24.48.24.79h-1.09c0-.1-.05-.2-.11-.29s-.16-.17-.27-.22-.27-.09-.44-.09c-.25,0-.44.05-.58.16-.14.11-.21.25-.21.44,0,.13.04.23.12.31.08.08.19.14.32.18.13.05.27.08.42.11.15.03.29.05.43.07.31.05.58.13.82.23.24.1.43.25.56.43.13.19.2.43.2.74,0,.34-.08.63-.25.87-.17.24-.41.42-.73.55-.32.13-.7.19-1.14.19s-.78-.06-1.08-.18c-.3-.12-.53-.29-.69-.51-.16-.22-.24-.47-.24-.77h1.19c.02.12.06.23.13.32.07.09.16.16.29.21.12.05.28.08.46.08.21,0,.37-.03.5-.08.13-.06.22-.13.28-.23.06-.1.09-.2.09-.31,0-.16-.06-.28-.17-.36s-.27-.14-.45-.18c-.19-.04-.39-.08-.6-.12-.3-.06-.57-.14-.81-.24-.24-.1-.44-.25-.58-.44-.15-.19-.22-.45-.22-.77Z"/><path d="M216.15,265.14h1.13c.24.3.45.64.64,1.03.19.38.34.82.46,1.31.11.49.17,1.05.17,1.68s-.06,1.2-.17,1.73c-.11.53-.27.99-.46,1.4-.19.41-.4.75-.63,1.03h-1.14c.22-.34.41-.71.58-1.13.17-.42.31-.87.41-1.38s.15-1.06.15-1.67-.06-1.16-.17-1.67c-.11-.5-.26-.95-.43-1.34-.18-.39-.36-.72-.54-.99Z"/><line x1="242.85" y1="268.9" x2="269.86" y2="268.9" style="fill:none; stroke:#fcbf0f; stroke-linecap:round; stroke-linejoin:round; stroke-width:1.68px;"/><path d="M278.18,267.39h-1.24c-.03-.15-.08-.28-.15-.4-.07-.12-.16-.22-.27-.31s-.23-.15-.38-.2c-.14-.05-.3-.07-.48-.07-.46,0-.81.16-1.06.48-.25.32-.38.77-.38,1.36v.79c0,.37.05.7.16.98.1.28.27.5.48.66.22.16.49.24.83.24.29,0,.54-.05.73-.16.19-.1.34-.24.44-.42.1-.17.14-.37.14-.58v-.41h-1.31v-.94h2.51v1.27c0,.31-.05.6-.15.88-.1.28-.26.52-.47.73-.21.21-.47.38-.79.5s-.69.18-1.12.18c-.46,0-.86-.07-1.2-.21-.34-.14-.63-.34-.85-.6s-.4-.57-.51-.93c-.11-.36-.17-.75-.17-1.19v-.81c0-.58.11-1.08.32-1.51.21-.43.52-.77.93-1.01.41-.24.9-.36,1.47-.36.38,0,.72.05,1.02.16.3.11.55.25.76.44.21.19.38.4.5.65.12.24.2.51.22.79Z"/><path d="M279.74,265.48h2.33c.65,0,1.18.12,1.6.37.42.25.73.61.94,1.08s.31,1.05.31,1.72-.1,1.25-.31,1.73c-.21.48-.52.85-.95,1.1-.42.25-.96.38-1.6.38h-2.33v-6.38ZM281,266.51v4.32h.9c.3,0,.55-.04.77-.13.22-.09.4-.22.54-.4.14-.18.24-.4.31-.67.07-.27.11-.58.11-.94,0-.48-.06-.88-.18-1.2-.12-.32-.31-.56-.57-.72-.25-.16-.58-.24-.97-.24h-.9Z"/><path d="M288.06,265.48c.46,0,.85.09,1.17.28s.56.44.73.76c.17.32.25.68.25,1.08s-.08.76-.25,1.08c-.17.32-.42.57-.74.76s-.71.28-1.17.28h-1.28v2.14h-1.26v-6.38h2.55ZM288.93,267.6c0-.36-.1-.64-.29-.83-.2-.19-.47-.29-.82-.29h-1.05v2.24h1.05c.23,0,.43-.04.6-.13.17-.09.29-.22.38-.38.09-.17.13-.37.13-.61Z"/><path d="M295.21,271.86h-1.13v-6.38h1.29l1.82,4.14h.04l1.82-4.14h1.28v6.38h-1.14v-4.24h-.06l-1.51,3.45h-.82l-1.52-3.45h-.06v4.24Z"/><path d="M302.71,271.93c-.48,0-.88-.14-1.18-.41-.3-.27-.45-.64-.45-1.11s.15-.8.45-1.07.74-.4,1.32-.4h1.21v-.44c0-.25-.07-.44-.22-.56-.15-.12-.35-.18-.6-.18-.17,0-.31.02-.42.07-.11.04-.2.11-.26.19-.06.08-.1.17-.13.27h-1.16c.02-.2.06-.39.15-.57.08-.18.2-.33.36-.47.16-.13.36-.24.61-.32.25-.08.54-.12.88-.12.37,0,.71.05,1.01.16.31.11.55.29.73.54.18.25.27.58.27,1v3.33h-1.16v-.63h-.06c-.07.12-.16.24-.27.34s-.26.19-.44.26c-.18.07-.39.1-.63.1ZM303.12,271.03c.17,0,.33-.04.47-.11s.26-.17.34-.29c.09-.12.13-.27.13-.42v-.51h-.95c-.27,0-.48.06-.61.18-.13.12-.2.28-.2.47,0,.23.08.41.25.52s.35.17.56.17Z"/><path d="M311.71,266.9v4.96h-1.2v-.83h-.06c-.05.13-.13.27-.25.4-.12.14-.28.26-.48.35-.2.1-.45.15-.74.15-.33,0-.62-.06-.86-.17-.25-.12-.44-.3-.58-.54-.14-.25-.21-.57-.21-.96v-3.36h1.23v3.04c0,.25.04.45.13.59.09.14.2.24.33.29.14.05.28.08.43.08.19,0,.36-.04.52-.13.16-.09.28-.21.37-.36.09-.15.14-.33.14-.53v-2.98h1.23Z"/><path d="M312.6,271.86v-4.96h1.23v.78h.06c.03-.12.1-.24.2-.37s.23-.24.4-.34.39-.14.65-.14c.08,0,.15,0,.22,0,.07,0,.12.01.17.02v1.07s-.12-.02-.21-.03c-.09,0-.18-.01-.28-.01-.27,0-.49.05-.67.14-.18.1-.31.23-.39.4-.08.17-.13.37-.13.59v2.84h-1.26Z"/><path d="M316.7,265.44c0-.21.07-.37.21-.5s.33-.19.56-.19.42.06.56.19.21.29.21.5-.07.36-.21.49-.33.19-.56.19-.41-.06-.56-.19-.21-.29-.21-.49ZM316.86,271.86v-4.96h1.23v4.96h-1.23Z"/><path d="M320,266.95v-1.23h1.2v1.23h1.1v.94h-1.1v2.41c0,.25.05.42.17.51.11.09.29.14.55.14.08,0,.16,0,.24,0,.08,0,.14,0,.19-.01v.91s-.14.02-.29.03c-.15.01-.29.02-.43.02-.41,0-.74-.05-.98-.15-.24-.1-.41-.25-.51-.46-.1-.21-.15-.48-.15-.82v-2.57h-.75v-.94h.78Z"/><path d="M323.79,265.44c0-.21.07-.37.21-.5s.33-.19.56-.19.42.06.56.19.21.29.21.5-.07.36-.21.49-.33.19-.56.19-.41-.06-.56-.19-.21-.29-.21-.49ZM323.95,271.86v-4.96h1.23v4.96h-1.23Z"/><path d="M331.07,266.9v4.96h-1.2v-.83h-.06c-.05.13-.13.27-.25.4-.12.14-.28.26-.48.35-.2.1-.45.15-.74.15-.33,0-.62-.06-.86-.17-.25-.12-.44-.3-.58-.54-.14-.25-.21-.57-.21-.96v-3.36h1.23v3.04c0,.25.04.45.13.59.09.14.2.24.33.29.14.05.28.08.43.08.19,0,.36-.04.52-.13.16-.09.28-.21.37-.36.09-.15.14-.33.14-.53v-2.98h1.23Z"/><path d="M331.72,268.36c0-.37.09-.67.28-.9s.43-.39.73-.5c.3-.1.63-.16.98-.16.37,0,.7.06.98.17.29.11.51.28.67.49.16.22.24.48.24.79h-1.09c0-.1-.05-.2-.11-.29s-.16-.17-.27-.22-.27-.09-.44-.09c-.25,0-.44.05-.58.16-.14.11-.21.25-.21.44,0,.13.04.23.12.31.08.08.19.14.32.18.13.05.27.08.42.11.15.03.29.05.43.07.31.05.58.13.82.23.24.1.43.25.56.43.13.19.2.43.2.74,0,.34-.08.63-.25.87-.17.24-.41.42-.73.55-.32.13-.7.19-1.14.19s-.78-.06-1.08-.18c-.3-.12-.53-.29-.69-.51-.16-.22-.24-.47-.24-.77h1.19c.02.12.06.23.13.32.07.09.16.16.29.21.12.05.28.08.46.08.21,0,.37-.03.5-.08.13-.06.22-.13.28-.23.06-.1.09-.2.09-.31,0-.16-.06-.28-.17-.36s-.27-.14-.45-.18c-.19-.04-.39-.08-.6-.12-.3-.06-.57-.14-.81-.24-.24-.1-.44-.25-.58-.44-.15-.19-.22-.45-.22-.77Z"/><path d="M340.89,265.14h1.13c-.19.27-.37.6-.54.99s-.32.84-.43,1.34-.17,1.06-.17,1.67.05,1.16.15,1.67c.1.5.24.96.41,1.38.17.41.37.79.58,1.13h-1.14c-.23-.28-.44-.62-.63-1.03s-.34-.88-.46-1.4c-.11-.53-.17-1.1-.17-1.73s.06-1.19.17-1.68c.11-.49.27-.92.46-1.31s.41-.72.64-1.03Z"/><path d="M343.36,271.86v-6.38h2.67c.57,0,1.03.14,1.37.42s.51.66.51,1.15c0,.26-.05.48-.14.67-.1.19-.22.35-.39.47-.16.12-.35.21-.56.26v.06c.26.03.5.1.71.22s.39.3.52.52.19.5.19.82c0,.38-.1.7-.29.97-.19.27-.45.47-.79.61-.33.14-.72.21-1.15.21h-2.66ZM344.61,266.43v1.71h.83c.28,0,.51-.03.69-.1.18-.07.31-.17.4-.3s.13-.29.13-.47c0-.26-.08-.47-.25-.61-.16-.15-.39-.22-.69-.22h-1.12ZM344.61,269.01v1.9h.94c.5,0,.85-.08,1.07-.24.22-.16.33-.39.33-.69,0-.2-.04-.38-.13-.52-.09-.14-.21-.26-.39-.33-.17-.08-.38-.12-.63-.12h-1.2Z"/><path d="M349.37,265.44c0-.21.07-.37.21-.5s.33-.19.56-.19.42.06.56.19.21.29.21.5-.07.36-.21.49-.33.19-.56.19-.41-.06-.56-.19-.21-.29-.21-.49ZM349.53,271.86v-4.96h1.23v4.96h-1.23Z"/><path d="M352.33,271.86v-6.72h1.23v6.72h-1.23Z"/><path d="M354.91,271.86v-6.72h1.23v6.72h-1.23Z"/><path d="M357.38,265.44c0-.21.07-.37.21-.5s.33-.19.56-.19.42.06.56.19.21.29.21.5-.07.36-.21.49-.33.19-.56.19-.41-.06-.56-.19-.21-.29-.21-.49ZM357.54,271.86v-4.96h1.23v4.96h-1.23Z"/><path d="M362.36,266.81c.45,0,.85.09,1.19.28.34.18.6.45.79.79.19.34.28.75.28,1.21v.56c0,.49-.09.91-.28,1.25s-.45.6-.79.79c-.34.18-.74.27-1.19.27s-.86-.09-1.2-.27c-.34-.18-.61-.44-.79-.78-.19-.34-.28-.76-.28-1.25v-.55c0-.46.09-.86.29-1.2.19-.34.46-.61.8-.8.34-.19.74-.29,1.19-.29ZM362.36,267.76c-.23,0-.42.06-.58.18-.15.12-.27.29-.34.49-.08.21-.11.43-.11.68v.51c0,.25.04.48.11.68s.19.37.34.49c.15.12.35.18.58.18s.43-.06.58-.18c.15-.12.26-.29.33-.49.07-.21.11-.43.11-.68v-.51c0-.25-.04-.48-.11-.68-.07-.2-.19-.37-.34-.49-.15-.12-.34-.18-.57-.18Z"/><path d="M366.34,271.86v-4.96h1.2v.87h.06c.04-.13.11-.27.22-.42s.26-.27.46-.38c.2-.11.47-.16.79-.16.5,0,.9.14,1.2.43.3.29.45.71.45,1.29v3.32h-1.23v-2.98c0-.25-.04-.44-.12-.59-.08-.15-.19-.26-.32-.33s-.29-.11-.45-.11c-.22,0-.41.05-.57.16-.16.11-.27.25-.35.44s-.12.41-.12.66v2.75h-1.23Z"/><path d="M371.39,268.36c0-.37.09-.67.28-.9s.43-.39.73-.5c.3-.1.63-.16.98-.16.37,0,.7.06.98.17.29.11.51.28.67.49.16.22.24.48.24.79h-1.09c0-.1-.05-.2-.11-.29s-.16-.17-.27-.22-.27-.09-.44-.09c-.25,0-.44.05-.58.16-.14.11-.21.25-.21.44,0,.13.04.23.12.31.08.08.19.14.32.18.13.05.27.08.42.11.15.03.29.05.43.07.31.05.58.13.82.23.24.1.43.25.56.43.13.19.2.43.2.74,0,.34-.08.63-.25.87-.17.24-.41.42-.73.55-.32.13-.7.19-1.14.19s-.78-.06-1.08-.18c-.3-.12-.53-.29-.69-.51-.16-.22-.24-.47-.24-.77h1.19c.02.12.06.23.13.32.07.09.16.16.29.21.12.05.28.08.46.08.21,0,.37-.03.5-.08.13-.06.22-.13.28-.23.06-.1.09-.2.09-.31,0-.16-.06-.28-.17-.36s-.27-.14-.45-.18c-.19-.04-.39-.08-.6-.12-.3-.06-.57-.14-.81-.24-.24-.1-.44-.25-.58-.44-.15-.19-.22-.45-.22-.77Z"/><path d="M381.15,266.81c.45,0,.85.09,1.19.28.34.18.6.45.79.79.19.34.28.75.28,1.21v.56c0,.49-.09.91-.28,1.25s-.45.6-.79.79c-.34.18-.74.27-1.19.27s-.86-.09-1.2-.27c-.34-.18-.61-.44-.79-.78-.19-.34-.28-.76-.28-1.25v-.55c0-.46.09-.86.29-1.2.19-.34.46-.61.8-.8.34-.19.74-.29,1.19-.29ZM381.15,267.76c-.23,0-.42.06-.58.18-.15.12-.27.29-.34.49-.08.21-.11.43-.11.68v.51c0,.25.04.48.11.68s.19.37.34.49c.15.12.35.18.58.18s.43-.06.58-.18c.15-.12.26-.29.33-.49.07-.21.11-.43.11-.68v-.51c0-.25-.04-.48-.11-.68-.07-.2-.19-.37-.34-.49-.15-.12-.34-.18-.57-.18Z"/><path d="M385.57,271.86v-3.97h-.81v-.94h.81v-.49c0-.49.13-.85.39-1.07s.7-.33,1.31-.33c.12,0,.25,0,.39.01s.24.02.31.03v.88s-.11-.01-.21-.02c-.09,0-.18,0-.25,0-.26,0-.45.04-.56.13-.12.09-.17.25-.17.48v.39h1.11v.94h-1.09v3.97h-1.22Z"/><path d="M393.56,270.9c.39,0,.71-.12.95-.36.24-.24.36-.58.36-1.01v-4.06h1.27v4.18c0,.46-.11.87-.32,1.22s-.51.62-.9.81-.84.29-1.36.29-.98-.1-1.37-.29c-.39-.19-.69-.46-.9-.81s-.32-.76-.32-1.22v-4.18h1.27v4.06c0,.44.12.78.36,1.02.24.24.56.35.95.35Z"/><path d="M396.88,271.17c0-.25.08-.44.24-.59.16-.14.35-.22.58-.22s.43.07.59.22c.16.15.24.34.24.58s-.08.43-.24.57c-.16.14-.36.21-.59.21s-.42-.07-.58-.21c-.16-.14-.24-.33-.24-.57Z"/><path d="M400.26,270.12h1.22c.02.12.07.24.13.34.07.1.16.2.27.27.11.08.25.14.4.18.15.04.32.07.51.07.26,0,.48-.04.66-.11.18-.07.31-.18.4-.31.09-.13.14-.29.14-.46,0-.22-.08-.4-.24-.52s-.41-.23-.74-.31l-.99-.23c-.33-.08-.62-.19-.86-.34-.24-.15-.43-.35-.56-.58-.13-.24-.2-.52-.2-.84,0-.39.1-.73.3-1.02.2-.29.48-.51.84-.67.36-.16.77-.24,1.24-.24s.9.08,1.25.24c.34.16.61.38.8.65s.29.57.32.9h-1.2c-.03-.15-.09-.29-.19-.41-.1-.12-.23-.22-.4-.29-.17-.07-.36-.11-.59-.11-.35,0-.62.08-.82.24-.2.16-.3.37-.3.61,0,.19.08.35.23.48.15.12.37.22.65.28l.99.23c.35.08.65.19.9.33.26.15.46.34.6.57.14.24.21.53.21.89,0,.4-.1.74-.3,1.04-.2.3-.48.54-.86.7-.38.17-.83.25-1.37.25-.41,0-.76-.05-1.06-.14-.3-.1-.56-.23-.76-.4-.2-.17-.36-.37-.47-.6-.11-.22-.17-.46-.18-.72Z"/><path d="M405.66,271.17c0-.25.08-.44.24-.59.16-.14.35-.22.58-.22s.43.07.59.22c.16.15.24.34.24.58s-.08.43-.24.57c-.16.14-.36.21-.59.21s-.42-.07-.58-.21c-.16-.14-.24-.33-.24-.57Z"/><path d="M412.41,266.83c.23,0,.45.03.64.1.19.07.35.16.49.28s.23.27.3.44h.06v-2.51h1.23v6.72h-1.21v-.79h-.06c-.04.13-.1.24-.19.35s-.2.19-.33.27c-.13.08-.27.13-.43.18-.16.04-.33.06-.51.06-.37,0-.7-.09-.98-.26-.28-.17-.49-.42-.65-.75-.15-.33-.23-.71-.23-1.17v-.74c0-.46.08-.84.23-1.17s.37-.57.65-.75.61-.26.98-.26ZM412.82,267.81c-.21,0-.38.05-.54.15-.15.1-.27.25-.35.45-.08.2-.12.43-.12.72v.48c0,.28.04.52.13.72s.2.35.36.45.34.15.55.15.39-.05.55-.15c.16-.1.28-.25.37-.44.09-.19.13-.42.13-.69v-.64c0-.25-.05-.46-.14-.64-.09-.18-.22-.32-.38-.42-.16-.1-.34-.15-.55-.15Z"/><path d="M419.05,266.81c.45,0,.85.09,1.19.28.34.18.6.45.79.79.19.34.28.75.28,1.21v.56c0,.49-.09.91-.28,1.25s-.45.6-.79.79c-.34.18-.74.27-1.19.27s-.86-.09-1.2-.27c-.34-.18-.61-.44-.79-.78-.19-.34-.28-.76-.28-1.25v-.55c0-.46.09-.86.29-1.2.19-.34.46-.61.8-.8.34-.19.74-.29,1.19-.29ZM419.05,267.76c-.23,0-.42.06-.58.18-.15.12-.27.29-.34.49-.08.21-.11.43-.11.68v.51c0,.25.04.48.11.68s.19.37.34.49c.15.12.35.18.58.18s.43-.06.58-.18c.15-.12.26-.29.33-.49.07-.21.11-.43.11-.68v-.51c0-.25-.04-.48-.11-.68-.07-.2-.19-.37-.34-.49-.15-.12-.34-.18-.57-.18Z"/><path d="M423.06,271.86v-6.72h1.23v6.72h-1.23Z"/><path d="M425.64,271.86v-6.72h1.23v6.72h-1.23Z"/><path d="M429.55,271.93c-.48,0-.88-.14-1.18-.41-.3-.27-.45-.64-.45-1.11s.15-.8.45-1.07.74-.4,1.32-.4h1.21v-.44c0-.25-.07-.44-.22-.56-.15-.12-.35-.18-.6-.18-.17,0-.31.02-.42.07-.11.04-.2.11-.26.19-.06.08-.1.17-.13.27h-1.16c.02-.2.06-.39.15-.57.08-.18.2-.33.36-.47.16-.13.36-.24.61-.32.25-.08.54-.12.88-.12.37,0,.71.05,1.01.16.31.11.55.29.73.54.18.25.27.58.27,1v3.33h-1.16v-.63h-.06c-.07.12-.16.24-.27.34s-.26.19-.44.26c-.18.07-.39.1-.63.1ZM429.96,271.03c.17,0,.33-.04.47-.11s.26-.17.34-.29c.09-.12.13-.27.13-.42v-.51h-.95c-.27,0-.48.06-.61.18-.13.12-.2.28-.2.47,0,.23.08.41.25.52s.35.17.56.17Z"/><path d="M433.2,271.86v-4.96h1.23v.78h.06c.03-.12.1-.24.2-.37s.23-.24.4-.34.39-.14.65-.14c.08,0,.15,0,.22,0,.07,0,.12.01.17.02v1.07s-.12-.02-.21-.03c-.09,0-.18-.01-.28-.01-.27,0-.49.05-.67.14-.18.1-.31.23-.39.4-.08.17-.13.37-.13.59v2.84h-1.26Z"/><path d="M437.17,268.36c0-.37.09-.67.28-.9s.43-.39.73-.5c.3-.1.63-.16.98-.16.37,0,.7.06.98.17.29.11.51.28.67.49.16.22.24.48.24.79h-1.09c0-.1-.05-.2-.11-.29s-.16-.17-.27-.22-.27-.09-.44-.09c-.25,0-.44.05-.58.16-.14.11-.21.25-.21.44,0,.13.04.23.12.31.08.08.19.14.32.18.13.05.27.08.42.11.15.03.29.05.43.07.31.05.58.13.82.23.24.1.43.25.56.43.13.19.2.43.2.74,0,.34-.08.63-.25.87-.17.24-.41.42-.73.55-.32.13-.7.19-1.14.19s-.78-.06-1.08-.18c-.3-.12-.53-.29-.69-.51-.16-.22-.24-.47-.24-.77h1.19c.02.12.06.23.13.32.07.09.16.16.29.21.12.05.28.08.46.08.21,0,.37-.03.5-.08.13-.06.22-.13.28-.23.06-.1.09-.2.09-.31,0-.16-.06-.28-.17-.36s-.27-.14-.45-.18c-.19-.04-.39-.08-.6-.12-.3-.06-.57-.14-.81-.24-.24-.1-.44-.25-.58-.44-.15-.19-.22-.45-.22-.77Z"/><path d="M441.95,265.14h1.13c.24.3.45.64.64,1.03.19.38.34.82.46,1.31.11.49.17,1.05.17,1.68s-.06,1.2-.17,1.73c-.11.53-.27.99-.46,1.4-.19.41-.4.75-.63,1.03h-1.14c.22-.34.41-.71.58-1.13.17-.42.31-.87.41-1.38s.15-1.06.15-1.67-.06-1.16-.17-1.67c-.11-.5-.26-.95-.43-1.34-.18-.39-.36-.72-.54-.99Z"/></g></svg>