<?xml version="1.0" encoding="UTF-8"?><svg id="uuid-8e2be0cd-3330-48b0-9f2d-ae1ff95e81ff" xmlns="http://www.w3.org/2000/svg" viewBox="0 0 535.37 322.5"><g id="uuid-31fec896-8472-48c5-8e96-f56191899b53"><rect width="535.37" height="322.5" style="fill:#fff;"/><path d="M20.95,8.23h497.21M20.95,78.19h497.21M20.95,148.15h497.21M20.95,218.12h497.21M20.95,288.08h497.21" style="fill:none; stroke:#d9d9d9; stroke-linejoin:round; stroke-width:.56px;"/><polyline points="21.14 96.34 31.61 96.71 41.71 98.21 52.19 97.46 62.67 101.2 72.77 115.79 83.24 97.46 93.72 96.71 103.82 98.96 114.3 98.21 124.77 97.46 134.87 97.83 145.35 95.21 155.82 92.97 166.3 91.1 176.4 89.23 186.88 84.74 197.35 81.37 207.45 80.62 217.93 78.75 228.4 77.63 238.5 78.38 248.98 78.01 259.46 74.64 269.56 67.9 280.03 66.41 290.51 63.79 300.61 62.29 311.09 64.91 321.56 64.16 331.66 63.79 342.14 62.29 352.61 59.3 362.71 59.67 373.19 63.41 383.67 60.42 394.14 61.54 404.24 58.55 414.72 64.91 425.19 70.15 435.29 59.67 445.77 54.44 456.25 53.69 466.35 52.19 476.82 51.07 487.3 52.19 497.4 34.23 507.88 26 518.35 23.38" style="fill:none; stroke:#079bd5; stroke-linecap:round; stroke-linejoin:round; stroke-width:1.68px;"/><polyline points="21.14 207.08 31.61 202.59 41.71 198.85 52.19 196.23 62.67 192.49 72.77 183.51 83.24 182.01 93.72 182.76 103.82 182.01 114.3 179.02 124.77 174.53 134.87 173.78 145.35 164.8 155.82 150.59 166.3 137.12 176.4 132.63 186.88 128.89 197.35 126.64 207.45 115.42 217.93 114.3 228.4 117.66 238.5 107.56 248.98 101.58 259.46 100.08 269.56 92.6 280.03 81.75 290.51 78.38 300.61 79.13 311.09 78.01 321.56 75.39 331.66 77.26 342.14 75.39 352.61 75.76 362.71 76.51 373.19 74.26 383.67 73.89 394.14 57.05 404.24 38.35 414.72 43.96 425.19 55.56 435.29 57.8 445.77 60.05 456.25 58.55 466.35 55.93 476.82 54.44 487.3 52.19 497.4 50.32 507.88 53.69 518.35 43.21" style="fill:none; stroke:#fcbf0d; stroke-linecap:round; stroke-linejoin:round; stroke-width:1.68px;"/><path d="M8.47,285.08h2.87v.55l-1.83,3.94h-.63l1.86-3.93v-.04h-2.26v-.53Z"/><path d="M12.47,287.41v-.17c0-.45.06-.85.19-1.19s.31-.6.55-.79.53-.28.87-.28.63.09.87.28.42.45.54.79c.12.34.19.73.19,1.19v.17c0,.34-.04.65-.11.92-.07.28-.18.51-.31.71-.14.2-.31.35-.5.46s-.43.16-.68.16c-.34,0-.63-.09-.87-.28-.24-.19-.42-.45-.55-.78-.13-.34-.19-.73-.19-1.19ZM13.07,287.25v.16c0,.36.04.67.12.93.08.26.2.46.35.6.15.14.33.21.53.21s.39-.07.54-.21c.15-.14.26-.34.34-.6s.12-.57.12-.93v-.16c0-.36-.04-.67-.12-.93s-.2-.46-.34-.6c-.15-.14-.33-.21-.54-.21s-.38.07-.53.21c-.15.14-.27.34-.35.6-.08.26-.12.57-.12.93Z"/><path d="M10.09,219.7c-.31,0-.58-.06-.82-.17-.24-.11-.43-.26-.56-.46s-.2-.43-.2-.69c0-.18.03-.33.09-.46.06-.13.13-.24.23-.33.09-.09.19-.16.3-.22.1-.05.2-.09.3-.12v-.03c-.1-.04-.21-.09-.33-.18-.11-.08-.21-.19-.29-.33-.08-.14-.12-.3-.12-.5,0-.23.06-.44.18-.62.12-.18.29-.32.5-.42s.46-.15.73-.15.52.05.74.15.38.24.5.42c.12.18.18.39.18.62,0,.2-.04.37-.12.5-.08.14-.18.25-.29.33s-.22.14-.32.17v.03c.09.02.19.06.3.12.1.05.2.13.3.22.09.09.17.2.23.33s.08.28.08.46c0,.26-.07.49-.21.69-.14.2-.33.35-.57.47-.24.11-.52.17-.83.17ZM10.11,219.21c.19,0,.36-.04.51-.11s.27-.17.36-.3c.09-.13.13-.27.13-.44s-.04-.32-.13-.45c-.09-.13-.21-.23-.36-.3s-.32-.11-.51-.11-.36.04-.51.11-.27.17-.36.3c-.09.13-.13.28-.13.45s.04.31.13.44c.09.13.21.23.36.3s.32.11.51.11ZM10.11,217.03c.16,0,.31-.03.43-.1.13-.06.22-.15.3-.27s.11-.24.11-.39-.04-.28-.11-.39c-.07-.11-.17-.2-.3-.26s-.27-.09-.43-.09-.31.03-.43.09-.23.15-.3.26c-.07.11-.11.24-.11.39s.04.28.11.39c.07.11.17.2.3.27.13.06.27.1.43.1Z"/><path d="M12.89,217.45v-.17c0-.45.06-.85.19-1.19.13-.34.31-.6.55-.79s.53-.28.87-.28.63.09.87.28.42.45.54.79c.12.34.19.73.19,1.19v.17c0,.34-.04.65-.11.92-.07.28-.18.51-.31.71-.14.2-.31.35-.5.46-.2.11-.43.16-.68.16-.34,0-.63-.09-.87-.28-.24-.19-.42-.45-.55-.78-.13-.34-.19-.73-.19-1.19ZM13.49,217.29v.16c0,.36.04.67.12.93.08.26.2.46.35.6.15.14.33.21.53.21s.39-.07.54-.21.26-.34.34-.6.12-.57.12-.93v-.16c0-.36-.04-.67-.12-.93s-.2-.46-.34-.6-.33-.21-.54-.21-.38.07-.53.21c-.15.14-.27.34-.35.6-.08.26-.12.57-.12.93Z"/><path d="M8.63,148.41h.61c.02.07.06.14.12.21s.15.12.25.16c.1.04.23.06.38.06.21,0,.38-.05.53-.14.14-.1.26-.23.35-.39.09-.17.15-.36.18-.58s.05-.46.04-.71h-.03c-.05.12-.12.24-.21.35-.1.11-.22.19-.37.26-.15.06-.33.1-.53.1-.27,0-.51-.06-.72-.18-.22-.12-.39-.29-.52-.52-.13-.23-.19-.5-.19-.81s.07-.59.21-.82c.14-.23.33-.4.56-.52s.5-.18.79-.18c.2,0,.39.03.58.1.19.07.36.18.52.35s.28.39.37.68c.09.29.14.66.14,1.11,0,.54-.06.99-.18,1.35-.12.36-.31.63-.56.81-.25.18-.57.27-.96.27-.21,0-.39-.03-.55-.08-.16-.05-.3-.12-.41-.21-.11-.09-.2-.19-.26-.3s-.1-.23-.12-.36ZM10.99,146.23c0-.22-.04-.41-.13-.56-.08-.15-.2-.27-.34-.35s-.3-.12-.49-.12c-.17,0-.32.04-.46.12s-.25.2-.34.35c-.08.15-.13.33-.13.55s.04.41.13.55c.09.15.2.25.35.33s.3.11.47.11.31-.04.46-.11.26-.18.35-.32.13-.32.13-.54Z"/><path d="M12.89,147.12v-.17c0-.45.06-.85.19-1.19.13-.34.31-.6.55-.79s.53-.28.87-.28.63.09.87.28.42.45.54.79c.12.34.19.73.19,1.19v.17c0,.34-.04.65-.11.92-.07.28-.18.51-.31.71-.14.2-.31.35-.5.46-.2.11-.43.16-.68.16-.34,0-.63-.09-.87-.28-.24-.19-.42-.45-.55-.78-.13-.34-.19-.73-.19-1.19ZM13.49,146.95v.16c0,.36.04.67.12.93.08.26.2.46.35.6.15.14.33.21.53.21s.39-.07.54-.21.26-.34.34-.6.12-.57.12-.93v-.16c0-.36-.04-.67-.12-.93s-.2-.46-.34-.6-.33-.21-.54-.21-.38.07-.53.21c-.15.14-.27.34-.35.6-.08.26-.12.57-.12.93Z"/><path d="M6.87,79.31h-.6v-3.84h-.03c-.12.08-.23.17-.35.25-.12.08-.23.17-.34.25-.12.08-.23.17-.35.25v-.61c.18-.13.36-.27.54-.4.18-.13.36-.26.53-.39h.6v4.49Z"/><path d="M8.52,77.16v-.17c0-.45.06-.85.19-1.19.13-.34.31-.6.55-.79s.53-.28.87-.28.63.09.87.28.42.45.54.79c.12.34.19.73.19,1.19v.17c0,.34-.04.65-.11.92-.07.28-.18.51-.31.71-.14.2-.31.35-.5.46-.2.11-.43.16-.68.16-.34,0-.63-.09-.87-.28-.24-.19-.42-.45-.55-.78-.13-.34-.19-.73-.19-1.19ZM9.12,76.99v.16c0,.36.04.67.12.93.08.26.2.46.35.6.15.14.33.21.53.21s.39-.07.54-.21.26-.34.34-.6.12-.57.12-.93v-.16c0-.36-.04-.67-.12-.93s-.2-.46-.34-.6-.33-.21-.54-.21-.38.07-.53.21c-.15.14-.27.34-.35.6-.08.26-.12.57-.12.93Z"/><path d="M12.21,77.16v-.17c0-.45.06-.85.19-1.19.13-.34.31-.6.55-.79s.53-.28.87-.28.63.09.87.28.42.45.54.79c.12.34.19.73.19,1.19v.17c0,.34-.04.65-.11.92-.07.28-.18.51-.31.71-.14.2-.31.35-.5.46-.2.11-.43.16-.68.16-.34,0-.63-.09-.87-.28-.24-.19-.42-.45-.55-.78-.13-.34-.19-.73-.19-1.19ZM12.81,76.99v.16c0,.36.04.67.12.93.08.26.2.46.35.6.15.14.33.21.53.21s.39-.07.54-.21.26-.34.34-.6.12-.57.12-.93v-.16c0-.36-.04-.67-.12-.93s-.2-.46-.34-.6-.33-.21-.54-.21-.38.07-.53.21c-.15.14-.27.34-.35.6-.08.26-.12.57-.12.93Z"/><path d="M6.87,9.35h-.6v-3.84h-.03c-.12.08-.23.17-.35.25-.12.08-.23.17-.34.25-.12.08-.23.17-.35.25v-.61c.18-.13.36-.27.54-.4.18-.13.36-.26.53-.39h.6v4.49Z"/><path d="M10.26,9.35h-.6v-3.84h-.03c-.12.08-.23.17-.35.25-.12.08-.23.17-.34.25-.12.08-.23.17-.35.25v-.61c.18-.13.36-.27.54-.4.18-.13.36-.26.53-.39h.6v4.49Z"/><path d="M11.17,7.2v-.17c0-.45.06-.85.19-1.19.13-.34.31-.6.55-.79s.53-.28.87-.28.63.09.87.28.42.45.54.79c.12.34.19.73.19,1.19v.17c0,.34-.04.65-.11.92-.07.28-.18.51-.31.71-.14.2-.31.35-.5.46-.2.11-.43.16-.68.16-.34,0-.63-.09-.87-.28-.24-.19-.42-.45-.55-.78-.13-.34-.19-.73-.19-1.19ZM11.77,7.03v.16c0,.36.04.67.12.93.08.26.2.46.35.6.15.14.33.21.53.21s.39-.07.54-.21.26-.34.34-.6.12-.57.12-.93v-.16c0-.36-.04-.67-.12-.93s-.2-.46-.34-.6-.33-.21-.54-.21-.38.07-.53.21c-.15.14-.27.34-.35.6-.08.26-.12.57-.12.93Z"/><path d="M12.48,297.12h.59c0,.12.04.22.09.31.06.09.14.16.24.21.1.05.21.08.34.08.24,0,.42-.07.55-.21.12-.14.19-.34.19-.6v-3.22h.61v3.17c0,.45-.12.8-.35,1.04-.24.24-.57.37-.99.37-.19,0-.37-.03-.52-.08-.16-.06-.29-.14-.4-.24-.11-.1-.19-.23-.25-.37-.06-.14-.09-.29-.09-.46Z"/><path d="M17.4,298.23c-.34,0-.61-.1-.82-.29-.21-.19-.31-.45-.31-.77,0-.3.1-.55.31-.74.21-.19.51-.28.91-.28h.9v-.34c0-.22-.07-.38-.2-.49-.13-.11-.31-.16-.53-.16-.15,0-.27.02-.36.05-.09.04-.17.08-.22.14-.05.06-.09.13-.11.21h-.58c.01-.15.05-.28.11-.39.06-.11.15-.21.26-.29.11-.08.24-.14.4-.18.15-.04.33-.06.52-.06.24,0,.46.04.65.11.2.08.35.2.47.37s.18.39.18.68v2.36h-.57v-.46h-.03c-.06.09-.13.18-.22.26-.09.08-.2.14-.32.19-.13.05-.28.07-.45.07ZM17.57,297.73c.16,0,.3-.03.42-.1.12-.06.22-.15.29-.26s.11-.24.11-.38v-.38h-.85c-.24,0-.4.05-.5.15-.1.1-.15.23-.15.39,0,.2.07.35.21.44.14.09.3.14.48.14Z"/><path d="M19.85,298.18v-3.46h.59v.63h.03c.03-.09.08-.19.15-.3s.18-.2.32-.27c.14-.08.33-.12.58-.12.35,0,.63.09.85.29.22.19.33.48.33.87v2.36h-.6v-2.17c0-.18-.03-.33-.09-.46-.06-.12-.15-.21-.26-.27-.11-.06-.25-.09-.4-.09-.2,0-.37.05-.5.14-.13.09-.24.22-.3.38-.07.16-.1.34-.1.54v1.93h-.6Z"/><path d="M26.01,296.6h-2.07v-.53h2.07v.53Z"/><path d="M26.86,294.94h-.59v-.02c0-.17.03-.33.09-.49.06-.16.15-.3.27-.42.12-.12.27-.22.45-.29s.38-.11.62-.11c.28,0,.53.05.74.16.21.11.37.25.49.44.11.19.17.4.17.63,0,.19-.03.36-.1.51-.07.15-.16.3-.28.45-.11.15-.24.3-.38.46l-1.19,1.37v.04h2.04v.53h-2.9v-.38l1.69-1.92c.08-.09.16-.19.24-.29.08-.1.14-.21.2-.33s.08-.24.08-.38c0-.15-.04-.29-.11-.4s-.17-.2-.29-.26c-.12-.06-.26-.09-.41-.09-.17,0-.32.04-.45.11s-.22.17-.28.29c-.06.12-.1.25-.1.4h0v.02Z"/><path d="M32.08,298.18h-.6v-3.84h-.03c-.12.08-.23.17-.35.25-.12.08-.23.17-.34.25-.12.08-.23.17-.35.25v-.61c.18-.13.36-.27.54-.4.18-.13.36-.26.53-.39h.6v4.49Z"/><path d="M136.76,297.12h.59c0,.12.04.22.09.31.06.09.14.16.24.21.1.05.21.08.34.08.24,0,.42-.07.55-.21.12-.14.19-.34.19-.6v-3.22h.61v3.17c0,.45-.12.8-.35,1.04-.24.24-.57.37-.99.37-.19,0-.37-.03-.52-.08-.16-.06-.29-.14-.4-.24-.11-.1-.19-.23-.25-.37-.06-.14-.09-.29-.09-.46Z"/><path d="M141.68,298.23c-.34,0-.61-.1-.82-.29-.21-.19-.31-.45-.31-.77,0-.3.1-.55.31-.74.21-.19.51-.28.91-.28h.9v-.34c0-.22-.07-.38-.2-.49-.13-.11-.31-.16-.53-.16-.15,0-.27.02-.36.05-.09.04-.17.08-.22.14-.05.06-.09.13-.11.21h-.58c.01-.15.05-.28.11-.39.06-.11.15-.21.26-.29.11-.08.24-.14.4-.18.15-.04.33-.06.52-.06.24,0,.46.04.65.11.2.08.35.2.47.37s.18.39.18.68v2.36h-.57v-.46h-.03c-.06.09-.13.18-.22.26-.09.08-.2.14-.32.19-.13.05-.28.07-.45.07ZM141.85,297.73c.16,0,.3-.03.42-.1.12-.06.22-.15.29-.26s.11-.24.11-.38v-.38h-.85c-.24,0-.4.05-.5.15-.1.1-.15.23-.15.39,0,.2.07.35.21.44.14.09.3.14.48.14Z"/><path d="M144.13,298.18v-3.46h.59v.63h.03c.03-.09.08-.19.15-.3s.18-.2.32-.27c.14-.08.33-.12.58-.12.35,0,.63.09.85.29.22.19.33.48.33.87v2.36h-.6v-2.17c0-.18-.03-.33-.09-.46-.06-.12-.15-.21-.26-.27-.11-.06-.25-.09-.4-.09-.2,0-.37.05-.5.14-.13.09-.24.22-.3.38-.07.16-.1.34-.1.54v1.93h-.6Z"/><path d="M150.28,296.6h-2.07v-.53h2.07v.53Z"/><path d="M151.14,294.94h-.59v-.02c0-.17.03-.33.09-.49.06-.16.15-.3.27-.42.12-.12.27-.22.45-.29s.38-.11.62-.11c.28,0,.53.05.74.16.21.11.37.25.49.44.11.19.17.4.17.63,0,.19-.03.36-.1.51-.07.15-.16.3-.28.45-.11.15-.24.3-.38.46l-1.19,1.37v.04h2.04v.53h-2.9v-.38l1.69-1.92c.08-.09.16-.19.24-.29.08-.1.14-.21.2-.33s.08-.24.08-.38c0-.15-.04-.29-.11-.4s-.17-.2-.29-.26c-.12-.06-.26-.09-.41-.09-.17,0-.32.04-.45.11s-.22.17-.28.29c-.06.12-.1.25-.1.4h0v.02Z"/><path d="M155.24,294.94h-.59v-.02c0-.17.03-.33.09-.49.06-.16.15-.3.27-.42.12-.12.27-.22.45-.29s.38-.11.62-.11c.28,0,.53.05.74.16.21.11.37.25.49.44.11.19.17.4.17.63,0,.19-.03.36-.1.51-.07.15-.16.3-.28.45-.11.15-.24.3-.38.46l-1.19,1.37v.04h2.04v.53h-2.9v-.38l1.69-1.92c.08-.09.16-.19.24-.29.08-.1.14-.21.2-.33s.08-.24.08-.38c0-.15-.04-.29-.11-.4s-.17-.2-.29-.26c-.12-.06-.26-.09-.41-.09-.17,0-.32.04-.45.11s-.22.17-.28.29c-.06.12-.1.25-.1.4h0v.02Z"/><path d="M261.04,297.12h.59c0,.12.04.22.09.31.06.09.14.16.24.21.1.05.21.08.34.08.24,0,.42-.07.55-.21.12-.14.19-.34.19-.6v-3.22h.61v3.17c0,.45-.12.8-.35,1.04-.24.24-.57.37-.99.37-.19,0-.37-.03-.52-.08-.16-.06-.29-.14-.4-.24-.11-.1-.19-.23-.25-.37-.06-.14-.09-.29-.09-.46Z"/><path d="M265.96,298.23c-.34,0-.61-.1-.82-.29-.21-.19-.31-.45-.31-.77,0-.3.1-.55.31-.74.21-.19.51-.28.91-.28h.9v-.34c0-.22-.07-.38-.2-.49-.13-.11-.31-.16-.53-.16-.15,0-.27.02-.36.05-.09.04-.17.08-.22.14-.05.06-.09.13-.11.21h-.58c.01-.15.05-.28.11-.39.06-.11.15-.21.26-.29.11-.08.24-.14.4-.18.15-.04.33-.06.52-.06.24,0,.46.04.65.11.2.08.35.2.47.37s.18.39.18.68v2.36h-.57v-.46h-.03c-.06.09-.13.18-.22.26-.09.08-.2.14-.32.19-.13.05-.28.07-.45.07ZM266.13,297.73c.16,0,.3-.03.42-.1.12-.06.22-.15.29-.26s.11-.24.11-.38v-.38h-.85c-.24,0-.4.05-.5.15-.1.1-.15.23-.15.39,0,.2.07.35.21.44.14.09.3.14.48.14Z"/><path d="M268.41,298.18v-3.46h.59v.63h.03c.03-.09.08-.19.15-.3s.18-.2.32-.27c.14-.08.33-.12.58-.12.35,0,.63.09.85.29.22.19.33.48.33.87v2.36h-.6v-2.17c0-.18-.03-.33-.09-.46-.06-.12-.15-.21-.26-.27-.11-.06-.25-.09-.4-.09-.2,0-.37.05-.5.14-.13.09-.24.22-.3.38-.07.16-.1.34-.1.54v1.93h-.6Z"/><path d="M274.57,296.6h-2.07v-.53h2.07v.53Z"/><path d="M275.42,294.94h-.59v-.02c0-.17.03-.33.09-.49.06-.16.15-.3.27-.42.12-.12.27-.22.45-.29s.38-.11.62-.11c.28,0,.53.05.74.16.21.11.37.25.49.44.11.19.17.4.17.63,0,.19-.03.36-.1.51-.07.15-.16.3-.28.45-.11.15-.24.3-.38.46l-1.19,1.37v.04h2.04v.53h-2.9v-.38l1.69-1.92c.08-.09.16-.19.24-.29.08-.1.14-.21.2-.33s.08-.24.08-.38c0-.15-.04-.29-.11-.4s-.17-.2-.29-.26c-.12-.06-.26-.09-.41-.09-.17,0-.32.04-.45.11s-.22.17-.28.29c-.06.12-.1.25-.1.4h0v.02Z"/><path d="M279.84,296.12v-.52h.46c.16,0,.3-.03.42-.1s.22-.16.29-.27.1-.25.1-.39c0-.22-.08-.39-.23-.53-.15-.14-.35-.2-.59-.2-.12,0-.23.02-.32.05-.09.03-.18.08-.25.14-.07.06-.13.12-.17.2-.04.07-.06.15-.07.24h-.58c0-.15.04-.29.1-.42s.15-.25.27-.36.26-.19.43-.25.37-.1.59-.1c.29,0,.53.05.74.15.21.1.38.24.49.41.12.17.18.37.18.59,0,.21-.04.39-.13.55-.09.15-.2.27-.33.36-.13.09-.25.14-.37.16v.03c.13.01.27.06.42.14.15.08.28.2.39.35.11.16.17.35.17.59,0,.2-.03.38-.11.54-.08.17-.19.31-.33.43-.14.12-.31.21-.51.28-.2.06-.41.1-.64.1-.3,0-.56-.05-.77-.15-.22-.1-.39-.24-.51-.41-.12-.17-.19-.37-.2-.58h.57c.01.12.06.22.14.32s.19.17.32.23c.13.06.29.08.46.09.2,0,.37-.04.51-.11.15-.07.26-.17.34-.3s.12-.27.12-.43c0-.16-.04-.3-.12-.42-.08-.12-.19-.21-.33-.28-.14-.07-.3-.1-.49-.1h-.49Z"/><path d="M385.32,297.12h.59c0,.12.04.22.09.31.06.09.14.16.24.21.1.05.21.08.34.08.24,0,.42-.07.55-.21.12-.14.19-.34.19-.6v-3.22h.61v3.17c0,.45-.12.8-.35,1.04-.24.24-.57.37-.99.37-.19,0-.37-.03-.52-.08-.16-.06-.29-.14-.4-.24-.11-.1-.19-.23-.25-.37-.06-.14-.09-.29-.09-.46Z"/><path d="M390.24,298.23c-.34,0-.61-.1-.82-.29-.21-.19-.31-.45-.31-.77,0-.3.1-.55.31-.74.21-.19.51-.28.91-.28h.9v-.34c0-.22-.07-.38-.2-.49-.13-.11-.31-.16-.53-.16-.15,0-.27.02-.36.05-.09.04-.17.08-.22.14-.05.06-.09.13-.11.21h-.58c.01-.15.05-.28.11-.39.06-.11.15-.21.26-.29.11-.08.24-.14.4-.18.15-.04.33-.06.52-.06.24,0,.46.04.65.11.2.08.35.2.47.37s.18.39.18.68v2.36h-.57v-.46h-.03c-.06.09-.13.18-.22.26-.09.08-.2.14-.32.19-.13.05-.28.07-.45.07ZM390.41,297.73c.16,0,.3-.03.42-.1.12-.06.22-.15.29-.26s.11-.24.11-.38v-.38h-.85c-.24,0-.4.05-.5.15-.1.1-.15.23-.15.39,0,.2.07.35.21.44.14.09.3.14.48.14Z"/><path d="M392.69,298.18v-3.46h.59v.63h.03c.03-.09.08-.19.15-.3s.18-.2.32-.27c.14-.08.33-.12.58-.12.35,0,.63.09.85.29.22.19.33.48.33.87v2.36h-.6v-2.17c0-.18-.03-.33-.09-.46-.06-.12-.15-.21-.26-.27-.11-.06-.25-.09-.4-.09-.2,0-.37.05-.5.14-.13.09-.24.22-.3.38-.07.16-.1.34-.1.54v1.93h-.6Z"/><path d="M398.84,296.6h-2.07v-.53h2.07v.53Z"/><path d="M399.7,294.94h-.59v-.02c0-.17.03-.33.09-.49.06-.16.15-.3.27-.42.12-.12.27-.22.45-.29s.38-.11.62-.11c.28,0,.53.05.74.16.21.11.37.25.49.44.11.19.17.4.17.63,0,.19-.03.36-.1.51-.07.15-.16.3-.28.45-.11.15-.24.3-.38.46l-1.19,1.37v.04h2.04v.53h-2.9v-.38l1.69-1.92c.08-.09.16-.19.24-.29.08-.1.14-.21.2-.33s.08-.24.08-.38c0-.15-.04-.29-.11-.4s-.17-.2-.29-.26c-.12-.06-.26-.09-.41-.09-.17,0-.32.04-.45.11s-.22.17-.28.29c-.06.12-.1.25-.1.4h0v.02Z"/><path d="M404.93,293.69h.89v3.04h.58v.53h-.58v.92h-.58v-.92h-2.18v-.53c.28-.51.58-1.02.9-1.52s.64-1.01.96-1.52ZM403.67,296.73h1.58v-2.52h-.03c-.26.39-.53.8-.79,1.23s-.52.85-.75,1.26v.03Z"/><path d="M509.6,297.12h.59c0,.12.04.22.09.31.06.09.14.16.24.21.1.05.21.08.34.08.24,0,.42-.07.55-.21.12-.14.19-.34.19-.6v-3.22h.61v3.17c0,.45-.12.8-.35,1.04-.24.24-.57.37-.99.37-.19,0-.37-.03-.52-.08-.16-.06-.29-.14-.4-.24-.11-.1-.19-.23-.25-.37-.06-.14-.09-.29-.09-.46Z"/><path d="M514.52,298.23c-.34,0-.61-.1-.82-.29-.21-.19-.31-.45-.31-.77,0-.3.1-.55.31-.74.21-.19.51-.28.91-.28h.9v-.34c0-.22-.07-.38-.2-.49-.13-.11-.31-.16-.53-.16-.15,0-.27.02-.36.05-.09.04-.17.08-.22.14-.05.06-.09.13-.11.21h-.58c.01-.15.05-.28.11-.39.06-.11.15-.21.26-.29.11-.08.24-.14.4-.18.15-.04.33-.06.52-.06.24,0,.46.04.65.11.2.08.35.2.47.37s.18.39.18.68v2.36h-.57v-.46h-.03c-.06.09-.13.18-.22.26-.09.08-.2.14-.32.19-.13.05-.28.07-.45.07ZM514.69,297.73c.16,0,.3-.03.42-.1.12-.06.22-.15.29-.26s.11-.24.11-.38v-.38h-.85c-.24,0-.4.05-.5.15-.1.1-.15.23-.15.39,0,.2.07.35.21.44.14.09.3.14.48.14Z"/><path d="M516.97,298.18v-3.46h.59v.63h.03c.03-.09.08-.19.15-.3s.18-.2.32-.27c.14-.08.33-.12.58-.12.35,0,.63.09.85.29.22.19.33.48.33.87v2.36h-.6v-2.17c0-.18-.03-.33-.09-.46-.06-.12-.15-.21-.26-.27-.11-.06-.25-.09-.4-.09-.2,0-.37.05-.5.14-.13.09-.24.22-.3.38-.07.16-.1.34-.1.54v1.93h-.6Z"/><path d="M523.12,296.6h-2.07v-.53h2.07v.53Z"/><path d="M523.98,294.94h-.59v-.02c0-.17.03-.33.09-.49.06-.16.15-.3.27-.42.12-.12.27-.22.45-.29s.38-.11.62-.11c.28,0,.53.05.74.16.21.11.37.25.49.44.11.19.17.4.17.63,0,.19-.03.36-.1.51-.07.15-.16.3-.28.45-.11.15-.24.3-.38.46l-1.19,1.37v.04h2.04v.53h-2.9v-.38l1.69-1.92c.08-.09.16-.19.24-.29.08-.1.14-.21.2-.33s.08-.24.08-.38c0-.15-.04-.29-.11-.4s-.17-.2-.29-.26c-.12-.06-.26-.09-.41-.09-.17,0-.32.04-.45.11s-.22.17-.28.29c-.06.12-.1.25-.1.4h0v.02Z"/><path d="M527.51,297.13h.58c.02.11.06.21.12.29.06.08.13.14.22.19.09.05.18.09.28.11.1.02.2.03.3.03.15,0,.3-.04.45-.12.15-.08.26-.19.36-.35.09-.15.14-.34.14-.56,0-.2-.04-.37-.13-.51-.09-.14-.21-.25-.35-.33-.15-.08-.3-.12-.47-.12-.15,0-.29.03-.41.08s-.21.12-.29.19c-.08.08-.14.15-.18.23h-.51l.2-2.58h2.54v.52h-2.02l-.12,1.44h.03s.09-.1.17-.16c.08-.06.18-.11.3-.16.12-.04.27-.07.43-.07.26,0,.5.06.72.17s.39.28.52.5c.13.21.2.47.2.78s-.07.58-.2.81-.32.42-.56.55c-.24.13-.51.2-.83.2-.21,0-.4-.03-.57-.08-.17-.06-.33-.14-.46-.24-.13-.1-.23-.22-.31-.36-.08-.14-.12-.29-.13-.45Z"/><line x1="119.88" y1="311.05" x2="134.47" y2="311.05" style="fill:none; stroke:#079bd5; stroke-linecap:round; stroke-linejoin:round; stroke-width:1.68px;"/><path d="M139.87,313.14h-.79v-4.49h.9l1.28,2.91h.03l1.28-2.91h.9v4.49h-.8v-2.99h-.04l-1.06,2.42h-.58l-1.07-2.42h-.04v2.99Z" style="fill:#1d1d1b;"/><path d="M145.89,313.2c-.34,0-.62-.1-.83-.29s-.32-.45-.32-.78.11-.56.32-.75c.21-.19.52-.28.93-.28h.85v-.31c0-.17-.05-.31-.16-.39-.11-.09-.25-.13-.42-.13-.12,0-.22.02-.29.05-.08.03-.14.08-.18.13s-.07.12-.09.19h-.82c.01-.14.04-.28.1-.4.06-.12.14-.23.25-.33.11-.09.25-.17.43-.22.17-.05.38-.08.62-.08.26,0,.5.04.71.12.21.08.39.2.51.38.13.17.19.41.19.71v2.34h-.82v-.44h-.04c-.05.08-.11.17-.19.24-.08.08-.18.14-.31.18-.12.05-.27.07-.45.07ZM146.18,312.56c.12,0,.23-.03.33-.08.1-.05.18-.12.24-.21.06-.09.09-.19.09-.3v-.36h-.67c-.19,0-.34.04-.43.13-.09.09-.14.2-.14.33,0,.16.06.29.17.37.12.08.25.12.39.12Z" style="fill:#1d1d1b;"/><path d="M148.44,313.14v-4.72h.87v4.72h-.87Z" style="fill:#1d1d1b;"/><path d="M151.39,309.61c.16,0,.31.02.45.07s.25.11.34.2c.09.09.16.19.21.31h.04v-1.77h.87v4.72h-.85v-.56h-.04c-.03.09-.07.17-.13.25s-.14.14-.23.19c-.09.05-.19.09-.3.12-.11.03-.23.04-.36.04-.26,0-.49-.06-.69-.18-.2-.12-.35-.3-.45-.53-.11-.23-.16-.5-.16-.82v-.52c0-.32.05-.59.16-.82.11-.23.26-.4.46-.53.2-.12.43-.18.69-.18ZM151.68,310.3c-.14,0-.27.04-.38.11s-.19.18-.25.32c-.06.14-.09.31-.09.5v.34c0,.2.03.37.09.51.06.14.14.25.25.32s.24.11.39.11.28-.04.39-.11c.11-.07.2-.17.26-.31.06-.13.09-.29.09-.48v-.45c0-.18-.03-.33-.1-.45-.07-.13-.15-.22-.27-.29-.11-.07-.24-.1-.39-.1Z" style="fill:#1d1d1b;"/><path d="M154.57,308.62c0-.14.05-.26.15-.35s.23-.13.39-.13.29.04.39.13c.1.09.15.21.15.35s-.05.25-.15.34c-.1.09-.23.13-.39.13s-.29-.04-.39-.13-.15-.2-.15-.34ZM154.68,313.14v-3.49h.86v3.49h-.86Z" style="fill:#1d1d1b;"/><path d="M157.41,313.14l-1.16-3.49h.94l.69,2.68h.04l.76-2.68h.91l-1.22,3.49h-.96Z" style="fill:#1d1d1b;"/><path d="M161.13,313.21c-.32,0-.6-.06-.84-.19-.24-.12-.42-.31-.55-.54-.13-.24-.2-.53-.2-.87v-.41c0-.34.07-.63.21-.87.14-.24.32-.42.56-.54.23-.12.5-.18.79-.18s.57.06.8.19c.23.13.41.31.54.55.13.24.2.52.2.85v.4h-2.24v.16c0,.23.07.42.2.56.13.15.31.22.54.22.12,0,.22-.02.32-.05.09-.03.17-.08.23-.14.06-.06.09-.12.1-.2h.82c0,.11-.04.23-.11.35-.06.12-.15.24-.27.34-.12.11-.27.2-.45.26-.18.07-.39.1-.64.1ZM160.38,311.06h1.4v-.04c0-.16-.03-.29-.09-.41-.06-.12-.14-.21-.24-.28-.1-.07-.23-.1-.37-.1s-.26.03-.37.1c-.11.07-.19.16-.25.28-.06.12-.09.25-.09.41v.04Z" style="fill:#1d1d1b;"/><path d="M163.82,310.68c0-.26.06-.47.2-.63.13-.16.3-.28.52-.35.21-.07.44-.11.69-.11.26,0,.49.04.69.12.2.08.36.2.47.35.11.15.17.33.17.55h-.77c0-.07-.03-.14-.08-.2-.04-.06-.11-.12-.19-.16-.08-.04-.19-.06-.31-.06-.17,0-.31.04-.41.11-.1.08-.15.18-.15.31,0,.09.03.16.08.22.06.05.13.1.22.13.09.03.19.06.29.08s.21.04.3.05c.21.04.41.09.57.16s.3.17.39.3c.1.13.14.3.14.52,0,.24-.06.44-.18.61-.12.17-.29.3-.51.39-.22.09-.49.14-.8.14s-.55-.04-.76-.13c-.21-.08-.37-.2-.48-.36-.11-.15-.17-.33-.17-.54h.84c.01.08.04.16.09.22.05.06.11.11.2.15s.2.05.33.05c.14,0,.26-.02.35-.06.09-.04.16-.09.2-.16.04-.07.06-.14.06-.22,0-.11-.04-.2-.12-.25-.08-.06-.19-.1-.32-.13-.13-.03-.27-.06-.42-.09-.21-.04-.4-.1-.57-.17s-.31-.17-.41-.31c-.1-.13-.15-.31-.15-.54Z" style="fill:#1d1d1b;"/><path d="M169.27,310.63v.56c0,.28.04.51.11.7.08.19.19.34.34.44.15.1.33.15.53.15.17,0,.32-.03.45-.1.13-.07.23-.16.31-.28s.12-.25.13-.41h.86v.09c-.02.29-.1.54-.25.75-.15.22-.36.39-.62.51-.26.12-.55.18-.88.18-.4,0-.75-.08-1.03-.25-.28-.16-.49-.4-.64-.7-.15-.3-.22-.67-.22-1.09v-.56c0-.42.07-.79.22-1.1.15-.31.36-.54.64-.71.28-.17.62-.25,1.02-.25.25,0,.47.04.68.11.21.07.39.17.55.31.16.13.28.29.37.47.09.18.14.38.15.61v.08h-.86c-.01-.16-.06-.3-.13-.43-.08-.12-.18-.22-.31-.29-.13-.07-.28-.11-.45-.11-.21,0-.38.05-.53.16-.15.1-.26.25-.34.45-.08.2-.12.43-.12.71Z" style="fill:#1d1d1b;"/><path d="M174.54,309.59c.32,0,.6.06.84.19.24.13.42.31.56.55.13.24.2.52.2.85v.39c0,.34-.07.64-.2.88-.13.24-.32.43-.56.55-.24.13-.52.19-.84.19s-.6-.06-.84-.19-.43-.31-.56-.55c-.13-.24-.2-.54-.2-.88v-.38c0-.32.07-.61.2-.85s.32-.43.56-.56.52-.2.84-.2ZM174.54,310.26c-.16,0-.3.04-.4.13s-.19.2-.24.35c-.05.14-.08.3-.08.48v.36c0,.18.03.33.08.48.05.14.13.26.24.35s.24.13.41.13.3-.04.41-.13c.11-.09.18-.2.23-.35s.08-.3.08-.48v-.36c0-.18-.03-.34-.08-.48s-.13-.26-.24-.34c-.11-.09-.24-.13-.4-.13Z" style="fill:#1d1d1b;"/><path d="M177.34,313.14v-3.49h.84v.61h.04c.03-.09.08-.19.16-.29.08-.1.18-.19.33-.27s.33-.11.56-.11c.35,0,.63.1.84.3.21.2.32.5.32.91v2.34h-.87v-2.09c0-.17-.03-.31-.08-.42-.06-.11-.13-.18-.22-.23-.09-.05-.2-.07-.32-.07-.16,0-.29.04-.4.11-.11.07-.19.18-.25.31-.06.13-.09.29-.09.46v1.93h-.86Z" style="fill:#1d1d1b;"/><path d="M180.89,310.68c0-.26.06-.47.2-.63.13-.16.3-.28.52-.35.21-.07.44-.11.69-.11.26,0,.49.04.69.12.2.08.36.2.47.35.11.15.17.33.17.55h-.77c0-.07-.03-.14-.08-.2-.04-.06-.11-.12-.19-.16-.08-.04-.19-.06-.31-.06-.17,0-.31.04-.41.11-.1.08-.15.18-.15.31,0,.09.03.16.08.22.06.05.13.1.22.13.09.03.19.06.29.08s.21.04.3.05c.21.04.41.09.57.16s.3.17.39.3c.1.13.14.3.14.52,0,.24-.06.44-.18.61-.12.17-.29.3-.51.39-.22.09-.49.14-.8.14s-.55-.04-.76-.13c-.21-.08-.37-.2-.48-.36-.11-.15-.17-.33-.17-.54h.84c.01.08.04.16.09.22.05.06.11.11.2.15s.2.05.33.05c.14,0,.26-.02.35-.06.09-.04.16-.09.2-.16.04-.07.06-.14.06-.22,0-.11-.04-.2-.12-.25-.08-.06-.19-.1-.32-.13-.13-.03-.27-.06-.42-.09-.21-.04-.4-.1-.57-.17s-.31-.17-.41-.31c-.1-.13-.15-.31-.15-.54Z" style="fill:#1d1d1b;"/><path d="M187.65,309.65v3.49h-.84v-.58h-.04c-.03.09-.09.19-.17.29-.08.1-.2.18-.34.25-.14.07-.31.1-.52.1-.23,0-.43-.04-.61-.12-.17-.08-.31-.21-.41-.38-.1-.17-.15-.4-.15-.67v-2.36h.87v2.14c0,.18.03.32.09.42s.14.17.24.21c.1.04.2.06.31.06.13,0,.26-.03.37-.09s.2-.15.26-.25c.06-.11.1-.23.1-.37v-2.1h.86Z" style="fill:#1d1d1b;"/><path d="M188.98,313.14v-3.49h.84v.58h.04c.03-.09.07-.18.14-.28.07-.1.17-.18.3-.25.13-.07.3-.11.51-.11.18,0,.33.03.46.09.13.06.24.13.32.23.08.1.14.21.18.34h.03c.04-.11.11-.21.2-.31s.21-.18.35-.25.31-.1.51-.1c.36,0,.63.1.83.3s.3.47.3.81v2.44h-.87v-2.17c0-.15-.02-.27-.07-.37-.05-.1-.12-.17-.21-.22-.09-.05-.19-.07-.32-.07s-.22.03-.32.09c-.09.06-.17.14-.23.24s-.08.23-.08.38v2.12h-.83v-2.15c0-.15-.03-.28-.08-.38s-.12-.17-.22-.22c-.09-.05-.2-.07-.31-.07s-.22.03-.31.08c-.09.05-.17.13-.22.24s-.08.23-.08.38v2.13h-.86Z" style="fill:#1d1d1b;"/><path d="M196.4,313.21c-.32,0-.6-.06-.84-.19-.24-.12-.42-.31-.55-.54-.13-.24-.2-.53-.2-.87v-.41c0-.34.07-.63.21-.87.14-.24.32-.42.56-.54.23-.12.5-.18.79-.18s.57.06.8.19c.23.13.41.31.54.55.13.24.2.52.2.85v.4h-2.24v.16c0,.23.07.42.2.56.13.15.31.22.54.22.12,0,.22-.02.32-.05.09-.03.17-.08.23-.14.06-.06.09-.12.1-.2h.82c0,.11-.04.23-.11.35-.06.12-.15.24-.27.34-.12.11-.27.2-.45.26-.18.07-.39.1-.64.1ZM195.66,311.06h1.4v-.04c0-.16-.03-.29-.09-.41-.06-.12-.14-.21-.24-.28-.1-.07-.23-.1-.37-.1s-.26.03-.37.1c-.11.07-.19.16-.25.28-.06.12-.09.25-.09.41v.04Z" style="fill:#1d1d1b;"/><path d="M198.52,313.14v-3.49h.87v.55h.04c.02-.08.07-.17.14-.26.07-.09.16-.17.28-.24.12-.07.27-.1.46-.1.06,0,.11,0,.15,0,.05,0,.09,0,.12.02v.75s-.08-.02-.14-.02c-.06,0-.13,0-.2,0-.19,0-.34.03-.47.1-.12.07-.22.16-.28.28-.06.12-.09.26-.09.42v2h-.88Z" style="fill:#1d1d1b;"/><path d="M205.01,308.65c.32,0,.6.07.82.2s.4.31.51.54c.12.23.18.48.18.76s-.06.53-.18.76-.29.4-.52.53c-.23.13-.5.2-.82.2h-.9v1.51h-.89v-4.49h1.79ZM205.63,310.15c0-.25-.07-.45-.21-.58-.14-.14-.33-.2-.58-.2h-.74v1.58h.74c.16,0,.3-.03.42-.09s.21-.15.27-.27.09-.26.09-.43Z" style="fill:#1d1d1b;"/><path d="M207.49,313.14v-3.49h.87v.55h.04c.02-.08.07-.17.14-.26.07-.09.16-.17.28-.24.12-.07.27-.1.46-.1.06,0,.11,0,.15,0,.05,0,.09,0,.12.02v.75s-.08-.02-.14-.02c-.06,0-.13,0-.2,0-.19,0-.34.03-.47.1-.12.07-.22.16-.28.28-.06.12-.09.26-.09.42v2h-.88Z" style="fill:#1d1d1b;"/><path d="M209.62,308.62c0-.14.05-.26.15-.35s.23-.13.39-.13.29.04.39.13c.1.09.15.21.15.35s-.05.25-.15.34c-.1.09-.23.13-.39.13s-.29-.04-.39-.13-.15-.2-.15-.34ZM209.74,313.14v-3.49h.86v3.49h-.86Z" style="fill:#1d1d1b;"/><path d="M211.52,311.6v-.44c0-.32.06-.6.19-.83s.31-.42.54-.55c.23-.13.51-.19.82-.19s.56.05.78.17c.21.11.38.26.49.44.11.18.17.39.18.61h-.8c0-.08-.04-.16-.08-.24s-.11-.15-.2-.2c-.09-.05-.2-.08-.34-.08-.23,0-.4.08-.52.24-.12.16-.18.38-.18.65v.42c0,.28.06.51.19.67s.3.24.52.24c.14,0,.25-.02.34-.06.09-.04.15-.1.2-.18.05-.08.08-.16.09-.25h.8c0,.22-.06.42-.17.6s-.27.32-.49.43c-.21.1-.48.16-.8.16s-.6-.07-.83-.2c-.23-.13-.41-.31-.53-.55-.12-.24-.19-.52-.19-.85Z" style="fill:#1d1d1b;"/><path d="M217.3,313.21c-.32,0-.6-.06-.84-.19-.24-.12-.42-.31-.55-.54-.13-.24-.2-.53-.2-.87v-.41c0-.34.07-.63.21-.87.14-.24.32-.42.56-.54.23-.12.5-.18.79-.18s.57.06.8.19c.23.13.41.31.54.55.13.24.2.52.2.85v.4h-2.24v.16c0,.23.07.42.2.56.13.15.31.22.54.22.12,0,.22-.02.32-.05.09-.03.17-.08.23-.14.06-.06.09-.12.1-.2h.82c0,.11-.04.23-.11.35-.06.12-.15.24-.27.34-.12.11-.27.2-.45.26-.18.07-.39.1-.64.1ZM216.56,311.06h1.4v-.04c0-.16-.03-.29-.09-.41-.06-.12-.14-.21-.24-.28-.1-.07-.23-.1-.37-.1s-.26.03-.37.1c-.11.07-.19.16-.25.28-.06.12-.09.25-.09.41v.04Z" style="fill:#1d1d1b;"/><path d="M222.04,313.14h-.89v-4.49h.89v4.49Z" style="fill:#1d1d1b;"/><path d="M222.98,313.14v-3.49h.84v.61h.04c.03-.09.08-.19.16-.29.08-.1.18-.19.33-.27s.33-.11.56-.11c.35,0,.63.1.84.3.21.2.32.5.32.91v2.34h-.87v-2.09c0-.17-.03-.31-.08-.42-.06-.11-.13-.18-.22-.23-.09-.05-.2-.07-.32-.07-.16,0-.29.04-.4.11-.11.07-.19.18-.25.31-.06.13-.09.29-.09.46v1.93h-.86Z" style="fill:#1d1d1b;"/><path d="M227.83,309.61c.16,0,.31.02.45.07s.25.11.34.2c.09.09.16.19.21.31h.04v-1.77h.87v4.72h-.85v-.56h-.04c-.03.09-.07.17-.13.25s-.14.14-.23.19c-.09.05-.19.09-.3.12-.11.03-.23.04-.36.04-.26,0-.49-.06-.69-.18-.2-.12-.35-.3-.45-.53-.11-.23-.16-.5-.16-.82v-.52c0-.32.05-.59.16-.82.11-.23.26-.4.46-.53.2-.12.43-.18.69-.18ZM228.12,310.3c-.14,0-.27.04-.38.11s-.19.18-.25.32c-.06.14-.09.31-.09.5v.34c0,.2.03.37.09.51.06.14.14.25.25.32s.24.11.39.11.28-.04.39-.11c.11-.07.2-.17.26-.31.06-.13.09-.29.09-.48v-.45c0-.18-.03-.33-.1-.45-.07-.13-.15-.22-.27-.29-.11-.07-.24-.1-.39-.1Z" style="fill:#1d1d1b;"/><path d="M232.49,313.21c-.32,0-.6-.06-.84-.19-.24-.12-.42-.31-.55-.54-.13-.24-.2-.53-.2-.87v-.41c0-.34.07-.63.21-.87.14-.24.32-.42.56-.54.23-.12.5-.18.79-.18s.57.06.8.19c.23.13.41.31.54.55.13.24.2.52.2.85v.4h-2.24v.16c0,.23.07.42.2.56.13.15.31.22.54.22.12,0,.22-.02.32-.05.09-.03.17-.08.23-.14.06-.06.09-.12.1-.2h.82c0,.11-.04.23-.11.35-.06.12-.15.24-.27.34-.12.11-.27.2-.45.26-.18.07-.39.1-.64.1ZM231.74,311.06h1.4v-.04c0-.16-.03-.29-.09-.41-.06-.12-.14-.21-.24-.28-.1-.07-.23-.1-.37-.1s-.26.03-.37.1c-.11.07-.19.16-.25.28-.06.12-.09.25-.09.41v.04Z" style="fill:#1d1d1b;"/><path d="M236.59,313.14l-.68-1.18h-.03l-.68,1.18h-.92l1.09-1.73s-.07-.11-.12-.2c-.06-.09-.12-.19-.2-.31-.08-.12-.15-.24-.24-.37s-.16-.25-.24-.37c-.08-.12-.14-.22-.2-.31-.06-.09-.1-.16-.12-.2h1l.66,1.17h.04l.68-1.17h.96l-1.14,1.72s.07.11.12.2c.06.09.12.19.2.31.08.12.16.24.24.37.08.13.16.25.24.37.08.12.14.22.2.32.06.09.1.16.12.2h-.97Z" style="fill:#1d1d1b;"/><path d="M241.06,310.63v.56c0,.28.04.51.11.7.08.19.19.34.34.44.15.1.33.15.53.15.17,0,.32-.03.45-.1.13-.07.23-.16.31-.28s.12-.25.13-.41h.86v.09c-.02.29-.1.54-.25.75-.15.22-.36.39-.62.51-.26.12-.55.18-.88.18-.4,0-.75-.08-1.03-.25-.28-.16-.49-.4-.64-.7-.15-.3-.22-.67-.22-1.09v-.56c0-.42.07-.79.22-1.1.15-.31.36-.54.64-.71.28-.17.62-.25,1.02-.25.25,0,.47.04.68.11.21.07.39.17.55.31.16.13.28.29.37.47.09.18.14.38.15.61v.08h-.86c-.01-.16-.06-.3-.13-.43-.08-.12-.18-.22-.31-.29-.13-.07-.28-.11-.45-.11-.21,0-.38.05-.53.16-.15.1-.26.25-.34.45-.08.2-.12.43-.12.71Z" style="fill:#1d1d1b;"/><path d="M245.99,308.65c.32,0,.6.07.82.2s.4.31.51.54c.12.23.18.48.18.76s-.06.53-.18.76-.29.4-.52.53c-.23.13-.5.2-.82.2h-.9v1.51h-.89v-4.49h1.79ZM246.6,310.15c0-.25-.07-.45-.21-.58-.14-.14-.33-.2-.58-.2h-.74v1.58h.74c.16,0,.3-.03.42-.09s.21-.15.27-.27.09-.26.09-.43Z" style="fill:#1d1d1b;"/><path d="M249.37,313.14h-.89v-4.49h.89v4.49Z" style="fill:#1d1d1b;"/><path d="M253.05,308.42h.8c-.13.19-.26.42-.38.7-.12.28-.22.59-.31.95-.08.35-.12.74-.12,1.17s.04.82.11,1.17.17.68.29.97c.12.29.26.56.41.79h-.8c-.16-.2-.31-.44-.44-.73s-.24-.62-.32-.99c-.08-.37-.12-.78-.12-1.22s.04-.84.12-1.18c.08-.34.19-.65.32-.92.14-.27.29-.51.45-.72Z" style="fill:#1d1d1b;"/><path d="M256.58,308.65c.32,0,.6.07.82.2s.4.31.51.54c.12.23.18.48.18.76s-.06.53-.18.76-.29.4-.52.53c-.23.13-.5.2-.82.2h-.9v1.51h-.89v-4.49h1.79ZM257.2,310.15c0-.25-.07-.45-.21-.58-.14-.14-.33-.2-.58-.2h-.74v1.58h.74c.16,0,.3-.03.42-.09s.21-.15.27-.27.09-.26.09-.43Z" style="fill:#1d1d1b;"/><path d="M260.47,309.59c.32,0,.6.06.84.19.24.13.42.31.56.55.13.24.2.52.2.85v.39c0,.34-.07.64-.2.88-.13.24-.32.43-.56.55-.24.13-.52.19-.84.19s-.6-.06-.84-.19-.43-.31-.56-.55c-.13-.24-.2-.54-.2-.88v-.38c0-.32.07-.61.2-.85s.32-.43.56-.56.52-.2.84-.2ZM260.47,310.26c-.16,0-.3.04-.4.13s-.19.2-.24.35c-.05.14-.08.3-.08.48v.36c0,.18.03.33.08.48.05.14.13.26.24.35s.24.13.41.13.3-.04.41-.13c.11-.09.18-.2.23-.35s.08-.3.08-.48v-.36c0-.18-.03-.34-.08-.48s-.13-.26-.24-.34c-.11-.09-.24-.13-.4-.13Z" style="fill:#1d1d1b;"/><path d="M262.48,308.62c0-.14.05-.26.15-.35s.23-.13.39-.13.29.04.39.13c.1.09.15.21.15.35s-.05.25-.15.34c-.1.09-.23.13-.39.13s-.29-.04-.39-.13-.15-.2-.15-.34ZM262.59,313.14v-3.49h.86v3.49h-.86Z" style="fill:#1d1d1b;"/><path d="M264.54,313.14v-3.49h.84v.61h.04c.03-.09.08-.19.16-.29.08-.1.18-.19.33-.27s.33-.11.56-.11c.35,0,.63.1.84.3.21.2.32.5.32.91v2.34h-.87v-2.09c0-.17-.03-.31-.08-.42-.06-.11-.13-.18-.22-.23-.09-.05-.2-.07-.32-.07-.16,0-.29.04-.4.11-.11.07-.19.18-.25.31-.06.13-.09.29-.09.46v1.93h-.86Z" style="fill:#1d1d1b;"/><path d="M269.23,309.69v-.87h.84v.87h.77v.67h-.77v1.69c0,.17.04.29.12.36.08.06.21.1.39.1.05,0,.11,0,.17,0,.06,0,.1,0,.13,0v.64s-.1.01-.21.02c-.1,0-.21.01-.3.01-.29,0-.52-.03-.69-.1-.17-.07-.29-.18-.36-.33-.07-.15-.11-.34-.11-.58v-1.8h-.53v-.67h.55Z" style="fill:#1d1d1b;"/><path d="M271.06,310.68c0-.26.06-.47.2-.63.13-.16.3-.28.52-.35.21-.07.44-.11.69-.11.26,0,.49.04.69.12.2.08.36.2.47.35.11.15.17.33.17.55h-.77c0-.07-.03-.14-.08-.2-.04-.06-.11-.12-.19-.16-.08-.04-.19-.06-.31-.06-.17,0-.31.04-.41.11-.1.08-.15.18-.15.31,0,.09.03.16.08.22.06.05.13.1.22.13.09.03.19.06.29.08s.21.04.3.05c.21.04.41.09.57.16s.3.17.39.3c.1.13.14.3.14.52,0,.24-.06.44-.18.61-.12.17-.29.3-.51.39-.22.09-.49.14-.8.14s-.55-.04-.76-.13c-.21-.08-.37-.2-.48-.36-.11-.15-.17-.33-.17-.54h.84c.01.08.04.16.09.22.05.06.11.11.2.15s.2.05.33.05c.14,0,.26-.02.35-.06.09-.04.16-.09.2-.16.04-.07.06-.14.06-.22,0-.11-.04-.2-.12-.25-.08-.06-.19-.1-.32-.13-.13-.03-.27-.06-.42-.09-.21-.04-.4-.1-.57-.17s-.31-.17-.41-.31c-.1-.13-.15-.31-.15-.54Z" style="fill:#1d1d1b;"/><path d="M274.42,308.42h.79c.17.21.32.45.45.72s.24.57.32.92c.08.34.12.74.12,1.18s-.04.85-.12,1.22c-.08.37-.19.7-.32.99s-.28.53-.44.73h-.8c.15-.24.29-.5.41-.79.12-.29.22-.61.29-.97s.11-.75.11-1.17-.04-.82-.12-1.17c-.08-.35-.18-.67-.31-.95-.12-.28-.25-.51-.38-.7Z" style="fill:#1d1d1b;"/><line x1="290.29" y1="311.05" x2="304.5" y2="311.05" style="fill:none; stroke:#fcbf0d; stroke-linecap:round; stroke-linejoin:round; stroke-width:1.68px;"/><path d="M310.19,313.14h-.79v-4.49h.9l1.28,2.91h.03l1.28-2.91h.9v4.49h-.8v-2.99h-.04l-1.06,2.42h-.58l-1.07-2.42h-.04v2.99Z"/><path d="M316.21,313.2c-.34,0-.62-.1-.83-.29s-.32-.45-.32-.78.11-.56.32-.75c.21-.19.52-.28.93-.28h.85v-.31c0-.17-.05-.31-.16-.39-.11-.09-.25-.13-.42-.13-.12,0-.22.02-.29.05-.08.03-.14.08-.18.13s-.07.12-.09.19h-.82c.01-.14.04-.28.1-.4.06-.12.14-.23.25-.33.11-.09.25-.17.43-.22.17-.05.38-.08.62-.08.26,0,.5.04.71.12.21.08.39.2.51.38.13.17.19.41.19.71v2.34h-.82v-.44h-.04c-.05.08-.11.17-.19.24-.08.08-.18.14-.31.18-.12.05-.27.07-.45.07ZM316.49,312.56c.12,0,.23-.03.33-.08.1-.05.18-.12.24-.21.06-.09.09-.19.09-.3v-.36h-.67c-.19,0-.34.04-.43.13-.09.09-.14.2-.14.33,0,.16.06.29.17.37.12.08.25.12.39.12Z"/><path d="M321.8,309.65v3.49h-.84v-.58h-.04c-.03.09-.09.19-.17.29-.08.1-.2.18-.34.25-.14.07-.31.1-.52.1-.23,0-.43-.04-.61-.12-.17-.08-.31-.21-.41-.38-.1-.17-.15-.4-.15-.67v-2.36h.87v2.14c0,.18.03.32.09.42s.14.17.24.21c.1.04.2.06.31.06.13,0,.26-.03.37-.09s.2-.15.26-.25c.06-.11.1-.23.1-.37v-2.1h.86Z"/><path d="M322.43,313.14v-3.49h.87v.55h.04c.02-.08.07-.17.14-.26.07-.09.16-.17.28-.24.12-.07.27-.1.46-.1.06,0,.11,0,.15,0,.05,0,.09,0,.12.02v.75s-.08-.02-.14-.02c-.06,0-.13,0-.2,0-.19,0-.34.03-.47.1-.12.07-.22.16-.28.28-.06.12-.09.26-.09.42v2h-.88Z"/><path d="M325.31,308.62c0-.14.05-.26.15-.35s.23-.13.39-.13.29.04.39.13c.1.09.15.21.15.35s-.05.25-.15.34c-.1.09-.23.13-.39.13s-.29-.04-.39-.13-.15-.2-.15-.34ZM325.42,313.14v-3.49h.86v3.49h-.86Z"/><path d="M327.63,309.69v-.87h.84v.87h.77v.67h-.77v1.69c0,.17.04.29.12.36.08.06.21.1.39.1.05,0,.11,0,.17,0,.06,0,.1,0,.13,0v.64s-.1.01-.21.02c-.1,0-.21.01-.3.01-.29,0-.52-.03-.69-.1-.17-.07-.29-.18-.36-.33-.07-.15-.11-.34-.11-.58v-1.8h-.53v-.67h.55Z"/><path d="M330.29,308.62c0-.14.05-.26.15-.35s.23-.13.39-.13.29.04.39.13c.1.09.15.21.15.35s-.05.25-.15.34c-.1.09-.23.13-.39.13s-.29-.04-.39-.13-.15-.2-.15-.34ZM330.4,313.14v-3.49h.86v3.49h-.86Z"/><path d="M335.41,309.65v3.49h-.84v-.58h-.04c-.03.09-.09.19-.17.29-.08.1-.2.18-.34.25-.14.07-.31.1-.52.1-.23,0-.43-.04-.61-.12-.17-.08-.31-.21-.41-.38-.1-.17-.15-.4-.15-.67v-2.36h.87v2.14c0,.18.03.32.09.42s.14.17.24.21c.1.04.2.06.31.06.13,0,.26-.03.37-.09s.2-.15.26-.25c.06-.11.1-.23.1-.37v-2.1h.86Z"/><path d="M336.61,310.68c0-.26.06-.47.2-.63.13-.16.3-.28.52-.35.21-.07.44-.11.69-.11.26,0,.49.04.69.12.2.08.36.2.47.35.11.15.17.33.17.55h-.77c0-.07-.03-.14-.08-.2-.04-.06-.11-.12-.19-.16-.08-.04-.19-.06-.31-.06-.17,0-.31.04-.41.11-.1.08-.15.18-.15.31,0,.09.03.16.08.22.06.05.13.1.22.13.09.03.19.06.29.08s.21.04.3.05c.21.04.41.09.57.16s.3.17.39.3c.1.13.14.3.14.52,0,.24-.06.44-.18.61-.12.17-.29.3-.51.39-.22.09-.49.14-.8.14s-.55-.04-.76-.13c-.21-.08-.37-.2-.48-.36-.11-.15-.17-.33-.17-.54h.84c.01.08.04.16.09.22.05.06.11.11.2.15s.2.05.33.05c.14,0,.26-.02.35-.06.09-.04.16-.09.2-.16.04-.07.06-.14.06-.22,0-.11-.04-.2-.12-.25-.08-.06-.19-.1-.32-.13-.13-.03-.27-.06-.42-.09-.21-.04-.4-.1-.57-.17s-.31-.17-.41-.31c-.1-.13-.15-.31-.15-.54Z"/><path d="M342.06,310.63v.56c0,.28.04.51.11.7.08.19.19.34.34.44.15.1.33.15.53.15.17,0,.32-.03.45-.1.13-.07.23-.16.31-.28s.12-.25.13-.41h.86v.09c-.02.29-.1.54-.25.75-.15.22-.36.39-.62.51-.26.12-.55.18-.88.18-.4,0-.75-.08-1.03-.25-.28-.16-.49-.4-.64-.7-.15-.3-.22-.67-.22-1.09v-.56c0-.42.07-.79.22-1.1.15-.31.36-.54.64-.71.28-.17.62-.25,1.02-.25.25,0,.47.04.68.11.21.07.39.17.55.31.16.13.28.29.37.47.09.18.14.38.15.61v.08h-.86c-.01-.16-.06-.3-.13-.43-.08-.12-.18-.22-.31-.29-.13-.07-.28-.11-.45-.11-.21,0-.38.05-.53.16-.15.1-.26.25-.34.45-.08.2-.12.43-.12.71Z"/><path d="M347.33,309.59c.32,0,.6.06.84.19.24.13.42.31.56.55.13.24.2.52.2.85v.39c0,.34-.07.64-.2.88-.13.24-.32.43-.56.55-.24.13-.52.19-.84.19s-.6-.06-.84-.19-.43-.31-.56-.55c-.13-.24-.2-.54-.2-.88v-.38c0-.32.07-.61.2-.85s.32-.43.56-.56.52-.2.84-.2ZM347.33,310.26c-.16,0-.3.04-.4.13s-.19.2-.24.35c-.05.14-.08.3-.08.48v.36c0,.18.03.33.08.48.05.14.13.26.24.35s.24.13.41.13.3-.04.41-.13c.11-.09.18-.2.23-.35s.08-.3.08-.48v-.36c0-.18-.03-.34-.08-.48s-.13-.26-.24-.34c-.11-.09-.24-.13-.4-.13Z"/><path d="M349.39,313.14v-3.49h.84v.61h.04c.03-.09.08-.19.16-.29.08-.1.18-.19.33-.27s.33-.11.56-.11c.35,0,.63.1.84.3.21.2.32.5.32.91v2.34h-.87v-2.09c0-.17-.03-.31-.08-.42-.06-.11-.13-.18-.22-.23-.09-.05-.2-.07-.32-.07-.16,0-.29.04-.4.11-.11.07-.19.18-.25.31-.06.13-.09.29-.09.46v1.93h-.86Z"/><path d="M353.69,310.68c0-.26.06-.47.2-.63.13-.16.3-.28.52-.35.21-.07.44-.11.69-.11.26,0,.49.04.69.12.2.08.36.2.47.35.11.15.17.33.17.55h-.77c0-.07-.03-.14-.08-.2-.04-.06-.11-.12-.19-.16-.08-.04-.19-.06-.31-.06-.17,0-.31.04-.41.11-.1.08-.15.18-.15.31,0,.09.03.16.08.22.06.05.13.1.22.13.09.03.19.06.29.08s.21.04.3.05c.21.04.41.09.57.16s.3.17.39.3c.1.13.14.3.14.52,0,.24-.06.44-.18.61-.12.17-.29.3-.51.39-.22.09-.49.14-.8.14s-.55-.04-.76-.13c-.21-.08-.37-.2-.48-.36-.11-.15-.17-.33-.17-.54h.84c.01.08.04.16.09.22.05.06.11.11.2.15s.2.05.33.05c.14,0,.26-.02.35-.06.09-.04.16-.09.2-.16.04-.07.06-.14.06-.22,0-.11-.04-.2-.12-.25-.08-.06-.19-.1-.32-.13-.13-.03-.27-.06-.42-.09-.21-.04-.4-.1-.57-.17s-.31-.17-.41-.31c-.1-.13-.15-.31-.15-.54Z"/><path d="M360.44,309.65v3.49h-.84v-.58h-.04c-.03.09-.09.19-.17.29-.08.1-.2.18-.34.25-.14.07-.31.1-.52.1-.23,0-.43-.04-.61-.12-.17-.08-.31-.21-.41-.38-.1-.17-.15-.4-.15-.67v-2.36h.87v2.14c0,.18.03.32.09.42s.14.17.24.21c.1.04.2.06.31.06.13,0,.26-.03.37-.09s.2-.15.26-.25c.06-.11.1-.23.1-.37v-2.1h.86Z"/><path d="M361.78,313.14v-3.49h.84v.58h.04c.03-.09.07-.18.14-.28.07-.1.17-.18.3-.25.13-.07.3-.11.51-.11.18,0,.33.03.46.09.13.06.24.13.32.23.08.1.14.21.18.34h.03c.04-.11.11-.21.2-.31s.21-.18.35-.25.31-.1.51-.1c.36,0,.63.1.83.3s.3.47.3.81v2.44h-.87v-2.17c0-.15-.02-.27-.07-.37-.05-.1-.12-.17-.21-.22-.09-.05-.19-.07-.32-.07s-.22.03-.32.09c-.09.06-.17.14-.23.24s-.08.23-.08.38v2.12h-.83v-2.15c0-.15-.03-.28-.08-.38s-.12-.17-.22-.22c-.09-.05-.2-.07-.31-.07s-.22.03-.31.08c-.09.05-.17.13-.22.24s-.08.23-.08.38v2.13h-.86Z"/><path d="M369.19,313.21c-.32,0-.6-.06-.84-.19-.24-.12-.42-.31-.55-.54-.13-.24-.2-.53-.2-.87v-.41c0-.34.07-.63.21-.87.14-.24.32-.42.56-.54.23-.12.5-.18.79-.18s.57.06.8.19c.23.13.41.31.54.55.13.24.2.52.2.85v.4h-2.24v.16c0,.23.07.42.2.56.13.15.31.22.54.22.12,0,.22-.02.32-.05.09-.03.17-.08.23-.14.06-.06.09-.12.1-.2h.82c0,.11-.04.23-.11.35-.06.12-.15.24-.27.34-.12.11-.27.2-.45.26-.18.07-.39.1-.64.1ZM368.45,311.06h1.4v-.04c0-.16-.03-.29-.09-.41-.06-.12-.14-.21-.24-.28-.1-.07-.23-.1-.37-.1s-.26.03-.37.1c-.11.07-.19.16-.25.28-.06.12-.09.25-.09.41v.04Z"/><path d="M371.31,313.14v-3.49h.87v.55h.04c.02-.08.07-.17.14-.26.07-.09.16-.17.28-.24.12-.07.27-.1.46-.1.06,0,.11,0,.15,0,.05,0,.09,0,.12.02v.75s-.08-.02-.14-.02c-.06,0-.13,0-.2,0-.19,0-.34.03-.47.1-.12.07-.22.16-.28.28-.06.12-.09.26-.09.42v2h-.88Z"/><path d="M377.07,308.65c.32,0,.6.07.82.2s.4.31.51.54c.12.23.18.48.18.76s-.06.53-.18.76-.29.4-.52.53c-.23.13-.5.2-.82.2h-.9v1.51h-.89v-4.49h1.79ZM377.68,310.15c0-.25-.07-.45-.21-.58-.14-.14-.33-.2-.58-.2h-.74v1.58h.74c.16,0,.3-.03.42-.09s.21-.15.27-.27.09-.26.09-.43Z"/><path d="M379.54,313.14v-3.49h.87v.55h.04c.02-.08.07-.17.14-.26.07-.09.16-.17.28-.24.12-.07.27-.1.46-.1.06,0,.11,0,.15,0,.05,0,.09,0,.12.02v.75s-.08-.02-.14-.02c-.06,0-.13,0-.2,0-.19,0-.34.03-.47.1-.12.07-.22.16-.28.28-.06.12-.09.26-.09.42v2h-.88Z"/><path d="M382.43,308.62c0-.14.05-.26.15-.35s.23-.13.39-.13.29.04.39.13c.1.09.15.21.15.35s-.05.25-.15.34c-.1.09-.23.13-.39.13s-.29-.04-.39-.13-.15-.2-.15-.34ZM382.54,313.14v-3.49h.86v3.49h-.86Z"/><path d="M384.33,311.6v-.44c0-.32.06-.6.19-.83s.31-.42.54-.55c.23-.13.51-.19.82-.19s.56.05.78.17c.21.11.38.26.49.44.11.18.17.39.18.61h-.8c0-.08-.04-.16-.08-.24s-.11-.15-.2-.2c-.09-.05-.2-.08-.34-.08-.23,0-.4.08-.52.24-.12.16-.18.38-.18.65v.42c0,.28.06.51.19.67s.3.24.52.24c.14,0,.25-.02.34-.06.09-.04.15-.1.2-.18.05-.08.08-.16.09-.25h.8c0,.22-.06.42-.17.6s-.27.32-.49.43c-.21.1-.48.16-.8.16s-.6-.07-.83-.2c-.23-.13-.41-.31-.53-.55-.12-.24-.19-.52-.19-.85Z"/><path d="M389.36,313.21c-.32,0-.6-.06-.84-.19-.24-.12-.42-.31-.55-.54-.13-.24-.2-.53-.2-.87v-.41c0-.34.07-.63.21-.87.14-.24.32-.42.56-.54.23-.12.5-.18.79-.18s.57.06.8.19c.23.13.41.31.54.55.13.24.2.52.2.85v.4h-2.24v.16c0,.23.07.42.2.56.13.15.31.22.54.22.12,0,.22-.02.32-.05.09-.03.17-.08.23-.14.06-.06.09-.12.1-.2h.82c0,.11-.04.23-.11.35-.06.12-.15.24-.27.34-.12.11-.27.2-.45.26-.18.07-.39.1-.64.1ZM388.62,311.06h1.4v-.04c0-.16-.03-.29-.09-.41-.06-.12-.14-.21-.24-.28-.1-.07-.23-.1-.37-.1s-.26.03-.37.1c-.11.07-.19.16-.25.28-.06.12-.09.25-.09.41v.04Z"/><path d="M394.11,313.14h-.89v-4.49h.89v4.49Z"/><path d="M395.79,313.14v-3.49h.84v.61h.04c.03-.09.08-.19.16-.29.08-.1.18-.19.33-.27s.33-.11.56-.11c.35,0,.63.1.84.3.21.2.32.5.32.91v2.34h-.87v-2.09c0-.17-.03-.31-.08-.42-.06-.11-.13-.18-.22-.23-.09-.05-.2-.07-.32-.07-.16,0-.29.04-.4.11-.11.07-.19.18-.25.31-.06.13-.09.29-.09.46v1.93h-.86Z"/><path d="M400.64,309.61c.16,0,.31.02.45.07s.25.11.34.2c.09.09.16.19.21.31h.04v-1.77h.87v4.72h-.85v-.56h-.04c-.03.09-.07.17-.13.25s-.14.14-.23.19c-.09.05-.19.09-.3.12-.11.03-.23.04-.36.04-.26,0-.49-.06-.69-.18-.2-.12-.35-.3-.45-.53-.11-.23-.16-.5-.16-.82v-.52c0-.32.05-.59.16-.82.11-.23.26-.4.46-.53.2-.12.43-.18.69-.18ZM400.93,310.3c-.14,0-.27.04-.38.11s-.19.18-.25.32c-.06.14-.09.31-.09.5v.34c0,.2.03.37.09.51.06.14.14.25.25.32s.24.11.39.11.28-.04.39-.11c.11-.07.2-.17.26-.31.06-.13.09-.29.09-.48v-.45c0-.18-.03-.33-.1-.45-.07-.13-.15-.22-.27-.29-.11-.07-.24-.1-.39-.1Z"/><path d="M405.3,313.21c-.32,0-.6-.06-.84-.19-.24-.12-.42-.31-.55-.54-.13-.24-.2-.53-.2-.87v-.41c0-.34.07-.63.21-.87.14-.24.32-.42.56-.54.23-.12.5-.18.79-.18s.57.06.8.19c.23.13.41.31.54.55.13.24.2.52.2.85v.4h-2.24v.16c0,.23.07.42.2.56.13.15.31.22.54.22.12,0,.22-.02.32-.05.09-.03.17-.08.23-.14.06-.06.09-.12.1-.2h.82c0,.11-.04.23-.11.35-.06.12-.15.24-.27.34-.12.11-.27.2-.45.26-.18.07-.39.1-.64.1ZM404.55,311.06h1.4v-.04c0-.16-.03-.29-.09-.41-.06-.12-.14-.21-.24-.28-.1-.07-.23-.1-.37-.1s-.26.03-.37.1c-.11.07-.19.16-.25.28-.06.12-.09.25-.09.41v.04Z"/><path d="M409.4,313.14l-.68-1.18h-.03l-.68,1.18h-.92l1.09-1.73s-.07-.11-.12-.2c-.06-.09-.12-.19-.2-.31-.08-.12-.15-.24-.24-.37s-.16-.25-.24-.37c-.08-.12-.14-.22-.2-.31-.06-.09-.1-.16-.12-.2h1l.66,1.17h.04l.68-1.17h.96l-1.14,1.72s.07.11.12.2c.06.09.12.19.2.31.08.12.16.24.24.37.08.13.16.25.24.37.08.12.14.22.2.32.06.09.1.16.12.2h-.97Z"/><path d="M413.38,308.42h.8c-.13.19-.26.42-.38.7-.12.28-.22.59-.31.95-.08.35-.12.74-.12,1.17s.04.82.11,1.17.17.68.29.97c.12.29.26.56.41.79h-.8c-.16-.2-.31-.44-.44-.73s-.24-.62-.32-.99c-.08-.37-.12-.78-.12-1.22s.04-.84.12-1.18c.08-.34.19-.65.32-.92.14-.27.29-.51.45-.72Z"/><path d="M415.84,310.63v.56c0,.28.04.51.11.7.08.19.19.34.34.44.15.1.33.15.53.15.17,0,.32-.03.45-.1.13-.07.23-.16.31-.28s.12-.25.13-.41h.86v.09c-.02.29-.1.54-.25.75-.15.22-.36.39-.62.51-.26.12-.55.18-.88.18-.4,0-.75-.08-1.03-.25-.28-.16-.49-.4-.64-.7-.15-.3-.22-.67-.22-1.09v-.56c0-.42.07-.79.22-1.1.15-.31.36-.54.64-.71.28-.17.62-.25,1.02-.25.25,0,.47.04.68.11.21.07.39.17.55.31.16.13.28.29.37.47.09.18.14.38.15.61v.08h-.86c-.01-.16-.06-.3-.13-.43-.08-.12-.18-.22-.31-.29-.13-.07-.28-.11-.45-.11-.21,0-.38.05-.53.16-.15.1-.26.25-.34.45-.08.2-.12.43-.12.71Z"/><path d="M421.51,308.65c.32,0,.6.07.82.2s.4.31.51.54c.12.23.18.48.18.76s-.06.53-.18.76-.29.4-.52.53c-.23.13-.5.2-.82.2h-.9v1.51h-.89v-4.49h1.79ZM422.12,310.15c0-.25-.07-.45-.21-.58-.14-.14-.33-.2-.58-.2h-.74v1.58h.74c.16,0,.3-.03.42-.09s.21-.15.27-.27.09-.26.09-.43Z"/><path d="M424.89,313.14h-.89v-4.49h.89v4.49Z"/><path d="M425.49,308.42h.79c.17.21.32.45.45.72s.24.57.32.92c.08.34.12.74.12,1.18s-.04.85-.12,1.22c-.08.37-.19.7-.32.99s-.28.53-.44.73h-.8c.15-.24.29-.5.41-.79.12-.29.22-.61.29-.97s.11-.75.11-1.17-.04-.82-.12-1.17c-.08-.35-.18-.67-.31-.95-.12-.28-.25-.51-.38-.7Z"/><path d="M430.55,308.42h.8c-.13.19-.26.42-.38.7-.12.28-.22.59-.31.95-.08.35-.12.74-.12,1.17s.04.82.11,1.17.17.68.29.97c.12.29.26.56.41.79h-.8c-.16-.2-.31-.44-.44-.73s-.24-.62-.32-.99c-.08-.37-.12-.78-.12-1.22s.04-.84.12-1.18c.08-.34.19-.65.32-.92.14-.27.29-.51.45-.72Z"/><path d="M434.08,308.65c.32,0,.6.07.82.2s.4.31.51.54c.12.23.18.48.18.76s-.06.53-.18.76-.29.4-.52.53c-.23.13-.5.2-.82.2h-.9v1.51h-.89v-4.49h1.79ZM434.69,310.15c0-.25-.07-.45-.21-.58-.14-.14-.33-.2-.58-.2h-.74v1.58h.74c.16,0,.3-.03.42-.09s.21-.15.27-.27.09-.26.09-.43Z"/><path d="M437.96,309.59c.32,0,.6.06.84.19.24.13.42.31.56.55.13.24.2.52.2.85v.39c0,.34-.07.64-.2.88-.13.24-.32.43-.56.55-.24.13-.52.19-.84.19s-.6-.06-.84-.19-.43-.31-.56-.55c-.13-.24-.2-.54-.2-.88v-.38c0-.32.07-.61.2-.85s.32-.43.56-.56.52-.2.84-.2ZM437.96,310.26c-.16,0-.3.04-.4.13s-.19.2-.24.35c-.05.14-.08.3-.08.48v.36c0,.18.03.33.08.48.05.14.13.26.24.35s.24.13.41.13.3-.04.41-.13c.11-.09.18-.2.23-.35s.08-.3.08-.48v-.36c0-.18-.03-.34-.08-.48s-.13-.26-.24-.34c-.11-.09-.24-.13-.4-.13Z"/><path d="M439.97,308.62c0-.14.05-.26.15-.35s.23-.13.39-.13.29.04.39.13c.1.09.15.21.15.35s-.05.25-.15.34c-.1.09-.23.13-.39.13s-.29-.04-.39-.13-.15-.2-.15-.34ZM440.09,313.14v-3.49h.86v3.49h-.86Z"/><path d="M442.04,313.14v-3.49h.84v.61h.04c.03-.09.08-.19.16-.29.08-.1.18-.19.33-.27s.33-.11.56-.11c.35,0,.63.1.84.3.21.2.32.5.32.91v2.34h-.87v-2.09c0-.17-.03-.31-.08-.42-.06-.11-.13-.18-.22-.23-.09-.05-.2-.07-.32-.07-.16,0-.29.04-.4.11-.11.07-.19.18-.25.31-.06.13-.09.29-.09.46v1.93h-.86Z"/><path d="M446.73,309.69v-.87h.84v.87h.77v.67h-.77v1.69c0,.17.04.29.12.36.08.06.21.1.39.1.05,0,.11,0,.17,0,.06,0,.1,0,.13,0v.64s-.1.01-.21.02c-.1,0-.21.01-.3.01-.29,0-.52-.03-.69-.1-.17-.07-.29-.18-.36-.33-.07-.15-.11-.34-.11-.58v-1.8h-.53v-.67h.55Z"/><path d="M449.3,310.68c0-.26.06-.47.2-.63.13-.16.3-.28.52-.35.21-.07.44-.11.69-.11.26,0,.49.04.69.12.2.08.36.2.47.35.11.15.17.33.17.55h-.77c0-.07-.03-.14-.08-.2-.04-.06-.11-.12-.19-.16-.08-.04-.19-.06-.31-.06-.17,0-.31.04-.41.11-.1.08-.15.18-.15.31,0,.09.03.16.08.22.06.05.13.1.22.13.09.03.19.06.29.08s.21.04.3.05c.21.04.41.09.57.16s.3.17.39.3c.1.13.14.3.14.52,0,.24-.06.44-.18.61-.12.17-.29.3-.51.39-.22.09-.49.14-.8.14s-.55-.04-.76-.13c-.21-.08-.37-.2-.48-.36-.11-.15-.17-.33-.17-.54h.84c.01.08.04.16.09.22.05.06.11.11.2.15s.2.05.33.05c.14,0,.26-.02.35-.06.09-.04.16-.09.2-.16.04-.07.06-.14.06-.22,0-.11-.04-.2-.12-.25-.08-.06-.19-.1-.32-.13-.13-.03-.27-.06-.42-.09-.21-.04-.4-.1-.57-.17s-.31-.17-.41-.31c-.1-.13-.15-.31-.15-.54Z"/><path d="M452.66,308.42h.79c.17.21.32.45.45.72s.24.57.32.92c.08.34.12.74.12,1.18s-.04.85-.12,1.22c-.08.37-.19.7-.32.99s-.28.53-.44.73h-.8c.15-.24.29-.5.41-.79.12-.29.22-.61.29-.97s.11-.75.11-1.17-.04-.82-.12-1.17c-.08-.35-.18-.67-.31-.95-.12-.28-.25-.51-.38-.7Z"/></g></svg>