<?xml version="1.0" encoding="UTF-8"?><svg id="uuid-93d20510-2109-462b-9ca9-86dd2ed712f0" xmlns="http://www.w3.org/2000/svg" viewBox="0 0 526.27 314.27"><g id="uuid-720ca746-d974-47bc-97c2-ddfd2d8676f3"><path d="M16.27,4.49h497.21M16.27,74.45h497.21M16.27,144.41h497.21M16.27,214.37h497.21M16.27,284.33h497.21" style="fill:none; stroke:#d9d9d9; stroke-linejoin:round; stroke-width:.56px;"/><polyline points="16.46 92.6 26.94 92.97 37.04 94.47 47.51 93.72 57.99 97.46 68.09 112.05 78.57 93.72 89.04 92.97 99.14 95.21 109.62 94.47 120.09 93.72 130.19 94.09 140.67 91.47 151.15 89.23 161.62 87.36 171.72 85.49 182.2 81 192.67 77.63 202.77 76.88 213.25 75.01 223.73 73.89 233.83 74.64 244.3 74.26 254.78 70.9 264.88 64.16 275.36 62.67 285.83 60.05 295.93 58.55 306.41 61.17 316.88 60.42 326.98 60.05 337.46 58.55 347.94 55.56 358.04 55.93 368.51 59.67 378.99 56.68 389.46 57.8 399.56 54.81 410.04 61.17 420.52 66.41 430.62 55.93 441.09 50.69 451.57 49.95 461.67 48.45 472.15 47.33 482.62 48.45 492.72 30.49 503.2 22.26 513.67 19.64" style="fill:none; stroke:#079bd5; stroke-linecap:round; stroke-linejoin:round; stroke-width:1.68px;"/><polyline points="16.46 203.34 26.94 198.85 37.04 195.11 47.51 192.49 57.99 188.75 68.09 179.77 78.57 178.27 89.04 179.02 99.14 178.27 109.62 175.28 120.09 170.79 130.19 170.04 140.67 161.06 151.15 146.84 161.62 133.38 171.72 128.89 182.2 125.14 192.67 122.9 202.77 111.68 213.25 110.55 223.73 113.92 233.83 103.82 244.3 97.83 254.78 96.34 264.88 88.85 275.36 78 285.83 74.64 295.93 75.39 306.41 74.26 316.88 71.64 326.98 73.52 337.46 71.64 347.94 72.02 358.04 72.77 368.51 70.52 378.99 70.15 389.46 53.31 399.56 34.61 410.04 40.22 420.52 51.82 430.62 54.06 441.09 56.31 451.57 54.81 461.67 52.19 472.15 50.69 482.62 48.45 492.72 46.58 503.2 49.95 513.67 39.47" style="fill:none; stroke:#fcbf0d; stroke-linecap:round; stroke-linejoin:round; stroke-width:1.68px;"/><path d="M3.8,281.34h2.87v.55l-1.83,3.94h-.63l1.86-3.93v-.04h-2.26v-.53Z"/><path d="M7.79,283.67v-.17c0-.45.06-.85.19-1.19s.31-.6.55-.79.53-.28.87-.28.63.09.87.28.42.45.54.79c.12.34.19.73.19,1.19v.17c0,.34-.04.65-.11.92-.07.28-.18.51-.31.71-.14.2-.31.35-.5.46s-.43.16-.68.16c-.34,0-.63-.09-.87-.28-.24-.19-.42-.45-.55-.78-.13-.34-.19-.73-.19-1.19ZM8.39,283.51v.16c0,.36.04.67.12.93.08.26.2.46.35.6.15.14.33.21.53.21s.39-.07.54-.21c.15-.14.26-.34.34-.6s.12-.57.12-.93v-.16c0-.36-.04-.67-.12-.93s-.2-.46-.34-.6c-.15-.14-.33-.21-.54-.21s-.38.07-.53.21c-.15.14-.27.34-.35.6-.08.26-.12.57-.12.93Z"/><path d="M5.42,215.96c-.31,0-.58-.06-.82-.17-.24-.11-.43-.26-.56-.46s-.2-.43-.2-.69c0-.18.03-.33.09-.46.06-.13.13-.24.23-.33.09-.09.19-.16.3-.22.1-.05.2-.09.3-.12v-.03c-.1-.04-.21-.09-.33-.18-.11-.08-.21-.19-.29-.33-.08-.14-.12-.3-.12-.5,0-.23.06-.44.18-.62.12-.18.29-.32.5-.42s.46-.15.73-.15.52.05.74.15.38.24.5.42c.12.18.18.39.18.62,0,.2-.04.37-.12.5-.08.14-.18.25-.29.33s-.22.14-.32.17v.03c.09.02.19.06.3.12.1.05.2.13.3.22.09.09.17.2.23.33s.08.28.08.46c0,.26-.07.49-.21.69-.14.2-.33.35-.57.47-.24.11-.52.17-.83.17ZM5.43,215.46c.19,0,.36-.04.51-.11s.27-.17.36-.3c.09-.13.13-.27.13-.44s-.04-.32-.13-.45c-.09-.13-.21-.23-.36-.3s-.32-.11-.51-.11-.36.04-.51.11-.27.17-.36.3c-.09.13-.13.28-.13.45s.04.31.13.44c.09.13.21.23.36.3s.32.11.51.11ZM5.43,213.28c.16,0,.31-.03.43-.1.13-.06.22-.15.3-.27s.11-.24.11-.39-.04-.28-.11-.39c-.07-.11-.17-.2-.3-.26s-.27-.09-.43-.09-.31.03-.43.09-.23.15-.3.26c-.07.11-.11.24-.11.39s.04.28.11.39c.07.11.17.2.3.27.13.06.27.1.43.1Z"/><path d="M8.21,213.71v-.17c0-.45.06-.85.19-1.19.13-.34.31-.6.55-.79s.53-.28.87-.28.63.09.87.28.42.45.54.79c.12.34.19.73.19,1.19v.17c0,.34-.04.65-.11.92-.07.28-.18.51-.31.71-.14.2-.31.35-.5.46-.2.11-.43.16-.68.16-.34,0-.63-.09-.87-.28-.24-.19-.42-.45-.55-.78-.13-.34-.19-.73-.19-1.19ZM8.82,213.55v.16c0,.36.04.67.12.93.08.26.2.46.35.6.15.14.33.21.53.21s.39-.07.54-.21.26-.34.34-.6.12-.57.12-.93v-.16c0-.36-.04-.67-.12-.93s-.2-.46-.34-.6-.33-.21-.54-.21-.38.07-.53.21c-.15.14-.27.34-.35.6-.08.26-.12.57-.12.93Z"/><path d="M3.95,144.67h.61c.02.07.06.14.12.21s.15.12.25.16c.1.04.23.06.38.06.21,0,.38-.05.53-.14.14-.1.26-.23.35-.39.09-.17.15-.36.18-.58s.05-.46.04-.71h-.03c-.05.12-.12.24-.21.35-.1.11-.22.19-.37.26-.15.06-.33.1-.53.1-.27,0-.51-.06-.72-.18-.22-.12-.39-.29-.52-.52-.13-.23-.19-.5-.19-.81s.07-.59.21-.82c.14-.23.33-.4.56-.52s.5-.18.79-.18c.2,0,.39.03.58.1.19.07.36.18.52.35s.28.39.37.68c.09.29.14.66.14,1.11,0,.54-.06.99-.18,1.35-.12.36-.31.63-.56.81-.25.18-.57.27-.96.27-.21,0-.39-.03-.55-.08-.16-.05-.3-.12-.41-.21-.11-.09-.2-.19-.26-.3s-.1-.23-.12-.36ZM6.31,142.49c0-.22-.04-.41-.13-.56-.08-.15-.2-.27-.34-.35s-.3-.12-.49-.12c-.17,0-.32.04-.46.12s-.25.2-.34.35c-.08.15-.13.33-.13.55s.04.41.13.55c.09.15.2.25.35.33s.3.11.47.11.31-.04.46-.11.26-.18.35-.32.13-.32.13-.54Z"/><path d="M8.21,143.38v-.17c0-.45.06-.85.19-1.19.13-.34.31-.6.55-.79s.53-.28.87-.28.63.09.87.28.42.45.54.79c.12.34.19.73.19,1.19v.17c0,.34-.04.65-.11.92-.07.28-.18.51-.31.71-.14.2-.31.35-.5.46-.2.11-.43.16-.68.16-.34,0-.63-.09-.87-.28-.24-.19-.42-.45-.55-.78-.13-.34-.19-.73-.19-1.19ZM8.82,143.21v.16c0,.36.04.67.12.93.08.26.2.46.35.6.15.14.33.21.53.21s.39-.07.54-.21.26-.34.34-.6.12-.57.12-.93v-.16c0-.36-.04-.67-.12-.93s-.2-.46-.34-.6-.33-.21-.54-.21-.38.07-.53.21c-.15.14-.27.34-.35.6-.08.26-.12.57-.12.93Z"/><path d="M2.19,75.57h-.6v-3.84h-.03c-.12.08-.23.17-.35.25-.12.08-.23.17-.34.25-.12.08-.23.17-.35.25v-.61c.18-.13.36-.27.54-.4.18-.13.36-.26.53-.39h.6v4.49Z"/><path d="M3.84,73.42v-.17c0-.45.06-.85.19-1.19.13-.34.31-.6.55-.79s.53-.28.87-.28.63.09.87.28.42.45.54.79c.12.34.19.73.19,1.19v.17c0,.34-.04.65-.11.92-.07.28-.18.51-.31.71-.14.2-.31.35-.5.46-.2.11-.43.16-.68.16-.34,0-.63-.09-.87-.28-.24-.19-.42-.45-.55-.78-.13-.34-.19-.73-.19-1.19ZM4.44,73.25v.16c0,.36.04.67.12.93.08.26.2.46.35.6.15.14.33.21.53.21s.39-.07.54-.21.26-.34.34-.6.12-.57.12-.93v-.16c0-.36-.04-.67-.12-.93s-.2-.46-.34-.6-.33-.21-.54-.21-.38.07-.53.21c-.15.14-.27.34-.35.6-.08.26-.12.57-.12.93Z"/><path d="M7.53,73.42v-.17c0-.45.06-.85.19-1.19.13-.34.31-.6.55-.79s.53-.28.87-.28.63.09.87.28.42.45.54.79c.12.34.19.73.19,1.19v.17c0,.34-.04.65-.11.92-.07.28-.18.51-.31.71-.14.2-.31.35-.5.46-.2.11-.43.16-.68.16-.34,0-.63-.09-.87-.28-.24-.19-.42-.45-.55-.78-.13-.34-.19-.73-.19-1.19ZM8.13,73.25v.16c0,.36.04.67.12.93.08.26.2.46.35.6.15.14.33.21.53.21s.39-.07.54-.21.26-.34.34-.6.12-.57.12-.93v-.16c0-.36-.04-.67-.12-.93s-.2-.46-.34-.6-.33-.21-.54-.21-.38.07-.53.21c-.15.14-.27.34-.35.6-.08.26-.12.57-.12.93Z"/><path d="M2.19,5.61h-.6V1.77h-.03c-.12.08-.23.17-.35.25-.12.08-.23.17-.34.25-.12.08-.23.17-.35.25v-.61c.18-.13.36-.27.54-.4.18-.13.36-.26.53-.39h.6v4.49Z"/><path d="M5.58,5.61h-.6V1.77h-.03c-.12.08-.23.17-.35.25-.12.08-.23.17-.34.25-.12.08-.23.17-.35.25v-.61c.18-.13.36-.27.54-.4.18-.13.36-.26.53-.39h.6v4.49Z"/><path d="M6.5,3.45v-.17c0-.45.06-.85.19-1.19.13-.34.31-.6.55-.79s.53-.28.87-.28.63.09.87.28.42.45.54.79c.12.34.19.73.19,1.19v.17c0,.34-.04.65-.11.92-.07.28-.18.51-.31.71-.14.2-.31.35-.5.46-.2.11-.43.16-.68.16-.34,0-.63-.09-.87-.28-.24-.19-.42-.45-.55-.78-.13-.34-.19-.73-.19-1.19ZM7.1,3.29v.16c0,.36.04.67.12.93.08.26.2.46.35.6.15.14.33.21.53.21s.39-.07.54-.21.26-.34.34-.6.12-.57.12-.93v-.16c0-.36-.04-.67-.12-.93s-.2-.46-.34-.6-.33-.21-.54-.21-.38.07-.53.21c-.15.14-.27.34-.35.6-.08.26-.12.57-.12.93Z"/><path d="M7.81,293.38h.59c0,.12.04.22.09.31.06.09.14.16.24.21.1.05.21.08.34.08.24,0,.42-.07.55-.21.12-.14.19-.34.19-.6v-3.22h.61v3.17c0,.45-.12.8-.35,1.04-.24.24-.57.37-.99.37-.19,0-.37-.03-.52-.08-.16-.06-.29-.14-.4-.24-.11-.1-.19-.23-.25-.37-.06-.14-.09-.29-.09-.46Z"/><path d="M12.73,294.49c-.34,0-.61-.1-.82-.29-.21-.19-.31-.45-.31-.77,0-.3.1-.55.31-.74.21-.19.51-.28.91-.28h.9v-.34c0-.22-.07-.38-.2-.49-.13-.11-.31-.16-.53-.16-.15,0-.27.02-.36.05-.09.04-.17.08-.22.14-.05.06-.09.13-.11.21h-.58c.01-.15.05-.28.11-.39.06-.11.15-.21.26-.29.11-.08.24-.14.4-.18.15-.04.33-.06.52-.06.24,0,.46.04.65.11.2.08.35.2.47.37s.18.39.18.68v2.36h-.57v-.46h-.03c-.06.09-.13.18-.22.26-.09.08-.2.14-.32.19-.13.05-.28.07-.45.07ZM12.89,293.99c.16,0,.3-.03.42-.1.12-.06.22-.15.29-.26s.11-.24.11-.38v-.38h-.85c-.24,0-.4.05-.5.15-.1.1-.15.23-.15.39,0,.2.07.35.21.44.14.09.3.14.48.14Z"/><path d="M15.17,294.44v-3.46h.59v.63h.03c.03-.09.08-.19.15-.3s.18-.2.32-.27c.14-.08.33-.12.58-.12.35,0,.63.09.85.29.22.19.33.48.33.87v2.36h-.6v-2.17c0-.18-.03-.33-.09-.46-.06-.12-.15-.21-.26-.27-.11-.06-.25-.09-.4-.09-.2,0-.37.05-.5.14-.13.09-.24.22-.3.38-.07.16-.1.34-.1.54v1.93h-.6Z"/><path d="M21.33,292.86h-2.07v-.53h2.07v.53Z"/><path d="M22.18,291.2h-.59v-.02c0-.17.03-.33.09-.49.06-.16.15-.3.27-.42.12-.12.27-.22.45-.29s.38-.11.62-.11c.28,0,.53.05.74.16.21.11.37.25.49.44.11.19.17.4.17.63,0,.19-.03.36-.1.51-.07.15-.16.3-.28.45-.11.15-.24.3-.38.46l-1.19,1.37v.04h2.04v.53h-2.9v-.38l1.69-1.92c.08-.09.16-.19.24-.29.08-.1.14-.21.2-.33s.08-.24.08-.38c0-.15-.04-.29-.11-.4s-.17-.2-.29-.26c-.12-.06-.26-.09-.41-.09-.17,0-.32.04-.45.11s-.22.17-.28.29c-.06.12-.1.25-.1.4h0v.02Z"/><path d="M27.41,294.44h-.6v-3.84h-.03c-.12.08-.23.17-.35.25-.12.08-.23.17-.34.25-.12.08-.23.17-.35.25v-.61c.18-.13.36-.27.54-.4.18-.13.36-.26.53-.39h.6v4.49Z"/><path d="M132.08,293.38h.59c0,.12.04.22.09.31.06.09.14.16.24.21.1.05.21.08.34.08.24,0,.42-.07.55-.21.12-.14.19-.34.19-.6v-3.22h.61v3.17c0,.45-.12.8-.35,1.04-.24.24-.57.37-.99.37-.19,0-.37-.03-.52-.08-.16-.06-.29-.14-.4-.24-.11-.1-.19-.23-.25-.37-.06-.14-.09-.29-.09-.46Z"/><path d="M137,294.49c-.34,0-.61-.1-.82-.29-.21-.19-.31-.45-.31-.77,0-.3.1-.55.31-.74.21-.19.51-.28.91-.28h.9v-.34c0-.22-.07-.38-.2-.49-.13-.11-.31-.16-.53-.16-.15,0-.27.02-.36.05-.09.04-.17.08-.22.14-.05.06-.09.13-.11.21h-.58c.01-.15.05-.28.11-.39.06-.11.15-.21.26-.29.11-.08.24-.14.4-.18.15-.04.33-.06.52-.06.24,0,.46.04.65.11.2.08.35.2.47.37s.18.39.18.68v2.36h-.57v-.46h-.03c-.06.09-.13.18-.22.26-.09.08-.2.14-.32.19-.13.05-.28.07-.45.07ZM137.17,293.99c.16,0,.3-.03.42-.1.12-.06.22-.15.29-.26s.11-.24.11-.38v-.38h-.85c-.24,0-.4.05-.5.15-.1.1-.15.23-.15.39,0,.2.07.35.21.44.14.09.3.14.48.14Z"/><path d="M139.45,294.44v-3.46h.59v.63h.03c.03-.09.08-.19.15-.3s.18-.2.32-.27c.14-.08.33-.12.58-.12.35,0,.63.09.85.29.22.19.33.48.33.87v2.36h-.6v-2.17c0-.18-.03-.33-.09-.46-.06-.12-.15-.21-.26-.27-.11-.06-.25-.09-.4-.09-.2,0-.37.05-.5.14-.13.09-.24.22-.3.38-.07.16-.1.34-.1.54v1.93h-.6Z"/><path d="M145.61,292.86h-2.07v-.53h2.07v.53Z"/><path d="M146.46,291.2h-.59v-.02c0-.17.03-.33.09-.49.06-.16.15-.3.27-.42.12-.12.27-.22.45-.29s.38-.11.62-.11c.28,0,.53.05.74.16.21.11.37.25.49.44.11.19.17.4.17.63,0,.19-.03.36-.1.51-.07.15-.16.3-.28.45-.11.15-.24.3-.38.46l-1.19,1.37v.04h2.04v.53h-2.9v-.38l1.69-1.92c.08-.09.16-.19.24-.29.08-.1.14-.21.2-.33s.08-.24.08-.38c0-.15-.04-.29-.11-.4s-.17-.2-.29-.26c-.12-.06-.26-.09-.41-.09-.17,0-.32.04-.45.11s-.22.17-.28.29c-.06.12-.1.25-.1.4h0v.02Z"/><path d="M150.56,291.2h-.59v-.02c0-.17.03-.33.09-.49.06-.16.15-.3.27-.42.12-.12.27-.22.45-.29s.38-.11.62-.11c.28,0,.53.05.74.16.21.11.37.25.49.44.11.19.17.4.17.63,0,.19-.03.36-.1.51-.07.15-.16.3-.28.45-.11.15-.24.3-.38.46l-1.19,1.37v.04h2.04v.53h-2.9v-.38l1.69-1.92c.08-.09.16-.19.24-.29.08-.1.14-.21.2-.33s.08-.24.08-.38c0-.15-.04-.29-.11-.4s-.17-.2-.29-.26c-.12-.06-.26-.09-.41-.09-.17,0-.32.04-.45.11s-.22.17-.28.29c-.06.12-.1.25-.1.4h0v.02Z"/><path d="M256.37,293.38h.59c0,.12.04.22.09.31.06.09.14.16.24.21.1.05.21.08.34.08.24,0,.42-.07.55-.21.12-.14.19-.34.19-.6v-3.22h.61v3.17c0,.45-.12.8-.35,1.04-.24.24-.57.37-.99.37-.19,0-.37-.03-.52-.08-.16-.06-.29-.14-.4-.24-.11-.1-.19-.23-.25-.37-.06-.14-.09-.29-.09-.46Z"/><path d="M261.29,294.49c-.34,0-.61-.1-.82-.29-.21-.19-.31-.45-.31-.77,0-.3.1-.55.31-.74.21-.19.51-.28.91-.28h.9v-.34c0-.22-.07-.38-.2-.49-.13-.11-.31-.16-.53-.16-.15,0-.27.02-.36.05-.09.04-.17.08-.22.14-.05.06-.09.13-.11.21h-.58c.01-.15.05-.28.11-.39.06-.11.15-.21.26-.29.11-.08.24-.14.4-.18.15-.04.33-.06.52-.06.24,0,.46.04.65.11.2.08.35.2.47.37s.18.39.18.68v2.36h-.57v-.46h-.03c-.06.09-.13.18-.22.26-.09.08-.2.14-.32.19-.13.05-.28.07-.45.07ZM261.45,293.99c.16,0,.3-.03.42-.1.12-.06.22-.15.29-.26s.11-.24.11-.38v-.38h-.85c-.24,0-.4.05-.5.15-.1.1-.15.23-.15.39,0,.2.07.35.21.44.14.09.3.14.48.14Z"/><path d="M263.73,294.44v-3.46h.59v.63h.03c.03-.09.08-.19.15-.3s.18-.2.32-.27c.14-.08.33-.12.58-.12.35,0,.63.09.85.29.22.19.33.48.33.87v2.36h-.6v-2.17c0-.18-.03-.33-.09-.46-.06-.12-.15-.21-.26-.27-.11-.06-.25-.09-.4-.09-.2,0-.37.05-.5.14-.13.09-.24.22-.3.38-.07.16-.1.34-.1.54v1.93h-.6Z"/><path d="M269.89,292.86h-2.07v-.53h2.07v.53Z"/><path d="M270.74,291.2h-.59v-.02c0-.17.03-.33.09-.49.06-.16.15-.3.27-.42.12-.12.27-.22.45-.29s.38-.11.62-.11c.28,0,.53.05.74.16.21.11.37.25.49.44.11.19.17.4.17.63,0,.19-.03.36-.1.51-.07.15-.16.3-.28.45-.11.15-.24.3-.38.46l-1.19,1.37v.04h2.04v.53h-2.9v-.38l1.69-1.92c.08-.09.16-.19.24-.29.08-.1.14-.21.2-.33s.08-.24.08-.38c0-.15-.04-.29-.11-.4s-.17-.2-.29-.26c-.12-.06-.26-.09-.41-.09-.17,0-.32.04-.45.11s-.22.17-.28.29c-.06.12-.1.25-.1.4h0v.02Z"/><path d="M275.17,292.38v-.52h.46c.16,0,.3-.03.42-.1s.22-.16.29-.27.1-.25.1-.39c0-.22-.08-.39-.23-.53-.15-.14-.35-.2-.59-.2-.12,0-.23.02-.32.05-.09.03-.18.08-.25.14-.07.06-.13.12-.17.2-.04.07-.06.15-.07.24h-.58c0-.15.04-.29.1-.42s.15-.25.27-.36.26-.19.43-.25.37-.1.59-.1c.29,0,.53.05.74.15.21.1.38.24.49.41.12.17.18.37.18.59,0,.21-.04.39-.13.55-.09.15-.2.27-.33.36-.13.09-.25.14-.37.16v.03c.13.01.27.06.42.14.15.08.28.2.39.35.11.16.17.35.17.59,0,.2-.03.38-.11.54-.08.17-.19.31-.33.43-.14.12-.31.21-.51.28-.2.06-.41.1-.64.1-.3,0-.56-.05-.77-.15-.22-.1-.39-.24-.51-.41-.12-.17-.19-.37-.2-.58h.57c.01.12.06.22.14.32s.19.17.32.23c.13.06.29.08.46.09.2,0,.37-.04.51-.11.15-.07.26-.17.34-.3s.12-.27.12-.43c0-.16-.04-.3-.12-.42-.08-.12-.19-.21-.33-.28-.14-.07-.3-.1-.49-.1h-.49Z"/><path d="M380.64,293.38h.59c0,.12.04.22.09.31.06.09.14.16.24.21.1.05.21.08.34.08.24,0,.42-.07.55-.21.12-.14.19-.34.19-.6v-3.22h.61v3.17c0,.45-.12.8-.35,1.04-.24.24-.57.37-.99.37-.19,0-.37-.03-.52-.08-.16-.06-.29-.14-.4-.24-.11-.1-.19-.23-.25-.37-.06-.14-.09-.29-.09-.46Z"/><path d="M385.56,294.49c-.34,0-.61-.1-.82-.29-.21-.19-.31-.45-.31-.77,0-.3.1-.55.31-.74.21-.19.51-.28.91-.28h.9v-.34c0-.22-.07-.38-.2-.49-.13-.11-.31-.16-.53-.16-.15,0-.27.02-.36.05-.09.04-.17.08-.22.14-.05.06-.09.13-.11.21h-.58c.01-.15.05-.28.11-.39.06-.11.15-.21.26-.29.11-.08.24-.14.4-.18.15-.04.33-.06.52-.06.24,0,.46.04.65.11.2.08.35.2.47.37s.18.39.18.68v2.36h-.57v-.46h-.03c-.06.09-.13.18-.22.26-.09.08-.2.14-.32.19-.13.05-.28.07-.45.07ZM385.73,293.99c.16,0,.3-.03.42-.1.12-.06.22-.15.29-.26s.11-.24.11-.38v-.38h-.85c-.24,0-.4.05-.5.15-.1.1-.15.23-.15.39,0,.2.07.35.21.44.14.09.3.14.48.14Z"/><path d="M388.01,294.44v-3.46h.59v.63h.03c.03-.09.08-.19.15-.3s.18-.2.32-.27c.14-.08.33-.12.58-.12.35,0,.63.09.85.29.22.19.33.48.33.87v2.36h-.6v-2.17c0-.18-.03-.33-.09-.46-.06-.12-.15-.21-.26-.27-.11-.06-.25-.09-.4-.09-.2,0-.37.05-.5.14-.13.09-.24.22-.3.38-.07.16-.1.34-.1.54v1.93h-.6Z"/><path d="M394.17,292.86h-2.07v-.53h2.07v.53Z"/><path d="M395.02,291.2h-.59v-.02c0-.17.03-.33.09-.49.06-.16.15-.3.27-.42.12-.12.27-.22.45-.29s.38-.11.62-.11c.28,0,.53.05.74.16.21.11.37.25.49.44.11.19.17.4.17.63,0,.19-.03.36-.1.51-.07.15-.16.3-.28.45-.11.15-.24.3-.38.46l-1.19,1.37v.04h2.04v.53h-2.9v-.38l1.69-1.92c.08-.09.16-.19.24-.29.08-.1.14-.21.2-.33s.08-.24.08-.38c0-.15-.04-.29-.11-.4s-.17-.2-.29-.26c-.12-.06-.26-.09-.41-.09-.17,0-.32.04-.45.11s-.22.17-.28.29c-.06.12-.1.25-.1.4h0v.02Z"/><path d="M400.26,289.95h.89v3.04h.58v.53h-.58v.92h-.58v-.92h-2.18v-.53c.28-.51.58-1.02.9-1.52s.64-1.01.96-1.52ZM398.99,292.99h1.58v-2.52h-.03c-.26.39-.53.8-.79,1.23s-.52.85-.75,1.26v.03Z"/><path d="M504.92,293.38h.59c0,.12.04.22.09.31.06.09.14.16.24.21.1.05.21.08.34.08.24,0,.42-.07.55-.21.12-.14.19-.34.19-.6v-3.22h.61v3.17c0,.45-.12.8-.35,1.04-.24.24-.57.37-.99.37-.19,0-.37-.03-.52-.08-.16-.06-.29-.14-.4-.24-.11-.1-.19-.23-.25-.37-.06-.14-.09-.29-.09-.46Z"/><path d="M509.84,294.49c-.34,0-.61-.1-.82-.29-.21-.19-.31-.45-.31-.77,0-.3.1-.55.31-.74.21-.19.51-.28.91-.28h.9v-.34c0-.22-.07-.38-.2-.49-.13-.11-.31-.16-.53-.16-.15,0-.27.02-.36.05-.09.04-.17.08-.22.14-.05.06-.09.13-.11.21h-.58c.01-.15.05-.28.11-.39.06-.11.15-.21.26-.29.11-.08.24-.14.4-.18.15-.04.33-.06.52-.06.24,0,.46.04.65.11.2.08.35.2.47.37s.18.39.18.68v2.36h-.57v-.46h-.03c-.06.09-.13.18-.22.26-.09.08-.2.14-.32.19-.13.05-.28.07-.45.07ZM510.01,293.99c.16,0,.3-.03.42-.1.12-.06.22-.15.29-.26s.11-.24.11-.38v-.38h-.85c-.24,0-.4.05-.5.15-.1.1-.15.23-.15.39,0,.2.07.35.21.44.14.09.3.14.48.14Z"/><path d="M512.29,294.44v-3.46h.59v.63h.03c.03-.09.08-.19.15-.3s.18-.2.32-.27c.14-.08.33-.12.58-.12.35,0,.63.09.85.29.22.19.33.48.33.87v2.36h-.6v-2.17c0-.18-.03-.33-.09-.46-.06-.12-.15-.21-.26-.27-.11-.06-.25-.09-.4-.09-.2,0-.37.05-.5.14-.13.09-.24.22-.3.38-.07.16-.1.34-.1.54v1.93h-.6Z"/><path d="M518.45,292.86h-2.07v-.53h2.07v.53Z"/><path d="M519.3,291.2h-.59v-.02c0-.17.03-.33.09-.49.06-.16.15-.3.27-.42.12-.12.27-.22.45-.29s.38-.11.62-.11c.28,0,.53.05.74.16.21.11.37.25.49.44.11.19.17.4.17.63,0,.19-.03.36-.1.51-.07.15-.16.3-.28.45-.11.15-.24.3-.38.46l-1.19,1.37v.04h2.04v.53h-2.9v-.38l1.69-1.92c.08-.09.16-.19.24-.29.08-.1.14-.21.2-.33s.08-.24.08-.38c0-.15-.04-.29-.11-.4s-.17-.2-.29-.26c-.12-.06-.26-.09-.41-.09-.17,0-.32.04-.45.11s-.22.17-.28.29c-.06.12-.1.25-.1.4h0v.02Z"/><path d="M522.83,293.39h.58c.02.11.06.21.12.29.06.08.13.14.22.19.09.05.18.09.28.11.1.02.2.03.3.03.15,0,.3-.04.45-.12.15-.08.26-.19.36-.35.09-.15.14-.34.14-.56,0-.2-.04-.37-.13-.51-.09-.14-.21-.25-.35-.33-.15-.08-.3-.12-.47-.12-.15,0-.29.03-.41.08s-.21.12-.29.19c-.08.08-.14.15-.18.23h-.51l.2-2.58h2.54v.52h-2.02l-.12,1.44h.03s.09-.1.17-.16c.08-.06.18-.11.3-.16.12-.04.27-.07.43-.07.26,0,.5.06.72.17s.39.28.52.5c.13.21.2.47.2.78s-.07.58-.2.81-.32.42-.56.55c-.24.13-.51.2-.83.2-.21,0-.4-.03-.57-.08-.17-.06-.33-.14-.46-.24-.13-.1-.23-.22-.31-.36-.08-.14-.12-.29-.13-.45Z"/><line x1="115.2" y1="307.31" x2="129.79" y2="307.31" style="fill:none; stroke:#079bd5; stroke-linecap:round; stroke-linejoin:round; stroke-width:1.68px;"/><path d="M135.19,309.4h-.79v-4.49h.9l1.28,2.91h.03l1.28-2.91h.9v4.49h-.8v-2.99h-.04l-1.06,2.42h-.58l-1.07-2.42h-.04v2.99Z" style="fill:#1d1d1b;"/><path d="M141.22,309.45c-.34,0-.62-.1-.83-.29s-.32-.45-.32-.78.11-.56.32-.75c.21-.19.52-.28.93-.28h.85v-.31c0-.17-.05-.31-.16-.39-.11-.09-.25-.13-.42-.13-.12,0-.22.02-.29.05-.08.03-.14.08-.18.13s-.07.12-.09.19h-.82c.01-.14.04-.28.1-.4.06-.12.14-.23.25-.33.11-.09.25-.17.43-.22.17-.05.38-.08.62-.08.26,0,.5.04.71.12.21.08.39.2.51.38.13.17.19.41.19.71v2.34h-.82v-.44h-.04c-.05.08-.11.17-.19.24-.08.08-.18.14-.31.18-.12.05-.27.07-.45.07ZM141.5,308.82c.12,0,.23-.03.33-.08.1-.05.18-.12.24-.21.06-.09.09-.19.09-.3v-.36h-.67c-.19,0-.34.04-.43.13-.09.09-.14.2-.14.33,0,.16.06.29.17.37.12.08.25.12.39.12Z" style="fill:#1d1d1b;"/><path d="M143.77,309.4v-4.72h.87v4.72h-.87Z" style="fill:#1d1d1b;"/><path d="M146.71,305.87c.16,0,.31.02.45.07s.25.11.34.2c.09.09.16.19.21.31h.04v-1.77h.87v4.72h-.85v-.56h-.04c-.03.09-.07.17-.13.25s-.14.14-.23.19c-.09.05-.19.09-.3.12-.11.03-.23.04-.36.04-.26,0-.49-.06-.69-.18-.2-.12-.35-.3-.45-.53-.11-.23-.16-.5-.16-.82v-.52c0-.32.05-.59.16-.82.11-.23.26-.4.46-.53.2-.12.43-.18.69-.18ZM147,306.56c-.14,0-.27.04-.38.11s-.19.18-.25.32c-.06.14-.09.31-.09.5v.34c0,.2.03.37.09.51.06.14.14.25.25.32s.24.11.39.11.28-.04.39-.11c.11-.07.2-.17.26-.31.06-.13.09-.29.09-.48v-.45c0-.18-.03-.33-.1-.45-.07-.13-.15-.22-.27-.29-.11-.07-.24-.1-.39-.1Z" style="fill:#1d1d1b;"/><path d="M149.89,304.88c0-.14.05-.26.15-.35s.23-.13.39-.13.29.04.39.13c.1.09.15.21.15.35s-.05.25-.15.34c-.1.09-.23.13-.39.13s-.29-.04-.39-.13-.15-.2-.15-.34ZM150,309.4v-3.49h.86v3.49h-.86Z" style="fill:#1d1d1b;"/><path d="M152.73,309.4l-1.16-3.49h.94l.69,2.68h.04l.76-2.68h.91l-1.22,3.49h-.96Z" style="fill:#1d1d1b;"/><path d="M156.45,309.46c-.32,0-.6-.06-.84-.19-.24-.12-.42-.31-.55-.54-.13-.24-.2-.53-.2-.87v-.41c0-.34.07-.63.21-.87.14-.24.32-.42.56-.54.23-.12.5-.18.79-.18s.57.06.8.19c.23.13.41.31.54.55.13.24.2.52.2.85v.4h-2.24v.16c0,.23.07.42.2.56.13.15.31.22.54.22.12,0,.22-.02.32-.05.09-.03.17-.08.23-.14.06-.06.09-.12.1-.2h.82c0,.11-.04.23-.11.35-.06.12-.15.24-.27.34-.12.11-.27.2-.45.26-.18.07-.39.1-.64.1ZM155.71,307.32h1.4v-.04c0-.16-.03-.29-.09-.41-.06-.12-.14-.21-.24-.28-.1-.07-.23-.1-.37-.1s-.26.03-.37.1c-.11.07-.19.16-.25.28-.06.12-.09.25-.09.41v.04Z" style="fill:#1d1d1b;"/><path d="M159.14,306.94c0-.26.06-.47.2-.63.13-.16.3-.28.52-.35.21-.07.44-.11.69-.11.26,0,.49.04.69.12.2.08.36.2.47.35.11.15.17.33.17.55h-.77c0-.07-.03-.14-.08-.2-.04-.06-.11-.12-.19-.16-.08-.04-.19-.06-.31-.06-.17,0-.31.04-.41.11-.1.08-.15.18-.15.31,0,.09.03.16.08.22.06.05.13.1.22.13.09.03.19.06.29.08s.21.04.3.05c.21.04.41.09.57.16s.3.17.39.3c.1.13.14.3.14.52,0,.24-.06.44-.18.61-.12.17-.29.3-.51.39-.22.09-.49.14-.8.14s-.55-.04-.76-.13c-.21-.08-.37-.2-.48-.36-.11-.15-.17-.33-.17-.54h.84c.01.08.04.16.09.22.05.06.11.11.2.15s.2.05.33.05c.14,0,.26-.02.35-.06.09-.04.16-.09.2-.16.04-.07.06-.14.06-.22,0-.11-.04-.2-.12-.25-.08-.06-.19-.1-.32-.13-.13-.03-.27-.06-.42-.09-.21-.04-.4-.1-.57-.17s-.31-.17-.41-.31c-.1-.13-.15-.31-.15-.54Z" style="fill:#1d1d1b;"/><path d="M164.59,306.89v.56c0,.28.04.51.11.7.08.19.19.34.34.44.15.1.33.15.53.15.17,0,.32-.03.45-.1.13-.07.23-.16.31-.28s.12-.25.13-.41h.86v.09c-.02.29-.1.54-.25.75-.15.22-.36.39-.62.51-.26.12-.55.18-.88.18-.4,0-.75-.08-1.03-.25-.28-.16-.49-.4-.64-.7-.15-.3-.22-.67-.22-1.09v-.56c0-.42.07-.79.22-1.1.15-.31.36-.54.64-.71.28-.17.62-.25,1.02-.25.25,0,.47.04.68.11.21.07.39.17.55.31.16.13.28.29.37.47.09.18.14.38.15.61v.08h-.86c-.01-.16-.06-.3-.13-.43-.08-.12-.18-.22-.31-.29-.13-.07-.28-.11-.45-.11-.21,0-.38.05-.53.16-.15.1-.26.25-.34.45-.08.2-.12.43-.12.71Z" style="fill:#1d1d1b;"/><path d="M169.86,305.85c.32,0,.6.06.84.19.24.13.42.31.56.55.13.24.2.52.2.85v.39c0,.34-.07.64-.2.88-.13.24-.32.43-.56.55-.24.13-.52.19-.84.19s-.6-.06-.84-.19-.43-.31-.56-.55c-.13-.24-.2-.54-.2-.88v-.38c0-.32.07-.61.2-.85s.32-.43.56-.56.52-.2.84-.2ZM169.86,306.52c-.16,0-.3.04-.4.13s-.19.2-.24.35c-.05.14-.08.3-.08.48v.36c0,.18.03.33.08.48.05.14.13.26.24.35s.24.13.41.13.3-.04.41-.13c.11-.09.18-.2.23-.35s.08-.3.08-.48v-.36c0-.18-.03-.34-.08-.48s-.13-.26-.24-.34c-.11-.09-.24-.13-.4-.13Z" style="fill:#1d1d1b;"/><path d="M172.66,309.4v-3.49h.84v.61h.04c.03-.09.08-.19.16-.29.08-.1.18-.19.33-.27s.33-.11.56-.11c.35,0,.63.1.84.3.21.2.32.5.32.91v2.34h-.87v-2.09c0-.17-.03-.31-.08-.42-.06-.11-.13-.18-.22-.23-.09-.05-.2-.07-.32-.07-.16,0-.29.04-.4.11-.11.07-.19.18-.25.31-.06.13-.09.29-.09.46v1.93h-.86Z" style="fill:#1d1d1b;"/><path d="M176.21,306.94c0-.26.06-.47.2-.63.13-.16.3-.28.52-.35.21-.07.44-.11.69-.11.26,0,.49.04.69.12.2.08.36.2.47.35.11.15.17.33.17.55h-.77c0-.07-.03-.14-.08-.2-.04-.06-.11-.12-.19-.16-.08-.04-.19-.06-.31-.06-.17,0-.31.04-.41.11-.1.08-.15.18-.15.31,0,.09.03.16.08.22.06.05.13.1.22.13.09.03.19.06.29.08s.21.04.3.05c.21.04.41.09.57.16s.3.17.39.3c.1.13.14.3.14.52,0,.24-.06.44-.18.61-.12.17-.29.3-.51.39-.22.09-.49.14-.8.14s-.55-.04-.76-.13c-.21-.08-.37-.2-.48-.36-.11-.15-.17-.33-.17-.54h.84c.01.08.04.16.09.22.05.06.11.11.2.15s.2.05.33.05c.14,0,.26-.02.35-.06.09-.04.16-.09.2-.16.04-.07.06-.14.06-.22,0-.11-.04-.2-.12-.25-.08-.06-.19-.1-.32-.13-.13-.03-.27-.06-.42-.09-.21-.04-.4-.1-.57-.17s-.31-.17-.41-.31c-.1-.13-.15-.31-.15-.54Z" style="fill:#1d1d1b;"/><path d="M182.97,305.91v3.49h-.84v-.58h-.04c-.03.09-.09.19-.17.29-.08.1-.2.18-.34.25-.14.07-.31.1-.52.1-.23,0-.43-.04-.61-.12-.17-.08-.31-.21-.41-.38-.1-.17-.15-.4-.15-.67v-2.36h.87v2.14c0,.18.03.32.09.42s.14.17.24.21c.1.04.2.06.31.06.13,0,.26-.03.37-.09s.2-.15.26-.25c.06-.11.1-.23.1-.37v-2.1h.86Z" style="fill:#1d1d1b;"/><path d="M184.3,309.4v-3.49h.84v.58h.04c.03-.09.07-.18.14-.28.07-.1.17-.18.3-.25.13-.07.3-.11.51-.11.18,0,.33.03.46.09.13.06.24.13.32.23.08.1.14.21.18.34h.03c.04-.11.11-.21.2-.31s.21-.18.35-.25.31-.1.51-.1c.36,0,.63.1.83.3s.3.47.3.81v2.44h-.87v-2.17c0-.15-.02-.27-.07-.37-.05-.1-.12-.17-.21-.22-.09-.05-.19-.07-.32-.07s-.22.03-.32.09c-.09.06-.17.14-.23.24s-.08.23-.08.38v2.12h-.83v-2.15c0-.15-.03-.28-.08-.38s-.12-.17-.22-.22c-.09-.05-.2-.07-.31-.07s-.22.03-.31.08c-.09.05-.17.13-.22.24s-.08.23-.08.38v2.13h-.86Z" style="fill:#1d1d1b;"/><path d="M191.72,309.46c-.32,0-.6-.06-.84-.19-.24-.12-.42-.31-.55-.54-.13-.24-.2-.53-.2-.87v-.41c0-.34.07-.63.21-.87.14-.24.32-.42.56-.54.23-.12.5-.18.79-.18s.57.06.8.19c.23.13.41.31.54.55.13.24.2.52.2.85v.4h-2.24v.16c0,.23.07.42.2.56.13.15.31.22.54.22.12,0,.22-.02.32-.05.09-.03.17-.08.23-.14.06-.06.09-.12.1-.2h.82c0,.11-.04.23-.11.35-.06.12-.15.24-.27.34-.12.11-.27.2-.45.26-.18.07-.39.1-.64.1ZM190.98,307.32h1.4v-.04c0-.16-.03-.29-.09-.41-.06-.12-.14-.21-.24-.28-.1-.07-.23-.1-.37-.1s-.26.03-.37.1c-.11.07-.19.16-.25.28-.06.12-.09.25-.09.41v.04Z" style="fill:#1d1d1b;"/><path d="M193.84,309.4v-3.49h.87v.55h.04c.02-.08.07-.17.14-.26.07-.09.16-.17.28-.24.12-.07.27-.1.46-.1.06,0,.11,0,.15,0,.05,0,.09,0,.12.02v.75s-.08-.02-.14-.02c-.06,0-.13,0-.2,0-.19,0-.34.03-.47.1-.12.07-.22.16-.28.28-.06.12-.09.26-.09.42v2h-.88Z" style="fill:#1d1d1b;"/><path d="M200.34,304.91c.32,0,.6.07.82.2s.4.31.51.54c.12.23.18.48.18.76s-.06.53-.18.76-.29.4-.52.53c-.23.13-.5.2-.82.2h-.9v1.51h-.89v-4.49h1.79ZM200.95,306.41c0-.25-.07-.45-.21-.58-.14-.14-.33-.2-.58-.2h-.74v1.58h.74c.16,0,.3-.03.42-.09s.21-.15.27-.27.09-.26.09-.43Z" style="fill:#1d1d1b;"/><path d="M202.81,309.4v-3.49h.87v.55h.04c.02-.08.07-.17.14-.26.07-.09.16-.17.28-.24.12-.07.27-.1.46-.1.06,0,.11,0,.15,0,.05,0,.09,0,.12.02v.75s-.08-.02-.14-.02c-.06,0-.13,0-.2,0-.19,0-.34.03-.47.1-.12.07-.22.16-.28.28-.06.12-.09.26-.09.42v2h-.88Z" style="fill:#1d1d1b;"/><path d="M204.95,304.88c0-.14.05-.26.15-.35s.23-.13.39-.13.29.04.39.13c.1.09.15.21.15.35s-.05.25-.15.34c-.1.09-.23.13-.39.13s-.29-.04-.39-.13-.15-.2-.15-.34ZM205.06,309.4v-3.49h.86v3.49h-.86Z" style="fill:#1d1d1b;"/><path d="M206.85,307.86v-.44c0-.32.06-.6.19-.83s.31-.42.54-.55c.23-.13.51-.19.82-.19s.56.05.78.17c.21.11.38.26.49.44.11.18.17.39.18.61h-.8c0-.08-.04-.16-.08-.24s-.11-.15-.2-.2c-.09-.05-.2-.08-.34-.08-.23,0-.4.08-.52.24-.12.16-.18.38-.18.65v.42c0,.28.06.51.19.67s.3.24.52.24c.14,0,.25-.02.34-.06.09-.04.15-.1.2-.18.05-.08.08-.16.09-.25h.8c0,.22-.06.42-.17.6s-.27.32-.49.43c-.21.1-.48.16-.8.16s-.6-.07-.83-.2c-.23-.13-.41-.31-.53-.55-.12-.24-.19-.52-.19-.85Z" style="fill:#1d1d1b;"/><path d="M212.62,309.46c-.32,0-.6-.06-.84-.19-.24-.12-.42-.31-.55-.54-.13-.24-.2-.53-.2-.87v-.41c0-.34.07-.63.21-.87.14-.24.32-.42.56-.54.23-.12.5-.18.79-.18s.57.06.8.19c.23.13.41.31.54.55.13.24.2.52.2.85v.4h-2.24v.16c0,.23.07.42.2.56.13.15.31.22.54.22.12,0,.22-.02.32-.05.09-.03.17-.08.23-.14.06-.06.09-.12.1-.2h.82c0,.11-.04.23-.11.35-.06.12-.15.24-.27.34-.12.11-.27.2-.45.26-.18.07-.39.1-.64.1ZM211.88,307.32h1.4v-.04c0-.16-.03-.29-.09-.41-.06-.12-.14-.21-.24-.28-.1-.07-.23-.1-.37-.1s-.26.03-.37.1c-.11.07-.19.16-.25.28-.06.12-.09.25-.09.41v.04Z" style="fill:#1d1d1b;"/><path d="M217.37,309.4h-.89v-4.49h.89v4.49Z" style="fill:#1d1d1b;"/><path d="M218.3,309.4v-3.49h.84v.61h.04c.03-.09.08-.19.16-.29.08-.1.18-.19.33-.27s.33-.11.56-.11c.35,0,.63.1.84.3.21.2.32.5.32.91v2.34h-.87v-2.09c0-.17-.03-.31-.08-.42-.06-.11-.13-.18-.22-.23-.09-.05-.2-.07-.32-.07-.16,0-.29.04-.4.11-.11.07-.19.18-.25.31-.06.13-.09.29-.09.46v1.93h-.86Z" style="fill:#1d1d1b;"/><path d="M223.15,305.87c.16,0,.31.02.45.07s.25.11.34.2c.09.09.16.19.21.31h.04v-1.77h.87v4.72h-.85v-.56h-.04c-.03.09-.07.17-.13.25s-.14.14-.23.19c-.09.05-.19.09-.3.12-.11.03-.23.04-.36.04-.26,0-.49-.06-.69-.18-.2-.12-.35-.3-.45-.53-.11-.23-.16-.5-.16-.82v-.52c0-.32.05-.59.16-.82.11-.23.26-.4.46-.53.2-.12.43-.18.69-.18ZM223.44,306.56c-.14,0-.27.04-.38.11s-.19.18-.25.32c-.06.14-.09.31-.09.5v.34c0,.2.03.37.09.51.06.14.14.25.25.32s.24.11.39.11.28-.04.39-.11c.11-.07.2-.17.26-.31.06-.13.09-.29.09-.48v-.45c0-.18-.03-.33-.1-.45-.07-.13-.15-.22-.27-.29-.11-.07-.24-.1-.39-.1Z" style="fill:#1d1d1b;"/><path d="M227.81,309.46c-.32,0-.6-.06-.84-.19-.24-.12-.42-.31-.55-.54-.13-.24-.2-.53-.2-.87v-.41c0-.34.07-.63.21-.87.14-.24.32-.42.56-.54.23-.12.5-.18.79-.18s.57.06.8.19c.23.13.41.31.54.55.13.24.2.52.2.85v.4h-2.24v.16c0,.23.07.42.2.56.13.15.31.22.54.22.12,0,.22-.02.32-.05.09-.03.17-.08.23-.14.06-.06.09-.12.1-.2h.82c0,.11-.04.23-.11.35-.06.12-.15.24-.27.34-.12.11-.27.2-.45.26-.18.07-.39.1-.64.1ZM227.07,307.32h1.4v-.04c0-.16-.03-.29-.09-.41-.06-.12-.14-.21-.24-.28-.1-.07-.23-.1-.37-.1s-.26.03-.37.1c-.11.07-.19.16-.25.28-.06.12-.09.25-.09.41v.04Z" style="fill:#1d1d1b;"/><path d="M231.91,309.4l-.68-1.18h-.03l-.68,1.18h-.92l1.09-1.73s-.07-.11-.12-.2c-.06-.09-.12-.19-.2-.31-.08-.12-.15-.24-.24-.37s-.16-.25-.24-.37c-.08-.12-.14-.22-.2-.31-.06-.09-.1-.16-.12-.2h1l.66,1.17h.04l.68-1.17h.96l-1.14,1.72s.07.11.12.2c.06.09.12.19.2.31.08.12.16.24.24.37.08.13.16.25.24.37.08.12.14.22.2.32.06.09.1.16.12.2h-.97Z" style="fill:#1d1d1b;"/><path d="M236.38,306.89v.56c0,.28.04.51.11.7.08.19.19.34.34.44.15.1.33.15.53.15.17,0,.32-.03.45-.1.13-.07.23-.16.31-.28s.12-.25.13-.41h.86v.09c-.02.29-.1.54-.25.75-.15.22-.36.39-.62.51-.26.12-.55.18-.88.18-.4,0-.75-.08-1.03-.25-.28-.16-.49-.4-.64-.7-.15-.3-.22-.67-.22-1.09v-.56c0-.42.07-.79.22-1.1.15-.31.36-.54.64-.71.28-.17.62-.25,1.02-.25.25,0,.47.04.68.11.21.07.39.17.55.31.16.13.28.29.37.47.09.18.14.38.15.61v.08h-.86c-.01-.16-.06-.3-.13-.43-.08-.12-.18-.22-.31-.29-.13-.07-.28-.11-.45-.11-.21,0-.38.05-.53.16-.15.1-.26.25-.34.45-.08.2-.12.43-.12.71Z" style="fill:#1d1d1b;"/><path d="M241.31,304.91c.32,0,.6.07.82.2s.4.31.51.54c.12.23.18.48.18.76s-.06.53-.18.76-.29.4-.52.53c-.23.13-.5.2-.82.2h-.9v1.51h-.89v-4.49h1.79ZM241.92,306.41c0-.25-.07-.45-.21-.58-.14-.14-.33-.2-.58-.2h-.74v1.58h.74c.16,0,.3-.03.42-.09s.21-.15.27-.27.09-.26.09-.43Z" style="fill:#1d1d1b;"/><path d="M244.69,309.4h-.89v-4.49h.89v4.49Z" style="fill:#1d1d1b;"/><path d="M248.37,304.68h.8c-.13.19-.26.42-.38.7-.12.28-.22.59-.31.95-.08.35-.12.74-.12,1.17s.04.82.11,1.17.17.68.29.97c.12.29.26.56.41.79h-.8c-.16-.2-.31-.44-.44-.73s-.24-.62-.32-.99c-.08-.37-.12-.78-.12-1.22s.04-.84.12-1.18c.08-.34.19-.65.32-.92.14-.27.29-.51.45-.72Z" style="fill:#1d1d1b;"/><path d="M251.91,304.91c.32,0,.6.07.82.2s.4.31.51.54c.12.23.18.48.18.76s-.06.53-.18.76-.29.4-.52.53c-.23.13-.5.2-.82.2h-.9v1.51h-.89v-4.49h1.79ZM252.52,306.41c0-.25-.07-.45-.21-.58-.14-.14-.33-.2-.58-.2h-.74v1.58h.74c.16,0,.3-.03.42-.09s.21-.15.27-.27.09-.26.09-.43Z" style="fill:#1d1d1b;"/><path d="M255.79,305.85c.32,0,.6.06.84.19.24.13.42.31.56.55.13.24.2.52.2.85v.39c0,.34-.07.64-.2.88-.13.24-.32.43-.56.55-.24.13-.52.19-.84.19s-.6-.06-.84-.19-.43-.31-.56-.55c-.13-.24-.2-.54-.2-.88v-.38c0-.32.07-.61.2-.85s.32-.43.56-.56.52-.2.84-.2ZM255.79,306.52c-.16,0-.3.04-.4.13s-.19.2-.24.35c-.05.14-.08.3-.08.48v.36c0,.18.03.33.08.48.05.14.13.26.24.35s.24.13.41.13.3-.04.41-.13c.11-.09.18-.2.23-.35s.08-.3.08-.48v-.36c0-.18-.03-.34-.08-.48s-.13-.26-.24-.34c-.11-.09-.24-.13-.4-.13Z" style="fill:#1d1d1b;"/><path d="M257.8,304.88c0-.14.05-.26.15-.35s.23-.13.39-.13.29.04.39.13c.1.09.15.21.15.35s-.05.25-.15.34c-.1.09-.23.13-.39.13s-.29-.04-.39-.13-.15-.2-.15-.34ZM257.91,309.4v-3.49h.86v3.49h-.86Z" style="fill:#1d1d1b;"/><path d="M259.86,309.4v-3.49h.84v.61h.04c.03-.09.08-.19.16-.29.08-.1.18-.19.33-.27s.33-.11.56-.11c.35,0,.63.1.84.3.21.2.32.5.32.91v2.34h-.87v-2.09c0-.17-.03-.31-.08-.42-.06-.11-.13-.18-.22-.23-.09-.05-.2-.07-.32-.07-.16,0-.29.04-.4.11-.11.07-.19.18-.25.31-.06.13-.09.29-.09.46v1.93h-.86Z" style="fill:#1d1d1b;"/><path d="M264.55,305.94v-.87h.84v.87h.77v.67h-.77v1.69c0,.17.04.29.12.36.08.06.21.1.39.1.05,0,.11,0,.17,0,.06,0,.1,0,.13,0v.64s-.1.01-.21.02c-.1,0-.21.01-.3.01-.29,0-.52-.03-.69-.1-.17-.07-.29-.18-.36-.33-.07-.15-.11-.34-.11-.58v-1.8h-.53v-.67h.55Z" style="fill:#1d1d1b;"/><path d="M266.38,306.94c0-.26.06-.47.2-.63.13-.16.3-.28.52-.35.21-.07.44-.11.69-.11.26,0,.49.04.69.12.2.08.36.2.47.35.11.15.17.33.17.55h-.77c0-.07-.03-.14-.08-.2-.04-.06-.11-.12-.19-.16-.08-.04-.19-.06-.31-.06-.17,0-.31.04-.41.11-.1.08-.15.18-.15.31,0,.09.03.16.08.22.06.05.13.1.22.13.09.03.19.06.29.08s.21.04.3.05c.21.04.41.09.57.16s.3.17.39.3c.1.13.14.3.14.52,0,.24-.06.44-.18.61-.12.17-.29.3-.51.39-.22.09-.49.14-.8.14s-.55-.04-.76-.13c-.21-.08-.37-.2-.48-.36-.11-.15-.17-.33-.17-.54h.84c.01.08.04.16.09.22.05.06.11.11.2.15s.2.05.33.05c.14,0,.26-.02.35-.06.09-.04.16-.09.2-.16.04-.07.06-.14.06-.22,0-.11-.04-.2-.12-.25-.08-.06-.19-.1-.32-.13-.13-.03-.27-.06-.42-.09-.21-.04-.4-.1-.57-.17s-.31-.17-.41-.31c-.1-.13-.15-.31-.15-.54Z" style="fill:#1d1d1b;"/><path d="M269.75,304.68h.79c.17.21.32.45.45.72s.24.57.32.92c.08.34.12.74.12,1.18s-.04.85-.12,1.22c-.08.37-.19.7-.32.99s-.28.53-.44.73h-.8c.15-.24.29-.5.41-.79.12-.29.22-.61.29-.97s.11-.75.11-1.17-.04-.82-.12-1.17c-.08-.35-.18-.67-.31-.95-.12-.28-.25-.51-.38-.7Z" style="fill:#1d1d1b;"/><line x1="285.61" y1="307.31" x2="299.83" y2="307.31" style="fill:none; stroke:#fcbf0d; stroke-linecap:round; stroke-linejoin:round; stroke-width:1.68px;"/><path d="M305.51,309.4h-.79v-4.49h.9l1.28,2.91h.03l1.28-2.91h.9v4.49h-.8v-2.99h-.04l-1.06,2.42h-.58l-1.07-2.42h-.04v2.99Z"/><path d="M311.53,309.45c-.34,0-.62-.1-.83-.29s-.32-.45-.32-.78.11-.56.32-.75c.21-.19.52-.28.93-.28h.85v-.31c0-.17-.05-.31-.16-.39-.11-.09-.25-.13-.42-.13-.12,0-.22.02-.29.05-.08.03-.14.08-.18.13s-.07.12-.09.19h-.82c.01-.14.04-.28.1-.4.06-.12.14-.23.25-.33.11-.09.25-.17.43-.22.17-.05.38-.08.62-.08.26,0,.5.04.71.12.21.08.39.2.51.38.13.17.19.41.19.71v2.34h-.82v-.44h-.04c-.05.08-.11.17-.19.24-.08.08-.18.14-.31.18-.12.05-.27.07-.45.07ZM311.82,308.82c.12,0,.23-.03.33-.08.1-.05.18-.12.24-.21.06-.09.09-.19.09-.3v-.36h-.67c-.19,0-.34.04-.43.13-.09.09-.14.2-.14.33,0,.16.06.29.17.37.12.08.25.12.39.12Z"/><path d="M317.12,305.91v3.49h-.84v-.58h-.04c-.03.09-.09.19-.17.29-.08.1-.2.18-.34.25-.14.07-.31.1-.52.1-.23,0-.43-.04-.61-.12-.17-.08-.31-.21-.41-.38-.1-.17-.15-.4-.15-.67v-2.36h.87v2.14c0,.18.03.32.09.42s.14.17.24.21c.1.04.2.06.31.06.13,0,.26-.03.37-.09s.2-.15.26-.25c.06-.11.1-.23.1-.37v-2.1h.86Z"/><path d="M317.75,309.4v-3.49h.87v.55h.04c.02-.08.07-.17.14-.26.07-.09.16-.17.28-.24.12-.07.27-.1.46-.1.06,0,.11,0,.15,0,.05,0,.09,0,.12.02v.75s-.08-.02-.14-.02c-.06,0-.13,0-.2,0-.19,0-.34.03-.47.1-.12.07-.22.16-.28.28-.06.12-.09.26-.09.42v2h-.88Z"/><path d="M320.63,304.88c0-.14.05-.26.15-.35s.23-.13.39-.13.29.04.39.13c.1.09.15.21.15.35s-.05.25-.15.34c-.1.09-.23.13-.39.13s-.29-.04-.39-.13-.15-.2-.15-.34ZM320.74,309.4v-3.49h.86v3.49h-.86Z"/><path d="M322.96,305.94v-.87h.84v.87h.77v.67h-.77v1.69c0,.17.04.29.12.36.08.06.21.1.39.1.05,0,.11,0,.17,0,.06,0,.1,0,.13,0v.64s-.1.01-.21.02c-.1,0-.21.01-.3.01-.29,0-.52-.03-.69-.1-.17-.07-.29-.18-.36-.33-.07-.15-.11-.34-.11-.58v-1.8h-.53v-.67h.55Z"/><path d="M325.61,304.88c0-.14.05-.26.15-.35s.23-.13.39-.13.29.04.39.13c.1.09.15.21.15.35s-.05.25-.15.34c-.1.09-.23.13-.39.13s-.29-.04-.39-.13-.15-.2-.15-.34ZM325.72,309.4v-3.49h.86v3.49h-.86Z"/><path d="M330.74,305.91v3.49h-.84v-.58h-.04c-.03.09-.09.19-.17.29-.08.1-.2.18-.34.25-.14.07-.31.1-.52.1-.23,0-.43-.04-.61-.12-.17-.08-.31-.21-.41-.38-.1-.17-.15-.4-.15-.67v-2.36h.87v2.14c0,.18.03.32.09.42s.14.17.24.21c.1.04.2.06.31.06.13,0,.26-.03.37-.09s.2-.15.26-.25c.06-.11.1-.23.1-.37v-2.1h.86Z"/><path d="M331.94,306.94c0-.26.06-.47.2-.63.13-.16.3-.28.52-.35.21-.07.44-.11.69-.11.26,0,.49.04.69.12.2.08.36.2.47.35.11.15.17.33.17.55h-.77c0-.07-.03-.14-.08-.2-.04-.06-.11-.12-.19-.16-.08-.04-.19-.06-.31-.06-.17,0-.31.04-.41.11-.1.08-.15.18-.15.31,0,.09.03.16.08.22.06.05.13.1.22.13.09.03.19.06.29.08s.21.04.3.05c.21.04.41.09.57.16s.3.17.39.3c.1.13.14.3.14.52,0,.24-.06.44-.18.61-.12.17-.29.3-.51.39-.22.09-.49.14-.8.14s-.55-.04-.76-.13c-.21-.08-.37-.2-.48-.36-.11-.15-.17-.33-.17-.54h.84c.01.08.04.16.09.22.05.06.11.11.2.15s.2.05.33.05c.14,0,.26-.02.35-.06.09-.04.16-.09.2-.16.04-.07.06-.14.06-.22,0-.11-.04-.2-.12-.25-.08-.06-.19-.1-.32-.13-.13-.03-.27-.06-.42-.09-.21-.04-.4-.1-.57-.17s-.31-.17-.41-.31c-.1-.13-.15-.31-.15-.54Z"/><path d="M337.38,306.89v.56c0,.28.04.51.11.7.08.19.19.34.34.44.15.1.33.15.53.15.17,0,.32-.03.45-.1.13-.07.23-.16.31-.28s.12-.25.13-.41h.86v.09c-.02.29-.1.54-.25.75-.15.22-.36.39-.62.51-.26.12-.55.18-.88.18-.4,0-.75-.08-1.03-.25-.28-.16-.49-.4-.64-.7-.15-.3-.22-.67-.22-1.09v-.56c0-.42.07-.79.22-1.1.15-.31.36-.54.64-.71.28-.17.62-.25,1.02-.25.25,0,.47.04.68.11.21.07.39.17.55.31.16.13.28.29.37.47.09.18.14.38.15.61v.08h-.86c-.01-.16-.06-.3-.13-.43-.08-.12-.18-.22-.31-.29-.13-.07-.28-.11-.45-.11-.21,0-.38.05-.53.16-.15.1-.26.25-.34.45-.08.2-.12.43-.12.71Z"/><path d="M342.66,305.85c.32,0,.6.06.84.19.24.13.42.31.56.55.13.24.2.52.2.85v.39c0,.34-.07.64-.2.88-.13.24-.32.43-.56.55-.24.13-.52.19-.84.19s-.6-.06-.84-.19-.43-.31-.56-.55c-.13-.24-.2-.54-.2-.88v-.38c0-.32.07-.61.2-.85s.32-.43.56-.56.52-.2.84-.2ZM342.66,306.52c-.16,0-.3.04-.4.13s-.19.2-.24.35c-.05.14-.08.3-.08.48v.36c0,.18.03.33.08.48.05.14.13.26.24.35s.24.13.41.13.3-.04.41-.13c.11-.09.18-.2.23-.35s.08-.3.08-.48v-.36c0-.18-.03-.34-.08-.48s-.13-.26-.24-.34c-.11-.09-.24-.13-.4-.13Z"/><path d="M344.71,309.4v-3.49h.84v.61h.04c.03-.09.08-.19.16-.29.08-.1.18-.19.33-.27s.33-.11.56-.11c.35,0,.63.1.84.3.21.2.32.5.32.91v2.34h-.87v-2.09c0-.17-.03-.31-.08-.42-.06-.11-.13-.18-.22-.23-.09-.05-.2-.07-.32-.07-.16,0-.29.04-.4.11-.11.07-.19.18-.25.31-.06.13-.09.29-.09.46v1.93h-.86Z"/><path d="M349.01,306.94c0-.26.06-.47.2-.63.13-.16.3-.28.52-.35.21-.07.44-.11.69-.11.26,0,.49.04.69.12.2.08.36.2.47.35.11.15.17.33.17.55h-.77c0-.07-.03-.14-.08-.2-.04-.06-.11-.12-.19-.16-.08-.04-.19-.06-.31-.06-.17,0-.31.04-.41.11-.1.08-.15.18-.15.31,0,.09.03.16.08.22.06.05.13.1.22.13.09.03.19.06.29.08s.21.04.3.05c.21.04.41.09.57.16s.3.17.39.3c.1.13.14.3.14.52,0,.24-.06.44-.18.61-.12.17-.29.3-.51.39-.22.09-.49.14-.8.14s-.55-.04-.76-.13c-.21-.08-.37-.2-.48-.36-.11-.15-.17-.33-.17-.54h.84c.01.08.04.16.09.22.05.06.11.11.2.15s.2.05.33.05c.14,0,.26-.02.35-.06.09-.04.16-.09.2-.16.04-.07.06-.14.06-.22,0-.11-.04-.2-.12-.25-.08-.06-.19-.1-.32-.13-.13-.03-.27-.06-.42-.09-.21-.04-.4-.1-.57-.17s-.31-.17-.41-.31c-.1-.13-.15-.31-.15-.54Z"/><path d="M355.76,305.91v3.49h-.84v-.58h-.04c-.03.09-.09.19-.17.29-.08.1-.2.18-.34.25-.14.07-.31.1-.52.1-.23,0-.43-.04-.61-.12-.17-.08-.31-.21-.41-.38-.1-.17-.15-.4-.15-.67v-2.36h.87v2.14c0,.18.03.32.09.42s.14.17.24.21c.1.04.2.06.31.06.13,0,.26-.03.37-.09s.2-.15.26-.25c.06-.11.1-.23.1-.37v-2.1h.86Z"/><path d="M357.1,309.4v-3.49h.84v.58h.04c.03-.09.07-.18.14-.28.07-.1.17-.18.3-.25.13-.07.3-.11.51-.11.18,0,.33.03.46.09.13.06.24.13.32.23.08.1.14.21.18.34h.03c.04-.11.11-.21.2-.31s.21-.18.35-.25.31-.1.51-.1c.36,0,.63.1.83.3s.3.47.3.81v2.44h-.87v-2.17c0-.15-.02-.27-.07-.37-.05-.1-.12-.17-.21-.22-.09-.05-.19-.07-.32-.07s-.22.03-.32.09c-.09.06-.17.14-.23.24s-.08.23-.08.38v2.12h-.83v-2.15c0-.15-.03-.28-.08-.38s-.12-.17-.22-.22c-.09-.05-.2-.07-.31-.07s-.22.03-.31.08c-.09.05-.17.13-.22.24s-.08.23-.08.38v2.13h-.86Z"/><path d="M364.52,309.46c-.32,0-.6-.06-.84-.19-.24-.12-.42-.31-.55-.54-.13-.24-.2-.53-.2-.87v-.41c0-.34.07-.63.21-.87.14-.24.32-.42.56-.54.23-.12.5-.18.79-.18s.57.06.8.19c.23.13.41.31.54.55.13.24.2.52.2.85v.4h-2.24v.16c0,.23.07.42.2.56.13.15.31.22.54.22.12,0,.22-.02.32-.05.09-.03.17-.08.23-.14.06-.06.09-.12.1-.2h.82c0,.11-.04.23-.11.35-.06.12-.15.24-.27.34-.12.11-.27.2-.45.26-.18.07-.39.1-.64.1ZM363.77,307.32h1.4v-.04c0-.16-.03-.29-.09-.41-.06-.12-.14-.21-.24-.28-.1-.07-.23-.1-.37-.1s-.26.03-.37.1c-.11.07-.19.16-.25.28-.06.12-.09.25-.09.41v.04Z"/><path d="M366.63,309.4v-3.49h.87v.55h.04c.02-.08.07-.17.14-.26.07-.09.16-.17.28-.24.12-.07.27-.1.46-.1.06,0,.11,0,.15,0,.05,0,.09,0,.12.02v.75s-.08-.02-.14-.02c-.06,0-.13,0-.2,0-.19,0-.34.03-.47.1-.12.07-.22.16-.28.28-.06.12-.09.26-.09.42v2h-.88Z"/><path d="M372.39,304.91c.32,0,.6.07.82.2s.4.31.51.54c.12.23.18.48.18.76s-.06.53-.18.76-.29.4-.52.53c-.23.13-.5.2-.82.2h-.9v1.51h-.89v-4.49h1.79ZM373,306.41c0-.25-.07-.45-.21-.58-.14-.14-.33-.2-.58-.2h-.74v1.58h.74c.16,0,.3-.03.42-.09s.21-.15.27-.27.09-.26.09-.43Z"/><path d="M374.87,309.4v-3.49h.87v.55h.04c.02-.08.07-.17.14-.26.07-.09.16-.17.28-.24.12-.07.27-.1.46-.1.06,0,.11,0,.15,0,.05,0,.09,0,.12.02v.75s-.08-.02-.14-.02c-.06,0-.13,0-.2,0-.19,0-.34.03-.47.1-.12.07-.22.16-.28.28-.06.12-.09.26-.09.42v2h-.88Z"/><path d="M377.75,304.88c0-.14.05-.26.15-.35s.23-.13.39-.13.29.04.39.13c.1.09.15.21.15.35s-.05.25-.15.34c-.1.09-.23.13-.39.13s-.29-.04-.39-.13-.15-.2-.15-.34ZM377.86,309.4v-3.49h.86v3.49h-.86Z"/><path d="M379.65,307.86v-.44c0-.32.06-.6.19-.83s.31-.42.54-.55c.23-.13.51-.19.82-.19s.56.05.78.17c.21.11.38.26.49.44.11.18.17.39.18.61h-.8c0-.08-.04-.16-.08-.24s-.11-.15-.2-.2c-.09-.05-.2-.08-.34-.08-.23,0-.4.08-.52.24-.12.16-.18.38-.18.65v.42c0,.28.06.51.19.67s.3.24.52.24c.14,0,.25-.02.34-.06.09-.04.15-.1.2-.18.05-.08.08-.16.09-.25h.8c0,.22-.06.42-.17.6s-.27.32-.49.43c-.21.1-.48.16-.8.16s-.6-.07-.83-.2c-.23-.13-.41-.31-.53-.55-.12-.24-.19-.52-.19-.85Z"/><path d="M384.68,309.46c-.32,0-.6-.06-.84-.19-.24-.12-.42-.31-.55-.54-.13-.24-.2-.53-.2-.87v-.41c0-.34.07-.63.21-.87.14-.24.32-.42.56-.54.23-.12.5-.18.79-.18s.57.06.8.19c.23.13.41.31.54.55.13.24.2.52.2.85v.4h-2.24v.16c0,.23.07.42.2.56.13.15.31.22.54.22.12,0,.22-.02.32-.05.09-.03.17-.08.23-.14.06-.06.09-.12.1-.2h.82c0,.11-.04.23-.11.35-.06.12-.15.24-.27.34-.12.11-.27.2-.45.26-.18.07-.39.1-.64.1ZM383.94,307.32h1.4v-.04c0-.16-.03-.29-.09-.41-.06-.12-.14-.21-.24-.28-.1-.07-.23-.1-.37-.1s-.26.03-.37.1c-.11.07-.19.16-.25.28-.06.12-.09.25-.09.41v.04Z"/><path d="M389.43,309.4h-.89v-4.49h.89v4.49Z"/><path d="M391.11,309.4v-3.49h.84v.61h.04c.03-.09.08-.19.16-.29.08-.1.18-.19.33-.27s.33-.11.56-.11c.35,0,.63.1.84.3.21.2.32.5.32.91v2.34h-.87v-2.09c0-.17-.03-.31-.08-.42-.06-.11-.13-.18-.22-.23-.09-.05-.2-.07-.32-.07-.16,0-.29.04-.4.11-.11.07-.19.18-.25.31-.06.13-.09.29-.09.46v1.93h-.86Z"/><path d="M395.96,305.87c.16,0,.31.02.45.07s.25.11.34.2c.09.09.16.19.21.31h.04v-1.77h.87v4.72h-.85v-.56h-.04c-.03.09-.07.17-.13.25s-.14.14-.23.19c-.09.05-.19.09-.3.12-.11.03-.23.04-.36.04-.26,0-.49-.06-.69-.18-.2-.12-.35-.3-.45-.53-.11-.23-.16-.5-.16-.82v-.52c0-.32.05-.59.16-.82.11-.23.26-.4.46-.53.2-.12.43-.18.69-.18ZM396.25,306.56c-.14,0-.27.04-.38.11s-.19.18-.25.32c-.06.14-.09.31-.09.5v.34c0,.2.03.37.09.51.06.14.14.25.25.32s.24.11.39.11.28-.04.39-.11c.11-.07.2-.17.26-.31.06-.13.09-.29.09-.48v-.45c0-.18-.03-.33-.1-.45-.07-.13-.15-.22-.27-.29-.11-.07-.24-.1-.39-.1Z"/><path d="M400.62,309.46c-.32,0-.6-.06-.84-.19-.24-.12-.42-.31-.55-.54-.13-.24-.2-.53-.2-.87v-.41c0-.34.07-.63.21-.87.14-.24.32-.42.56-.54.23-.12.5-.18.79-.18s.57.06.8.19c.23.13.41.31.54.55.13.24.2.52.2.85v.4h-2.24v.16c0,.23.07.42.2.56.13.15.31.22.54.22.12,0,.22-.02.32-.05.09-.03.17-.08.23-.14.06-.06.09-.12.1-.2h.82c0,.11-.04.23-.11.35-.06.12-.15.24-.27.34-.12.11-.27.2-.45.26-.18.07-.39.1-.64.1ZM399.88,307.32h1.4v-.04c0-.16-.03-.29-.09-.41-.06-.12-.14-.21-.24-.28-.1-.07-.23-.1-.37-.1s-.26.03-.37.1c-.11.07-.19.16-.25.28-.06.12-.09.25-.09.41v.04Z"/><path d="M404.72,309.4l-.68-1.18h-.03l-.68,1.18h-.92l1.09-1.73s-.07-.11-.12-.2c-.06-.09-.12-.19-.2-.31-.08-.12-.15-.24-.24-.37s-.16-.25-.24-.37c-.08-.12-.14-.22-.2-.31-.06-.09-.1-.16-.12-.2h1l.66,1.17h.04l.68-1.17h.96l-1.14,1.72s.07.11.12.2c.06.09.12.19.2.31.08.12.16.24.24.37.08.13.16.25.24.37.08.12.14.22.2.32.06.09.1.16.12.2h-.97Z"/><path d="M408.7,304.68h.8c-.13.19-.26.42-.38.7-.12.28-.22.59-.31.95-.08.35-.12.74-.12,1.17s.04.82.11,1.17.17.68.29.97c.12.29.26.56.41.79h-.8c-.16-.2-.31-.44-.44-.73s-.24-.62-.32-.99c-.08-.37-.12-.78-.12-1.22s.04-.84.12-1.18c.08-.34.19-.65.32-.92.14-.27.29-.51.45-.72Z"/><path d="M411.16,306.89v.56c0,.28.04.51.11.7.08.19.19.34.34.44.15.1.33.15.53.15.17,0,.32-.03.45-.1.13-.07.23-.16.31-.28s.12-.25.13-.41h.86v.09c-.02.29-.1.54-.25.75-.15.22-.36.39-.62.51-.26.12-.55.18-.88.18-.4,0-.75-.08-1.03-.25-.28-.16-.49-.4-.64-.7-.15-.3-.22-.67-.22-1.09v-.56c0-.42.07-.79.22-1.1.15-.31.36-.54.64-.71.28-.17.62-.25,1.02-.25.25,0,.47.04.68.11.21.07.39.17.55.31.16.13.28.29.37.47.09.18.14.38.15.61v.08h-.86c-.01-.16-.06-.3-.13-.43-.08-.12-.18-.22-.31-.29-.13-.07-.28-.11-.45-.11-.21,0-.38.05-.53.16-.15.1-.26.25-.34.45-.08.2-.12.43-.12.71Z"/><path d="M416.83,304.91c.32,0,.6.07.82.2s.4.31.51.54c.12.23.18.48.18.76s-.06.53-.18.76-.29.4-.52.53c-.23.13-.5.2-.82.2h-.9v1.51h-.89v-4.49h1.79ZM417.45,306.41c0-.25-.07-.45-.21-.58-.14-.14-.33-.2-.58-.2h-.74v1.58h.74c.16,0,.3-.03.42-.09s.21-.15.27-.27.09-.26.09-.43Z"/><path d="M420.21,309.4h-.89v-4.49h.89v4.49Z"/><path d="M420.82,304.68h.79c.17.21.32.45.45.72s.24.57.32.92c.08.34.12.74.12,1.18s-.04.85-.12,1.22c-.08.37-.19.7-.32.99s-.28.53-.44.73h-.8c.15-.24.29-.5.41-.79.12-.29.22-.61.29-.97s.11-.75.11-1.17-.04-.82-.12-1.17c-.08-.35-.18-.67-.31-.95-.12-.28-.25-.51-.38-.7Z"/><path d="M425.87,304.68h.8c-.13.19-.26.42-.38.7-.12.28-.22.59-.31.95-.08.35-.12.74-.12,1.17s.04.82.11,1.17.17.68.29.97c.12.29.26.56.41.79h-.8c-.16-.2-.31-.44-.44-.73s-.24-.62-.32-.99c-.08-.37-.12-.78-.12-1.22s.04-.84.12-1.18c.08-.34.19-.65.32-.92.14-.27.29-.51.45-.72Z"/><path d="M429.4,304.91c.32,0,.6.07.82.2s.4.31.51.54c.12.23.18.48.18.76s-.06.53-.18.76-.29.4-.52.53c-.23.13-.5.2-.82.2h-.9v1.51h-.89v-4.49h1.79ZM430.01,306.41c0-.25-.07-.45-.21-.58-.14-.14-.33-.2-.58-.2h-.74v1.58h.74c.16,0,.3-.03.42-.09s.21-.15.27-.27.09-.26.09-.43Z"/><path d="M433.29,305.85c.32,0,.6.06.84.19.24.13.42.31.56.55.13.24.2.52.2.85v.39c0,.34-.07.64-.2.88-.13.24-.32.43-.56.55-.24.13-.52.19-.84.19s-.6-.06-.84-.19-.43-.31-.56-.55c-.13-.24-.2-.54-.2-.88v-.38c0-.32.07-.61.2-.85s.32-.43.56-.56.52-.2.84-.2ZM433.29,306.52c-.16,0-.3.04-.4.13s-.19.2-.24.35c-.05.14-.08.3-.08.48v.36c0,.18.03.33.08.48.05.14.13.26.24.35s.24.13.41.13.3-.04.41-.13c.11-.09.18-.2.23-.35s.08-.3.08-.48v-.36c0-.18-.03-.34-.08-.48s-.13-.26-.24-.34c-.11-.09-.24-.13-.4-.13Z"/><path d="M435.3,304.88c0-.14.05-.26.15-.35s.23-.13.39-.13.29.04.39.13c.1.09.15.21.15.35s-.05.25-.15.34c-.1.09-.23.13-.39.13s-.29-.04-.39-.13-.15-.2-.15-.34ZM435.41,309.4v-3.49h.86v3.49h-.86Z"/><path d="M437.36,309.4v-3.49h.84v.61h.04c.03-.09.08-.19.16-.29.08-.1.18-.19.33-.27s.33-.11.56-.11c.35,0,.63.1.84.3.21.2.32.5.32.91v2.34h-.87v-2.09c0-.17-.03-.31-.08-.42-.06-.11-.13-.18-.22-.23-.09-.05-.2-.07-.32-.07-.16,0-.29.04-.4.11-.11.07-.19.18-.25.31-.06.13-.09.29-.09.46v1.93h-.86Z"/><path d="M442.05,305.94v-.87h.84v.87h.77v.67h-.77v1.69c0,.17.04.29.12.36.08.06.21.1.39.1.05,0,.11,0,.17,0,.06,0,.1,0,.13,0v.64s-.1.01-.21.02c-.1,0-.21.01-.3.01-.29,0-.52-.03-.69-.1-.17-.07-.29-.18-.36-.33-.07-.15-.11-.34-.11-.58v-1.8h-.53v-.67h.55Z"/><path d="M444.62,306.94c0-.26.06-.47.2-.63.13-.16.3-.28.52-.35.21-.07.44-.11.69-.11.26,0,.49.04.69.12.2.08.36.2.47.35.11.15.17.33.17.55h-.77c0-.07-.03-.14-.08-.2-.04-.06-.11-.12-.19-.16-.08-.04-.19-.06-.31-.06-.17,0-.31.04-.41.11-.1.08-.15.18-.15.31,0,.09.03.16.08.22.06.05.13.1.22.13.09.03.19.06.29.08s.21.04.3.05c.21.04.41.09.57.16s.3.17.39.3c.1.13.14.3.14.52,0,.24-.06.44-.18.61-.12.17-.29.3-.51.39-.22.09-.49.14-.8.14s-.55-.04-.76-.13c-.21-.08-.37-.2-.48-.36-.11-.15-.17-.33-.17-.54h.84c.01.08.04.16.09.22.05.06.11.11.2.15s.2.05.33.05c.14,0,.26-.02.35-.06.09-.04.16-.09.2-.16.04-.07.06-.14.06-.22,0-.11-.04-.2-.12-.25-.08-.06-.19-.1-.32-.13-.13-.03-.27-.06-.42-.09-.21-.04-.4-.1-.57-.17s-.31-.17-.41-.31c-.1-.13-.15-.31-.15-.54Z"/><path d="M447.98,304.68h.79c.17.21.32.45.45.72s.24.57.32.92c.08.34.12.74.12,1.18s-.04.85-.12,1.22c-.08.37-.19.7-.32.99s-.28.53-.44.73h-.8c.15-.24.29-.5.41-.79.12-.29.22-.61.29-.97s.11-.75.11-1.17-.04-.82-.12-1.17c-.08-.35-.18-.67-.31-.95-.12-.28-.25-.51-.38-.7Z"/></g></svg>