<?xml version="1.0" encoding="UTF-8"?><svg id="uuid-ca87f185-d24e-4f4d-9476-6dfc7deb2bb3" xmlns="http://www.w3.org/2000/svg" viewBox="0 0 347.2 375.59"><g id="uuid-f7a228d7-d287-478a-a9be-5a4db4ce2a89"><g id="uuid-51ffd91a-89bc-470a-a173-73932ae4a50e"><path d="M249.48,197.67l-12.38,41.53-.95-.48-4.31,1.26-1.44,3.22s-4.14-.56-4.86,0c-.73.55-3.96-1.24-3.96-1.24l-2.89,1.35-3.96,1.71h-5.22l-6.66-1.26-1.94-.84h-3.78l-1.76-.81-4.59-2.02-3.51-1.63-3.91-1.21-5.14-.68-3.78-1.21-5.4-3.23-4.59-5.27-5.26-6.62-2.3-4.05,3.1-2.16,1.89-1.48v-3.24l-1.48-2.3v-1.76l-2.03-3.24-3.51-3.78v-3.64c0-.55-1.89-.81-1.89-.81l-.95-2.56v-3.11l-.94-2.43-1.89-3.11h-3.38v-1.48l-2.7.27-2.84,1.21-4.05-1.48-1.73-.95s-.84-1.88-2.06-3.64h-5.67l-1.88-.67-1.48-2.97-1.89-2.43v-4.59l-2.03-2.03-1.21-1.35v-2.3l-1.62-1.35-2.43-2.43,1.07-2.03-1.07-2.71-.81-2.7.13-2.3.95-2.56-1.21-1.21.8-1.98,2.16-.58,3.11-2.71,3.78-1.88,4.06-.95,3.78.8,3.54,2.57,3.35,3.51,3.51,2.7,5.94,1.76s5.67,1.35,6.08,1.48c.4.13,10.53,1.35,10.53,1.35l6.07-1.48,2.25-3.16s2.44,1.89,2.97,1.89,3.24,2.03,3.24,2.03l3.91-.95,4.73-3.11,2.84-2.43.95-4.05h2.3c.4,0,4.05-2.84,4.05-2.84l2.43-4.05,6.49-.68,7.16-2.31,7.38,6.12h3.23l23.95,21.06-25.57,18.01,27.19,24.66Z" style="fill:#216f81;"/><path d="M23.52,307.93c-.45-1.43-.55-2.33-.5-4.03,0-.36-.04-.84.09-1.13.33-.67.59-1.4,1.24-2,.73-.66,1.14-1.46,2.05-1.81.5-.21,1.25-.56,1.59-.67.59-.18,1.51.26,1.27,1.01-.33,1.31-1.14,2.91-1.83,4.05-.45.78-1.25,1.51-1.81,2.21-.72.78-1.31,1.62-2.06,2.37l-.04-.02Z" style="fill:#cde9f0;"/><path d="M292.87,302.31c-.92,1.17-.5,2.69,1.15,2.67,1,.11,3.23-.47,2.47-1.79-.58-1.22-2.46-1.98-3.51-1l-.11.12Z" style="fill:#cde9f0;"/><path d="M341.35,188.98c-1.23.62-1.24,1.44.17,1.83.56.15,1.29.43,1.37-.32.11-.79-.54-1.85-1.41-1.58l-.14.06Z" style="fill:#cde9f0;"/><path d="M341.66,193.31c-1.35,1.28,2.94,2,3.63,1.43,1.01-.51,1.29-1.7,1.63-2.74.18-.65.19-1.17-.11-1.42-.68-.47-1.54.18-2.13.59-.9.75-1.99,1.49-2.9,2.06l-.12.09Z" style="fill:#cde9f0;"/><path d="M342.93,196.99c-.2.38-.1.87-.56,1.2-.39.31-1.1.48-1.3.83-.31.48-.12,1.34-.56,1.9-.11.15-.23.33-.32.48-.07.27.08.34.42.4.66.04,1.24.33,1.32,1.03.29,1.48-1.87,1.97-2.27,3.24-.2.65-.03,1.15.62.93,1.21-.41,2.45-.65,3.7-.88,1.37-.35,2.64-1.32,3.22-2.62.1-.43-1.37-.5-1.5-.99-.08-.27-.02-.58,0-.86.06-.7-.63-1.13-.87-1.7-.26-.82-.13-2.12-.05-2.9,0-.21-.03-.48-.21-.59-.33-.22-1.29.05-1.54.41l-.08.12Z" style="fill:#cde9f0;"/><path d="M264.22,37.99c.02.45.45.71.68,1.15.4.64.25,1.3.66,1.91.37.52,1.11,1.09,1.67.54.42-.44.74-1.2,1.26-1.55.49-.34,1.31-.71,1.95-.84.86-.13,1.49.75,2.42.8.99.02,2.09.34,3.07.6,1.46.34,3.08-.27,3.7-1.6-.02-.35-.62-.53-.96-.72-1.38-.69-1.95-.79-2.96-1.77-1.09-1-2.38-2.18-3.23-2.97-.75-.74-1.76-1.51-2.21-2.44-.21-.4-.55-.79-1.01-.88-.64-.08-2.11.29-2.12,1.1.2.64.97,1.02,1.36,1.56.4.46.95,1.24,1.39,1.88.59.84.19,1.22-.68,1.45-.93.42-1.85.14-2.77.27-.44.09-.89.42-1.3.68-.3.22-.81.42-.91.72v.1Z" style="fill:#cde9f0;"/><path d="M111.1,245.57c.37,1.03.66,2.35.65,3.41-.19,1.07-.47,2.77-1.18,3.63-.66.58-1.87,1.21-2.74.83-.45-.23-.7-.7-1.08-1.04-.85-.88-2.23-1.17-3.33-1.05-1.45.12-3.27-.92-4.3-1.6-.43-.28-.8-.39-1.34-.13-.86.52-1.95,1.65-2.75,2.4-.77.98-.47,2.26-.68,3.63.02,2.13-.95,3.78-2.41,5.39-1.11,1.23-2.38,3.41-.96,4.65.55.82,2.09,1.67,1.54,2.75-.49.68-1.26,1.29-.61,2.05,1.51,1.81,3.14,3.63,5.11,5.03,1.17.79.79,2.3.66,3.58-.09.72-.14,1.65-.55,2.09-.82.91-2.16,1.13-3.44.82-1.41-.33-2.46-.39-3.57.44-.53.35-1.22.99-.46,1.45,3.06,1.28,5.68,2.04,8.97,3.78,2.13.93,4.93,1.31,7.1,1.98,1.87.89,1.96,3.65,3.11,5.2.86,1.42,1.63,2.54.77,3.98-.49,1.49-1.77,3.26-3.21,3.91-1.06.49-2.22.37-3.23-.91-1.17-2.01-3.36-2.54-5.38-3.35-.8-.28-1.65-.77-2.5-.67-.91.16-2.88,1.07-3.77,1.43-1.71.99-3.9,1.81-5.21,3.28-.11.11-.2.23-.29.34-.55.89-1.47,1.39-2.53,1.06-1.42-.26-2.74-.59-4.1-.73-.63-.05-1.24.15-1.65.66-1.28,1.75-1.68,4.12-3.68,5.16-1.25.9-3.11,1.49-3.86,2.91-.54,1.06-1.04,2.36-2,3.14-.99.82-3.06,1.09-3.72,2.33-.68,1.33-2.35,1.19-3.69,1.08-2.34-.28-4.83-1.73-6.9-.56-1.64,1.02-2.75,2.18-4.4,3.32-1.43.93-2,1.96-2.36,3.58-.43,1.57.98,3.04,1.14,4.48.29,1.56.31,3.44,1.41,4.62.72.94,1.86,1.69,2.21,2.84.19.77,0,1.43-.22,2.25-.35,1.52-1,3.35-2.88,2.78-.78-.07-1.55-.46-2.31-.2-.79.33-1.5,1.89-1.94,2.62-.08.15-.14.32-.21.48-.48-.56-1.74.58-2.02,1.23-.36,1.42-1.33,2.19-2.51,2.55-1.53.48-3.44.27-4.91-.11-1.18-.44-3.16-.43-3.57-1.66.55-4.81-4.67-4.62-5.45-8.33-.53-1.97-1.04-3.48-2.45-4.9-1.81-1.68-2.66-4.07-5.05-4.57-3.65.62-7.74-.15-11.38,1.38-1.23.77-.99,2.53-2.22,3.36-1.3,1.1-4.31,1.12-4.66-.88-.53-2.02,1.6-5.35,1.94-7.16.5-1.53.99-3.29,1.43-4.87.49-2.27,2.08-3.76,3.03-5.84.74-1.51,1.41-3,3.22-3.32,1.29-.46,1.37-.04.86,1.01-.43,1.21-2.36,3.44-.51,3.86,2.75,1.03,6.04,1.7,8.84,2.03,2.96.53,6.17.71,7.96-2.19,1.05-1.98,2.93-2.96,4.4-4.46.49-.89.05-2.5.57-3.29.67-1.01,2.31-1.33,3.01-2.25,1.59-2.09,3.21-4.36,4.47-6.7,4.73-6.82.37-11.72,2.67-13.99,1.7-1.42,5.03-1.92,5.37-4.3-.77-3.88-5.98-3.74-8.38-6.17-.95-.9-2.62.11-3.51-.73-1.4-1.48-.11-4.08.56-5.71,1.12-2.49,4.22-2.44,6.48-2.01,1.63.25,7.08-.21,4.31-2.73-.72-.46-1.91.22-2.62-.26-1.47-2.08-3.04-4.28-5.35-5.79-.97-.72-2.29-1.19-2.58-2.47-.61-2.14.61-4.09,1.49-5.87.78-1.73.52-3.87.8-5.74,1.23-4.29,6.42-5.36,10.26-5.89.82-.43,1.17-1.7,2.25-1.64.48,0,1.15-.07,1.76-.4,2.7-1.26-.45-1.67-1.65-1.81-.97-.11-2.1.48-3.1.4-.78-.14-.34-1.5-1.27-2.05-.68-.46-1.72-.39-2.45-.72-2.42-1.67-4.16-4.92-4.68-7.75-.56-3.07-.49-6.21-1.98-8.88-.95-1.56.38-3.41.83-5,.52-1.63.92-4.11,1.26-5.8.83-1.99,2.91-3.49,3.89-5.36,1.93-4.22,4.96-7.93,5.63-12.52.04-1.74,2.55-3.11,3.04-4.61-.08-1.78-2.28-3.81-1.21-5.85,2.75-4.78,4.06-10.35,7.76-14.64,1.48-1.09,3.82-.34,5.39-.4.85.02,1.18-.64,1.26-1.4.09-2.5,1.34-5.31,1.05-7.64-.29-1.37-1.93-2.73-1.53-4.1,1.48-.99,3.34-2.2,4.67-3.75,1.51-1.44,3.65-2.43,5.35-3.64,1.21-.68,2.2-1.54,3.12-2.49,1.79-1.86,3.23-4,5.23-5.61,4.24-1.55,9.06-1.51,13.36-3.36.85-.22,1.75-.46,2.67-.71,2.59-.7,5.34-1.49,7.63-2.28,1.19-.33,2.58-1.41,3.86-.81.85.58,1.71,1.6,2.35,2.38.09.81.14,1.47.16,1.91-.48,1.54-1.84,2.68-1.8,4.37-.08,1.84.08,3.52-.08,5.18-.02.98-1.67,2.15-2.58,2.99-2.34,1.75-3.01,4.52-5.64,6.08-1.35,1.13-3.08,1.65-4.17,2.83-.66,1.21-1.21,3.45-1.6,4.77-.22,4.83-.04,12.54-.08,17.21.17,2.13.53,5.41.7,7.45.19,2.21.11,5.37.46,7.58.9,1.85,2.73,3.34,3.5,5.13.38,1.05.2,2.28.26,3.41.03,3.12-.81,5.88-1.27,8.93-.59,2.75-.94,7.37-1.9,10.46-.61,2.26-1.53,3.9-1.45,6.35.02.9-.22,2.01.33,2.77,1.5,1.52,4.05,2.2,5.27,3.89.59.99,1.55,2.46,1.79,3.45.02.55-.44.78-.86,1.1-1,.7-2.14,1.37-2.97,2.23-.76.73-1.23,1.38-.34,1.89,1.62.91,3.21,3.19,3.73,4.88.19,1.14,1.06,2.1,2.21,2.32,1.06.4,3.51-.46,4.13.83Z" style="fill:#72a9b6;"/><path d="M218.19,354.53c-.43,0-.84.05-1.22.18-1.39.38-2.72,1.87-3.85,2.57-1.08.66-2.53.94-3.82,1.4-2.77.98-6,.53-8.74,1.63-2.54,2.04-4.1,4.48-7.25,5.84-1.84.98-3.75,1.36-5.71,1.47-1.22.08-2.48.05-3.73,0-1.85.55-3.32,2.14-5.24,2.68-1.58.51-2.94-1.03-4.43-1.29-1.06-.25-2.63.86-3.59.15-.77-.65-1.2-1.84-1.98-.38-1.63,3.97-5.05,3.5-8.85,4-1.56.15-2.56,1.96-4.13,2.48-3.16,1.23-5.53-1.07-7.67-3.12-1.57-3.17-2.53-4.76-4.29-.76-.56.7-1.47.94-2.29,1.25-.65.29-1.36.32-1.77-.23-.84-1.52-2.79-2.78-4.69-3.03-2.16.16-4.75.04-6.94.11-1.42.26-3.77.99-4.67,1.21-2.06.4-5.05-.7-6.9-.77-2.46-.34-3.85-3.12-5.62-4.77-2.92-.98-6.05-1.99-7.77-4.61-1.88-2.35-4.99.96-7.26-2.09-.47-.49-.81-.29-1.26.35-.73,1.08-1.83,2.61-2.69,3.4-1.16.99-2.98,1.32-4.24,1.9-2.94,1.16-6.32,1.06-9.32.9-4.56.34-4.58.67-8.29-2.72-1.92-1.16-4.05-.74-6.06-2-2.53-1.29-5.4-1.99-7.79-3.48-3.43-1.72-5.86-5.51-10.08-4.71-5.32-2.78-1.12-2.69-1.59-6.87-.02-.26-.09-.43-.17-.54.07-.16.13-.33.21-.48.44-.73,1.15-2.29,1.94-2.62.77-.26,1.53.13,2.31.2,1.87.56,2.53-1.26,2.88-2.78.21-.82.41-1.48.22-2.25-.35-1.15-1.49-1.9-2.21-2.84-1.1-1.18-1.12-3.06-1.41-4.62-.16-1.43-1.57-2.91-1.14-4.48.36-1.62.94-2.65,2.36-3.58,1.65-1.14,2.76-2.3,4.4-3.32,2.07-1.17,4.55.29,6.9.56,1.34.11,3.01.25,3.69-1.08.66-1.24,2.74-1.51,3.72-2.33.96-.77,1.46-2.08,2-3.14.76-1.42,2.61-2.01,3.86-2.91,2-1.03,2.4-3.41,3.68-5.16.41-.51,1.02-.71,1.65-.66,1.37.13,2.69.47,4.1.73,1.06.33,1.99-.17,2.53-1.06.09-.11.18-.24.29-.34,1.31-1.47,3.5-2.29,5.21-3.28.89-.35,2.86-1.26,3.77-1.43.85-.11,1.69.39,2.5.67,2.02.8,4.21,1.34,5.38,3.35,1.01,1.28,2.17,1.4,3.23.91.32.21.58.21,1.22.22.83,0,1.86-.02,2.73-.02,2.73.1,5.31-.76,8.01-1.28,1.05-.18,1.63-1.24,1.7-2.3.12-1.12-.61-2.16-.51-3.01.05-.52.33-.95.55-1.41.28-.53.4-1.15.42-1.78.02-1.32.55-2.97,1.36-4.08.43-.58,1.08-.87,1.73-1.15,2.48-1.17,4.33-3.61,6.29-5.33,2.36-1.57,4.89.33,7.18,1.35,1.48.55,2.06,1.82,3.08,2.96.33.33.61.44,1.01.42,1.3,0,3.94-.9,5.58-1.11,1.76.12,3.88-.04,5.59.48,1.68.58,3.53,1.6,5.44,1.46,2.85-.19,5.4,1.48,8.01,1.84,1.1.06,1.89-.25,2.9.21,1.1.42,2.13,1,3.36,1,.74.02,1.93,0,2.81,0,.75,0,1.2.13,1.53.79.75,2.11,1.8,3.9,3.07,5.86.99,1.36.55,2.93.7,4.55.09,1.23.98,1.51,1.95,2.29.81.62,1.37.93,1.87,1.5.65.87.99,2.01,1.49,3,.81,1.87.98,2.23,2.34,3.7.41.5,1.07,1.05,1.21,1.66.11.8-1.4,1.24-1.06,2.23.24.77.99,1.95,1.45,2.63.98,1.22,2.16,1.56,3.55,2.22,2.27.8,3.5,1.87,5.19,3.37,2.15,1.83,4.08,3.63,6.25,5.41,1.46,1.31,3.83,1.54,5.36,2.87.5.56.65,1.22.94,2.03,1.53,4.48-3.06,3.66,2.5,8.26,1.43,1.54,1.45,4.07,2.02,5.91.52,1.05,1.88,2.14,2.31,3.11.2.55.44,1.2.68,1.88Z" style="fill:#92bfca;"/><path d="M343.26,177c-1.5.86-3.39-.54-4.95-.19-1.8.66-4.76,1.75-5.37,3.85,0,.66,1.09.83,1.6,1.15,1.59,1.56-2.72,3.73-1.21,3.92,2.37,0,7.42.67,5.19,4.12-.36,1.05-1.04,1.75-1.91,2.35-.1.11-.11.24-.05.36.98.9,2.93,1.68,2.91,3.33.16,3.58-3.58,3.57-5.35,5.45-.17.77,1.04,1.06,1.6,1.27,2.45.85-1.98,3.48-1.84,4.97-.21,1.69.97,3.28.55,5.01-.48,4.75-3.78,3.61-5.8.55-.18-.25-2.42-2.96-2.64-1.73.09.69.23,1.58-.32,2.11-6.17,4.92-3.67,4.16.76,8.33.95,1.65,0,3.41.17,5.2.17,1.01-.02,1.88-.44,2.63l-3.95-.69h-10.08l-4.69,1.98-1.98,2.7h-5.4l-1.81,2.34-4.86,3.6-5.58,1.08s-4.51,1.98-5.22,2.34-4.86,0-4.86,0l-4.14.16-3.06-1.78s-1.98-1.26-2.53-.91c-.54.36-2.52.55-2.52.55l-5.77-3.42s-3.24.55-4.14,1.08c-.9.55-6.48-.72-6.48-.72,0,0-2.53-2.9-3.61-1.9-1.08,1-4.14,2.8-4.14,2.8l-3.06.9-1.21-.6,12.38-41.53-27.19-24.66,25.57-18.01-23.95-21.06h-3.23l-7.38-6.12,2.33-1.08,1.67-2.7h7.51l4.51-2.16,3.06-3.79.28-.12,7.82-3.41,61.97-27.05c.79-.03,1.55,0,1.94.42.34.55,1.23,2.02,2.31,3.8,2.07,3.43,4.83,8.06,5.73,9.55.37.63.32.58-.53.64-2.12.14-3.52,2.31-3.06,4.33.19,1.18.77,1.68.22,2.42-.86,1.05-2.02,1.84-3.34,1.94-1.02.16-8.91.51-5.08,2.86,5.4,3.28-3.98-1.25-5.48,1.68-1.77,1.99.3,1.6,1.61,1.54,1.36.44,2.69.65,4.12.13,1.07-.18,2.18-.58,3.19-.79.51-.07,1,.23.95.78-.04,1.23.47,2.83-1.11,3.27-5.34.41-3.44,1.43-.74,3.99,1.09,1.2,1.7,4.76,3.7,2.79.29-.47.45-1.33,1.13-1.28,1.28.33,1.07,2.18,1.72,3.08.92.89,2.58-.52,2.39-1.65.11-1.16-1.18-2.06-1.48-3,2.34-1.68,5.85,3.14,7.82,4.28,2.41.53,3.09-.53,3.38,3.49-.11,3.41,2.36,6.36,1.7,9.81-2.38,5.39,4.46,6.95,6.96,10.34.57.94,1.13,2.03,2.23,2.45.79.33,1.63.52,2.06,1.38.98,1.78.99,4.09,2.04,5.83.56.93,1.88.83,2.6,1.43.94.79,1.06,2.44,2.03,3.17.64.6,1.42,1.24,1.92,1.88,2.05,2.78,3.08,6.53-.1,8.94Z" style="fill:#72a9b6;"/><path d="M302.44,87.51l-61.97,27.05-7.82,3.41-10.99-23.01,14.32-10.54-28.09-15.39v-1.44l-2.61-.72-1.98-1.35-.54-.81,7.29-4.68,1.62-3.51-.09-3.61-.18-3.06,1.08-2.25.81-1.17-32.27-24.34.1-.37c.87-.09,1.84-.48,2.64-.24,2.5.6,6.93,1.44,6.5-2.53l-.05-.11c-.33-.75-2.75-1.13-3.13-1.83-.24-1.28.98-2.91,1.61-3.91.03-.06.07-.11.1-.16.73-.8,2.46-1.68,3.29-2.53.79-.57-2.09-1.45-1.74-1.7,1.3-.19,4.78.38,5.53-1.84.55-.91.36-2.03.82-2.63.46-.6,1.28-.61,1.93-.96.99-.48,2.22-1.45,3.16-1.65,1.58-.27,4.02,1.33,5.5.21.7-.6,1.43-1.82,2.31-1.82,2.41.54,5.24,1.87,7.76,2.19,1.67.43,6.93-.08,7.55,1.28.24.83-.74,1.42-.99,2.04-.18.68.96,2.03,2.08,1.81.8-.18,2.09-.72,2.24.48-.11,1.63,2.1,2.08,2.1,3.5-.02.54-.41,1.25.37,1.43,1.75.52,6.76,1.55,8.7,2.01.96-.07.94-1.47,1.92-1.77,1.22-.53,2.81,0,3.82.7.96.77,1.12,1.71,2.31,2.38,1.37.77,2.86,1.62,4.25,2.31,2.07.72,4.14.15,6.42.33.48,0,1.08-.02,1.46.21.33.28.17.76.05,1.16-.41,1.02-.32,2.09.06,3.13.89,2.31-2.4,1.17-3.55,1.5-.99.17-.71,1.05.08,1.44.71.45,1.8.15,2.5.55.84.93.2,3.39.36,4.68,0,.95-.78,1.47-1.26,2.19-1.85,4.02,9.52.3,1.53,8.98-.39.48,1.14,1.23,1.45,1.95.5.94.19,1.41-.98,1.42-3.06.11,3.23,5.77,3.56,6.94.33,1.09-1.52,2.27-.26,3.29,2.58,1.82,2.08,5.12,2.8,7.66,2.95,2.37,7.88,3.19,8.34,7.8.23,2.32,7.11-.52,4,2.27-1.99,1.57-.89,2,.51,2.96,1.74,1.75-1.96,4.27,2.67,4.04,4.35-1.21,1.11,2.24,3.54,3,2.52-.05,5.1.52,7.78.89,1.47.24,3.5-.29,4.8.81.85.59,1.74,1.43,2.74,1.78.53.25,1.36.18,2.15.17Z" style="fill:#5d9ba8;"/><path d="M221.66,94.96l10.99,23.01-.28.12-3.06,3.79-4.51,2.16h-7.51l-1.67,2.7-2.33,1.08-7.16,2.31-6.49.68-2.43,4.05s-3.64,2.84-4.05,2.84h-2.3l-.95,4.05-2.84,2.43-4.73,3.11-3.91.95s-2.71-2.03-3.24-2.03-2.97-1.89-2.97-1.89l-.67-3.78-.68-10.4-.95-4.99-.13-3.79-3.24-4.99-2.43-4.99-2.7-1.63-3.64.68-6.62.81-3.78-1.49-2.16-.95-3.92-.27-4.17.11c.03-.29-1.03-1.09-1.78-1.67-1.04-.94-2.24-.28-2.96-1.36-.9-2.9-1.68-6.06-1.75-8.99.48-1.89,2.52-4.5,3.28-6.13,2.69-3.84,6.83-4.94,11.25-3.48,1.84.45,5.94.56,7.34.41-2.54-1.11-7.67-.88-8.87-4.29-.77-3.11-3.64-4.65-4.69-7.72-.93-2.61,5.58-1.51,3.74-5.49-.54-.94-1.78-1.97-1.93-2.79,0-2.2,1.55-4.69,2.61-6.46,1.05-1.34,3.05-2.1,3.56-3.81.14-2.17,1-4.56.99-6.64-.08-1.67-1.82-4.02-.33-5.25,4.18-3.01,9.91-3.11,13.6-7.07,1.71-1.77,2.1-5.51,3.38-7.61,3.38-1.84,5.75-4.71,7.38-8.1,1.58-2.92-1.82-5.55-2.53-8.29-.09-.79-.46-1.77.03-2.39.89,0,2.06.82,2.87,1.16,8.25,3.85,11.18-3.33,7.6,6.91-.1.77-.38,1.21-.07,1.93.36.26.8.29,1.26.24l-.1.37,32.27,24.34-.81,1.17-1.08,2.25.18,3.06.09,3.61-1.62,3.51-7.29,4.68.54.81,1.98,1.35,2.61.72v1.44l28.09,15.39-14.32,10.54Z" style="fill:#92bfca;"/><path d="M202.85,243.77l-56.09,42.46c-1.64.21-4.28,1.1-5.58,1.11-.4.02-.69-.1-1.01-.42-1.02-1.14-1.6-2.4-3.08-2.96-2.3-1.02-4.82-2.92-7.18-1.35-1.96,1.72-3.82,4.16-6.29,5.33-.65.28-1.3.56-1.73,1.15-.8,1.11-1.34,2.76-1.36,4.08-.02.63-.14,1.25-.42,1.78-.22.46-.5.89-.55,1.41-.11.85.63,1.89.51,3.01-.08,1.05-.65,2.11-1.7,2.3-2.7.53-5.28,1.38-8.01,1.28-.87,0-1.89.02-2.73.02-.64,0-.91,0-1.22-.22,1.44-.65,2.73-2.42,3.21-3.91.85-1.43.09-2.56-.77-3.98-1.15-1.55-1.24-4.31-3.11-5.2-2.17-.67-4.96-1.05-7.1-1.98-3.29-1.74-5.91-2.5-8.97-3.78-.77-.47-.07-1.1.46-1.45,1.11-.83,2.16-.77,3.57-.44,1.28.31,2.62.09,3.44-.82.41-.44.47-1.38.55-2.09.13-1.28.51-2.78-.66-3.58-1.97-1.4-3.6-3.22-5.11-5.03-.65-.76.12-1.37.61-2.05.55-1.08-.99-1.93-1.54-2.75-1.43-1.24-.15-3.41.96-4.65,1.46-1.61,2.43-3.25,2.41-5.39.21-1.37-.1-2.65.68-3.63.8-.75,1.89-1.88,2.75-2.4.54-.26.91-.14,1.34.13,1.03.68,2.85,1.72,4.3,1.6,1.1-.11,2.48.17,3.33,1.05.38.34.63.81,1.08,1.04.87.37,2.08-.25,2.74-.83.71-.85.99-2.55,1.18-3.63,0-1.06-.28-2.38-.65-3.41-.62-1.29-3.07-.43-4.13-.83-1.15-.22-2.02-1.19-2.21-2.32-.52-1.68-2.11-3.97-3.73-4.88-.89-.52-.41-1.17.34-1.89.83-.86,1.97-1.53,2.97-2.23.42-.32.88-.55.86-1.1-.24-.99-1.2-2.46-1.79-3.45-1.22-1.69-3.77-2.37-5.27-3.89-.55-.77-.31-1.87-.33-2.77-.08-2.45.84-4.09,1.45-6.35.97-3.09,1.31-7.7,1.9-10.46.46-3.05,1.3-5.82,1.27-8.93-.06-1.14.12-2.36-.26-3.41-.77-1.79-2.6-3.28-3.5-5.13-.34-2.21-.27-5.37-.46-7.58-.17-2.04-.53-5.32-.7-7.45.04-4.67-.14-12.38.08-17.21.39-1.32.94-3.56,1.6-4.77,1.09-1.19,2.82-1.7,4.17-2.83,2.63-1.57,3.3-4.33,5.64-6.08.91-.84,2.56-2.02,2.58-2.99l2.46,1.89-.8,1.98,1.21,1.21-.95,2.56-.13,2.3.81,2.7,1.07,2.71-1.07,2.03,2.43,2.43,1.62,1.35v2.3l1.21,1.35,2.03,2.03v4.59l1.89,2.43,1.48,2.97,1.88.67h5.67c1.21,1.76,2.06,3.64,2.06,3.64l1.73.95,4.05,1.48,2.84-1.21,2.7-.27v1.48h3.38l1.89,3.11.94,2.43v3.11l.95,2.56s1.89.27,1.89.81v3.64l3.51,3.78,2.03,3.24v1.76l1.48,2.3v3.24l-1.89,1.48-3.1,2.16,2.3,4.05,5.26,6.62,4.59,5.27,5.4,3.23,3.78,1.21,5.14.68,3.91,1.21,3.51,1.63,4.59,2.02,1.76.81h3.78l1.94.84Z" style="fill:#5694a1;"/><path d="M172.23,144.3l-2.25,3.16-6.07,1.48s-10.13-1.21-10.53-1.35c-.41-.13-6.08-1.48-6.08-1.48l-5.94-1.76-3.51-2.7-3.35-3.51-3.54-2.57-3.78-.8-4.06.95-3.78,1.88-3.11,2.71-2.16.58-2.46-1.89c.15-1.66,0-3.35.08-5.18-.04-1.69,1.32-2.83,1.8-4.37-.02-.44-.08-1.1-.16-1.91.02.02.03.04.05.06.51.92.77,1.93,2.16,1.63,2.26-.41.91-3.17,1.56-4.63.05-.15.12-.29.22-.41.39-.58,1.12-.85,1.66-1.3,1.25-1.13,1.45-3.7,2.7-4.74,1.79-1.16,2.92,1.9,4.05,2.82,1.99,1.12,4.62.12,6.81.21,2.98-.43-.59-1.21-1.18-2.05-.41-.44-.46-1.06-.67-1.6-1.2-2.01-4.51-1.87-5.72-3.83.87-1.45,2.75-2.28,3.57-3.94,2.07-3.66,5.86.47,8.6-1.12l4.17-.11,3.92.27,2.16.95,3.78,1.49,6.62-.81,3.64-.68,2.7,1.63,2.43,4.99,3.24,4.99.13,3.79.95,4.99.68,10.4.67,3.78Z" style="fill:#bbdde5;"/><path d="M320.43,238.64c0,.21-.05.41-.12.6-.2.75-1.09,1.41-.76,2.22.99,2.35,5.45.68,5.25,3.53.12,3.23-3.36,2.2-5.84,1.85-1.71-.66-3.88-.57-4.66,1.36-.13,1.38,2.25.27,2.2,1.86.03,1.11-.44,2.23-.79,3.33-.26.98-.31,1.8-1.14,2.31-2.25.81-4.76,1.49-7.29.99-.79-.17-1.41-.39-2.3-.19-2.73.33-2.46,2.86-3.19,4.7-4.07,5.16-7.01,11.71-14.52,10.93-1.19-.07-2.2.45-3,1.28-.44.86-5.33,3.52-4.6.95.29-1.4,2.94-1.52,2.8-3.03-.36-.5-1.13-.2-1.65-.28-.71-.07-.84-.51-.84-1.18.03-1.02-.42-2.11-1.22-2.79-1.32-1.24-2.98-.15-4.5-.2-1.04.29-5.14-1.46-4.5.63,1.44,2.58,3.19,4.99,2.97,8.08-.61,2.59-.31,5.26-.73,7.87-.95,2.84-6.57-.11-5.05,3.84.47,1.34,2.42.54,3.4,1.36.7.64.79,1.77,1.64,2.26,4.98.62,5.9.65,6.78,6.28.6,1.6-.65,3.48.43,4.85,1.2,1.31,4.52-1.44,5.47.39.6,1.8-1.7,2.39-2.95,2.94-.62.92,1.45,2.04,2.29,1.62.84-.16,1.43-1.01,1.98-1.51.13-.09.23-.07.29.04.11.3.18.79.41,1.08.6.99,2.97-.04,2.97,1.57-.08,4.73.73,6.15-2.74,10.43-3.48,4.5-4.24-1.21-7.51.91-1.83,1.13-5.92-4.84-6.6-1.93-.02.44,0,.87-.29.89-.39.06-1.16-.53-1.65-.27-1.56,1.01.2,2.4,1.74,2.48,3.56,0,2.98,2.75.49,4.29-.95.72-2.13,1.48-2.29,2.43-.11.38,0,.87-.36,1.13-7.75.65-5.4,1.45-8.68,7.12-1.43,1.5-3.35,1.89-5.35,2.49-2.16,1.42,1.99,3.39-2.02,4.76-1.98,1.2-3.84,2.15-6.21,2.4-1.08.34-1.65,1.34-2.95,1.59-2.82-.32-4.41,2.01-6.52,3.34-4.23,2.85-3.55-1.51-8.38,2.51-2.67.67-5.18,1.55-7.58,2.49-1.44,0-3.12-.66-4.59-.67-.24-.69-.48-1.33-.68-1.88-.42-.97-1.79-2.06-2.31-3.11-.56-1.84-.59-4.37-2.02-5.91-5.56-4.6-.97-3.79-2.5-8.26-.29-.8-.44-1.46-.94-2.03-1.53-1.33-3.89-1.56-5.36-2.87-2.16-1.78-4.09-3.59-6.25-5.41-1.69-1.5-2.93-2.56-5.19-3.37-1.39-.66-2.57-.99-3.55-2.22-.46-.68-1.21-1.86-1.45-2.63-.33-.99,1.17-1.43,1.06-2.23-.13-.61-.79-1.17-1.21-1.66-1.37-1.47-1.53-1.83-2.34-3.7-.5-.99-.84-2.13-1.49-3-.5-.57-1.05-.88-1.87-1.5-.98-.77-1.87-1.05-1.95-2.29-.15-1.63.3-3.19-.7-4.55-1.27-1.96-2.32-3.75-3.07-5.86-.33-.66-.78-.78-1.53-.79-.88,0-2.08,0-2.81,0-1.22,0-2.26-.58-3.36-1-1-.46-1.8-.15-2.9-.21-2.61-.35-5.16-2.03-8.01-1.84-1.91.13-3.76-.88-5.44-1.46-1.7-.52-3.83-.35-5.59-.48l56.09-42.46,6.66,1.26h5.22l3.96-1.71,2.89-1.35s3.23,1.8,3.96,1.24c.72-.56,4.86,0,4.86,0l1.44-3.22,4.31-1.26.95.48,1.21.6,3.06-.9s3.06-1.8,4.14-2.8c1.08-.99,3.61,1.9,3.61,1.9,0,0,5.58,1.26,6.48.72.9-.54,4.14-1.08,4.14-1.08l5.77,3.42s1.98-.18,2.52-.55c.55-.35,2.53.91,2.53.91l3.06,1.78,4.14-.16s4.14.36,4.86,0,5.22-2.34,5.22-2.34l5.58-1.08,4.86-3.6,1.81-2.34h5.4l1.98-2.7,4.69-1.98h10.08l3.95.69c-.94,1.62-3.02,2.58-4.97,2.86-3.19.66-.64,3.91-.77,6.08Z" style="fill:#7db1bd;"/><polygon id="uuid-9f7707d8-87a5-4801-9e38-c148b1d0d3cb" points="137.06 115.63 137.94 118.35 140.79 118.35 138.49 120.02 139.37 122.73 137.06 121.06 134.75 122.73 135.63 120.02 133.33 118.35 136.18 118.35 137.06 115.63" style="fill:#1d1d1b; stroke:#fab847; stroke-linecap:round; stroke-linejoin:round; stroke-width:.48px;"/><path d="M89.81,111.97h1.2c.8,0,1.4.28,1.4,1.13s-.61,1.19-1.4,1.19h-.55v1.34h-.65v-3.66ZM90.96,113.77c.54,0,.8-.22.8-.67s-.27-.61-.8-.61h-.5v1.28h.5Z" style="fill:#1d1d1b;"/><path d="M92.98,114.26c0-.92.66-1.45,1.38-1.45s1.38.53,1.38,1.45-.66,1.44-1.38,1.44-1.38-.53-1.38-1.44ZM95.08,114.26c0-.55-.27-.92-.72-.92s-.72.36-.72.92.27.91.72.91.72-.36.72-.91Z" style="fill:#1d1d1b;"/><path d="M96.77,112.88h.53l.06.62h.01c.28-.45.7-.69,1.17-.69.22,0,.37.03.54.11l-.14.55c-.18-.06-.29-.09-.5-.09-.38,0-.75.19-1.03.73v1.52h-.65v-2.75Z" style="fill:#1d1d1b;"/><path d="M100.46,114.53v-1.13h-.74v-.48l.76-.03.08-.86h.54v.86h1.25v.51h-1.25v1.13c0,.46.17.66.64.66.23,0,.42-.05.6-.11l.13.47c-.25.08-.52.16-.88.16-.84,0-1.13-.47-1.13-1.17Z" style="fill:#1d1d1b;"/><path d="M106.79,111.97h.65v3.11h1.72v.55h-2.37v-3.66Z" style="fill:#1d1d1b;"/><path d="M109.78,114.26c0-.92.66-1.45,1.38-1.45s1.38.53,1.38,1.45-.66,1.44-1.38,1.44-1.38-.53-1.38-1.44ZM111.88,114.26c0-.55-.27-.92-.72-.92s-.72.36-.72.92.27.91.72.91.72-.36.72-.91Z" style="fill:#1d1d1b;"/><path d="M113.23,114.59v-1.7h.65v1.62c0,.44.14.64.51.64.26,0,.44-.11.69-.41v-1.86h.65v2.75h-.53l-.05-.44h-.02c-.26.3-.57.5-.97.5-.64,0-.92-.41-.92-1.11Z" style="fill:#1d1d1b;"/><path d="M117.86,113.39h-1.19v-.51h1.84v2.75h-.65v-2.24ZM117.68,111.95c0-.26.19-.44.46-.44s.46.18.46.44-.19.43-.46.43-.46-.17-.46-.43Z" style="fill:#1d1d1b;"/><path d="M119.91,115.27l.28-.41c.33.22.7.35,1.15.35.38,0,.56-.15.56-.33s-.12-.28-.76-.41c-.73-.15-1.06-.41-1.06-.83,0-.48.44-.82,1.21-.82.46,0,.87.18,1.15.36l-.3.4c-.27-.17-.58-.27-.91-.27-.36,0-.5.14-.5.31,0,.19.2.26.72.37.88.19,1.11.43,1.11.86,0,.47-.46.86-1.29.86-.51,0-1.01-.19-1.35-.43Z" style="fill:#1d1d1b;"/><path d="M54.15,243.07h1.14c.75,0,1.3.23,1.3.9,0,.35-.2.68-.63.79v.02c.53.09.82.37.82.87,0,.73-.58,1.08-1.39,1.08h-1.23v-3.66ZM55.23,244.57c.51,0,.72-.19.72-.53s-.23-.46-.71-.46h-.44v.99h.43ZM55.31,246.21c.54,0,.82-.18.82-.6,0-.39-.28-.54-.82-.54h-.52v1.14h.52Z" style="fill:#1d1d1b;"/><path d="M58.29,245.73v-2.44h-.92v-.51h1.57v2.99c0,.37.22.51.49.51.14,0,.29-.03.47-.11l.15.48c-.27.1-.46.16-.78.16-.64,0-.98-.39-.98-1.07Z" style="fill:#1d1d1b;"/><path d="M60.78,245.99c0-.62.54-.92,1.9-1.02-.02-.31-.21-.54-.65-.54-.31,0-.62.13-.9.29l-.24-.43c.33-.2.78-.38,1.26-.38.76,0,1.18.42,1.18,1.19v1.63h-.53l-.05-.34h-.02c-.29.22-.66.41-1.03.41-.54,0-.92-.33-.92-.81ZM62.68,245.95v-.58c-.99.06-1.27.27-1.27.56,0,.24.21.35.49.35s.53-.13.79-.33Z" style="fill:#1d1d1b;"/><path d="M64.16,245.36c0-.92.72-1.45,1.56-1.45.44,0,.79.17,1.02.39l-.31.41c-.22-.17-.43-.26-.68-.26-.55,0-.93.36-.93.92s.37.91.91.91c.31,0,.57-.14.78-.3l.27.41c-.32.27-.72.42-1.11.42-.86,0-1.52-.53-1.52-1.44Z" style="fill:#1d1d1b;"/><path d="M67.61,242.77h.65v2.47h.02l1.24-1.27h.72l-1.98,2.03v.72h-.65v-3.95ZM68.71,245.38l.38-.41,1.26,1.76h-.71l-.93-1.35Z" style="fill:#1d1d1b;"/><path d="M74.3,243.07h1.22c.76,0,1.35.27,1.35,1.09s-.59,1.14-1.35,1.14h-.57v1.43h-.65v-3.66ZM75.45,244.78c.5,0,.77-.21.77-.62s-.27-.57-.77-.57h-.5v1.19h.5ZM75.87,244.73l1.14,1.99h-.73l-.88-1.6.47-.39Z" style="fill:#1d1d1b;"/><path d="M78.85,244.49h-1.19v-.51h1.84v2.75h-.65v-2.24ZM78.67,243.04c0-.26.19-.44.46-.44s.46.18.46.44-.19.43-.46.43-.46-.17-.46-.43Z" style="fill:#1d1d1b;"/><path d="M80.77,243.98h.65l.53,1.42c.1.28.19.55.28.83h.02c.09-.28.17-.55.27-.83l.53-1.42h.62l-1.07,2.75h-.74l-1.1-2.75Z" style="fill:#1d1d1b;"/><path d="M84.25,245.35c0-.9.68-1.44,1.42-1.44.82,0,1.28.54,1.28,1.31,0,.13-.02.25-.03.33h-2.2v-.46h1.78l-.12.14c0-.54-.26-.82-.69-.82-.45,0-.81.33-.81.94s.39.95.96.95c.29,0,.52-.08.77-.22l.22.4c-.29.19-.67.33-1.08.33-.84,0-1.5-.53-1.5-1.45Z" style="fill:#1d1d1b;"/><path d="M88,243.98h.53l.06.62h.01c.28-.45.7-.69,1.17-.69.22,0,.37.03.54.11l-.14.55c-.18-.06-.29-.09-.5-.09-.38,0-.75.19-1.03.73v1.52h-.65v-2.75Z" style="fill:#1d1d1b;"/><path d="M119.79,235.62h1.14c.75,0,1.3.23,1.3.9,0,.35-.2.68-.63.79v.02c.53.09.82.37.82.87,0,.73-.58,1.08-1.39,1.08h-1.23v-3.66ZM120.86,237.13c.51,0,.72-.19.72-.53s-.23-.46-.71-.46h-.45v.99h.43ZM120.95,238.76c.54,0,.83-.18.83-.6,0-.39-.28-.54-.83-.54h-.52v1.14h.52Z" style="fill:#1d1d1b;"/><path d="M123.93,238.28v-2.44h-.92v-.51h1.57v2.99c0,.37.22.51.49.51.14,0,.29-.03.47-.11l.15.48c-.27.1-.46.16-.78.16-.64,0-.98-.39-.98-1.07Z" style="fill:#1d1d1b;"/><path d="M126.42,238.54c0-.62.54-.92,1.9-1.02-.02-.31-.21-.54-.65-.54-.31,0-.62.13-.9.29l-.24-.43c.33-.2.78-.38,1.26-.38.76,0,1.18.42,1.18,1.19v1.63h-.53l-.05-.34h-.02c-.29.22-.66.41-1.03.41-.54,0-.92-.33-.92-.81ZM128.32,238.51v-.58c-.99.06-1.27.27-1.27.56,0,.24.21.35.49.35s.53-.13.79-.33Z" style="fill:#1d1d1b;"/><path d="M129.8,237.91c0-.92.72-1.45,1.56-1.45.44,0,.79.17,1.02.39l-.31.41c-.22-.17-.43-.26-.68-.26-.55,0-.93.36-.93.92s.37.91.91.91c.31,0,.57-.14.79-.3l.27.41c-.32.27-.72.42-1.11.42-.86,0-1.52-.53-1.52-1.44Z" style="fill:#1d1d1b;"/><path d="M133.25,235.33h.65v2.47h.02l1.24-1.27h.72l-1.98,2.03v.72h-.65v-3.95ZM134.35,237.93l.38-.41,1.26,1.76h-.71l-.93-1.35Z" style="fill:#1d1d1b;"/><path d="M139.94,235.62h1.22c.76,0,1.35.27,1.35,1.09s-.59,1.14-1.35,1.14h-.57v1.43h-.66v-3.66ZM141.09,237.33c.5,0,.77-.21.77-.62s-.27-.57-.77-.57h-.5v1.19h.5ZM141.51,237.29l1.14,1.99h-.73l-.88-1.6.47-.39Z" style="fill:#1d1d1b;"/><path d="M144.49,237.05h-1.19v-.51h1.84v2.75h-.65v-2.24ZM144.31,235.6c0-.26.19-.44.46-.44s.46.18.46.44-.19.43-.46.43-.46-.17-.46-.43Z" style="fill:#1d1d1b;"/><path d="M146.41,236.53h.66l.53,1.42c.1.28.19.55.28.83h.02c.09-.28.17-.55.27-.83l.53-1.42h.62l-1.07,2.75h-.74l-1.1-2.75Z" style="fill:#1d1d1b;"/><path d="M149.89,237.9c0-.9.68-1.44,1.42-1.44.82,0,1.28.54,1.28,1.31,0,.13-.02.25-.03.33h-2.2v-.46h1.79l-.12.14c0-.54-.26-.82-.69-.82-.46,0-.81.33-.81.94s.39.95.96.95c.29,0,.53-.08.77-.22l.22.4c-.29.19-.67.33-1.08.33-.84,0-1.5-.53-1.5-1.45Z" style="fill:#1d1d1b;"/><path d="M153.63,236.53h.53l.06.62h.01c.28-.45.7-.69,1.17-.69.22,0,.37.03.54.11l-.14.55c-.18-.06-.29-.09-.5-.09-.38,0-.75.19-1.03.73v1.52h-.65v-2.75Z" style="fill:#1d1d1b;"/><path d="M185.55,178.34h.72l.44,1.43.15.55h.02l.15-.55.44-1.43h.72v3.66h-.58v-1.48c0-.38.06-1.15.09-1.5h-.02l-.25.85-.4,1.16h-.37l-.4-1.16-.24-.85h-.02c.04.35.1,1.12.1,1.5v1.48h-.56v-3.66Z" style="fill:#1d1d1b;"/><path d="M188.85,180.63c0-.92.66-1.45,1.38-1.45s1.38.53,1.38,1.45-.66,1.44-1.38,1.44-1.38-.53-1.38-1.44ZM190.95,180.63c0-.55-.27-.92-.72-.92s-.72.37-.72.92.27.91.72.91.72-.36.72-.91Z" style="fill:#1d1d1b;"/><path d="M192.42,178.05h.65v2.47h.02l1.24-1.27h.72l-1.98,2.03v.72h-.65v-3.95ZM193.52,180.65l.38-.41,1.26,1.76h-.71l-.93-1.35Z" style="fill:#1d1d1b;"/><path d="M195.67,181.26c0-.62.54-.92,1.9-1.02-.02-.31-.21-.54-.65-.54-.31,0-.62.13-.9.29l-.24-.43c.33-.2.78-.38,1.26-.38.76,0,1.18.42,1.18,1.19v1.63h-.53l-.05-.34h-.02c-.29.22-.66.41-1.03.41-.54,0-.92-.33-.92-.81ZM197.57,181.23v-.58c-.99.07-1.27.27-1.27.56,0,.24.21.35.49.35s.53-.13.79-.33Z" style="fill:#1d1d1b;"/><path d="M165.77,78.71h1.2c.8,0,1.4.28,1.4,1.13s-.61,1.19-1.4,1.19h-.55v1.35h-.65v-3.66ZM166.93,80.51c.54,0,.8-.22.8-.67s-.27-.61-.8-.61h-.5v1.27h.5Z" style="fill:#1d1d1b;"/><path d="M169.04,81.63c0-.62.54-.92,1.9-1.02-.02-.31-.21-.54-.65-.54-.31,0-.62.13-.9.29l-.24-.43c.33-.2.78-.38,1.26-.38.76,0,1.18.42,1.18,1.19v1.63h-.53l-.05-.34h-.02c-.29.22-.66.41-1.03.41-.54,0-.92-.33-.92-.81ZM170.94,81.6v-.58c-.99.07-1.27.27-1.27.56,0,.24.21.35.49.35s.53-.13.79-.33Z" style="fill:#1d1d1b;"/><path d="M172.26,79.62h.5l.05.35h.02c.12-.24.29-.42.61-.42.25,0,.43.16.5.46.13-.27.31-.46.63-.46.39,0,.61.32.61.87v1.95h-.62v-1.9c0-.24-.06-.36-.22-.36s-.23.11-.34.34v1.92h-.54v-1.9c0-.24-.06-.36-.22-.36-.14,0-.24.11-.34.34v1.92h-.62v-2.75Z" style="fill:#1d1d1b;"/><path d="M175.82,79.62h.53l.05.31h.02c.24-.22.57-.38.88-.38.71,0,1.12.55,1.12,1.4,0,.94-.58,1.48-1.22,1.48-.25,0-.52-.12-.75-.33h-.02l.03.48v.86h-.65v-3.84ZM177.76,80.96c0-.55-.19-.87-.64-.87-.21,0-.43.1-.65.33v1.24c.2.18.43.25.6.25.39,0,.69-.32.69-.94Z" style="fill:#1d1d1b;"/><path d="M179.99,81.37v-2.44h-.92v-.51h1.57v2.99c0,.37.22.51.49.51.14,0,.29-.03.47-.11l.15.48c-.27.1-.46.16-.78.16-.64,0-.98-.39-.98-1.07Z" style="fill:#1d1d1b;"/><path d="M182.43,80.99c0-.9.68-1.44,1.42-1.44.82,0,1.28.54,1.28,1.3,0,.13-.02.25-.03.33h-2.2v-.46h1.79l-.12.14c0-.54-.26-.82-.69-.82-.46,0-.81.33-.81.94s.39.94.96.94c.29,0,.53-.08.77-.22l.22.4c-.29.19-.67.33-1.08.33-.84,0-1.5-.53-1.5-1.45Z" style="fill:#1d1d1b;"/><path d="M185.7,79.62h.5l.05.35h.02c.12-.24.29-.42.61-.42.25,0,.43.16.5.46.13-.27.31-.46.63-.46.39,0,.61.32.61.87v1.95h-.62v-1.9c0-.24-.06-.36-.22-.36s-.23.11-.34.34v1.92h-.54v-1.9c0-.24-.06-.36-.22-.36-.14,0-.24.11-.34.34v1.92h-.62v-2.75Z" style="fill:#1d1d1b;"/><path d="M189.1,81c0-.92.66-1.45,1.38-1.45s1.38.53,1.38,1.45-.66,1.44-1.38,1.44-1.38-.53-1.38-1.44ZM191.2,81c0-.55-.27-.92-.72-.92s-.72.37-.72.92.27.91.72.91.72-.36.72-.91Z" style="fill:#1d1d1b;"/><path d="M192.55,81.32v-1.7h.65v1.62c0,.44.14.64.51.64.26,0,.44-.11.69-.41v-1.86h.65v2.75h-.53l-.05-.44h-.02c-.26.3-.57.5-.97.5-.64,0-.92-.41-.92-1.11Z" style="fill:#1d1d1b;"/><path d="M195.87,82.01l.28-.41c.33.22.7.35,1.15.35.38,0,.56-.14.56-.33s-.12-.28-.76-.41c-.73-.15-1.06-.41-1.06-.83,0-.48.44-.82,1.21-.82.46,0,.87.18,1.15.36l-.3.4c-.27-.17-.58-.28-.91-.28-.36,0-.5.14-.5.31,0,.19.2.26.72.37.88.19,1.11.43,1.11.87,0,.47-.46.86-1.29.86-.51,0-1.01-.19-1.35-.43Z" style="fill:#1d1d1b;"/><path d="M199.23,82.01l.28-.41c.33.22.7.35,1.15.35.38,0,.56-.14.56-.33s-.12-.28-.76-.41c-.73-.15-1.06-.41-1.06-.83,0-.48.44-.82,1.21-.82.46,0,.87.18,1.15.36l-.3.4c-.27-.17-.58-.28-.91-.28-.36,0-.5.14-.5.31,0,.19.2.26.72.37.88.19,1.11.43,1.11.87,0,.47-.46.86-1.29.86-.51,0-1.01-.19-1.35-.43Z" style="fill:#1d1d1b;"/><path d="M202.59,80.99c0-.9.68-1.44,1.42-1.44.82,0,1.28.54,1.28,1.3,0,.13-.02.25-.03.33h-2.2v-.46h1.79l-.12.14c0-.54-.26-.82-.69-.82-.46,0-.81.33-.81.94s.39.94.96.94c.29,0,.53-.08.77-.22l.22.4c-.29.19-.67.33-1.08.33-.84,0-1.5-.53-1.5-1.45Z" style="fill:#1d1d1b;"/><path d="M205.95,82.01l.28-.41c.33.22.7.35,1.15.35.38,0,.56-.14.56-.33s-.12-.28-.76-.41c-.73-.15-1.06-.41-1.06-.83,0-.48.44-.82,1.21-.82.46,0,.87.18,1.15.36l-.3.4c-.27-.17-.58-.28-.91-.28-.36,0-.5.14-.5.31,0,.19.2.26.72.37.88.19,1.11.43,1.11.87,0,.47-.46.86-1.29.86-.51,0-1.01-.19-1.35-.43Z" style="fill:#1d1d1b;"/><path d="M277.58,172.71h2.34v.55h-1.69v1.04h1.44v.55h-1.44v1.53h-.65v-3.66Z" style="fill:#1d1d1b;"/><path d="M281.54,175.37v-2.44h-.92v-.51h1.57v2.99c0,.37.22.51.49.51.14,0,.29-.03.47-.11l.15.48c-.27.1-.46.16-.78.16-.64,0-.98-.39-.98-1.07Z" style="fill:#1d1d1b;"/><path d="M284.03,175.63c0-.62.54-.92,1.9-1.02-.02-.31-.21-.54-.65-.54-.31,0-.62.13-.9.29l-.24-.43c.33-.2.78-.38,1.26-.38.76,0,1.18.42,1.18,1.19v1.63h-.53l-.05-.34h-.02c-.29.22-.66.41-1.03.41-.54,0-.92-.33-.92-.81ZM285.93,175.59v-.58c-.99.06-1.27.27-1.27.56,0,.24.21.35.49.35s.53-.13.79-.33Z" style="fill:#1d1d1b;"/><path d="M287.41,175c0-.92.72-1.45,1.56-1.45.44,0,.79.17,1.02.39l-.31.41c-.22-.17-.43-.26-.68-.26-.55,0-.93.36-.93.92s.37.91.91.91c.31,0,.57-.14.79-.3l.27.41c-.32.27-.72.42-1.11.42-.86,0-1.52-.53-1.52-1.44Z" style="fill:#1d1d1b;"/><path d="M292.61,176.55l.03-.48h-.01c-.2.21-.5.37-.8.37-.71,0-1.17-.53-1.17-1.44s.59-1.45,1.21-1.45c.32,0,.57.12.8.36h.02l.06-.29h.51v3.84h-.65v-.91ZM292.61,175.57v-1.24c-.2-.18-.39-.25-.59-.25-.38,0-.7.33-.7.9s.25.91.67.91c.23,0,.43-.1.62-.33Z" style="fill:#1d1d1b;"/><path d="M218.46,285.47c0-1.2.71-1.91,1.66-1.91.49,0,.82.23,1.04.46l-.36.41c-.17-.17-.36-.29-.68-.29-.58,0-.99.5-.99,1.32s.35,1.34,1,1.34c.2,0,.38-.06.49-.16v-.79h-.63v-.53h1.22v1.62c-.24.23-.65.43-1.12.43-.93,0-1.63-.67-1.63-1.89Z" style="fill:#1d1d1b;"/><path d="M222.28,284.53h.53l.06.63h.01c.28-.45.7-.69,1.17-.69.22,0,.37.03.54.11l-.14.55c-.18-.06-.29-.09-.5-.09-.38,0-.75.19-1.03.73v1.52h-.65v-2.75Z" style="fill:#1d1d1b;"/><path d="M225.3,286.55c0-.62.54-.92,1.9-1.02-.02-.31-.21-.54-.65-.54-.31,0-.62.13-.9.29l-.24-.43c.33-.2.78-.38,1.26-.38.76,0,1.18.42,1.18,1.19v1.63h-.53l-.05-.34h-.02c-.29.22-.66.41-1.03.41-.54,0-.92-.33-.92-.81ZM227.2,286.51v-.58c-.99.07-1.27.27-1.27.56,0,.24.21.35.49.35s.53-.13.79-.33Z" style="fill:#1d1d1b;"/><path d="M228.73,284.53h.53l.05.41h.02c.26-.27.57-.48.99-.48.64,0,.92.41.92,1.11v1.7h-.65v-1.62c0-.44-.14-.64-.51-.64-.27,0-.45.13-.71.39v1.88h-.65v-2.75Z" style="fill:#1d1d1b;"/><path d="M231.93,285.91c0-.9.59-1.45,1.21-1.45.31,0,.54.12.76.32h.01l-.03-.46v-1h.65v3.95h-.53l-.05-.32h-.02c-.21.21-.52.39-.83.39-.71,0-1.17-.53-1.17-1.44ZM233.88,286.49v-1.24c-.2-.18-.39-.25-.59-.25-.38,0-.7.33-.7.9s.25.91.67.91c.23,0,.43-.1.62-.33Z" style="fill:#1d1d1b;"/><path d="M238.84,283.62h1.2c.8,0,1.4.28,1.4,1.13s-.61,1.19-1.4,1.19h-.55v1.35h-.65v-3.66ZM240,285.42c.54,0,.8-.22.8-.67s-.27-.61-.8-.61h-.5v1.27h.5Z" style="fill:#1d1d1b;"/><path d="M242.01,285.91c0-.92.66-1.45,1.38-1.45s1.38.53,1.38,1.45-.66,1.44-1.38,1.44-1.38-.53-1.38-1.44ZM244.11,285.91c0-.55-.27-.92-.72-.92s-.72.37-.72.92.27.91.72.91.72-.36.72-.91Z" style="fill:#1d1d1b;"/><path d="M245.8,284.53h.53l.06.63h.01c.28-.45.7-.69,1.17-.69.22,0,.37.03.54.11l-.14.55c-.18-.06-.29-.09-.5-.09-.38,0-.75.19-1.03.73v1.52h-.65v-2.75Z" style="fill:#1d1d1b;"/><path d="M249.5,286.18v-1.13h-.74v-.48l.76-.03.08-.86h.54v.86h1.25v.51h-1.25v1.13c0,.45.17.66.64.66.23,0,.42-.05.6-.11l.13.47c-.25.08-.52.16-.88.16-.84,0-1.13-.47-1.13-1.17Z" style="fill:#1d1d1b;"/><path d="M119.63,333.99l.38-.45c.28.25.64.42,1.02.42.43,0,.65-.19.65-.44,0-.33-.25-.41-.61-.56l-.5-.22c-.38-.15-.78-.43-.78-.97,0-.58.52-1.03,1.27-1.03.45,0,.87.17,1.17.47l-.33.41c-.25-.2-.5-.31-.87-.31-.35,0-.58.16-.58.43,0,.29.29.39.62.52l.48.21c.47.18.79.46.79.99,0,.59-.5,1.09-1.36,1.09-.51,0-1-.2-1.36-.54Z" style="fill:#1d1d1b;"/><path d="M123.06,333.72c0-.62.54-.92,1.9-1.02-.02-.31-.21-.54-.65-.54-.31,0-.62.13-.9.29l-.24-.43c.33-.2.78-.38,1.26-.38.76,0,1.18.42,1.18,1.19v1.63h-.53l-.05-.34h-.02c-.29.22-.66.41-1.03.41-.54,0-.92-.33-.92-.81ZM124.96,333.69v-.58c-.99.06-1.27.27-1.27.56,0,.24.21.35.49.35s.53-.13.79-.33Z" style="fill:#1d1d1b;"/><path d="M126.25,331.71h.66l.53,1.42c.1.28.19.55.28.83h.02c.09-.28.17-.55.27-.83l.53-1.42h.62l-1.07,2.75h-.74l-1.1-2.75Z" style="fill:#1d1d1b;"/><path d="M129.78,333.72c0-.62.54-.92,1.9-1.02-.02-.31-.21-.54-.65-.54-.31,0-.62.13-.9.29l-.24-.43c.33-.2.78-.38,1.26-.38.76,0,1.18.42,1.18,1.19v1.63h-.53l-.05-.34h-.02c-.29.22-.66.41-1.03.41-.54,0-.92-.33-.92-.81ZM131.68,333.69v-.58c-.99.06-1.27.27-1.27.56,0,.24.21.35.49.35s.53-.13.79-.33Z" style="fill:#1d1d1b;"/><path d="M133.21,331.71h.53l.05.41h.02c.26-.27.57-.48.99-.48.64,0,.92.41.92,1.11v1.7h-.65v-1.62c0-.44-.14-.64-.51-.64-.27,0-.45.13-.71.39v1.88h-.65v-2.75Z" style="fill:#1d1d1b;"/><path d="M136.57,331.71h.53l.05.41h.02c.26-.27.57-.48.99-.48.64,0,.92.41.92,1.11v1.7h-.65v-1.62c0-.44-.14-.64-.51-.64-.27,0-.45.13-.71.39v1.88h-.65v-2.75Z" style="fill:#1d1d1b;"/><path d="M139.81,333.08c0-.9.68-1.44,1.42-1.44.82,0,1.28.54,1.28,1.31,0,.13-.02.25-.03.33h-2.2v-.46h1.79l-.12.14c0-.54-.26-.82-.69-.82-.46,0-.81.33-.81.94s.39.95.96.95c.29,0,.53-.08.77-.22l.22.4c-.29.19-.67.33-1.08.33-.84,0-1.5-.53-1.5-1.45Z" style="fill:#1d1d1b;"/><path d="M221.1,40.48h1.22c.76,0,1.35.27,1.35,1.09s-.59,1.14-1.35,1.14h-.57v1.43h-.66v-3.66ZM222.26,42.19c.5,0,.77-.21.77-.62s-.27-.57-.77-.57h-.5v1.19h.5ZM222.67,42.15l1.14,1.99h-.73l-.88-1.6.47-.39Z" style="fill:#1d1d1b;"/><path d="M225.65,41.9h-1.19v-.51h1.84v2.75h-.65v-2.24ZM225.47,40.46c0-.26.19-.44.46-.44s.46.18.46.44-.19.43-.46.43-.46-.17-.46-.43Z" style="fill:#1d1d1b;"/><path d="M227.58,41.39h.66l.53,1.42c.1.28.19.55.28.83h.02c.09-.28.17-.55.27-.83l.53-1.42h.62l-1.07,2.75h-.74l-1.1-2.75Z" style="fill:#1d1d1b;"/><path d="M232.37,41.9h-1.19v-.51h1.84v2.75h-.65v-2.24ZM232.19,40.46c0-.26.19-.44.46-.44s.46.18.46.44-.19.43-.46.43-.46-.17-.46-.43Z" style="fill:#1d1d1b;"/><path d="M234.42,42.76c0-.9.68-1.44,1.42-1.44.82,0,1.28.54,1.28,1.31,0,.13-.02.25-.03.33h-2.2v-.46h1.79l-.12.14c0-.54-.26-.82-.69-.82-.46,0-.81.33-.81.94s.39.95.96.95c.29,0,.53-.08.77-.22l.22.4c-.29.19-.67.33-1.08.33-.84,0-1.5-.53-1.5-1.45Z" style="fill:#1d1d1b;"/><path d="M238.16,41.39h.53l.06.62h.01c.28-.45.7-.69,1.17-.69.22,0,.37.03.54.11l-.14.55c-.18-.06-.29-.09-.5-.09-.38,0-.75.19-1.03.73v1.52h-.65v-2.75Z" style="fill:#1d1d1b;"/><path d="M241.14,42.76c0-.9.68-1.44,1.42-1.44.82,0,1.28.54,1.28,1.31,0,.13-.02.25-.03.33h-2.2v-.46h1.79l-.12.14c0-.54-.26-.82-.69-.82-.46,0-.81.33-.81.94s.39.95.96.95c.29,0,.53-.08.77-.22l.22.4c-.29.19-.67.33-1.08.33-.84,0-1.5-.53-1.5-1.45Z" style="fill:#1d1d1b;"/><path d="M229.33,49.49c0-.9.59-1.45,1.21-1.45.31,0,.54.12.76.32h.01l-.03-.46v-1h.65v3.95h-.53l-.05-.32h-.02c-.21.22-.52.39-.83.39-.71,0-1.17-.53-1.17-1.44ZM231.28,50.06v-1.24c-.2-.18-.39-.25-.59-.25-.38,0-.7.33-.7.9s.25.91.67.91c.23,0,.43-.1.62-.33Z" style="fill:#1d1d1b;"/><path d="M232.78,49.81v-1.7h.65v1.62c0,.44.14.64.51.64.26,0,.44-.11.69-.41v-1.86h.65v2.75h-.53l-.05-.44h-.02c-.26.3-.57.5-.97.5-.64,0-.92-.41-.92-1.11Z" style="fill:#1d1d1b;"/><path d="M221.36,54.83h.53l.06.62h.01c.28-.45.7-.69,1.17-.69.22,0,.37.03.54.11l-.14.55c-.18-.06-.29-.09-.5-.09-.38,0-.75.19-1.03.73v1.52h-.65v-2.75Z" style="fill:#1d1d1b;"/><path d="M224.34,56.2c0-.9.68-1.44,1.42-1.44.82,0,1.28.54,1.28,1.31,0,.13-.02.25-.03.33h-2.2v-.46h1.79l-.12.14c0-.54-.26-.82-.69-.82-.46,0-.81.33-.81.94s.39.95.96.95c.29,0,.53-.08.77-.22l.22.4c-.29.19-.67.33-1.08.33-.84,0-1.5-.53-1.5-1.45Z" style="fill:#1d1d1b;"/><path d="M227.61,54.83h.5l.05.35h.02c.12-.24.29-.42.61-.42.25,0,.43.16.5.46.13-.27.31-.46.63-.46.39,0,.61.32.61.87v1.95h-.62v-1.9c0-.24-.06-.36-.22-.36s-.23.11-.34.34v1.92h-.54v-1.9c0-.24-.06-.36-.22-.36-.14,0-.24.11-.34.34v1.92h-.62v-2.75Z" style="fill:#1d1d1b;"/><path d="M231.17,54.83h.53l.05.31h.02c.24-.22.57-.38.88-.38.71,0,1.12.55,1.12,1.4,0,.94-.58,1.48-1.22,1.48-.25,0-.52-.12-.75-.33h-.02l.03.48v.87h-.65v-3.84ZM233.11,56.17c0-.55-.19-.87-.64-.87-.21,0-.43.1-.65.33v1.24c.2.18.43.25.6.25.39,0,.69-.32.69-.94Z" style="fill:#1d1d1b;"/><path d="M234.47,56.84c0-.62.54-.92,1.9-1.02-.02-.31-.21-.54-.65-.54-.31,0-.62.13-.9.29l-.24-.43c.33-.2.78-.38,1.26-.38.76,0,1.18.42,1.18,1.19v1.63h-.53l-.05-.34h-.02c-.29.22-.66.41-1.03.41-.54,0-.92-.33-.92-.81ZM236.37,56.81v-.58c-.99.06-1.27.27-1.27.56,0,.24.21.35.49.35s.53-.13.79-.33Z" style="fill:#1d1d1b;"/><path d="M238.16,54.83h.53l.06.62h.01c.28-.45.7-.69,1.17-.69.22,0,.37.03.54.11l-.14.55c-.18-.06-.29-.09-.5-.09-.38,0-.75.19-1.03.73v1.52h-.65v-2.75Z" style="fill:#1d1d1b;"/><path d="M241.86,56.48v-1.13h-.74v-.48l.76-.03.08-.86h.54v.86h1.25v.51h-1.25v1.13c0,.46.17.66.64.66.23,0,.42-.05.6-.11l.13.47c-.25.08-.52.16-.88.16-.84,0-1.13-.47-1.13-1.17Z" style="fill:#1d1d1b;"/></g></g></svg>