<?xml version="1.0" encoding="UTF-8"?><svg id="uuid-668c8ea2-c935-417f-8ef5-b0ea5c043966" xmlns="http://www.w3.org/2000/svg" viewBox="0 0 120.03 358.83"><g id="uuid-6319cc16-d29d-4b5b-a2a3-82ec868e5e58"><g id="uuid-a22e19db-75f9-405d-b90a-e03b8a016848"><path d="M41.91,1.25c-.5,1.36.5,2.71,1.65,3.36,1.27.73,2.65.74,2.91,2.41.4.76,1.04,1.5,1.71,2.01.53.36,1.3.15,1.81-.21,1.16-.7.82-2.09,1.12-3.24,0-.72.12-1.66-.11-2.4-.53-.94-1.74-1.47-2.76-1.89-.64-.22-.85-.98-1.44-1.22-.95-.32-1.88.48-2.8.63-.61.19-1.55.15-2,.45l-.08.1Z" style="fill:#16697b;"/><path d="M30.21,40.89c-.55.61.17,1.33.7,1.77.58.65,1.52.3,1.92-.34.25-.47.09-.99.29-1.51.45-1.19.84-2.23,1.6-3.33.66-.71.65-1.81,1.17-2.6.4-.5,1.21-.88,1.6-1.48.73-1.5-1.84-.56-2.39-.28-.31.11-.63.14-.76.3-.15.14-.14.46-.23.77-.14.45-.46.79-.74,1.2-.55.76-1.29,1.46-1.43,2.36-.21,1.17-.8,2.17-1.65,3.01l-.1.12Z" style="fill:#377e8e;"/><polygon points="48.6 52.93 49.36 53.97 50.01 53.97 50.3 53.45 49.45 52.93 48.6 52.93" style="fill:#92bfca;"/><path d="M45.01,61.8c1.05-1.44,2.42-3.08,3.32-4.66.73-1.41,2.42-1.27,2.81.32,1.6,5.97,2.88,12.01,2.79,18.23.13,2.03-.68,4.1-2.71,4.86-1.25.38-5.92,3.93-6.56,2.2-.1-1.27.63-2.7.02-3.97-.21-.47-.61-.96-.86-1.46-.35-.66-.46-1.36-.85-1.94-.44-.62-1.35-.75-1.27-1.26.57-1.87,1.82-3.81,2.21-5.72.31-2.16-.37-4.63,1.01-6.47l.08-.12Z" style="fill:#92bfca;"/><path d="M47.15,83.71c-.69.31-.69.86.12.84,1.03,0,2.11,0,3.14,0,.9,0,1.85,0,2.75,0,.55-.03,1.1.11,1.6-.23.44-.3,1.06-.41,1.24-.9.44-1.12-1.04-2.27-1.93-2.58-.24,0-.83.13-1.18.22-.57.16-1.13.77-1.74,1.05-1.25.58-2.58,1.12-3.88,1.53l-.12.06Z" style="fill:#afd5de;"/><path d="M44.36,86.98c.54-2.49,4-1.47,5.88-1.54,3.14.36,6.95-1.77,9.65.41.81.82,1.21,2.2.5,3.21-.91.99-2.12,1.88-2.88,3.03-3.39,3.59-7.51,7.83-12.76,6.83-.72-.33-1.25-1.47-1.72-2.16-.45-1.09-.87-2.65-.58-3.88.24-.68.8-1.2,1.2-1.8.85-1.16.58-2.64.69-3.94l.02-.16Z" style="fill:#afd5de;"/><path d="M67.59,81.72c.9-.12,1.84-.44,2.74,0,1.43.76,2.93,1.54,3.78,2.97.47.63.94,1.19,1.12,1.92.16.78.83,1.33,1.64,1.08,1.09-.32,1.94-.96,3.12-1.04.59-.05,1.22-.15,1.67-.57.49-.48.67-1.23.81-1.89.19-1.56.49-3.14-.34-4.59-.49-1.01-1.52-1.25-2.48-1.62-2.27-.72-3.2-3.22-4.79-4.78-1.23-1.06-2.34-.03-2.88,1.16-.61,1.1-2.09,1.47-2.77,2.56-.93,1.16-.85,2.73-1.71,3.91-.33.5-.46.83-.02.88h.12Z" style="fill:#cde9f0;"/><path d="M45.01,103.5c-.96,1.06.03,1.82.98,2.33.32.23.56.17,1.21.18,1.1.04,1.56-.13,2.51-.3.32-.06.44-.1.7-.28,1.04-.61,2-1.7,2.01-2.96-.07-.48-.66-.31-1.06-.34-.82,0-1.39,0-2.38,0-.86.04-1.34-.11-2.02.12-.71.18-1.35.72-1.86,1.15l-.1.1Z" style="fill:#afd5de;"/><path d="M69.66,102.87c.58-.61,1.08-.61,1.93-.71.68-.06,1.67.38,2.46.55.69.32,2.34,1.4.87,1.87-.5.14-1.23.13-1.83.36-.69.18-1.26.53-1.88.51-.43-.04-.98.12-1.33-.15-.25-.18-.42-.52-.62-.93-.25-.45.25-1.06.34-1.42l.06-.08Z" style="fill:#16697b;"/><path d="M50.16,114.08h.86l.11-.76s-.26-.26-.32-.3-.65-.16-.65-.16l-.55.39.12.42.42.41Z" style="fill:#16697b;"/><path d="M50.48,118.72c-.17.16-.68.4-.63.68.11.49.12,1.3.44,1.59.69.3,1.55.55,2.34.44.63-.2.75-1.24.89-1.8.2-.66,0-1.27-.65-1.53-.26-.16-.79.17-1.15.25-.31.07-.92.17-1.12.31l-.11.07Z" style="fill:#16697b;"/><path d="M72.4,130.98c-2.33-.87-3.77-3.57-4.57-5.73-.36-1.51-.18-3.17-.22-4.72-.04-1.4.53-2.32.72-3.74.14-2.02.43-3.77.89-5.68.13-.71.21-1.31.47-1.91.45-.95,1.4-1.61,2.01-2.42,1.12-1.68,3.45-1.68,4.88-.4,1.29,1.17,2.11,3.03,3.08,4.31,1.14,1.66,2.65,3.15,4.23,4.33.87.71,1.81,1.52,1.73,2.69-.22,1.75-1.75,3.18-3.41,3.69-1.38.58-2.11,2.26-3.2,3.23-1.03.98-1.04,2.45-1.25,3.75-.64,2.49-2.72,3.9-5.2,2.68l-.17-.07Z" style="fill:#16697b;"/><path d="M73.37,132.34c.69.08,1.64.06,2.26.47.65.43,1.17,1.28,1.26,2.04.1,1.01.32,2.34-.3,3.1-1.23,1.23-1.16,3.26-2.1,4.65-.37.51-.94.85-1.08,1.5-.2.86-.26,2.06-.97,2.69-.51.46-1.4.53-2.15.48-.95-.11-1.65-1.03-1.88-1.94-.38-2.59-.11-5.26.13-7.86.24-2.65,1.49-5.63,4.67-5.13h.17Z" style="fill:#16697b;"/><path d="M44.94,174.87c-1.21-1.16-1.11-2.72-1.34-4.19-.02-.25-.02-.53.12-.76,1.58-1.83,4.85-2.6,7.14-1.74,3.15,1.94,4.36,4.84,3.49,8.46-.7,2.37-3.48,3.25-5.56,4.07-1.23.49-3.03.43-3.58-.98-.58-1.08.7-2.16.44-3.29-.11-.52-.3-1.01-.61-1.43l-.1-.14Z" style="fill:#92bfca;"/><path d="M70.51,172.92l-.3.67c-.13.28-.13.25.02.53.21.6.64.79,1.08.89.08,0,.43-.09.82-.18.42-.1.48-.1.7-.18.29-.12.63-.17.61-.33l.17-.85c.03-.14-.05-.15-.28-.29-.37-.23-.78-.41-1.21-.57-.39-.19-.56-.08-1-.11-.33-.05-.4.16-.58.36l-.03.05Z" style="fill:#72a9b6;"/><path d="M66.53,158.03c1.36-1.61,2.15-4.29,4.5-4.74,1.6-.27,4.22-.11,4.38,1.96.1,1.64-.52,3.34.49,4.85.71,1.06,1.33,2.29,2.06,3.37,1.59,1.78,4.55.1,6.45-.46.78-.3,1.45-1.05,2.26-.97.83.25,1.72,1.94,1.63,3.01-.35,2.65-2.32,2.94-4.52,3.35-1.9.3-3.99.62-5.8,1.06-1.6.08-2.5,2.17-4.17,1.68-1.74-.51-2.15-2.52-3.17-3.82-1.15-1.33-2.15-2.55-3.73-3.05-4.03-.61-2.07-3.95-.46-6.08l.11-.15Z" style="fill:#72a9b6;"/><path d="M44.21,193.33c-.14-.69,0-1.49.47-2.03.34-.43.59-.97.42-1.55-.5-1.26-.02-2.54.36-3.78.19-.65.63-1.23,1.09-1.49,5.02-3.07,7.57-3.19,7.3,3.58.03,1.21-.02,2.51,0,3.68.04,1.65.15,3.24-1.14,4.57-1.32,1.63-3.06,2.86-5.09,2.94-.74-.13-1.99-.52-2.38-1.32-.48-1.23-.58-3.06-1-4.44l-.03-.16Z" style="fill:#cde9f0;"/><path d="M69.38,189.98c.21-2.33.73-4.66.59-7.11.22-2.07-1.49-5.35,1.66-5.66,1.4-.15,3.23.36,4.54.96,1.71,1.07,3.46,2.04,5.45,2.17,2.08.35.92,1.41.4,2.72-.19.57-.14,1.15-.23,1.74-.27,2.08-1.95,3.69-2.25,5.81-.35,1.79-2.18,2.05-3.72,2.06-.97.08-1.65.57-2.35,1.34-1.07,1.05-1.29,3.47-3.09,3.4-.38-.06-.63-.35-.8-.7-1.11-1.96-.21-4.68-.19-6.58v-.15Z" style="fill:#afd5de;"/><path d="M48.44,216.24c-.5-.66-.32-1.5-.46-2.39-.13-1.04-.62-2.14-.22-3.18,1.38-3.56,6.22-4.63,9.6-4.99,2.76.37,5.52,1.99,8.26,1.93,1.29.34,1.56,2,2.48,2.84,2.3,2.57.44,5.13-2.11,6.54-4.49,2.35-11.61,10.84-15.71,3.77-.73-1.42-.53-3.22-1.74-4.37l-.09-.13Z" style="fill:#16697b;"/><path d="M63.89,235.77c-.32-3.14,2.48-2.83,4.21-4.27,1.47-1.17,3.2-2.52,5.1-2.96,1.91-.43,3.21-1.28,4.72-2.32,2.28-1.13.69.63.12,1.56-.97,1.7-.64,3.61-.3,5.44.47,2.27-.64,4.29-2.06,5.9-1.17.86-2.77.89-4.12,1.35-1.04.26-1.9,1.26-3.03,1.14-2.72-.67-4.93-2.79-4.63-5.64v-.18Z" style="fill:#377e8e;"/><polygon points="72.28 339.14 71.97 339.53 72.28 340.06 72.81 340.62 73.35 340.62 73.35 340.13 72.87 339.68 72.51 339.27 72.42 339.14 72.28 339.14" style="fill:#afd5de;"/><path d="M56.29,353.14c.56.74.65,1.38.96,2.18.77,1.01,1.13,2.32,2.45,2.61.4,0,1.19-.16,1.53-.5.31-.38.94-.8.98-1.35.1-.67.13-1.39.32-2.04.49-1.18-.26-2.12-1.35-1.3-1.13.85-2.86,1.67-4.18.62-.37-.22-.71-.34-.73-.27l.02.06Z" style="fill:#cde9f0;"/><polygon id="uuid-f4b5d11a-0c3d-4697-bcfc-be34fcb04067" points="75.53 126.34 76.54 129.46 79.82 129.46 77.17 131.39 78.18 134.51 75.53 132.58 72.88 134.51 73.89 131.39 71.24 129.46 74.52 129.46 75.53 126.34" style="fill:#1d1d1b; stroke:#fab847; stroke-linecap:round; stroke-linejoin:round; stroke-width:.55px;"/><path d="M92.4,117.47h.66v1.66h.02l1.3-1.66h.73l-2.05,2.58v1.08h-.66v-3.66ZM93.51,119.26l.39-.51,1.33,2.38h-.73l-.99-1.87Z" style="fill:#1d1d1b;"/><path d="M95.69,120.39c0-.62.54-.92,1.9-1.02-.02-.31-.21-.54-.65-.54-.31,0-.62.13-.9.29l-.24-.43c.33-.2.78-.38,1.26-.38.76,0,1.18.42,1.18,1.19v1.63h-.53l-.05-.34h-.02c-.29.22-.66.41-1.03.41-.54,0-.92-.33-.92-.81ZM97.59,120.35v-.58c-.99.07-1.27.27-1.27.56,0,.24.21.35.49.35s.53-.13.79-.33Z" style="fill:#1d1d1b;"/><path d="M99.05,120.39c0-.62.54-.92,1.9-1.02-.02-.31-.21-.54-.65-.54-.31,0-.62.13-.9.29l-.24-.43c.33-.2.78-.38,1.26-.38.76,0,1.18.42,1.18,1.19v1.63h-.53l-.05-.34h-.02c-.29.22-.66.41-1.03.41-.54,0-.92-.33-.92-.81ZM100.96,120.35v-.58c-.99.07-1.27.27-1.27.56,0,.24.21.35.49.35s.53-.13.79-.33Z" style="fill:#1d1d1b;"/><path d="M102.54,118.41l.77-.03h1.67v.51h-2.44v-.48ZM103.29,118.23c0-.65.36-1.12,1.17-1.12.29,0,.57.06.81.15l-.13.48c-.2-.08-.38-.12-.61-.12-.42,0-.6.21-.6.6v2.91h-.64v-2.9Z" style="fill:#1d1d1b;"/><path d="M105.77,120.08v-1.7h.65v1.62c0,.44.14.64.51.64.26,0,.44-.11.69-.41v-1.86h.65v2.75h-.53l-.05-.44h-.02c-.26.3-.57.5-.97.5-.64,0-.92-.41-.92-1.11Z" style="fill:#1d1d1b;"/><path d="M90.46,79.63h.65v3.11h1.72v.55h-2.37v-3.66Z" style="fill:#1d1d1b;"/><path d="M93.61,79.34h.65v1.02l-.04.59h.02c.24-.26.55-.47.97-.47.63,0,.92.41.92,1.11v1.7h-.65v-1.62c0-.44-.14-.64-.51-.64-.27,0-.45.13-.71.39v1.88h-.65v-3.95Z" style="fill:#1d1d1b;"/><path d="M96.9,82.56c0-.62.54-.92,1.9-1.02-.02-.31-.21-.54-.65-.54-.31,0-.62.13-.9.29l-.24-.43c.33-.2.78-.38,1.26-.38.76,0,1.18.42,1.18,1.19v1.63h-.53l-.05-.34h-.02c-.29.22-.66.41-1.03.41-.54,0-.92-.33-.92-.81ZM98.81,82.52v-.58c-.99.07-1.27.27-1.27.56,0,.24.21.35.49.35s.53-.13.79-.33Z" style="fill:#1d1d1b;"/><path d="M100.1,80.54h.66l.53,1.42c.1.28.19.55.28.83h.02c.09-.28.17-.55.27-.83l.53-1.42h.62l-1.07,2.75h-.74l-1.1-2.75Z" style="fill:#1d1d1b;"/><path d="M104.89,81.06h-1.19v-.51h1.84v2.75h-.65v-2.24ZM104.71,79.61c0-.26.19-.44.46-.44s.46.18.46.44-.19.43-.46.43-.46-.17-.46-.43Z" style="fill:#1d1d1b;"/><path d="M106.97,84.37l.12-.5c.07.02.15.04.23.04.35,0,.55-.19.66-.47l.07-.17-1.23-2.72h.65l.56,1.34c.1.25.21.54.3.81h.02c.08-.27.19-.55.27-.81l.5-1.34h.62l-1.15,2.88c-.24.62-.57,1-1.23,1-.15,0-.28-.02-.39-.06Z" style="fill:#1d1d1b;"/><path d="M110.35,82.56c0-.62.54-.92,1.9-1.02-.02-.31-.21-.54-.65-.54-.31,0-.62.13-.9.29l-.24-.43c.33-.2.78-.38,1.26-.38.76,0,1.18.42,1.18,1.19v1.63h-.53l-.05-.34h-.02c-.29.22-.66.41-1.03.41-.54,0-.92-.33-.92-.81ZM112.25,82.52v-.58c-.99.07-1.27.27-1.27.56,0,.24.21.35.49.35s.53-.13.79-.33Z" style="fill:#1d1d1b;"/><path d="M113.77,80.54h.53l.05.41h.02c.26-.27.57-.48.99-.48.64,0,.92.41.92,1.11v1.7h-.65v-1.62c0-.44-.14-.64-.51-.64-.27,0-.45.13-.71.39v1.88h-.65v-2.75Z" style="fill:#1d1d1b;"/><path d="M118.33,81.06h-1.19v-.51h1.84v2.75h-.65v-2.24ZM118.15,79.61c0-.26.19-.44.46-.44s.46.18.46.44-.19.43-.46.43-.46-.17-.46-.43Z" style="fill:#1d1d1b;"/><path d="M81.8,55.35h.68l.97,2.06.33.78h.02c-.03-.37-.09-.84-.09-1.25v-1.59h.62v3.66h-.68l-.97-2.06-.33-.78h-.02c.03.39.09.83.09,1.24v1.6h-.62v-3.66Z" style="fill:#1d1d1b;"/><path d="M85.05,57.64c0-.92.66-1.45,1.38-1.45s1.38.53,1.38,1.45-.66,1.44-1.38,1.44-1.38-.53-1.38-1.44ZM87.15,57.64c0-.55-.27-.92-.72-.92s-.72.36-.72.92.27.91.72.91.72-.36.72-.91Z" style="fill:#1d1d1b;"/><path d="M88.41,57.64c0-.92.66-1.45,1.38-1.45s1.38.53,1.38,1.45-.66,1.44-1.38,1.44-1.38-.53-1.38-1.44ZM90.51,57.64c0-.55-.27-.92-.72-.92s-.72.36-.72.92.27.91.72.91.72-.36.72-.91Z" style="fill:#1d1d1b;"/><path d="M91.93,56.26h.53l.05.41h.02c.26-.27.57-.48.99-.48.64,0,.92.41.92,1.11v1.7h-.65v-1.62c0-.44-.14-.64-.51-.64-.27,0-.45.13-.71.39v1.88h-.65v-2.75Z" style="fill:#1d1d1b;"/><path d="M95.22,57.96v-1.7h.65v1.62c0,.44.14.64.51.64.26,0,.44-.11.69-.41v-1.86h.65v2.75h-.53l-.05-.44h-.02c-.26.3-.57.5-.97.5-.64,0-.92-.41-.92-1.11Z" style="fill:#1d1d1b;"/><path d="M71.57,38.8l.38-.45c.28.25.64.42,1.02.42.43,0,.65-.19.65-.44,0-.33-.25-.41-.61-.56l-.5-.22c-.38-.15-.78-.43-.78-.97,0-.58.52-1.03,1.27-1.03.45,0,.87.17,1.17.47l-.33.41c-.25-.2-.5-.31-.87-.31-.35,0-.58.16-.58.43,0,.29.29.39.62.52l.48.21c.47.18.79.46.79.99,0,.59-.5,1.09-1.36,1.09-.51,0-1-.2-1.36-.54Z" style="fill:#1d1d1b;"/><path d="M75.06,35.31h.65v1.02l-.04.59h.02c.24-.26.55-.47.97-.47.63,0,.92.41.92,1.11v1.7h-.65v-1.62c0-.44-.14-.64-.51-.64-.27,0-.45.13-.71.39v1.88h-.65v-3.95Z" style="fill:#1d1d1b;"/><path d="M78.35,38.53c0-.62.54-.92,1.9-1.02-.02-.31-.21-.54-.65-.54-.31,0-.62.13-.9.29l-.24-.43c.33-.2.78-.38,1.26-.38.76,0,1.18.42,1.18,1.19v1.63h-.53l-.05-.34h-.02c-.29.22-.66.41-1.03.41-.54,0-.92-.33-.92-.81ZM80.25,38.49v-.58c-.99.06-1.27.27-1.27.56,0,.24.21.35.49.35s.53-.13.79-.33Z" style="fill:#1d1d1b;"/><path d="M81.54,36.51h.66l.53,1.42c.1.28.19.55.28.83h.02c.09-.28.17-.55.27-.83l.53-1.42h.62l-1.07,2.75h-.74l-1.1-2.75Z" style="fill:#1d1d1b;"/><path d="M86.34,37.03h-1.19v-.51h1.84v2.75h-.65v-2.24ZM86.16,35.58c0-.26.19-.44.46-.44s.46.18.46.44-.19.43-.46.43-.46-.17-.46-.43Z" style="fill:#1d1d1b;"/><path d="M88.41,40.34l.12-.5c.07.02.15.04.23.04.35,0,.55-.19.66-.47l.07-.17-1.23-2.72h.65l.56,1.34c.1.25.21.53.3.81h.02c.08-.27.19-.55.27-.81l.5-1.34h.62l-1.15,2.88c-.24.62-.57,1-1.23,1-.15,0-.28-.02-.39-.06Z" style="fill:#1d1d1b;"/><path d="M91.79,38.53c0-.62.54-.92,1.9-1.02-.02-.31-.21-.54-.65-.54-.31,0-.62.13-.9.29l-.24-.43c.33-.2.78-.38,1.26-.38.76,0,1.18.42,1.18,1.19v1.63h-.53l-.05-.34h-.02c-.29.22-.66.41-1.03.41-.54,0-.92-.33-.92-.81ZM93.69,38.49v-.58c-.99.06-1.27.27-1.27.56,0,.24.21.35.49.35s.53-.13.79-.33Z" style="fill:#1d1d1b;"/><path d="M95.22,36.51h.53l.05.41h.02c.26-.27.57-.48.99-.48.64,0,.92.41.92,1.11v1.7h-.65v-1.62c0-.44-.14-.64-.51-.64-.27,0-.45.13-.71.39v1.88h-.65v-2.75Z" style="fill:#1d1d1b;"/><path d="M99.78,37.03h-1.19v-.51h1.84v2.75h-.65v-2.24ZM99.6,35.58c0-.26.19-.44.46-.44s.46.18.46.44-.19.43-.46.43-.46-.17-.46-.43Z" style="fill:#1d1d1b;"/><path d="M27.34,64.41h1.22c.76,0,1.35.27,1.35,1.09s-.59,1.14-1.35,1.14h-.57v1.43h-.66v-3.66ZM28.5,66.12c.5,0,.77-.21.77-.62s-.27-.57-.77-.57h-.5v1.19h.5ZM28.91,66.08l1.14,1.99h-.73l-.88-1.6.47-.39Z" style="fill:#1d1d1b;"/><path d="M30.63,67.33c0-.62.54-.92,1.9-1.02-.02-.31-.21-.54-.65-.54-.31,0-.62.13-.9.29l-.24-.43c.33-.2.78-.38,1.26-.38.76,0,1.18.42,1.18,1.19v1.63h-.53l-.05-.34h-.02c-.29.22-.66.41-1.03.41-.54,0-.92-.33-.92-.81ZM32.53,67.3v-.58c-.99.06-1.27.27-1.27.56,0,.24.21.35.49.35s.53-.13.79-.33Z" style="fill:#1d1d1b;"/><path d="M33.99,67.33c0-.62.54-.92,1.9-1.02-.02-.31-.21-.54-.65-.54-.31,0-.62.13-.9.29l-.24-.43c.33-.2.78-.38,1.26-.38.76,0,1.18.42,1.18,1.19v1.63h-.53l-.05-.34h-.02c-.29.22-.66.41-1.03.41-.54,0-.92-.33-.92-.81ZM35.89,67.3v-.58c-.99.06-1.27.27-1.27.56,0,.24.21.35.49.35s.53-.13.79-.33Z" style="fill:#1d1d1b;"/><path d="M24.77,90.21h1.14c.75,0,1.3.23,1.3.9,0,.35-.2.68-.63.79v.02c.53.09.82.37.82.87,0,.73-.58,1.08-1.39,1.08h-1.23v-3.66ZM25.85,91.71c.51,0,.72-.18.72-.53s-.23-.46-.71-.46h-.45v.98h.43ZM25.94,93.35c.54,0,.83-.18.83-.6,0-.39-.28-.54-.83-.54h-.52v1.14h.52Z" style="fill:#1d1d1b;"/><path d="M28.05,93.13c0-.62.54-.92,1.9-1.02-.02-.31-.21-.54-.65-.54-.31,0-.62.13-.9.29l-.24-.43c.33-.2.78-.38,1.26-.38.76,0,1.18.42,1.18,1.19v1.63h-.53l-.05-.34h-.02c-.29.22-.66.41-1.03.41-.54,0-.92-.33-.92-.81ZM29.95,93.09v-.58c-.99.07-1.27.27-1.27.56,0,.24.21.35.49.35s.53-.13.79-.33Z" style="fill:#1d1d1b;"/><path d="M31.41,93.13c0-.62.54-.92,1.9-1.02-.02-.31-.21-.54-.65-.54-.31,0-.62.13-.9.29l-.24-.43c.33-.2.78-.38,1.26-.38.76,0,1.18.42,1.18,1.19v1.63h-.53l-.05-.34h-.02c-.29.22-.66.41-1.03.41-.54,0-.92-.33-.92-.81ZM33.31,93.09v-.58c-.99.07-1.27.27-1.27.56,0,.24.21.35.49.35s.53-.13.79-.33Z" style="fill:#1d1d1b;"/><path d="M2.55,19.05h.65v1.47h1.25v-1.47h.66v3.66h-.66v-1.62h-1.25v1.62h-.65v-3.66Z" style="fill:#1d1d1b;"/><path d="M5.9,21.97c0-.62.54-.92,1.9-1.02-.02-.31-.21-.54-.65-.54-.31,0-.62.13-.9.29l-.24-.43c.33-.2.78-.38,1.26-.38.76,0,1.18.42,1.18,1.19v1.63h-.53l-.05-.34h-.02c-.29.22-.66.41-1.03.41-.54,0-.92-.33-.92-.81ZM7.8,21.94v-.58c-.99.06-1.27.27-1.27.56,0,.24.21.35.49.35s.53-.13.79-.33Z" style="fill:#1d1d1b;"/><path d="M9.26,21.97c0-.62.54-.92,1.9-1.02-.02-.31-.21-.54-.65-.54-.31,0-.62.13-.9.29l-.24-.43c.33-.2.78-.38,1.26-.38.76,0,1.18.42,1.18,1.19v1.63h-.53l-.05-.34h-.02c-.29.22-.66.41-1.03.41-.54,0-.92-.33-.92-.81ZM11.17,21.94v-.58c-.99.06-1.27.27-1.27.56,0,.24.21.35.49.35s.53-.13.79-.33Z" style="fill:#1d1d1b;"/><path d="M16.03,19.05h.96c1.08,0,1.73.6,1.73,1.81s-.65,1.85-1.69,1.85h-.99v-3.66ZM16.95,22.18c.7,0,1.1-.42,1.1-1.32s-.4-1.29-1.1-1.29h-.27v2.6h.27Z" style="fill:#1d1d1b;"/><path d="M19.41,18.76h.65v1.02l-.04.59h.02c.24-.26.55-.47.97-.47.63,0,.92.41.92,1.11v1.7h-.65v-1.62c0-.44-.14-.64-.51-.64-.27,0-.45.13-.71.39v1.88h-.65v-3.95Z" style="fill:#1d1d1b;"/><path d="M22.71,21.97c0-.62.54-.92,1.9-1.02-.02-.31-.21-.54-.65-.54-.31,0-.62.13-.9.29l-.24-.43c.33-.2.78-.38,1.26-.38.76,0,1.18.42,1.18,1.19v1.63h-.53l-.05-.34h-.02c-.29.22-.66.41-1.03.41-.54,0-.92-.33-.92-.81ZM24.61,21.94v-.58c-.99.06-1.27.27-1.27.56,0,.24.21.35.49.35s.53-.13.79-.33Z" style="fill:#1d1d1b;"/><path d="M26.07,21.97c0-.62.54-.92,1.9-1.02-.02-.31-.21-.54-.65-.54-.31,0-.62.13-.9.29l-.24-.43c.33-.2.78-.38,1.26-.38.76,0,1.18.42,1.18,1.19v1.63h-.53l-.05-.34h-.02c-.29.22-.66.41-1.03.41-.54,0-.92-.33-.92-.81ZM27.97,21.94v-.58c-.99.06-1.27.27-1.27.56,0,.24.21.35.49.35s.53-.13.79-.33Z" style="fill:#1d1d1b;"/><path d="M30.29,21.71v-2.44h-.92v-.51h1.57v2.99c0,.37.22.51.49.51.14,0,.29-.03.47-.11l.15.48c-.27.1-.46.16-.78.16-.64,0-.98-.39-.98-1.07Z" style="fill:#1d1d1b;"/><path d="M32.78,21.66v-1.7h.65v1.62c0,.44.14.64.51.64.26,0,.44-.11.69-.41v-1.86h.65v2.75h-.53l-.05-.44h-.02c-.26.3-.57.5-.97.5-.64,0-.92-.41-.92-1.11Z" style="fill:#1d1d1b;"/><path d="M10.47,1.64h.65v1.47h1.25v-1.47h.66v3.66h-.66v-1.62h-1.25v1.62h-.65V1.64Z" style="fill:#1d1d1b;"/><path d="M13.82,4.56c0-.62.54-.92,1.9-1.02-.02-.31-.21-.54-.65-.54-.31,0-.62.13-.9.29l-.24-.43c.33-.2.78-.38,1.26-.38.76,0,1.18.42,1.18,1.19v1.63h-.53l-.05-.34h-.02c-.29.22-.66.41-1.03.41-.54,0-.92-.33-.92-.81ZM15.72,4.52v-.58c-.99.06-1.27.27-1.27.56,0,.24.21.35.49.35s.53-.13.79-.33Z" style="fill:#1d1d1b;"/><path d="M17.18,4.56c0-.62.54-.92,1.9-1.02-.02-.31-.21-.54-.65-.54-.31,0-.62.13-.9.29l-.24-.43c.33-.2.78-.38,1.26-.38.76,0,1.18.42,1.18,1.19v1.63h-.53l-.05-.34h-.02c-.29.22-.66.41-1.03.41-.54,0-.92-.33-.92-.81ZM19.08,4.52v-.58c-.99.06-1.27.27-1.27.56,0,.24.21.35.49.35s.53-.13.79-.33Z" style="fill:#1d1d1b;"/><path d="M24.81,1.64h.77l1.19,3.66h-.69l-.55-1.95c-.11-.39-.23-.8-.33-1.21h-.02c-.1.41-.21.82-.32,1.21l-.56,1.95h-.67l1.19-3.66ZM24.33,3.8h1.72v.51h-1.72v-.51Z" style="fill:#1d1d1b;"/><path d="M28.13,4.3V1.86h-.92v-.51h1.57v2.99c0,.37.22.51.49.51.14,0,.29-.03.47-.11l.15.48c-.27.1-.46.16-.78.16-.64,0-.98-.39-.98-1.07Z" style="fill:#1d1d1b;"/><path d="M31.89,3.06h-1.19v-.51h1.84v2.75h-.65v-2.24ZM31.71,1.62c0-.26.19-.44.46-.44s.46.18.46.44-.19.43-.46.43-.46-.17-.46-.43Z" style="fill:#1d1d1b;"/><path d="M34.11,2.58l.77-.03h1.67v.51h-2.44v-.48ZM34.87,2.4c0-.65.36-1.12,1.17-1.12.29,0,.57.06.81.15l-.13.48c-.2-.08-.38-.12-.61-.12-.42,0-.6.21-.6.6v2.91h-.64v-2.9Z" style="fill:#1d1d1b;"/><path d="M88.14,128.28h.72l.44,1.43.15.55h.02l.15-.55.44-1.43h.72v3.66h-.58v-1.48c0-.39.06-1.15.09-1.5h-.02l-.25.85-.4,1.16h-.37l-.4-1.16-.24-.85h-.02c.04.35.1,1.12.1,1.5v1.48h-.56v-3.66Z" style="fill:#1d1d1b;"/><path d="M91.54,131.2c0-.62.54-.92,1.9-1.02-.02-.31-.21-.54-.65-.54-.31,0-.62.13-.9.29l-.24-.43c.33-.2.78-.38,1.26-.38.76,0,1.18.42,1.18,1.19v1.63h-.53l-.05-.34h-.02c-.29.22-.66.41-1.03.41-.54,0-.92-.33-.92-.81ZM93.44,131.16v-.58c-.99.06-1.27.27-1.27.56,0,.24.21.35.49.35s.53-.13.79-.33Z" style="fill:#1d1d1b;"/><path d="M95.77,130.94v-2.44h-.92v-.51h1.57v2.99c0,.37.22.51.49.51.14,0,.29-.03.47-.11l.15.48c-.27.1-.46.16-.78.16-.64,0-.98-.39-.98-1.07Z" style="fill:#1d1d1b;"/><path d="M98.21,130.56c0-.9.68-1.44,1.42-1.44.82,0,1.28.54,1.28,1.31,0,.13-.02.25-.03.33h-2.2v-.46h1.79l-.12.14c0-.54-.26-.82-.69-.82-.46,0-.81.33-.81.94s.39.95.96.95c.29,0,.53-.08.77-.22l.22.4c-.29.19-.67.33-1.08.33-.84,0-1.5-.53-1.5-1.45ZM99.22,128.46l.83-.98.44.43-.95.87-.33-.32Z" style="fill:#1d1d1b;"/><path d="M87.78,132.64v-.28h13.44v.28h-13.44Z" style="fill:#1d1d1b;"/><path d="M5.79,123.76h.77l1.19,3.66h-.69l-.55-1.95c-.11-.39-.23-.8-.33-1.21h-.02c-.1.41-.21.82-.32,1.21l-.56,1.95h-.67l1.19-3.66ZM5.3,125.92h1.72v.51h-1.72v-.51Z" style="fill:#1d1d1b;"/><path d="M9.11,126.42v-2.44h-.92v-.51h1.57v2.99c0,.37.22.51.49.51.14,0,.29-.03.47-.11l.15.48c-.27.1-.46.16-.78.16-.64,0-.98-.39-.98-1.07Z" style="fill:#1d1d1b;"/><path d="M12.87,125.19h-1.19v-.51h1.84v2.75h-.65v-2.24ZM12.69,123.74c0-.26.19-.44.46-.44s.46.18.46.44-.19.43-.46.43-.46-.17-.46-.43Z" style="fill:#1d1d1b;"/><path d="M15.09,124.7l.77-.03h1.67v.51h-2.44v-.48ZM15.84,124.52c0-.65.36-1.12,1.17-1.12.29,0,.57.06.81.15l-.13.48c-.2-.08-.38-.12-.61-.12-.42,0-.6.21-.6.6v2.91h-.64v-2.9Z" style="fill:#1d1d1b;"/><path d="M22.59,123.76h.77l1.19,3.66h-.69l-.55-1.95c-.11-.39-.23-.8-.33-1.21h-.02c-.1.41-.21.82-.32,1.21l-.56,1.95h-.67l1.19-3.66ZM22.11,125.92h1.72v.51h-1.72v-.51Z" style="fill:#1d1d1b;"/><path d="M25.91,126.42v-2.44h-.92v-.51h1.57v2.99c0,.37.22.51.49.51.14,0,.29-.03.47-.11l.15.48c-.27.1-.46.16-.78.16-.64,0-.98-.39-.98-1.07Z" style="fill:#1d1d1b;"/><path d="M29.67,125.19h-1.19v-.51h1.84v2.75h-.65v-2.24ZM29.49,123.74c0-.26.19-.44.46-.44s.46.18.46.44-.19.43-.46.43-.46-.17-.46-.43Z" style="fill:#1d1d1b;"/><path d="M31.89,124.7l.77-.03h1.67v.51h-2.44v-.48ZM32.65,124.52c0-.65.36-1.12,1.17-1.12.29,0,.57.06.81.15l-.13.48c-.2-.08-.38-.12-.61-.12-.42,0-.6.21-.6.6v2.91h-.64v-2.9Z" style="fill:#1d1d1b;"/><path d="M1.3,147.82h.77l1.19,3.66h-.69l-.55-1.95c-.11-.39-.23-.8-.33-1.21h-.02c-.1.41-.21.82-.32,1.21l-.56,1.95H.11l1.19-3.66ZM.81,149.97h1.72v.51H.81v-.51Z" style="fill:#1d1d1b;"/><path d="M4.62,150.48v-2.44h-.92v-.51h1.57v2.99c0,.37.22.51.49.51.14,0,.29-.03.47-.11l.15.48c-.27.1-.46.16-.78.16-.64,0-.98-.39-.98-1.07Z" style="fill:#1d1d1b;"/><path d="M8.38,149.24h-1.19v-.51h1.84v2.75h-.65v-2.24ZM8.2,147.79c0-.26.19-.44.46-.44s.46.18.46.44-.19.43-.46.43-.46-.17-.46-.43Z" style="fill:#1d1d1b;"/><path d="M10.6,148.76l.77-.03h1.67v.51h-2.44v-.48ZM11.35,148.58c0-.65.36-1.12,1.17-1.12.29,0,.57.06.81.15l-.13.48c-.2-.08-.38-.12-.61-.12-.42,0-.6.21-.6.6v2.91h-.64v-2.9Z" style="fill:#1d1d1b;"/><path d="M17.24,147.82h.96c1.08,0,1.73.6,1.73,1.81s-.65,1.85-1.69,1.85h-.99v-3.66ZM18.16,150.95c.7,0,1.1-.42,1.1-1.32s-.4-1.29-1.1-1.29h-.27v2.6h.27Z" style="fill:#1d1d1b;"/><path d="M20.62,147.52h.65v1.02l-.04.59h.02c.24-.26.55-.47.97-.47.63,0,.92.41.92,1.11v1.7h-.65v-1.62c0-.44-.14-.64-.51-.64-.27,0-.45.13-.71.39v1.88h-.65v-3.95Z" style="fill:#1d1d1b;"/><path d="M23.92,150.74c0-.62.54-.92,1.9-1.02-.02-.31-.21-.54-.65-.54-.31,0-.62.13-.9.29l-.24-.43c.33-.2.78-.38,1.26-.38.76,0,1.18.42,1.18,1.19v1.63h-.53l-.05-.34h-.02c-.29.22-.66.41-1.03.41-.54,0-.92-.33-.92-.81ZM25.82,150.7v-.58c-.99.07-1.27.27-1.27.56,0,.24.21.35.49.35s.53-.13.79-.33Z" style="fill:#1d1d1b;"/><path d="M27.28,150.74c0-.62.54-.92,1.9-1.02-.02-.31-.21-.54-.65-.54-.31,0-.62.13-.9.29l-.24-.43c.33-.2.78-.38,1.26-.38.76,0,1.18.42,1.18,1.19v1.63h-.53l-.05-.34h-.02c-.29.22-.66.41-1.03.41-.54,0-.92-.33-.92-.81ZM29.18,150.7v-.58c-.99.07-1.27.27-1.27.56,0,.24.21.35.49.35s.53-.13.79-.33Z" style="fill:#1d1d1b;"/><path d="M31.51,150.48v-2.44h-.92v-.51h1.57v2.99c0,.37.22.51.49.51.14,0,.29-.03.47-.11l.15.48c-.27.1-.46.16-.78.16-.64,0-.98-.39-.98-1.07Z" style="fill:#1d1d1b;"/><path d="M95.82,161.58h.69l.51,1.84c.12.42.2.78.32,1.19h.02c.12-.41.21-.77.32-1.19l.51-1.84h.67l-1.13,3.66h-.78l-1.14-3.66Z" style="fill:#1d1d1b;"/><path d="M99.42,164.5c0-.62.54-.92,1.9-1.02-.02-.31-.21-.54-.65-.54-.31,0-.62.13-.9.29l-.24-.43c.33-.2.78-.38,1.26-.38.76,0,1.18.42,1.18,1.19v1.63h-.53l-.05-.34h-.02c-.29.22-.66.41-1.03.41-.54,0-.92-.33-.92-.81ZM101.32,164.46v-.58c-.99.07-1.27.27-1.27.56,0,.24.21.35.49.35s.53-.13.79-.33Z" style="fill:#1d1d1b;"/><path d="M102.78,164.5c0-.62.54-.92,1.9-1.02-.02-.31-.21-.54-.65-.54-.31,0-.62.13-.9.29l-.24-.43c.33-.2.78-.38,1.26-.38.76,0,1.18.42,1.18,1.19v1.63h-.53l-.05-.34h-.02c-.29.22-.66.41-1.03.41-.54,0-.92-.33-.92-.81ZM104.68,164.46v-.58c-.99.07-1.27.27-1.27.56,0,.24.21.35.49.35s.53-.13.79-.33Z" style="fill:#1d1d1b;"/><path d="M105.97,162.49h.66l.53,1.42c.1.28.19.55.28.83h.02c.09-.28.17-.55.27-.83l.53-1.42h.62l-1.07,2.75h-.74l-1.1-2.75Z" style="fill:#1d1d1b;"/><path d="M109.49,164.19v-1.7h.65v1.62c0,.44.14.64.51.64.26,0,.44-.11.69-.41v-1.86h.65v2.75h-.53l-.05-.44h-.02c-.26.3-.57.5-.97.5-.64,0-.92-.41-.92-1.11Z" style="fill:#1d1d1b;"/><path d="M88.14,185.22h.72l.44,1.43.15.55h.02l.15-.55.44-1.43h.72v3.66h-.58v-1.48c0-.38.06-1.15.09-1.5h-.02l-.25.85-.4,1.16h-.37l-.4-1.16-.24-.85h-.02c.04.35.1,1.12.1,1.5v1.48h-.56v-3.66Z" style="fill:#1d1d1b;"/><path d="M91.49,187.5c0-.9.68-1.44,1.42-1.44.82,0,1.28.54,1.28,1.3,0,.13-.02.25-.03.33h-2.2v-.46h1.79l-.12.14c0-.54-.26-.82-.69-.82-.46,0-.81.33-.81.94s.39.94.96.94c.29,0,.53-.08.77-.22l.22.4c-.29.19-.67.33-1.08.33-.84,0-1.5-.53-1.5-1.45Z" style="fill:#1d1d1b;"/><path d="M94.85,187.5c0-.9.68-1.44,1.42-1.44.82,0,1.28.54,1.28,1.3,0,.13-.02.25-.03.33h-2.2v-.46h1.79l-.12.14c0-.54-.26-.82-.69-.82-.46,0-.81.33-.81.94s.39.94.96.94c.29,0,.53-.08.77-.22l.22.4c-.29.19-.67.33-1.08.33-.84,0-1.5-.53-1.5-1.45Z" style="fill:#1d1d1b;"/><path d="M98.12,186.13h.5l.05.35h.02c.12-.24.29-.42.61-.42.25,0,.43.16.5.46.13-.27.31-.46.63-.46.39,0,.61.32.61.87v1.95h-.62v-1.9c0-.24-.06-.36-.22-.36s-.23.11-.34.34v1.92h-.54v-1.9c0-.24-.06-.36-.22-.36-.14,0-.24.11-.34.34v1.92h-.62v-2.75Z" style="fill:#1d1d1b;"/><path d="M101.61,187.84v-1.7h.65v1.62c0,.44.14.64.51.64.26,0,.44-.11.69-.41v-1.86h.65v2.75h-.53l-.05-.44h-.02c-.26.3-.57.5-.97.5-.64,0-.92-.41-.92-1.11Z" style="fill:#1d1d1b;"/><path d="M20.87,172.11h2.34v.55h-1.69v1.04h1.44v.55h-1.44v1.53h-.65v-3.66Z" style="fill:#1d1d1b;"/><path d="M23.96,175.03c0-.62.54-.92,1.9-1.02-.02-.31-.21-.54-.65-.54-.31,0-.62.13-.9.29l-.24-.43c.33-.2.78-.38,1.26-.38.76,0,1.18.42,1.18,1.19v1.63h-.53l-.05-.34h-.02c-.29.22-.66.41-1.03.41-.54,0-.92-.33-.92-.81ZM25.86,174.99v-.58c-.99.06-1.27.27-1.27.56,0,.24.21.35.49.35s.53-.13.79-.33Z" style="fill:#1d1d1b;"/><path d="M27.32,175.03c0-.62.54-.92,1.9-1.02-.02-.31-.21-.54-.65-.54-.31,0-.62.13-.9.29l-.24-.43c.33-.2.78-.38,1.26-.38.76,0,1.18.42,1.18,1.19v1.63h-.53l-.05-.34h-.02c-.29.22-.66.41-1.03.41-.54,0-.92-.33-.92-.81ZM29.22,174.99v-.58c-.99.06-1.27.27-1.27.56,0,.24.21.35.49.35s.53-.13.79-.33Z" style="fill:#1d1d1b;"/><path d="M30.81,173.05l.77-.03h1.67v.51h-2.44v-.48ZM31.56,172.87c0-.65.36-1.12,1.17-1.12.29,0,.57.06.81.15l-.13.48c-.2-.08-.38-.12-.61-.12-.42,0-.6.21-.6.6v2.91h-.64v-2.9Z" style="fill:#1d1d1b;"/><path d="M34.04,174.72v-1.7h.65v1.62c0,.44.14.64.51.64.26,0,.44-.11.69-.41v-1.86h.65v2.75h-.53l-.05-.44h-.02c-.26.3-.57.5-.97.5-.64,0-.92-.41-.92-1.11Z" style="fill:#1d1d1b;"/><path d="M17.64,191.03h.96c1.08,0,1.73.6,1.73,1.81s-.65,1.85-1.69,1.85h-.99v-3.66ZM18.56,194.16c.7,0,1.1-.42,1.1-1.32s-.4-1.29-1.1-1.29h-.27v2.6h.27Z" style="fill:#1d1d1b;"/><path d="M21.02,190.73h.65v1.02l-.04.59h.02c.24-.26.55-.47.97-.47.63,0,.92.41.92,1.11v1.7h-.65v-1.62c0-.44-.14-.64-.51-.64-.27,0-.45.13-.71.39v1.88h-.65v-3.95Z" style="fill:#1d1d1b;"/><path d="M24.31,193.95c0-.62.54-.92,1.9-1.02-.02-.31-.21-.54-.65-.54-.31,0-.62.13-.9.29l-.24-.43c.33-.2.78-.38,1.26-.38.76,0,1.18.42,1.18,1.19v1.63h-.53l-.05-.34h-.02c-.29.22-.66.41-1.03.41-.54,0-.92-.33-.92-.81ZM26.21,193.91v-.58c-.99.06-1.27.27-1.27.56,0,.24.21.35.49.35s.53-.13.79-.33Z" style="fill:#1d1d1b;"/><path d="M27.67,193.95c0-.62.54-.92,1.9-1.02-.02-.31-.21-.54-.65-.54-.31,0-.62.13-.9.29l-.24-.43c.33-.2.78-.38,1.26-.38.76,0,1.18.42,1.18,1.19v1.63h-.53l-.05-.34h-.02c-.29.22-.66.41-1.03.41-.54,0-.92-.33-.92-.81ZM29.57,193.91v-.58c-.99.06-1.27.27-1.27.56,0,.24.21.35.49.35s.53-.13.79-.33Z" style="fill:#1d1d1b;"/><path d="M31.9,193.69v-2.44h-.92v-.51h1.57v2.99c0,.37.22.51.49.51.14,0,.29-.03.47-.11l.15.48c-.27.1-.46.16-.78.16-.64,0-.98-.39-.98-1.07Z" style="fill:#1d1d1b;"/><path d="M34.39,193.64v-1.7h.65v1.62c0,.44.14.64.51.64.26,0,.44-.11.69-.41v-1.86h.65v2.75h-.53l-.05-.44h-.02c-.26.3-.57.5-.97.5-.64,0-.92-.41-.92-1.11Z" style="fill:#1d1d1b;"/><path d="M28.23,214.36h-1.15v-.55h2.96v.55h-1.15v3.11h-.65v-3.11Z" style="fill:#1d1d1b;"/><path d="M30.69,213.52h.65v1.02l-.04.59h.02c.24-.26.55-.47.97-.47.63,0,.92.41.92,1.11v1.7h-.65v-1.62c0-.44-.14-.64-.51-.64-.27,0-.45.13-.71.39v1.88h-.65v-3.95Z" style="fill:#1d1d1b;"/><path d="M33.99,216.74c0-.62.54-.92,1.9-1.02-.02-.31-.21-.54-.65-.54-.31,0-.62.13-.9.29l-.24-.43c.33-.2.78-.38,1.26-.38.76,0,1.18.42,1.18,1.19v1.63h-.53l-.05-.34h-.02c-.29.22-.66.41-1.03.41-.54,0-.92-.33-.92-.81ZM35.89,216.7v-.58c-.99.07-1.27.27-1.27.56,0,.24.21.35.49.35s.53-.13.79-.33Z" style="fill:#1d1d1b;"/><path d="M37.35,216.74c0-.62.54-.92,1.9-1.02-.02-.31-.21-.54-.65-.54-.31,0-.62.13-.9.29l-.24-.43c.33-.2.78-.38,1.26-.38.76,0,1.18.42,1.18,1.19v1.63h-.53l-.05-.34h-.02c-.29.22-.66.41-1.03.41-.54,0-.92-.33-.92-.81ZM39.25,216.7v-.58c-.99.07-1.27.27-1.27.56,0,.24.21.35.49.35s.53-.13.79-.33Z" style="fill:#1d1d1b;"/><path d="M37.43,234.23h.65v3.11h1.72v.55h-2.37v-3.66Z" style="fill:#1d1d1b;"/><path d="M40.51,237.16c0-.62.54-.92,1.9-1.02-.02-.31-.21-.54-.65-.54-.31,0-.62.13-.9.29l-.24-.43c.33-.2.78-.38,1.26-.38.76,0,1.18.42,1.18,1.19v1.63h-.53l-.05-.34h-.02c-.29.22-.66.41-1.03.41-.54,0-.92-.33-.92-.81ZM42.41,237.12v-.58c-.99.07-1.27.27-1.27.56,0,.24.21.35.49.35s.53-.13.79-.33Z" style="fill:#1d1d1b;"/><path d="M43.87,237.16c0-.62.54-.92,1.9-1.02-.02-.31-.21-.54-.65-.54-.31,0-.62.13-.9.29l-.24-.43c.33-.2.78-.38,1.26-.38.76,0,1.18.42,1.18,1.19v1.63h-.53l-.05-.34h-.02c-.29.22-.66.41-1.03.41-.54,0-.92-.33-.92-.81ZM45.77,237.12v-.58c-.99.07-1.27.27-1.27.56,0,.24.21.35.49.35s.53-.13.79-.33Z" style="fill:#1d1d1b;"/><path d="M47.1,235.14h.5l.05.35h.02c.12-.24.29-.42.61-.42.25,0,.43.16.5.46.13-.27.31-.46.63-.46.39,0,.61.32.61.87v1.95h-.62v-1.9c0-.24-.06-.36-.22-.36s-.23.11-.34.34v1.92h-.54v-1.9c0-.24-.06-.36-.22-.36-.14,0-.24.11-.34.34v1.92h-.62v-2.75Z" style="fill:#1d1d1b;"/><path d="M50.59,236.85v-1.7h.65v1.62c0,.44.14.64.51.64.26,0,.44-.11.69-.41v-1.86h.65v2.75h-.53l-.05-.44h-.02c-.26.3-.57.5-.97.5-.64,0-.92-.41-.92-1.11Z" style="fill:#1d1d1b;"/><path d="M22.41,286.16c0-1.2.71-1.91,1.66-1.91.49,0,.82.23,1.04.46l-.36.41c-.17-.17-.36-.29-.68-.29-.58,0-.98.5-.98,1.32s.35,1.34,1,1.34c.2,0,.38-.06.49-.16v-.79h-.63v-.53h1.22v1.62c-.24.23-.65.43-1.12.43-.93,0-1.63-.67-1.63-1.89Z" style="fill:#1d1d1b;"/><path d="M25.9,287.24c0-.62.54-.92,1.9-1.02-.02-.31-.21-.54-.65-.54-.31,0-.62.13-.9.29l-.24-.43c.33-.2.78-.38,1.26-.38.76,0,1.18.42,1.18,1.19v1.63h-.53l-.05-.34h-.02c-.29.22-.66.41-1.03.41-.54,0-.92-.33-.92-.81ZM27.8,287.21v-.58c-.99.07-1.27.27-1.27.56,0,.24.21.35.49.35s.53-.13.79-.33Z" style="fill:#1d1d1b;"/><path d="M29.26,287.24c0-.62.54-.92,1.9-1.02-.02-.31-.21-.54-.65-.54-.31,0-.62.13-.9.29l-.24-.43c.33-.2.78-.38,1.26-.38.76,0,1.18.42,1.18,1.19v1.63h-.53l-.05-.34h-.02c-.29.22-.66.41-1.03.41-.54,0-.92-.33-.92-.81ZM31.16,287.21v-.58c-.99.07-1.27.27-1.27.56,0,.24.21.35.49.35s.53-.13.79-.33Z" style="fill:#1d1d1b;"/><path d="M32.74,285.26l.77-.03h1.67v.51h-2.44v-.48ZM33.5,285.08c0-.65.36-1.12,1.17-1.12.29,0,.57.06.81.15l-.13.48c-.2-.08-.38-.12-.61-.12-.42,0-.6.21-.6.6v2.91h-.64v-2.9Z" style="fill:#1d1d1b;"/><path d="M35.97,286.94v-1.7h.65v1.62c0,.44.14.64.51.64.26,0,.44-.11.69-.41v-1.86h.65v2.75h-.53l-.05-.44h-.02c-.26.3-.57.5-.97.5-.64,0-.92-.41-.92-1.11Z" style="fill:#1d1d1b;"/><path d="M43.6,284.32h.77l1.19,3.66h-.69l-.55-1.95c-.11-.39-.23-.8-.33-1.21h-.02c-.1.41-.21.82-.32,1.21l-.56,1.95h-.67l1.19-3.66ZM43.12,286.48h1.72v.51h-1.72v-.51Z" style="fill:#1d1d1b;"/><path d="M46.93,286.98v-2.44h-.92v-.51h1.57v2.99c0,.37.22.51.49.51.14,0,.29-.03.47-.11l.15.48c-.27.1-.46.16-.78.16-.64,0-.98-.39-.98-1.07Z" style="fill:#1d1d1b;"/><path d="M50.68,285.75h-1.19v-.51h1.84v2.75h-.65v-2.24ZM50.5,284.3c0-.26.19-.44.46-.44s.46.18.46.44-.19.43-.46.43-.46-.17-.46-.43Z" style="fill:#1d1d1b;"/><path d="M52.9,285.26l.77-.03h1.67v.51h-2.44v-.48ZM53.66,285.08c0-.65.36-1.12,1.17-1.12.29,0,.57.06.81.15l-.13.48c-.2-.08-.38-.12-.61-.12-.42,0-.6.21-.6.6v2.91h-.64v-2.9Z" style="fill:#1d1d1b;"/><path d="M2.85,307.01c0-1.2.71-1.91,1.66-1.91.49,0,.82.23,1.04.46l-.36.41c-.17-.17-.36-.3-.68-.3-.58,0-.98.5-.98,1.32s.35,1.34,1,1.34c.2,0,.38-.06.49-.16v-.79h-.63v-.53h1.22v1.62c-.24.23-.65.43-1.12.43-.93,0-1.63-.67-1.63-1.89Z" style="fill:#1d1d1b;"/><path d="M6.33,308.1c0-.62.54-.92,1.9-1.02-.02-.31-.21-.54-.65-.54-.31,0-.62.13-.9.29l-.24-.43c.33-.2.78-.38,1.26-.38.76,0,1.18.42,1.18,1.19v1.63h-.53l-.05-.34h-.02c-.29.22-.66.41-1.03.41-.54,0-.92-.33-.92-.81ZM8.23,308.06v-.58c-.99.06-1.27.27-1.27.56,0,.24.21.35.49.35s.53-.13.79-.33Z" style="fill:#1d1d1b;"/><path d="M9.69,308.1c0-.62.54-.92,1.9-1.02-.02-.31-.21-.54-.65-.54-.31,0-.62.13-.9.29l-.24-.43c.33-.2.78-.38,1.26-.38.76,0,1.18.42,1.18,1.19v1.63h-.53l-.05-.34h-.02c-.29.22-.66.41-1.03.41-.54,0-.92-.33-.92-.81ZM11.6,308.06v-.58c-.99.06-1.27.27-1.27.56,0,.24.21.35.49.35s.53-.13.79-.33Z" style="fill:#1d1d1b;"/><path d="M13.18,306.12l.77-.03h1.67v.51h-2.44v-.48ZM13.93,305.94c0-.65.36-1.12,1.17-1.12.29,0,.57.06.81.15l-.13.48c-.2-.08-.38-.12-.61-.12-.42,0-.6.21-.6.6v2.91h-.64v-2.9Z" style="fill:#1d1d1b;"/><path d="M16.41,307.79v-1.7h.65v1.62c0,.44.14.64.51.64.26,0,.44-.11.69-.41v-1.86h.65v2.75h-.53l-.05-.44h-.02c-.26.3-.57.5-.97.5-.64,0-.92-.41-.92-1.11Z" style="fill:#1d1d1b;"/><path d="M23.18,305.17h.96c1.08,0,1.73.6,1.73,1.81s-.65,1.85-1.69,1.85h-.99v-3.66ZM24.1,308.31c.7,0,1.1-.42,1.1-1.32s-.4-1.29-1.1-1.29h-.27v2.6h.27Z" style="fill:#1d1d1b;"/><path d="M26.56,304.88h.65v1.02l-.04.59h.02c.24-.26.55-.47.97-.47.63,0,.92.41.92,1.11v1.7h-.65v-1.62c0-.44-.14-.64-.51-.64-.27,0-.45.13-.71.39v1.88h-.65v-3.95Z" style="fill:#1d1d1b;"/><path d="M29.86,308.1c0-.62.54-.92,1.9-1.02-.02-.31-.21-.54-.65-.54-.31,0-.62.13-.9.29l-.24-.43c.33-.2.78-.38,1.26-.38.76,0,1.18.42,1.18,1.19v1.63h-.53l-.05-.34h-.02c-.29.22-.66.41-1.03.41-.54,0-.92-.33-.92-.81ZM31.76,308.06v-.58c-.99.06-1.27.27-1.27.56,0,.24.21.35.49.35s.53-.13.79-.33Z" style="fill:#1d1d1b;"/><path d="M33.22,308.1c0-.62.54-.92,1.9-1.02-.02-.31-.21-.54-.65-.54-.31,0-.62.13-.9.29l-.24-.43c.33-.2.78-.38,1.26-.38.76,0,1.18.42,1.18,1.19v1.63h-.53l-.05-.34h-.02c-.29.22-.66.41-1.03.41-.54,0-.92-.33-.92-.81ZM35.12,308.06v-.58c-.99.06-1.27.27-1.27.56,0,.24.21.35.49.35s.53-.13.79-.33Z" style="fill:#1d1d1b;"/><path d="M37.45,307.83v-2.44h-.92v-.51h1.57v2.99c0,.37.22.51.49.51.14,0,.29-.03.47-.11l.15.48c-.27.1-.46.16-.78.16-.64,0-.98-.39-.98-1.07Z" style="fill:#1d1d1b;"/><path d="M39.93,307.79v-1.7h.65v1.62c0,.44.14.64.51.64.26,0,.44-.11.69-.41v-1.86h.65v2.75h-.53l-.05-.44h-.02c-.26.3-.57.5-.97.5-.64,0-.92-.41-.92-1.11Z" style="fill:#1d1d1b;"/><path d="M38.53,338.83c0-1.2.71-1.91,1.66-1.91.49,0,.82.23,1.04.46l-.36.41c-.17-.17-.36-.29-.68-.29-.58,0-.98.5-.98,1.32s.35,1.34,1,1.34c.2,0,.38-.06.49-.16v-.79h-.63v-.53h1.22v1.62c-.24.23-.65.43-1.12.43-.93,0-1.63-.67-1.63-1.89Z" style="fill:#1d1d1b;"/><path d="M42.09,337.9h.53l.05.41h.02c.26-.27.57-.48.99-.48.64,0,.92.41.92,1.11v1.7h-.65v-1.62c0-.44-.14-.64-.51-.64-.27,0-.45.13-.71.39v1.88h-.65v-2.75Z" style="fill:#1d1d1b;"/><path d="M45.38,339.91c0-.62.54-.92,1.9-1.02-.02-.31-.21-.54-.65-.54-.31,0-.62.13-.9.29l-.24-.43c.33-.2.78-.38,1.26-.38.76,0,1.18.42,1.18,1.19v1.63h-.53l-.05-.34h-.02c-.29.22-.66.41-1.03.41-.54,0-.92-.33-.92-.8ZM47.28,339.87v-.58c-.99.06-1.27.27-1.27.56,0,.24.21.35.49.35s.53-.13.79-.33Z" style="fill:#1d1d1b;"/><path d="M48.57,337.9h.66l.53,1.42c.1.28.19.55.28.83h.02c.09-.28.17-.55.27-.83l.53-1.42h.62l-1.07,2.75h-.74l-1.1-2.75Z" style="fill:#1d1d1b;"/><path d="M53.36,338.41h-1.19v-.51h1.84v2.75h-.65v-2.24ZM53.19,336.97c0-.26.19-.44.46-.44s.46.18.46.44-.19.43-.46.43-.46-.17-.46-.43Z" style="fill:#1d1d1b;"/><path d="M55.44,341.72l.12-.5c.07.02.15.04.23.04.35,0,.55-.19.66-.47l.07-.17-1.23-2.72h.65l.56,1.34c.1.25.21.54.3.81h.02c.08-.27.19-.55.27-.81l.5-1.34h.62l-1.15,2.88c-.24.62-.57,1-1.23,1-.15,0-.28-.02-.39-.06Z" style="fill:#1d1d1b;"/><path d="M58.82,339.91c0-.62.54-.92,1.9-1.02-.02-.31-.21-.54-.65-.54-.31,0-.62.13-.9.29l-.24-.43c.33-.2.78-.38,1.26-.38.76,0,1.18.42,1.18,1.19v1.63h-.53l-.05-.34h-.02c-.29.22-.66.41-1.03.41-.54,0-.92-.33-.92-.8ZM60.72,339.87v-.58c-.99.06-1.27.27-1.27.56,0,.24.21.35.49.35s.53-.13.79-.33Z" style="fill:#1d1d1b;"/><path d="M62.25,337.9h.53l.05.41h.02c.26-.27.57-.48.99-.48.64,0,.92.41.92,1.11v1.7h-.65v-1.62c0-.44-.14-.64-.51-.64-.27,0-.45.13-.71.39v1.88h-.65v-2.75Z" style="fill:#1d1d1b;"/><path d="M66.81,338.41h-1.19v-.51h1.84v2.75h-.65v-2.24ZM66.63,336.97c0-.26.19-.44.46-.44s.46.18.46.44-.19.43-.46.43-.46-.17-.46-.43Z" style="fill:#1d1d1b;"/><path d="M31.28,355.87l.38-.45c.28.25.64.42,1.02.42.43,0,.65-.19.65-.44,0-.33-.25-.41-.61-.56l-.5-.22c-.38-.15-.78-.43-.78-.97,0-.58.52-1.03,1.27-1.03.45,0,.87.17,1.17.47l-.33.41c-.25-.2-.5-.31-.87-.31-.35,0-.58.16-.58.43,0,.29.29.39.62.52l.48.21c.47.18.79.46.79.99,0,.59-.5,1.09-1.36,1.09-.51,0-1-.2-1.36-.54Z" style="fill:#1d1d1b;"/><path d="M34.66,354.96c0-.9.68-1.44,1.42-1.44.82,0,1.28.54,1.28,1.3,0,.13-.02.25-.03.33h-2.2v-.46h1.79l-.12.14c0-.54-.26-.82-.69-.82-.46,0-.81.33-.81.94s.39.94.96.94c.29,0,.53-.08.77-.22l.22.4c-.29.19-.67.33-1.08.33-.84,0-1.5-.53-1.5-1.45Z" style="fill:#1d1d1b;"/><path d="M38.02,354.96c0-.9.68-1.44,1.42-1.44.82,0,1.28.54,1.28,1.3,0,.13-.02.25-.03.33h-2.2v-.46h1.79l-.12.14c0-.54-.26-.82-.69-.82-.46,0-.81.33-.81.94s.39.94.96.94c.29,0,.53-.08.77-.22l.22.4c-.29.19-.67.33-1.08.33-.84,0-1.5-.53-1.5-1.45Z" style="fill:#1d1d1b;"/><path d="M41.5,353.59h.53l.05.41h.02c.26-.27.57-.48.99-.48.64,0,.92.41.92,1.11v1.7h-.65v-1.62c0-.44-.14-.64-.51-.64-.27,0-.45.13-.71.39v1.88h-.65v-2.75Z" style="fill:#1d1d1b;"/><path d="M44.78,355.3v-1.7h.65v1.62c0,.44.14.64.51.64.26,0,.44-.11.69-.41v-1.86h.65v2.75h-.53l-.05-.44h-.02c-.26.3-.57.5-.97.5-.64,0-.92-.41-.92-1.11Z" style="fill:#1d1d1b;"/><path d="M61.42,13.82c1.25-.83,2.46-1.45,1.35-2.97-.49-.82-.19-1.92-.51-2.75-.17-.47-.45-1-.75-1.31-.65-.58-1.3.26-1.96.51-.9.38-2.01.56-2.73,1.25-.79.63-.85,1.53-1.37,2.29-.91,1.27-2.66,1.33-4.07,1.44-.91-.1-1.54-.51-2.16.08-.4.35-1.7,1.67-.89,2.02,1.17.03,6.88,0,10.1.01,1.09-.07,2.09.28,2.86-.48l.13-.09Z" style="fill:#16697b;"/><path d="M65.21,50.1c.16-.52.05-1.22.07-1.8-.09-1.51.54-2.59.68-4.05.1-1.32-.95-2.2-1.59-3.21-.75-1.2-.94-2.73-1.7-3.79-1.55-2.73-5.68-2.1-7.49-4.67-.65-.87-.8-2.01-.8-3.07.02-.96.14-1.94-1.08-1.84-1.73,0-5.54-.03-6.79.02-1.09.11-1.14,1.15-1.08,2.3.45,1.8.03,4.31,1.69,5.53.6.38,1.36.51,2.02.77,1.05.38,1.51,1.38,1.62,2.44.27,1.68.88,3.27.51,4.92-.08,1.1.95,1.73,1.35,2.65.44,1.23.5,2.66,1.36,3.74.45.66,1.09,1.14,1.66,1.69.74.71.95,1.3,2.19,1.36,1.2,0,2.55.3,3.65-.19.82-.53,3.1-1.85,3.68-2.67l.05-.11Z" style="fill:#5694a1;"/><path d="M45.72,27.42c.83.56,2.25.12,4.24.25,1.69-.02,3.41.04,4.07-.04.32-.06.38-.23.34-.54-.15-.83-.08-1.63.33-2.53.54-1.09.66-2.42,1.22-3.5.53-.73,1.58-1.22,2.14-2.13.73-.88,1.74-1.54,2.11-2.73.11-.36.48-.76.54-1.37.02-.22,0-.39,0-.51-2.16-.08-4.4-.11-6.73-.09-2.03.02-4,.08-5.9.17.04.15.07.32.1.5.03.24.05.46.06.65.06,1.02-.78,1.84-1.28,2.62-.4.62-.73,1.29-1.16,1.9-1.02,1.12-.86,2.71-.68,4.14-.1.29-.35,1.1-.05,2.04.18.56.48.95.68,1.16Z" style="fill:#377e8e;"/><path d="M74.62,58.62c-1.08-1.92-2.63-4.3-4.84-5-.82-.14-1.71,0-2.37-.56-.97-.5-1.34-2.33-2.32-2.59-1.32.16-3,2-4.09,2.32-.91.35-2.86-.06-3.97.17-.52.12-.42.5-.25.88,1.06,1.94,1.03,4.33,1.33,6.41.87,2.47,3.14,4.01,4.53,6.14,1.03,2.35,3.53,4.02,6.17,2.88,1.19-.48,2.28-1.35,2.71-2.55.46-1.21.59-2.58,1.31-3.63.92-1.4,3.04-2.41,1.87-4.31l-.08-.15Z" style="fill:#72a9b6;"/><path d="M38.29,137.18c.05.22.25.24.68.23h1.95c3.24-.02,8.49.04,9.57-.03.33-.11.29-.42.31-.82,0-.49-.05-1.24-.06-1.88.05-1.88-.26-4.09-.77-6.04-.13-.76-.04-1.59-.33-2.22-.36-.78-1.06-1.33-1.58-2.07-.56-.69-1.19-1.24-1.64-2-.37-.73-.73-1.42-1.47-1.85-.81-.44-1.81-.92-2.76-1.02-.72-.05-1.17.59-1.54,1.14-1.05,1.46-.64,3-1.09,4.72-.2,1.32-1.04,2.18-1.17,3.57-.15,2.49-.4,5.89-.13,8.18l.02.08Z" style="fill:#377e8e;"/><path d="M51.98,145.33c.18-1.91-.59-3.65-.74-5.53-.09-.71-.05-1.54-.26-2.18-.1-.24-.26-.32-.53-.34-.53-.02-1.54,0-2.77,0-3.08,0-7.5,0-8.99,0-.56.02-.8.29-.82.98-.02.67.21,1.44.33,2.11.31,1.23-.17,2.69-.2,4.11-.06.89.13,1.83-.06,2.7-.16.82-.84,1.49-.82,2.19.41,1.75,1.63,3.4,1.52,5.24.1.83.03,1.84.64,2.48.45.53,1.28.53,2.04.78,1.44.7,3.07,1.35,4.64.68,2.6-1.34,4.65-4.19,5.3-7.04.91-1.87.85-4.01.7-6.01v-.17Z" style="fill:#5694a1;"/><path d="M76.76,308.66c2.12-1.5,1.7-4.62.71-6.8-.31-1.21-.52-2.75-1.3-3.61-.77-1.21-2.35-1.96-2.91-3.25-.08-1.64.68-3.07.09-4.82-.75-2.21-1-4.71-2.52-6.58-.84-1.05-1.92-1.11-3.1-1.16-.52-.06-1.03-.18-1.54-.14-1.08.05-1.98.97-3.03,1.52-4.05,1.94,3.9,4.29,1.27,7-1.02,1.23-2.66,1.53-3.91,2.4-.96.63-2.43.46-3.26,1.24-.52.52-1.33,1.26-1.93,1.67-.38.29-.3.43,0,.58,3.05,1.53,19.3,11.47,21.36,11.98l.08-.04Z" style="fill:#5694a1;"/><path d="M54.86,296.51c-2.64,1.82-2.72,6.39-1.57,9.17.44.91.72,1.87.72,2.89.01,2.57,3.17,3.55,4.69,5.09.84.66,1.74,1.57,2.78,1.86,2.63.22,4.58-2.13,6.94-3.14,1.39-.91,3.12-.58,4.64-1.02.98-.3,1.7-1.28,2.48-1.9.41-.34.89-.74.25-1.21-6.49-3.94-13.22-7.68-19.75-11.5-.39-.2-.75-.31-1.05-.26l-.13.03Z" style="fill:#72a9b6;"/></g></g></svg>