<?xml version="1.0" encoding="UTF-8"?><svg id="uuid-ae4eb320-6685-4e43-8b76-c581ba103d60" xmlns="http://www.w3.org/2000/svg" viewBox="0 0 525.97 259.76"><g id="uuid-c7e75ce0-3c31-42a3-a417-6bbd498161e9"><g id="uuid-ecd1ce1e-3abc-4d2a-a608-6c993c3c836e"><path d="M137.02,259.55c.06.09.07.14.05.16-.28.07-2.03.01-4.5.03-8-.03-20.16.06-26.5-.03-.55-.33-.86-1.01-1.3-1.49-1.75-1.91-3.51-2.45-6.21-2.66-2.51-.18-4.93-1.08-7.19.05-1.96.64-2.73,2.59-4.36,3.69-.4.29-.46.42-.73.44-2.45,0-39,0-52.26,0-4.65,0-7.9,0-8.62,0-.12,0-.14-.07-.02-.43.43-1.18.77-2,1.47-3.28.59-1.33,1.73-2.96,2.1-4.31-.18-2.12-2.36-4.19-1.14-6.27.55-1.74,2.93-.83,4.15-1.23,1.24-.3,2.58-.9,3.09-2.17.24-.5.47-.99.84-1.06.36-.06.71.17,1.05.37,1.29.8,1.96,1.17,2.9,2.35.69.96,1.98,2.01,1.61,2.42-.63.39-3.05-.35-2.53.86.76,1.25,1.57,2.52,2.19,3.91.57,1.2.86,1.75,2.12,2.06,1.38.43,2.48.72,3.34-.72.99-1.37-1.42-2.24-2.08-3.16-.91-.94-.59-2.94.86-3.13,1.5-.36,2.21.03,3.04,1.37.79,1.12,1.26,1.77,1.93,2.83.7,1.03,1.45,2.39,2.1,3.15.78.78,2.18,1.52,3.1,1.86,1.19.25,3.53.17,4.72.07,1.72-.61,4.19-2.7,5.61-3.37,2.13-.66,3.97-.55,6.21-1.08,1.64-.31,2.63-.24,4.03-1.49.92-.62,1.86-1.75,2.96-1.87,1-.06,2.31.42,3.17,1.12.2.13.39.29.6.21.39-.17.13-1.39.74-2.06,1.17-1.15,2.31-1.71,3.58-2.92,1.3-1.32,3.44-2.19,5.26-2.44,1.4-.04,3.74.27,4.93.28.65.02,1.85-.06,2.75-.09.7-.08,1.44.2,1.51.89.1.38.25.77.73.93,2.73.39,5.69.67,8.26,1.3,2.17.67,4.26,1.72,6.31,2.58,1.97.94,3.71,1.47,5.49,2.65,1.77,1.26,3.81,2.03,5.17,3.76,1.12,1.39,2.33,2.55,3.89,3.68,1.08.87,3.01.12,4.21.83.53.31.98.85,1.33,1.31l.05.07Z" style="fill:#92bfca;"/><path d="M35.66,241.01c-.11,2.66-2.8,3.69-5.23,3.56-.74.04-1.73-.16-2.16.59-.5,1.01-.92,1.99-.36,3.12.45,1.27,1.26,2.58,1.31,3.55-.54,1.6-2.23,4.23-2.87,5.64-.44.67-.5,1.84-1.25,2.24-3.08.05-10.66.02-14.12.03-.64.13-.56-.65-.5-1.33-.12-1.59,1.57-2.66,1.91-3.96.12-.84.17-2.08-.1-2.79-.28-.64-1.21-1.35-1.78-1.9-.92-.93-2.72-1.3-4.09-1.83-1.84-.67-3.56-2.12-5.24-3.25-.32-.27-.94-.57-.96-.97-.02-2.09,0-19.99,0-26.17-.11-1,.41-.27.96.07,1.5,1.47,3.49.86,5.48.98,1.13.05,1.84-.3,3.1-.86,1.59-.68,3.21-1.37,4.69-2.05,1.05-.5,1.18-.2,1.01.92-.49,2.37-.05,3.06,1,5.25.69,1.79,1.33,2.28,2.86,3.85,1.8,1.87,2.62,2.76,4.54,4.58,2.26,2.1,4.49,4.39,6.66,6.52,1.19,1.02,2.9,2.21,4.07,3.11.51.43.91.5,1.07.99l.02.12Z" style="fill:#377e8e;"/><path d="M22.31,143.51c.33.88,1.27,2.19,1.24,2.95-.2,1.64-.5,4.41-.95,6.15-.77,1.26-2.64,3.12-3.53,4.37-.63.95-2.24,3.82-2.82,4.83-.25.49-.25.74-.21,1.48.12,2.65.31,5.52.37,7.78.15,3.47.1,6.85.21,10.06.07,1.07,1.19,2.64,1.04,3.84-.18.55-1.61,2.45-2.12,2.73-.14.04-.26-.06-.4-.27-.52-.91-1.23-2.47-1.57-3.2-.17-.07-1.16-3.93-1.39-2.83-.19.9-.6,2.83-.71,3.9.05,1.24.5,3.17.78,4.19.21.87,1.57,1.28,1.94,2.11.1.33-.12.64-.31.91-.45.51-.67,1.28-.57,1.97.1.74-.2,1.33-.89,1.7-.36.25-1.09.5-.92,1.02.49.79,1.75,1.69,2.51,2.44.83.75,1.58,1.31,1.53,2.34-.06.69.12,1.91-.6,2.19-.64.24-1.96-.06-2.46.38-.96,1.21-1.01,2.81-1.79,4.16-.52.93-.45,1.83.29,2.64,1.04,1.61,1.77,2.09,3.49,2.84,2.25.98.21,1.59-.9,2.13-1.45.65-4.1,1.76-5.45,2.3-.85.28-2.16.13-3.16.17-1.48-.05-2.23.23-3.35-.63-.44-.33-.99-.73-1.36-1.07-.11-.13-.05-.18-.07-.35.47-8.4-.93-73.66.51-74.31.88.37,2.46,1.17,3.18,1.39.41.13.78.13,1.42.13,1.58-.02,3.36.1,4.52-.11,1-.41,2.38-1.08,3.34-1.8.85-.77,1.81-2.77,2.67-3.53.63-.57,1.64-1.48,2.25-1.81.66-.29,1.49.03,2.31.13,1.03.16,2.59.45,3.47.63.21.06.22.13.03.23-.65.38-1.82.44-2.28,1.1-.2.37.03,1.12.18,2.07.21,1.13.27,1.74.51,2.5l.05.13Z" style="fill:#cde9f0;"/><path d="M24.06,137.43c0,.06-.06.08-.15.09-.94-.04-4.49-.92-5.67-.86-.9.37-2.16,1.65-2.72,2.16-.46.5-1.33,1.91-1.9,2.71-.43.77-1.35,1.14-2.37,1.7-1.17.65-1.53.88-3.16.8-1.39-.03-2.72.07-3.94-.05-.7-.14-2.78-1.21-3.46-1.51-.28-.16-.4-.18-.45-.41-.02-1.17,0-9.92,0-15.67,0-2.32,0-4.14,0-4.79,0-.16,0-.25.15-.3.55-.06,4.41-.08,5.08,0,.68.15.71.7,1.24,1.62.37.76.8,1.47.84,1.82.09.43-.58.59-1.54.99-2.06.8-2.13.75-.56,1.67,1.27.73,2.06,1.39,3.47,1.71,1.36.29,3.12,1.08,4.51,1.13.98-.64,2.4-3.42,3.4-4.13.58.31,1.05,2.2,1.41,2.69,1.01,1.59,3,2.48,4.13,4.04.86.84.58,2.1.94,3.14.22.6.69,1.13.76,1.4v.07Z" style="fill:#92bfca;"/><path d="M219.22,259.75v-1.9l-1.69-2.07-3.58-1.51-2.63-1.13v-2.82l2.63-2.26,3.01-2.45s.19-2.25.38-2.82c.19-.56.56-5.65.56-5.65l.19-6.02,1.13-4.14,2.45-4.52,3.2-2.45,3.39-2.82,3.38-3.2v-4.33l1.89-3.95,2.82-1.88,3.95-1.13,2.07-2.07h1.89l2.44-2.07h1.89l3.76-.05-1.69,1.41-.43,2.96-2.82.85-3.95.85-3.96.7s-.7,1.56-.84,1.98c-.14.42-.43,2.97-.43,2.97l1.13,1.55,3.11,1.27,1.83,1.13-.42,2.68-1.27,1.84.71,2.54-.15,3.24-.7,2.55-2.4,2.82-3.39,4.38-.85,3.95.57,3.53,1.97,2.26,2.26,3.24.57,2.97,1.69,2.54,2.97-.56,2.96-2.69,3.25-2.26.99-3.53-.71-2.96-1.41-1.84.56-2.4-1.27-2.82-2.26-3.39-1.41-2.26-1.27-2.68v-2.82l.28-2.4.15-1.98-.29-2.26,1.41-1.27,3.53-.42,2.69-1.55,2.54-2.55,4.52-.7h3.38l3.82-.71,2.82-2.11,4.38-.29h2.54v-1.69l-1.27-1.84-1.56.57-1.97,1.27-2.26.28-1.66-1.13v-7.2l-.88-1.97,1.83-1.84,3.39-1.41,3.25.28,1.13,1.55,1.13,2.97v2.54l.84,2.96.99,2.69,1.7.56,2.4-1.27,2.68-.28,3.24,1.27,4.38,1.27,3.67,1.83,2.97,2.12,2.96,2.12,1.55,2.54.57,2.97-.71,3.1.14,2.88,2.12,1.22,4.38.56,4.8-.28,5.08-.43,5.22-.42,5.23-.65,6.92-1.18h4.09l2.82,1.18,4.24,3.19,3.1,2.97,6.92,2.54h6.35l4.66-.43,2.69-1.83,3.38-1.84,4.66-1.41,4.1-.28,3.53-.14,1.55-.71-1.98-.84-5.22-.43-3.95-.14-.71-1.83,4.52-.71,6.07-.14,6.92.42,6.07-1.13,6.77-.28,5.37-.14,7.2.28,3.24.71v1.41l-3.1,1.27-2.54,1.55-2.54,1.13-3.25-.99-2.54-1.41-3.81.28,1.41,1.7,2.68.7.99,2.4-.57,2.69h2.26l1.7,1.55v5.08l.84,1.7,1.98-2.4.85-2.97,1.69-.28,3.11,1.83,3.24.29,2.12,1.83,1.84,1.27,3.1.43,2.69.56,4.23,3.53,2.12,2.4,2.4,2.68.99,2.97v2.54l1.55,2.68,1.27,2.09h-231.2Z" style="fill:#92bfca;"/><path d="M253.06,192.72v2.26l-.71,3.53-3.76.05h-1.89l-2.44,2.07h-1.89l-2.07,2.07-3.95,1.13-2.82,1.88-1.89,3.95v4.33l-3.38,3.2-3.39,2.82-3.2,2.45-2.45,4.52-1.13,4.14-.19,6.02s-.37,5.09-.56,5.65c-.19.57-.38,2.82-.38,2.82l-3.01,2.45-2.63,2.26v2.82l2.63,1.13,3.58,1.51,1.69,2.07v1.9h-71.48l3.95-4.91,1.7-4.48,3.67-3.71h4.51l3.39-1.98v-3.1l-2.26-1.7,2.26-3.1,1.13-2.69v-2.54h-1.83l.84-2.82.99-4.24,1.27-1.55,3.39-2.96,3.39-2.54,1.83-2.4,3.67-1.84h5.23l1.83,1.27,1.42,2.12,1.69.42,1.83-1.97v-2.97l.99-3.1h3.81l3.39,1.12,5.51.71,2.26-1.83,2.26-.71h5.93l3.38-3.95,5.23-2.12,5.5-2.4.85-4.24,1.98-2.82,1.13-2.26h1.83l2.12-2.54,1.41-.85,3.53.71s1.98.42,2.4.28,3.67-.14,3.67-.14l1.84,1.84,2.4,2.96Z" style="fill:#377e8e;"/><path d="M388.21,209.78l-1.48-.75-1.41.75s.35,2,.28,2.21,1.16,2.19,1.16,2.19l2.29,1.55h3.46l3.32,1.13,1.34.35,1.76-.42.42-2.33,1.41-1.84,1.34-2.47.64-1.84-1.69-1.27h-2.68l-2.4,1.13-.99,1.98-1.41.99-2.33.99-1.34-.49-1.69-1.86Z" style="fill:#377e8e;"/><polygon points="269.55 181.71 269.55 185.81 271.45 187.71 274.28 188.77 275.9 187.29 274.06 184.32 271.38 182.07 269.55 181.71" style="fill:#cde9f0;"/><polygon points="287.12 186.8 287.12 189.55 289.31 193.01 294.46 195.55 297.01 196.4 299.76 196.4 297.85 193.22 295.24 191.03 293.44 191.6 290.79 188.77 289.66 187.29 287.12 186.8" style="fill:#16697b;"/><path d="M302.3,188.77l-.42,2.82s1.98,1.06,2.19,1.13.92,1.27.92,1.27v2.82l2.19.99,1.55-1.41.42-4.16v-1.98l-3.95-1.48h-2.89Z" style="fill:#92bfca;"/><path d="M429.08,222.65h3.18l.99.85.71,2.61v1.34l-.56,1.41h-1.34l-1.91-.64-1.06,1.91-1.27,1.13-1.2,1.27s-.07.92,0,1.13,3.25.99,3.25.99l3.6-.78,2.89.78h5.65l3.11-1.84v-2.54l-.71-3.6-.49-2.33.71-1.34,1.2-2.47s.64-1.55.56-1.76-1.13-1.55-1.13-1.55c0,0-1.55.49-1.76.56s-3.11,1.13-3.11,1.13l-3.04.07-3.81.14-2.05.42-1.91,1.2-1.27,1.41.78.49Z" style="fill:#cde9f0;"/><polygon points="445.03 211.29 449.05 208.47 451.38 207.05 453.5 207.62 453.5 208.82 451.95 211.29 449.83 212.77 447.15 213.55 445.59 213.05 445.03 212.14 445.03 211.29" style="fill:#377e8e;"/><polygon points="428.86 196.32 428.02 197.45 428.44 198.87 430.98 198.87 433.59 197.6 434.58 195.34 434.58 192.72 433.74 191.17 432.04 190.4 430.06 191.03 428.94 192.16 428.72 193.78 428.86 196.32" style="fill:#92bfca;"/><polygon points="441.19 180.82 439.5 182.61 441.19 184.02 443.26 182.42 441.19 180.82" style="fill:#16697b;"/><polygon points="439.5 176.87 440.25 171.97 440.91 169.62 444.3 170.28 445.43 174.14 445.03 177.34 443.26 178.75 441.38 178.18 439.5 176.87" style="fill:#cde9f0;"/><path d="M441.95,163.88v-5.08l1.32-1.32,2.16-1.69s1.41,1.51,1.69,1.69.56,3.2.56,3.2v4.33l-1.13,1.88-1.74.94-2.35-1.22-.52-2.73Z" style="fill:#92bfca;"/><path d="M467.64,169.15v3.2s-.19,2.73,0,3.01,1.04,1.51,1.32,1.69,3.2.85,3.2.85l1.69-1.13.66-2.07-.85-1.18-2.63-1.84-1.42-2.07-1.98-.47Z" style="fill:#f49426;"/><polygon points="443.26 147.97 441.38 147.97 441.38 149.1 442.46 150.23 445.43 150.23 447.03 151.08 449.1 150.51 449.1 147.97 447.69 145.34 447.12 144.21 448.44 142.98 447.69 141.76 445.43 142.23 443.92 141.76 442.46 140.25 440.72 139.41 438.75 140.25 438.75 142.32 439.5 144.68 441.38 145.62 443.26 146.94 443.26 147.97" style="fill:#377e8e;"/><polygon points="437.99 134.89 441.38 133.29 441.38 131.12 441.38 127.83 440.16 126.42 437.99 124.82 436.21 123.97 435.26 124.82 435.26 126.51 434.58 128.87 435.92 130.84 436.96 132.07 437.15 134.23 437.99 134.89" style="fill:#92bfca;"/><polygon points="437.98 118.32 436.58 120.49 437.98 121.43 441.01 121.43 441.01 119.88 439.88 118.32 437.98 118.32" style="fill:#cde9f0;"/><polygon points="443.92 110.98 442.46 112.21 443.92 112.68 445.43 111.83 443.92 110.98" style="fill:#16697b;"/><path d="M433.48,111.83l-.75-1.41v-1.41l1.86-.94s.68.28.96.47,1.04,1.88,1.04,1.88l2.16.94,1.13,1.32.47.85-2.36.38-1.45.56-1.95-.28-1.11.28-.09,1.22s0,1.6-.09,1.98-.56,1.6-.56,1.6l-1.41.61-1.22-.71-1.41-2.45-1.13-1.69-.94-1.06.85-2.14,1.79-1.32,1.88,2.16,1.69.56,1.04-.56-.38-.85Z" style="fill:#377e8e;"/><polygon points="419.83 102.89 418.98 103.64 418.98 105.15 419.41 106.56 421.05 106.56 422.18 105.15 421.43 102.89 419.83 102.89" style="fill:#16697b;"/><polygon points="426.61 95.83 425.62 96.77 426.61 98.37 427.03 99.41 429.29 99.88 431.17 98.94 432.11 97.85 433.05 96.96 432.21 94.89 430.32 94.14 429.34 94.14 427.59 94.8 426.61 95.83" style="fill:#f49426;"/><path d="M427.78,89.15l-1.18-.75h-.99l.47-1.13.52-1.41v-1.6l1.18-.56,2.26.56s.66,1.04.66,1.32v2.73l-.47.85h-2.45Z" style="fill:#f49426;"/><polygon points="407.08 89.15 406.51 90.94 407.83 92.63 409.81 94.14 411.41 93.29 411.41 91.97 410.37 89.81 408.96 88.49 407.08 89.15" style="fill:#f49426;"/><polygon points="411.41 94.98 411.78 97.01 413.66 97.62 414.23 96.3 414.23 94.61 412.82 94.14 411.41 94.98" style="fill:#f49426;"/><polygon points="403.12 87.55 403.12 88.49 404.82 89.15 404.82 88.35 403.12 87.55" style="fill:#16697b;"/><polygon points="410.46 80.77 411.41 82 413.57 82 413.19 80.77 410.46 80.77" style="fill:#377e8e;"/><polygon points="404.82 76.16 403.12 77.85 403.12 78.98 405.76 78.98 407.92 78.14 407.92 76.16 406.51 75.13 404.82 76.16" style="fill:#16697b;"/><polygon points="401.9 75.13 405.52 74.47 406.51 73.15 407.92 71.83 405.52 70.89 403.97 71.64 402.28 73.01 401.9 75.13" style="fill:#cde9f0;"/><polygon points="400.39 84.91 400.77 86.42 402.28 86.42 400.39 84.91" style="fill:#92bfca;"/><polygon points="390.51 69.57 393.05 68.73 393.52 67.31 392.02 66.47 391.08 68.02 389.76 68.54 390.51 69.57" style="fill:#16697b;"/><polygon points="394.84 63.93 394.84 62.23 396.35 61.2 398.32 61.2 398.98 62.56 397.76 63.45 396.44 63.36 394.84 64.77 394.84 63.93" style="fill:#377e8e;"/><polygon points="388.44 66.47 389.76 64.77 391.64 63.93 392.77 63.93 391.64 62.51 389.76 62.51 388.44 62.98 386.56 64.02 385.34 64.77 384.49 66.09 384.49 67.13 387.22 67.13 388.44 66.47" style="fill:#cde9f0;"/><polygon points="383.83 69.01 382.32 69.57 382.32 70.89 383.83 71.83 385.24 70.89 385.81 69.57 383.83 69.01" style="fill:#92bfca;"/><polygon points="377.52 67.13 378.84 68.02 379.59 69.57 379.59 70.89 378.56 70.89 376.49 70.42 374.14 70.89 372.54 70.42 371.22 69.57 372.72 68.02 374.7 68.02 377.52 67.13" style="fill:#377e8e;"/><polygon points="370.18 82 368.68 83.69 368.21 84.91 369.19 85.67 372.06 85.67 374.79 84.91 375.41 83.83 373.76 82.84 371.22 82.47 370.18 82" style="fill:#377e8e;"/><polygon points="359.26 78.51 361.34 78.51 362.46 77.05 361.81 76.07 359.83 76.07 358.04 76.07 357.29 77.29 356.44 77.95 358.04 78.98 359.26 78.51" style="fill:#cde9f0;"/><polygon points="360.68 73.01 361.43 71.83 362.84 71.83 364.06 73.01 363.12 74.09 361.81 74.09 360.68 73.01" style="fill:#92bfca;"/><path d="M326.32,77.05l.94-1.93-.47-1.51-1.69-1.79v-1.41l.47-1.41,1.69-.99,1.6-.42,2.92.42,2.64.52h2.45l1.88.09,2.92-.09s2.64.09,2.92.09,2.92.94,2.92.94l2.16.85,2.26.94,2.16.47s.94.33,1.22.49.66.68.66.68l-.38,1.08-1.32,1.04-1.79.94-.94.99-1.69,1.27-1.6.66-3.67.94h-4.05l-3.2-.94h-6.96l-2.07.47-1.88-.47-.09-1.93Z" style="fill:#cde9f0;"/><path d="M305.62,67.59l-1.83,2.68-.71,1.56-2.4.56-.99,1.27v1.7l-1.55,1.69-2.54-.85v-2.26c0-.42-2.12-2.11-2.12-2.11l-2.12-1.7s-1.55.85-2.68.85-2.68-.14-2.68-.14l-1.7-1.41-2.54,1.13-2.4.28-2.82-1.41-2.26.98-2.82,2.55-2.93,1.27-2.01.84s-2.69-.28-4.24-1.55l-.85-3.11h-1.97l-1.7,1.84-1.41,1.98-1.69.7-1.84-.7h-1.55v4.66l-.99,2.11-1.69,3.53-1.7,2.68-1.69.85-2.12-2.54-1.69-1.41-1.42-1.41.85-1.7.42-1.55-.7-1.69-2.68-.85.7-3.53,2.12-2.97s-1.69-1.97-2.12-2.82c-.42-.85,0-2.82,0-2.82l2.12-2.12s-.14-2.12-.71-2.54c-.56-.42-2.25-2.68-2.25-2.68l1.27-2.54-1.27-3.25,1.27-2.54v-2.83l-1.09-2.17,2.07-2.63,1.84-1.55h1.41l2.68.71,2.12,1.69,2.26-1.69h7.06l2.4,1.41,1.41,1.13,1.69-.28,1.7-.85.99,1.41,2.11,1.69h8.33l.57,1.56.99,2.68s1.97,2.68,2.4,2.96c.42.29,2.68.57,2.68.57l2.26-1.13s3.67-.14,4.09,0c.43.14,1.41,1.55,1.41,1.55l-1.41,1.41-1.69.99-2.97-.99h-2.4l-.14,1.84,1.13,1.98,2.26.42,3.11-.42,2.4-.99,2.11.7s1.56,1.84,2.97,1.42h1.98l1.41,2.54,3.53,2.4,2.96,2.96Z" style="fill:#92bfca;"/><path d="M238.56,67.59c.43.85,2.12,2.82,2.12,2.82l-2.12,2.97-.7,3.53-2.69-1.13-2.25-.85-1.7-.84-2.4-.15-1.69.43-2.26,1.97h-2.12l-1.69-.56-2.83.28h-4.23l-3.96-.14-2.4-.56-2.25-.99-1.7.99-1.97,2.11-1.56.14-1.27-1.97-2.26-.71-3.1-.84-3.53-1.7-.99-1.41v-3.39l2.12-1.41,4.09.14,1.84.28,1.69.99,1.55.99.85-1.69h2.97l3.1,1.55,2.26,2.54,2.82.85,4.52-.71,2.68-1.13,1.84-.99,3.53-.84,1.55-1.84-.14-2.33-1.69-.63-2.97-.85-2.4-1.7-.7-2.11.98-2.4-.28-3.25.42-1.55-1.27-1.27-1.83-1.7-2.68-.84-2.83-.15-3.67-.84-1.55-1.84v-2.4l1.69-1.27,2.26-.28,2.97.28,2.54.42,2.96.15,3.67-.15,1.98.71,1.55,1.69,2.26.57,2.68-1.13,1.98-.14,1.69,1.13,2.4.99,1.42-1.27.04-.06,1.09,2.17v2.83l-1.27,2.54,1.27,3.25-1.27,2.54s1.69,2.26,2.25,2.68c.57.42.71,2.54.71,2.54l-2.12,2.12s-.42,1.97,0,2.82Z" style="fill:#16697b;"/><polygon points="215.97 36.4 215.41 38.09 217.38 38.94 220.77 39.93 223.59 38.8 221.9 36.4 219.5 36.4 215.97 36.4" style="fill:#92bfca;"/><polygon points="210.46 60.68 213.71 60.68 216.39 61.38 219.5 64 219.5 66.04 217.81 66.04 215.41 65.2 212.3 63.36 210.46 61.95 210.46 60.68" style="fill:#377e8e;"/><path d="M204.86,17.48l2.12-2.54s1.84-1.27,2.26-1.27,3.11.85,3.11.85h2.64l1.18-1.84h1.69v1.55l-1.69,3.25-1.32,2.12-2.21.71-1.27-1.41-2.26.42-1.84.99-2.4-.71v-2.12Z" style="fill:#92bfca;"/><polygon points="215.41 7.74 217.15 6.18 219.5 6.18 218.7 7.74 216.58 8.87 215.41 7.74" style="fill:#377e8e;"/><polygon points="228.44 6.18 231.12 6.18 231.12 4.49 228.44 6.18" style="fill:#16697b;"/><path d="M228.44,2.09l2.68.71,1.69-.71,1.69-1.41,1.98,1.06,3.25,1.06h2.26s.71,1.84,1.27,2.54,1.55,2.19,1.55,2.19h1.41l.56-3.04-1.55-1.98-2.4-1.27-.71-1.24h-12.35l-1.34.82v1.27Z" style="fill:#cde9f0;"/><polygon points="118.04 74.51 115.22 74.51 115.22 72.11 118.04 70.14 120.58 70.14 125.24 70.14 127.64 69.43 131.03 69.43 133.99 70.14 136.68 69.43 139.92 69.43 142.75 69.43 145.01 71.97 146.7 73.53 148.96 73.38 151.36 73.67 152.91 75.64 154.89 77.05 154.89 78.75 151.64 80.73 148.82 80.73 146.7 79.88 145.43 80.73 143.31 81.57 141.76 81.57 141.48 83.83 139.78 83.83 138.23 82.7 136.25 81.57 132.02 82.84 129.76 83.83 127.22 83.83 126.09 80.44 124.54 78.89 122.56 78.33 122.14 76.63 120.3 75.22 118.04 74.51" style="fill:#92bfca;"/><path d="M79.5,0l3.11,2.37,3.39,2.4,4.8,1.41,4.09,1.98,4.66.71h4.38l3.81-1.34s2.54-.49,2.96,0,0,2.75,0,2.75l-1.13,2.4,1.32,2.4,1.36,2.4.99,2.82.85,2.54,2.54,1.55,3.11,1.55h3.11l4.09.71h5.36l2.75,1.13,1.34,1.55h1.69l1.69,1.55-1.84,1.55-2.89,2.54-4.45,2.12-1.69,2.26-.71,1.55,1.69,1.83h2.82l2.33-1.83h3.18l2.68.7,2.12-1.41,3.25-.99,3.67.56,1.55,1.13,2.54,1.83,2.54-.85,2.82-.99s1.27.56,1.69.7,2.12,1.41,2.54,1.13,3.25.04,3.25.04l3.11.67h2.26l1.98-1.55,1.27-.99,1.55-.99,1.13,2.26,1.84,1.27,1.69-.99,2.12-2.12,1.98-1.55,1.69-.64h6.21l2.12-1.76-.85-2.4-1.13-2.68-4.85-.14-2.78-2.12-5.79-2.82-4.8-1.27-4.09-1.55-3.67-3.11-1.55-2.82-3.53-1.84-2.54.85h-4.66l-3.81-1.84-4.52-1.98-4.09-2.26-2.96-2.89-2.54-2.33-2.61-2.68-3.32-2.51h-52.24Z" style="fill:#cde9f0;"/><polygon points="97.57 20.58 100.11 22.56 102.94 22.56 104.91 22.56 103.22 20.58 99.69 20.58 97.57 20.58" style="fill:#377e8e;"/><polygon points="108.72 24.4 110.98 26.51 113.38 27.36 112.54 25.24 108.72 24.4" style="fill:#cde9f0;"/><polygon points="83.45 43.45 86.28 42.33 86.28 44.3 83.45 43.45" style="fill:#16697b;"/><polygon points="80.07 43.31 83.45 41.9 81.76 41.34 80.07 43.31" style="fill:#cde9f0;"/><polygon points="59.03 47.69 60.87 46.84 62.14 47.69 62.14 49.53 59.59 49.53 58.32 50.94 56.35 50.94 55.5 48.89 56.07 47.41 58.04 48.89 59.03 47.69" style="fill:#92bfca;"/><polygon points="37.85 7.17 40.54 8.02 43.22 8.02 41.24 6.33 37.85 7.17" style="fill:#92bfca;"/><polygon points="33.19 0 34.89 2.37 34.89 4.77 34.04 7.17 32.35 8.87 29.52 8.87 26.98 8.02 24.72 7.17 23.45 5.48 25.29 5.48 27.69 6.33 27.97 4.43 26.56 2.23 26.84 0 33.19 0" style="fill:#377e8e;"/><polygon points=".32 3.22 2.14 1.24 4.54 1.24 7.36 2.23 10.32 0 .32 0 .32 3.22" style="fill:#92bfca;"/><path d="M161.89,201.7v.74c0,.37.05.68.15.94s.25.45.45.59c.2.13.44.2.71.2.23,0,.43-.04.6-.13s.31-.21.41-.37.16-.34.18-.54h1.15v.11c-.02.38-.13.72-.34,1.01-.21.29-.48.52-.83.68s-.74.25-1.18.25c-.54,0-1-.11-1.37-.33-.38-.22-.66-.53-.85-.94-.19-.41-.29-.9-.29-1.46v-.75c0-.57.1-1.06.29-1.47.2-.41.48-.73.86-.95.38-.22.83-.33,1.36-.33.33,0,.63.05.91.14.28.1.52.23.73.41.21.18.37.39.49.63.12.24.19.51.2.81v.11h-1.15c-.02-.21-.08-.4-.18-.57-.1-.17-.24-.3-.41-.39-.17-.1-.37-.14-.6-.14-.28,0-.51.07-.71.21-.2.14-.35.34-.45.6-.1.26-.16.58-.16.95Z" style="fill:#1d1d1b;"/><path d="M171.67,202.44c0,.56-.1,1.05-.31,1.46-.21.41-.5.72-.88.94-.38.22-.84.33-1.38.33s-.99-.11-1.38-.33c-.39-.22-.68-.53-.89-.94-.21-.41-.31-.89-.31-1.46v-.77c0-.57.1-1.06.31-1.47.21-.41.5-.72.89-.94.38-.22.84-.33,1.38-.33s1,.11,1.38.33c.38.22.68.53.88.94.2.41.31.9.31,1.46v.77ZM170.46,201.67c0-.39-.06-.71-.18-.96-.12-.26-.28-.45-.48-.58s-.44-.19-.7-.19-.5.06-.71.19c-.2.13-.36.32-.48.58-.12.26-.18.58-.18.96v.78c0,.38.06.7.18.96.12.26.28.45.48.58.2.13.44.19.71.19s.5-.06.7-.19c.21-.13.37-.32.48-.58.12-.26.18-.58.18-.96v-.78Z" style="fill:#1d1d1b;"/><path d="M176.66,204.04v1.01h-3.73v-6h1.19v4.99h2.54Z" style="fill:#1d1d1b;"/><path d="M182.39,202.44c0,.56-.1,1.05-.31,1.46-.21.41-.5.72-.88.94-.38.22-.84.33-1.38.33s-.99-.11-1.38-.33c-.39-.22-.68-.53-.89-.94-.21-.41-.31-.89-.31-1.46v-.77c0-.57.1-1.06.31-1.47.21-.41.5-.72.89-.94.38-.22.84-.33,1.38-.33s1,.11,1.38.33c.38.22.68.53.88.94.2.41.31.9.31,1.46v.77ZM181.19,201.67c0-.39-.06-.71-.18-.96-.12-.26-.28-.45-.48-.58s-.44-.19-.7-.19-.5.06-.71.19c-.2.13-.36.32-.48.58-.12.26-.18.58-.18.96v.78c0,.38.06.7.18.96.12.26.28.45.48.58.2.13.44.19.71.19s.5-.06.7-.19c.21-.13.37-.32.48-.58.12-.26.18-.58.18-.96v-.78Z" style="fill:#1d1d1b;"/><path d="M184.73,205.05h-1.06v-6h1.21l1.71,3.89h.04l1.71-3.89h1.2v6h-1.07v-3.99h-.06l-1.42,3.24h-.77l-1.43-3.24h-.06v3.99Z" style="fill:#1d1d1b;"/><path d="M191.05,205.05v-6h2.5c.54,0,.97.13,1.29.39s.48.62.48,1.09c0,.24-.04.45-.13.63-.09.18-.21.33-.37.44-.15.11-.33.19-.53.24v.05c.24.02.47.09.67.21s.36.28.49.49c.12.21.18.47.18.77,0,.36-.09.66-.27.91s-.42.44-.74.58c-.31.13-.67.2-1.08.2h-2.5ZM192.23,199.95v1.6h.78c.27,0,.48-.03.65-.1.17-.06.29-.16.37-.28.08-.12.12-.27.12-.44,0-.25-.08-.44-.23-.58-.15-.14-.37-.21-.65-.21h-1.05ZM192.23,202.38v1.78h.88c.47,0,.8-.07,1.01-.22.21-.15.31-.36.31-.65,0-.19-.04-.35-.12-.49-.08-.14-.2-.24-.36-.31s-.36-.11-.59-.11h-1.12Z" style="fill:#1d1d1b;"/><path d="M198,205.05h-1.19v-6h1.19v6Z" style="fill:#1d1d1b;"/><path d="M200.13,205.05h-1.2l2.01-6h1.39l2,6h-1.26l-.47-1.54h-2l-.47,1.54ZM201.63,200.2h-.05l-.73,2.43h1.52l-.73-2.43Z" style="fill:#1d1d1b;"/><path d="M319.53,217.22l-2.01-6h1.38l1.34,4.71h.06l1.33-4.71h1.32l-1.99,6h-1.43Z" style="fill:#1d1d1b;"/><path d="M327.71,216.25v.97h-3.86v-6h3.86v.97h-2.68v1.54h2.53v.91h-2.53v1.61h2.68Z" style="fill:#1d1d1b;"/><path d="M330.15,217.22h-1.12v-6h.99l2.63,3.99h.05v-3.99h1.12v6h-.98l-2.64-4.01h-.05v4.01Z" style="fill:#1d1d1b;"/><path d="M339.19,216.25v.97h-3.86v-6h3.86v.97h-2.68v1.54h2.53v.91h-2.53v1.61h2.68Z" style="fill:#1d1d1b;"/><path d="M340.24,217.22v-.78l2.9-4.18v-.06h-2.82v-.98h4.26v.78l-2.89,4.18v.06h2.97v.98h-4.42Z" style="fill:#1d1d1b;"/><path d="M348.26,216.32c.37,0,.67-.11.89-.33s.34-.54.34-.95v-3.81h1.19v3.93c0,.44-.1.82-.3,1.15-.2.33-.48.58-.84.76-.36.18-.79.27-1.28.27s-.92-.09-1.28-.27c-.36-.18-.65-.43-.84-.76-.2-.33-.3-.71-.3-1.15v-3.93h1.19v3.81c0,.42.11.73.34.96.22.22.52.33.9.33Z" style="fill:#1d1d1b;"/><path d="M355.98,216.25v.97h-3.86v-6h3.86v.97h-2.68v1.54h2.53v.91h-2.53v1.61h2.68Z" style="fill:#1d1d1b;"/><path d="M361.03,216.21v1.01h-3.73v-6h1.19v4.99h2.54Z" style="fill:#1d1d1b;"/><path d="M362.88,217.22h-1.2l2.01-6h1.39l2,6h-1.26l-.47-1.54h-2l-.47,1.54ZM364.38,212.37h-.05l-.73,2.43h1.52l-.73-2.43Z" style="fill:#1d1d1b;"/><path d="M203.78,89.15h-1.19v-2.57h-2.52v2.57h-1.19v-6h1.19v2.44h2.52v-2.44h1.19v6Z" style="fill:#1d1d1b;"/><path d="M205.92,89.15h-1.2l2.01-6h1.39l2,6h-1.26l-.47-1.54h-2l-.47,1.54ZM207.42,84.3h-.05l-.73,2.43h1.52l-.73-2.43Z" style="fill:#1d1d1b;"/><path d="M212.24,89.15h-1.19v-6h1.19v6Z" style="fill:#1d1d1b;"/><path d="M216.07,89.15h-1.19v-5.01h-1.7v-.99h4.6v.99h-1.71v5.01Z" style="fill:#1d1d1b;"/><path d="M219.89,89.15h-1.19v-6h1.19v6Z" style="fill:#1d1d1b;"/><path d="M149.88,5.51v.74c0,.37.05.68.15.94s.25.45.45.59c.2.13.44.2.71.2.23,0,.43-.04.6-.13s.31-.21.41-.37.16-.34.18-.54h1.15v.11c-.02.38-.13.72-.34,1.01-.21.29-.48.52-.83.68s-.74.25-1.18.25c-.54,0-1-.11-1.37-.33-.38-.22-.66-.53-.85-.94-.19-.41-.29-.9-.29-1.46v-.75c0-.57.1-1.06.29-1.47.2-.41.48-.73.86-.95.38-.22.83-.33,1.36-.33.33,0,.63.05.91.14.28.1.52.23.73.41.21.18.37.39.49.63.12.24.19.51.2.81v.11h-1.15c-.02-.21-.08-.4-.18-.57-.1-.17-.24-.3-.41-.39-.17-.1-.37-.14-.6-.14-.28,0-.51.07-.71.21-.2.14-.35.34-.45.6-.1.26-.16.58-.16.95Z" style="fill:#1d1d1b;"/><path d="M157.12,7.97c.37,0,.67-.11.89-.33s.34-.54.34-.95v-3.81h1.19v3.93c0,.44-.1.82-.3,1.15-.2.33-.48.58-.84.76-.36.18-.79.27-1.28.27s-.92-.09-1.28-.27c-.36-.18-.65-.43-.84-.76-.2-.33-.3-.71-.3-1.15v-3.93h1.19v3.81c0,.42.11.73.34.96.22.22.52.33.9.33Z" style="fill:#1d1d1b;"/><path d="M160.98,8.87V2.87h2.5c.54,0,.97.13,1.29.39s.48.62.48,1.09c0,.24-.04.45-.13.63-.09.18-.21.33-.37.44-.15.11-.33.19-.53.24v.05c.24.02.47.09.67.21s.36.28.49.49c.12.21.18.47.18.77,0,.36-.09.66-.27.91s-.42.44-.74.58c-.31.13-.67.2-1.08.2h-2.5ZM162.15,3.76v1.6h.78c.27,0,.48-.03.65-.1.17-.06.29-.16.37-.28.08-.12.12-.27.12-.44,0-.25-.08-.44-.23-.58-.15-.14-.37-.21-.65-.21h-1.05ZM162.15,6.19v1.78h.88c.47,0,.8-.07,1.01-.22.21-.15.31-.36.31-.65,0-.19-.04-.35-.12-.49-.08-.14-.2-.24-.36-.31s-.36-.11-.59-.11h-1.12Z" style="fill:#1d1d1b;"/><path d="M167.37,8.87h-1.2l2.01-6h1.39l2,6h-1.26l-.47-1.54h-2l-.47,1.54ZM168.87,4.01h-.05l-.73,2.43h1.52l-.73-2.43Z" style="fill:#1d1d1b;"/><path d="M92.82,231.61c.43,0,.8.09,1.1.27.3.18.53.42.69.72s.24.64.24,1.02-.08.71-.24,1.01c-.16.3-.39.54-.69.71-.3.17-.67.26-1.1.26h-1.21v2.01h-1.19v-6h2.4ZM93.63,233.61c0-.34-.09-.6-.28-.78s-.44-.27-.77-.27h-.99v2.11h.99c.22,0,.41-.04.56-.12.16-.08.28-.2.36-.36.08-.16.13-.35.13-.57Z" style="fill:#1d1d1b;"/><path d="M96.34,237.61h-1.2l2.01-6h1.39l2,6h-1.26l-.47-1.54h-2l-.47,1.54ZM97.84,232.75h-.05l-.73,2.43h1.52l-.73-2.43Z" style="fill:#1d1d1b;"/><path d="M102.59,237.61h-1.12v-6h.99l2.63,3.99h.05v-3.99h1.12v6h-.98l-2.64-4.01h-.05v4.01Z" style="fill:#1d1d1b;"/><path d="M108.4,237.61h-1.2l2.01-6h1.39l2,6h-1.26l-.47-1.54h-2l-.47,1.54ZM109.9,232.75h-.05l-.73,2.43h1.52l-.73-2.43Z" style="fill:#1d1d1b;"/><path d="M114.61,237.61h-1.06v-6h1.21l1.71,3.89h.04l1.71-3.89h1.2v6h-1.07v-3.99h-.06l-1.42,3.24h-.77l-1.43-3.24h-.06v3.99Z" style="fill:#1d1d1b;"/><path d="M121.56,237.61h-1.2l2.01-6h1.39l2,6h-1.26l-.47-1.54h-2l-.47,1.54ZM123.06,232.75h-.05l-.73,2.43h1.52l-.73-2.43Z" style="fill:#1d1d1b;"/><path d="M30.89,222.18v.74c0,.37.05.68.15.94s.25.45.45.59c.2.13.44.2.71.2.23,0,.43-.04.6-.13s.31-.21.41-.37.16-.34.18-.54h1.15v.11c-.02.38-.13.72-.34,1.01-.21.29-.48.52-.83.68s-.74.25-1.18.25c-.54,0-1-.11-1.37-.33-.38-.22-.66-.53-.85-.94-.19-.41-.29-.9-.29-1.46v-.75c0-.57.1-1.06.29-1.47.2-.41.48-.73.86-.95.38-.22.83-.33,1.36-.33.33,0,.63.05.91.14.28.1.52.23.73.41.21.18.37.39.49.63.12.24.19.51.2.81v.11h-1.15c-.02-.21-.08-.4-.18-.57-.1-.17-.24-.3-.41-.39-.17-.1-.37-.14-.6-.14-.28,0-.51.07-.71.21-.2.14-.35.34-.45.6-.1.26-.16.58-.16.95Z" style="fill:#1d1d1b;"/><path d="M40.67,222.92c0,.56-.1,1.05-.31,1.46-.21.41-.5.72-.88.94-.38.22-.84.33-1.38.33s-.99-.11-1.38-.33c-.39-.22-.68-.53-.89-.94-.21-.41-.31-.89-.31-1.46v-.77c0-.57.1-1.06.31-1.47.21-.41.5-.72.89-.94.38-.22.84-.33,1.38-.33s1,.11,1.38.33c.38.22.68.53.88.94.2.41.31.9.31,1.46v.77ZM39.47,222.15c0-.39-.06-.71-.18-.96-.12-.26-.28-.45-.48-.58s-.44-.19-.7-.19-.5.06-.71.19c-.2.13-.36.32-.48.58-.12.26-.18.58-.18.96v.78c0,.38.06.7.18.96.12.26.28.45.48.58.2.13.44.19.71.19s.5-.06.7-.19c.21-.13.37-.32.48-.58.12-.26.18-.58.18-.96v-.78Z" style="fill:#1d1d1b;"/><path d="M41.56,223.9h1.15c.02.11.06.22.13.32.06.1.15.18.26.26s.23.13.37.17.3.06.48.06c.25,0,.45-.04.62-.11.17-.07.29-.17.38-.29s.13-.27.13-.43c0-.21-.08-.37-.23-.49-.15-.12-.38-.21-.69-.29l-.93-.22c-.31-.07-.58-.18-.81-.32s-.4-.33-.53-.55-.18-.48-.18-.79c0-.37.09-.69.29-.96s.45-.48.79-.63.72-.22,1.16-.22.85.08,1.17.23c.32.15.57.36.75.61.18.26.28.54.3.85h-1.12c-.03-.14-.09-.27-.18-.39-.09-.11-.22-.21-.37-.27s-.34-.1-.55-.1c-.33,0-.58.08-.77.23-.19.15-.28.34-.28.58,0,.18.07.33.22.45s.35.21.61.26l.93.22c.33.07.61.18.85.31.24.14.43.32.56.54s.2.5.2.84c0,.37-.09.7-.28.98-.19.28-.46.5-.81.66-.35.16-.78.24-1.29.24-.38,0-.71-.05-1-.14-.29-.09-.52-.22-.71-.38-.19-.16-.34-.35-.44-.56s-.16-.44-.17-.67Z" style="fill:#1d1d1b;"/><path d="M49.81,225.53h-1.19v-5.01h-1.7v-.99h4.6v.99h-1.71v5.01Z" style="fill:#1d1d1b;"/><path d="M52.72,225.53h-1.2l2.01-6h1.39l2,6h-1.26l-.47-1.54h-2l-.47,1.54ZM54.22,220.68h-.05l-.73,2.43h1.52l-.73-2.43Z" style="fill:#1d1d1b;"/><path d="M62.25,219.54c.45,0,.82.08,1.14.23.31.16.55.38.72.66.17.28.25.62.25,1,0,.29-.05.55-.16.78-.11.23-.24.42-.41.57s-.34.26-.52.34l1.2,2.42h-1.33l-1.05-2.24h-1.06v2.24h-1.17v-6h2.39ZM61.03,222.41h1.03c.33,0,.59-.08.78-.24.19-.16.29-.4.29-.71s-.1-.56-.29-.73-.45-.25-.76-.25h-1.05v1.94Z" style="fill:#1d1d1b;"/><path d="M66.81,225.53h-1.19v-6h1.19v6Z" style="fill:#1d1d1b;"/><path d="M69.28,222.18v.74c0,.37.05.68.15.94s.25.45.45.59c.2.13.44.2.71.2.23,0,.43-.04.6-.13s.31-.21.41-.37.16-.34.18-.54h1.15v.11c-.02.38-.13.72-.34,1.01-.21.29-.48.52-.83.68s-.74.25-1.18.25c-.54,0-1-.11-1.37-.33-.38-.22-.66-.53-.85-.94-.19-.41-.29-.9-.29-1.46v-.75c0-.57.1-1.06.29-1.47.2-.41.48-.73.86-.95.38-.22.83-.33,1.36-.33.33,0,.63.05.91.14.28.1.52.23.73.41.21.18.37.39.49.63.12.24.19.51.2.81v.11h-1.15c-.02-.21-.08-.4-.18-.57-.1-.17-.24-.3-.41-.39-.17-.1-.37-.14-.6-.14-.28,0-.51.07-.71.21-.2.14-.35.34-.45.6-.1.26-.16.58-.16.95Z" style="fill:#1d1d1b;"/><path d="M74.79,225.53h-1.2l2.01-6h1.39l2,6h-1.26l-.47-1.54h-2l-.47,1.54ZM76.29,220.68h-.05l-.73,2.43h1.52l-.73-2.43Z" style="fill:#1d1d1b;"/><path d="M17.79,119.88h-1.19v-2.57h-2.52v2.57h-1.19v-6h1.19v2.44h2.52v-2.44h1.19v6Z" style="fill:#1d1d1b;"/><path d="M24.19,117.27c0,.56-.1,1.05-.31,1.46-.21.41-.5.72-.88.94-.38.22-.84.33-1.38.33s-.99-.11-1.38-.33c-.39-.22-.68-.53-.89-.94-.21-.41-.31-.89-.31-1.46v-.77c0-.57.1-1.06.31-1.46.21-.41.5-.72.89-.94.38-.22.84-.33,1.38-.33s1,.11,1.38.33c.38.22.68.53.88.94.2.41.31.9.31,1.46v.77ZM22.99,116.49c0-.39-.06-.71-.18-.96-.12-.26-.28-.45-.48-.58s-.44-.19-.7-.19-.5.06-.71.19c-.2.13-.36.32-.48.58-.12.26-.18.58-.18.96v.78c0,.38.06.71.18.96.12.26.28.45.48.58.2.13.44.19.71.19s.5-.06.7-.19c.21-.13.37-.32.48-.58.12-.26.18-.58.18-.96v-.78Z" style="fill:#1d1d1b;"/><path d="M26.57,119.88h-1.12v-6h.99l2.63,3.99h.05v-3.99h1.12v6h-.98l-2.64-4.01h-.05v4.01Z" style="fill:#1d1d1b;"/><path d="M31.75,113.88h2.19c.61,0,1.11.12,1.51.35s.69.57.89,1.02c.19.45.29.98.29,1.61s-.1,1.17-.29,1.63-.49.79-.89,1.03c-.4.24-.9.36-1.5.36h-2.19v-6ZM32.93,114.85v4.06h.84c.28,0,.52-.04.73-.12.21-.08.37-.21.5-.38.13-.17.23-.38.29-.63.07-.25.1-.55.1-.89,0-.45-.06-.83-.17-1.13-.12-.3-.29-.53-.53-.68-.24-.15-.54-.23-.92-.23h-.84Z" style="fill:#1d1d1b;"/><path d="M40.17,118.98c.37,0,.67-.11.89-.33s.34-.54.34-.95v-3.81h1.19v3.93c0,.44-.1.82-.3,1.15-.2.33-.48.58-.84.76-.36.18-.79.27-1.28.27s-.92-.09-1.28-.27c-.36-.18-.65-.43-.84-.76-.2-.33-.3-.71-.3-1.15v-3.93h1.19v3.81c0,.42.11.74.34.96.22.22.52.33.9.33Z" style="fill:#1d1d1b;"/><path d="M46.42,113.88c.45,0,.82.08,1.14.24.31.16.55.38.72.66.17.28.25.62.25,1,0,.29-.05.55-.16.78-.11.23-.24.42-.41.57-.17.15-.34.26-.52.34l1.2,2.42h-1.33l-1.05-2.24h-1.06v2.24h-1.17v-6h2.39ZM45.2,116.75h1.03c.33,0,.59-.08.78-.24.19-.16.29-.4.29-.71s-.1-.56-.29-.73-.45-.25-.76-.25h-1.05v1.94Z" style="fill:#1d1d1b;"/><path d="M50.42,119.88h-1.2l2.01-6h1.39l2,6h-1.26l-.47-1.54h-2l-.47,1.54ZM51.92,115.03h-.05l-.73,2.43h1.52l-.73-2.43Z" style="fill:#1d1d1b;"/><path d="M55.13,118.24h1.15c.02.11.06.22.13.32.06.1.15.18.26.26s.23.13.37.17.3.06.48.06c.25,0,.45-.04.62-.11.17-.07.29-.17.38-.29.08-.12.13-.27.13-.43,0-.21-.08-.37-.23-.49-.15-.12-.38-.21-.69-.29l-.93-.22c-.31-.07-.58-.18-.81-.32s-.4-.33-.53-.55-.18-.48-.18-.79c0-.37.09-.69.29-.96s.45-.48.79-.63.72-.22,1.16-.22.85.08,1.17.23c.32.15.57.36.75.61.18.26.28.54.3.85h-1.12c-.03-.14-.09-.27-.18-.39-.09-.11-.22-.21-.37-.27s-.34-.1-.55-.1c-.33,0-.58.08-.77.23-.19.15-.28.34-.28.58,0,.18.07.33.22.45s.35.21.61.26l.93.21c.33.07.61.18.85.31.24.14.43.32.56.54s.2.5.2.84c0,.37-.09.7-.28.98-.19.28-.46.5-.81.66-.35.16-.78.24-1.29.24-.38,0-.71-.05-1-.14-.29-.09-.52-.22-.71-.38-.19-.16-.34-.35-.44-.56s-.16-.43-.17-.67Z" style="fill:#1d1d1b;"/><path d="M25.33,174.18h-1.12v-6h.99l2.63,3.99h.05v-3.99h1.12v6h-.98l-2.64-4.01h-.05v4.01Z" style="fill:#1d1d1b;"/><path d="M31.69,174.18h-1.19v-6h1.19v6Z" style="fill:#1d1d1b;"/><path d="M34.16,170.83v.74c0,.37.05.68.15.94s.25.45.45.59c.2.13.44.2.71.2.23,0,.43-.04.6-.13s.31-.21.41-.37.16-.34.18-.54h1.15v.11c-.02.38-.13.72-.34,1.01-.21.29-.48.52-.83.68s-.74.25-1.18.25c-.54,0-1-.11-1.37-.33-.38-.22-.66-.53-.85-.94-.19-.41-.29-.9-.29-1.46v-.75c0-.57.1-1.06.29-1.47.2-.41.48-.73.86-.95.38-.22.83-.33,1.36-.33.33,0,.63.05.91.14.28.1.52.23.73.41.21.18.37.39.49.63.12.24.19.51.2.81v.11h-1.15c-.02-.21-.08-.4-.18-.57-.1-.17-.24-.3-.41-.39-.17-.1-.37-.14-.6-.14-.28,0-.51.07-.71.21-.2.14-.35.34-.45.6-.1.26-.16.58-.16.95Z" style="fill:#1d1d1b;"/><path d="M39.67,174.18h-1.2l2.01-6h1.39l2,6h-1.26l-.47-1.54h-2l-.47,1.54ZM41.18,169.33h-.05l-.73,2.43h1.52l-.73-2.43Z" style="fill:#1d1d1b;"/><path d="M47.21,168.19c.45,0,.82.08,1.14.23.31.16.55.38.72.66.17.28.25.62.25,1,0,.29-.05.55-.16.78-.11.23-.24.42-.41.57s-.34.26-.52.34l1.2,2.42h-1.33l-1.05-2.24h-1.06v2.24h-1.17v-6h2.39ZM45.98,171.05h1.03c.33,0,.59-.08.78-.24.19-.16.29-.4.29-.71s-.1-.56-.29-.73-.45-.25-.76-.25h-1.05v1.94Z" style="fill:#1d1d1b;"/><path d="M51.2,174.18h-1.2l2.01-6h1.39l2,6h-1.26l-.47-1.54h-2l-.47,1.54ZM52.71,169.33h-.05l-.73,2.43h1.52l-.73-2.43Z" style="fill:#1d1d1b;"/><path d="M60.85,169.98h-1.17c-.03-.14-.08-.26-.15-.37s-.15-.21-.25-.29c-.1-.08-.22-.14-.36-.19-.14-.04-.29-.07-.45-.07-.43,0-.76.15-1,.45-.24.3-.35.73-.35,1.27v.75c0,.35.05.66.15.92.1.26.25.47.46.62s.46.22.78.22c.27,0,.5-.05.69-.15.18-.1.32-.23.41-.39s.14-.35.14-.54v-.38h-1.24v-.88h2.36v1.2c0,.29-.05.56-.14.82-.1.26-.24.49-.44.69-.2.2-.44.36-.74.47-.3.11-.65.17-1.05.17-.43,0-.81-.07-1.13-.2-.32-.13-.59-.32-.8-.56s-.37-.53-.48-.87-.16-.71-.16-1.12v-.76c0-.54.1-1.02.3-1.42.2-.41.49-.72.88-.95.38-.23.84-.34,1.39-.34.36,0,.68.05.96.15.28.1.52.24.72.41s.36.38.47.61c.11.23.18.48.21.74Z" style="fill:#1d1d1b;"/><path d="M64.49,173.29c.37,0,.67-.11.89-.33s.34-.54.34-.95v-3.81h1.19v3.93c0,.44-.1.82-.3,1.15-.2.33-.48.58-.84.76-.36.18-.79.27-1.28.27s-.92-.09-1.28-.27c-.36-.18-.65-.43-.84-.76-.2-.33-.3-.71-.3-1.15v-3.93h1.19v3.81c0,.42.11.73.34.96.22.22.52.33.9.33Z" style="fill:#1d1d1b;"/><path d="M68.97,174.18h-1.2l2.01-6h1.39l2,6h-1.26l-.47-1.54h-2l-.47,1.54ZM70.47,169.33h-.05l-.73,2.43h1.52l-.73-2.43Z" style="fill:#1d1d1b;"/><path d="M252.03,21.36h2.19c.61,0,1.11.12,1.51.35s.69.57.89,1.02c.19.45.29.98.29,1.61s-.1,1.17-.29,1.63-.49.8-.89,1.03c-.4.24-.9.36-1.5.36h-2.19v-6ZM253.22,22.33v4.06h.84c.28,0,.52-.04.73-.13.21-.08.37-.21.5-.38.13-.17.23-.38.29-.63.07-.25.1-.55.1-.89,0-.45-.06-.83-.17-1.13-.12-.3-.29-.53-.53-.68-.24-.15-.54-.23-.92-.23h-.84Z" style="fill:#1d1d1b;"/><path d="M263.02,24.75c0,.56-.1,1.05-.31,1.46-.21.41-.5.72-.88.94-.38.22-.84.33-1.38.33s-.99-.11-1.38-.33c-.39-.22-.68-.53-.89-.94-.21-.41-.31-.89-.31-1.46v-.77c0-.57.1-1.06.31-1.47.21-.41.5-.72.89-.94.38-.22.84-.33,1.38-.33s1,.11,1.38.33c.38.22.68.53.88.94.2.41.31.9.31,1.46v.77ZM261.82,23.97c0-.39-.06-.71-.18-.96-.12-.26-.28-.45-.48-.58s-.44-.19-.7-.19-.5.06-.71.19c-.2.13-.36.32-.48.58-.12.26-.18.58-.18.96v.78c0,.38.06.7.18.96.12.26.28.45.48.58.2.13.44.19.71.19s.5-.06.7-.19c.21-.13.37-.32.48-.58.12-.26.18-.58.18-.96v-.78Z" style="fill:#1d1d1b;"/><path d="M265.35,27.36h-1.06v-6h1.21l1.71,3.89h.04l1.71-3.89h1.2v6h-1.07v-3.99h-.06l-1.42,3.24h-.77l-1.43-3.24h-.06v3.99Z" style="fill:#1d1d1b;"/><path d="M272.86,27.36h-1.19v-6h1.19v6Z" style="fill:#1d1d1b;"/><path d="M275.49,27.36h-1.12v-6h.99l2.63,3.99h.05v-3.99h1.12v6h-.98l-2.64-4.01h-.05v4.01Z" style="fill:#1d1d1b;"/><path d="M281.85,27.36h-1.19v-6h1.19v6Z" style="fill:#1d1d1b;"/><path d="M284.32,24v.74c0,.37.05.68.15.94s.25.45.45.59c.2.13.44.2.71.2.23,0,.43-.04.6-.13s.31-.21.41-.37.16-.34.18-.54h1.15v.11c-.02.38-.13.72-.34,1.01-.21.29-.48.52-.83.68s-.74.25-1.18.25c-.54,0-1-.11-1.37-.33-.38-.22-.66-.53-.85-.94-.19-.41-.29-.9-.29-1.46v-.75c0-.57.1-1.06.29-1.47.2-.41.48-.73.86-.95.38-.22.83-.33,1.36-.33.33,0,.63.05.91.14.28.1.52.23.73.41.21.18.37.39.49.63.12.24.19.51.2.81v.11h-1.15c-.02-.21-.08-.4-.18-.57-.1-.17-.24-.3-.41-.39-.17-.1-.37-.14-.6-.14-.28,0-.51.07-.71.21-.2.14-.35.34-.45.6-.1.26-.16.58-.16.95Z" style="fill:#1d1d1b;"/><path d="M289.83,27.36h-1.2l2.01-6h1.39l2,6h-1.26l-.47-1.54h-2l-.47,1.54ZM291.34,22.51h-.05l-.73,2.43h1.52l-.73-2.43Z" style="fill:#1d1d1b;"/><path d="M296.09,27.36h-1.12v-6h.99l2.63,3.99h.05v-3.99h1.12v6h-.98l-2.64-4.01h-.05v4.01Z" style="fill:#1d1d1b;"/><path d="M258.21,32.16c.45,0,.82.08,1.14.23.31.16.55.38.72.66.17.28.25.62.25,1,0,.29-.05.55-.16.78-.11.23-.24.42-.41.57s-.34.26-.52.34l1.2,2.42h-1.33l-1.05-2.24h-1.06v2.24h-1.17v-6h2.39ZM256.99,35.03h1.03c.33,0,.59-.08.78-.24.19-.16.29-.4.29-.71s-.1-.56-.29-.73-.45-.25-.76-.25h-1.05v1.94Z" style="fill:#1d1d1b;"/><path d="M265.44,37.19v.97h-3.86v-6h3.86v.97h-2.68v1.54h2.53v.91h-2.53v1.61h2.68Z" style="fill:#1d1d1b;"/><path d="M269.16,32.16c.43,0,.8.09,1.1.27.3.18.53.42.69.72s.24.64.24,1.02-.08.71-.24,1.01c-.16.3-.39.54-.69.71-.3.17-.67.26-1.1.26h-1.21v2.01h-1.19v-6h2.4ZM269.98,34.16c0-.34-.09-.6-.28-.78-.18-.18-.44-.27-.77-.27h-.99v2.11h.99c.22,0,.41-.04.56-.12.16-.08.27-.2.36-.36.08-.16.13-.35.13-.57Z" style="fill:#1d1d1b;"/><path d="M274.61,37.26c.37,0,.67-.11.89-.33s.34-.54.34-.95v-3.81h1.19v3.93c0,.44-.1.82-.3,1.15-.2.33-.48.58-.84.76-.36.18-.79.27-1.28.27s-.92-.09-1.28-.27c-.36-.18-.65-.43-.84-.76-.2-.33-.3-.71-.3-1.15v-3.93h1.19v3.81c0,.42.11.73.34.96.22.22.52.33.9.33Z" style="fill:#1d1d1b;"/><path d="M278.46,38.16v-6h2.5c.54,0,.97.13,1.29.39s.48.62.48,1.09c0,.24-.04.45-.13.63-.09.18-.21.33-.37.44-.15.11-.33.19-.53.24v.05c.24.02.47.09.67.21s.36.28.49.49c.12.21.18.47.18.77,0,.36-.09.66-.27.91s-.42.44-.74.58c-.31.13-.67.2-1.08.2h-2.5ZM279.64,33.05v1.6h.78c.27,0,.48-.03.65-.1.17-.06.29-.16.37-.28.08-.12.12-.27.12-.44,0-.25-.08-.44-.23-.58-.15-.14-.37-.21-.65-.21h-1.05ZM279.64,35.48v1.78h.88c.47,0,.8-.07,1.01-.22.21-.15.31-.36.31-.65,0-.19-.04-.35-.12-.49-.08-.14-.2-.24-.36-.31s-.36-.11-.59-.11h-1.12Z" style="fill:#1d1d1b;"/><path d="M287.95,37.15v1.01h-3.73v-6h1.19v4.99h2.54Z" style="fill:#1d1d1b;"/><path d="M290.13,38.16h-1.19v-6h1.19v6Z" style="fill:#1d1d1b;"/><path d="M292.6,34.8v.74c0,.37.05.68.15.94s.25.45.45.59c.2.13.44.2.71.2.23,0,.43-.04.6-.13s.31-.21.41-.37.16-.34.18-.54h1.15v.11c-.02.38-.13.72-.34,1.01-.21.29-.48.52-.83.68s-.74.25-1.18.25c-.54,0-1-.11-1.37-.33-.38-.22-.66-.53-.85-.94-.19-.41-.29-.9-.29-1.46v-.75c0-.57.1-1.06.29-1.47.2-.41.48-.73.86-.95.38-.22.83-.33,1.36-.33.33,0,.63.05.91.14.28.1.52.23.73.41.21.18.37.39.49.63.12.24.19.51.2.81v.11h-1.15c-.02-.21-.08-.4-.18-.57-.1-.17-.24-.3-.41-.39-.17-.1-.37-.14-.6-.14-.28,0-.51.07-.71.21-.2.14-.35.34-.45.6-.1.26-.16.58-.16.95Z" style="fill:#1d1d1b;"/><path d="M326.87,48.37c.43,0,.8.09,1.1.27.3.18.53.42.69.72s.24.64.24,1.02-.08.71-.24,1.01c-.16.3-.39.54-.69.71-.3.17-.67.26-1.1.26h-1.21v2.01h-1.19v-6h2.4ZM327.69,50.37c0-.34-.09-.6-.28-.78s-.44-.27-.77-.27h-.99v2.11h.99c.22,0,.41-.04.56-.12.16-.08.28-.2.36-.36.08-.16.13-.35.13-.57Z" style="fill:#1d1d1b;"/><path d="M332.32,53.48c.37,0,.67-.11.89-.33s.34-.54.34-.95v-3.81h1.19v3.93c0,.44-.1.82-.3,1.15-.2.33-.48.58-.84.76-.36.18-.79.27-1.28.27s-.92-.09-1.28-.27c-.36-.18-.65-.43-.84-.76-.2-.33-.3-.71-.3-1.15v-3.93h1.19v3.81c0,.42.11.73.34.96.22.22.52.33.9.33Z" style="fill:#1d1d1b;"/><path d="M340.04,53.4v.97h-3.86v-6h3.86v.97h-2.68v1.54h2.53v.91h-2.53v1.61h2.68Z" style="fill:#1d1d1b;"/><path d="M343.75,48.37c.45,0,.82.08,1.14.23.31.16.55.38.72.66.17.28.25.62.25,1,0,.29-.05.55-.16.78-.11.23-.24.42-.41.57s-.34.26-.52.34l1.2,2.42h-1.33l-1.05-2.24h-1.06v2.24h-1.17v-6h2.39ZM342.53,51.24h1.03c.33,0,.59-.08.78-.24.19-.16.29-.4.29-.71s-.1-.56-.29-.73-.45-.25-.76-.25h-1.05v1.94Z" style="fill:#1d1d1b;"/><path d="M349.45,54.37h-1.19v-5.01h-1.7v-.99h4.6v.99h-1.71v5.01Z" style="fill:#1d1d1b;"/><path d="M356.84,51.76c0,.56-.1,1.05-.31,1.46-.21.41-.5.72-.88.94-.38.22-.84.33-1.38.33s-.99-.11-1.38-.33c-.39-.22-.68-.53-.89-.94-.21-.41-.31-.89-.31-1.46v-.77c0-.57.1-1.06.31-1.47.21-.41.5-.72.89-.94.38-.22.84-.33,1.38-.33s1,.11,1.38.33c.38.22.68.53.88.94.2.41.31.9.31,1.46v.77ZM355.63,50.98c0-.39-.06-.71-.18-.96-.12-.26-.28-.45-.48-.58s-.44-.19-.7-.19-.5.06-.71.19c-.2.13-.36.32-.48.58-.12.26-.18.58-.18.96v.78c0,.38.06.7.18.96.12.26.28.45.48.58.2.13.44.19.71.19s.5-.06.7-.19c.21-.13.37-.32.48-.58.12-.26.18-.58.18-.96v-.78Z" style="fill:#1d1d1b;"/><path d="M333.45,59.17c.45,0,.82.08,1.14.23.31.16.55.38.72.66.17.28.25.62.25,1,0,.29-.05.55-.16.78-.11.23-.24.42-.41.57s-.34.26-.52.34l1.2,2.42h-1.33l-1.05-2.24h-1.06v2.24h-1.17v-6h2.39ZM332.23,62.04h1.03c.33,0,.59-.08.78-.24.19-.16.29-.4.29-.71s-.1-.56-.29-.73-.45-.25-.76-.25h-1.05v1.94Z" style="fill:#1d1d1b;"/><path d="M338.01,65.17h-1.19v-6h1.19v6Z" style="fill:#1d1d1b;"/><path d="M340.48,61.81v.74c0,.37.05.68.15.94s.25.45.45.59c.2.13.44.2.71.2.23,0,.43-.04.6-.13s.31-.21.41-.37.16-.34.18-.54h1.15v.11c-.02.38-.13.72-.34,1.01-.21.29-.48.52-.83.68s-.74.25-1.18.25c-.54,0-1-.11-1.37-.33-.38-.22-.66-.53-.85-.94-.19-.41-.29-.9-.29-1.46v-.75c0-.57.1-1.06.29-1.47.2-.41.48-.73.86-.95.38-.22.83-.33,1.36-.33.33,0,.63.05.91.14.28.1.52.23.73.41.21.18.37.39.49.63.12.24.19.51.2.81v.11h-1.15c-.02-.21-.08-.4-.18-.57-.1-.17-.24-.3-.41-.39-.17-.1-.37-.14-.6-.14-.28,0-.51.07-.71.21-.2.14-.35.34-.45.6-.1.26-.16.58-.16.95Z" style="fill:#1d1d1b;"/><path d="M350.26,62.56c0,.56-.1,1.05-.31,1.46-.21.41-.5.72-.88.94-.38.22-.84.33-1.38.33s-.99-.11-1.38-.33c-.39-.22-.68-.53-.89-.94-.21-.41-.31-.89-.31-1.46v-.77c0-.57.1-1.06.31-1.47.21-.41.5-.72.89-.94.38-.22.84-.33,1.38-.33s1,.11,1.38.33c.38.22.68.53.88.94.2.41.31.9.31,1.46v.77ZM349.05,61.78c0-.39-.06-.71-.18-.96-.12-.26-.28-.45-.48-.58s-.44-.19-.7-.19-.5.06-.71.19c-.2.13-.36.32-.48.58-.12.26-.18.58-.18.96v.78c0,.38.06.7.18.96.12.26.28.45.48.58.2.13.44.19.71.19s.5-.06.7-.19c.21-.13.37-.32.48-.58.12-.26.18-.58.18-.96v-.78Z" style="fill:#1d1d1b;"/><path d="M478.36,180.82v-6h2.83c.57,0,1.03.13,1.39.39.35.26.53.62.53,1.09,0,.27-.05.49-.16.67s-.25.33-.42.43c-.17.1-.35.17-.54.2v.08c.2,0,.41.06.63.17.21.1.39.26.54.47.14.21.22.48.22.8,0,.37-.09.68-.29.93s-.44.45-.76.58-.66.2-1.03.2h-2.93ZM480.08,175.99v1.2h.61c.17,0,.31-.03.42-.08s.19-.13.24-.22c.05-.09.08-.19.08-.3,0-.18-.06-.32-.18-.43-.12-.11-.29-.17-.52-.17h-.64ZM480.08,178.24v1.4h.67c.3,0,.53-.07.66-.2.14-.14.2-.3.2-.5,0-.13-.03-.25-.09-.36-.06-.11-.15-.19-.27-.25s-.28-.09-.47-.09h-.7Z" style="fill:#1d1d1b;"/><path d="M485.52,180.82h-1.72l1.85-6h2.18l1.84,6h-1.85l-.29-1.2h-1.7l-.3,1.2ZM486.73,176.28h-.09l-.52,2.1h1.12l-.51-2.1Z" style="fill:#1d1d1b;"/><path d="M493.12,174.82c.51,0,.94.08,1.28.25.35.17.61.41.78.71.18.31.26.66.26,1.07,0,.33-.06.6-.18.84-.12.23-.27.42-.43.56-.17.14-.31.24-.44.3l1.18,2.26h-1.91l-.98-2.04h-.56v2.04h-1.7v-6h2.69ZM492.12,177.61h.72c.22,0,.41-.06.57-.18s.24-.31.24-.57-.08-.45-.24-.58-.35-.2-.56-.2h-.73v1.53Z" style="fill:#1d1d1b;"/><path d="M496.45,180.82v-6h2.83c.57,0,1.03.13,1.39.39.35.26.53.62.53,1.09,0,.27-.05.49-.16.67s-.25.33-.42.43c-.17.1-.35.17-.54.2v.08c.2,0,.41.06.63.17.21.1.39.26.54.47.14.21.22.48.22.8,0,.37-.09.68-.29.93s-.44.45-.76.58-.66.2-1.03.2h-2.93ZM498.17,175.99v1.2h.61c.17,0,.31-.03.42-.08s.19-.13.24-.22c.05-.09.08-.19.08-.3,0-.18-.06-.32-.18-.43-.12-.11-.29-.17-.52-.17h-.64ZM498.17,178.24v1.4h.67c.3,0,.53-.07.66-.2.14-.14.2-.3.2-.5,0-.13-.03-.25-.09-.36-.06-.11-.15-.19-.27-.25s-.28-.09-.47-.09h-.7Z" style="fill:#1d1d1b;"/><path d="M503.61,180.82h-1.72l1.85-6h2.18l1.84,6h-1.85l-.29-1.2h-1.7l-.3,1.2ZM504.82,176.28h-.09l-.52,2.1h1.12l-.51-2.1Z" style="fill:#1d1d1b;"/><path d="M508.51,174.82h2.54c.64,0,1.17.12,1.57.37.4.25.7.59.89,1.03.19.44.29.97.29,1.57s-.1,1.14-.29,1.6c-.19.46-.49.81-.9,1.06-.4.25-.92.38-1.56.38h-2.54v-6ZM510.25,176.17v3.31h.49c.23,0,.43-.03.59-.1s.29-.17.39-.31c.1-.14.17-.31.22-.51s.07-.44.07-.72c0-.37-.04-.67-.13-.92s-.22-.43-.41-.56c-.19-.13-.43-.19-.74-.19h-.49Z" style="fill:#1d1d1b;"/><path d="M520.12,178.14c0,.56-.11,1.05-.32,1.47s-.53.74-.94.97c-.41.23-.92.34-1.52.34s-1.1-.11-1.52-.34c-.42-.23-.73-.55-.95-.97-.22-.42-.33-.91-.33-1.47v-.62c0-.57.11-1.06.33-1.48.22-.42.53-.74.95-.97.42-.23.92-.34,1.52-.34s1.11.12,1.52.35c.42.23.73.56.94.98.21.42.32.91.32,1.47v.62ZM518.35,177.5c0-.3-.04-.56-.12-.76s-.2-.36-.35-.47c-.15-.11-.33-.16-.54-.16s-.39.05-.54.16c-.15.11-.27.26-.35.47s-.12.46-.12.76v.65c0,.3.04.56.12.76s.2.36.35.47c.15.1.33.16.54.16s.39-.05.54-.16c.15-.1.27-.26.35-.47s.12-.46.12-.76v-.65Z" style="fill:#1d1d1b;"/><path d="M520.88,179.02h1.63c0,.08.03.15.07.22.04.07.1.14.18.2.08.06.17.11.29.14s.25.05.4.05c.2,0,.36-.02.48-.07.12-.05.21-.11.26-.19.05-.08.08-.17.08-.26,0-.17-.07-.29-.22-.36-.14-.08-.36-.14-.63-.19l-.76-.14c-.33-.06-.61-.16-.87-.3-.25-.14-.45-.33-.59-.57-.14-.24-.22-.54-.22-.9,0-.41.1-.75.31-1.04s.49-.51.86-.66c.37-.15.8-.23,1.29-.23.55,0,1,.09,1.36.27.36.18.62.41.8.7.17.28.26.58.27.9h-1.58c0-.09-.04-.19-.11-.28-.06-.09-.15-.17-.28-.23-.12-.06-.27-.09-.46-.09-.25,0-.43.05-.55.15-.12.1-.18.23-.18.37,0,.14.07.25.21.33s.33.14.58.18l.8.13c.29.05.56.13.81.26s.46.31.62.55c.16.24.24.56.24.96s-.09.73-.28,1.03c-.19.3-.47.54-.85.71-.38.17-.85.26-1.43.26-.47,0-.87-.05-1.19-.17-.32-.11-.58-.26-.78-.44s-.34-.39-.42-.62c-.09-.23-.13-.45-.13-.69Z" style="fill:#1d1d1b;"/><path d="M436.94,89.15h-1.72l1.85-6h2.18l1.84,6h-1.85l-.29-1.2h-1.7l-.3,1.2ZM438.15,84.61h-.09l-.52,2.1h1.12l-.51-2.1Z" style="fill:#1d1d1b;"/><path d="M443.45,89.15h-1.6v-6h1.32l2.14,3.08h.07v-3.08h1.6v6h-1.31l-2.15-3.13h-.07v3.13Z" style="fill:#1d1d1b;"/><path d="M451.05,89.15h-1.74v-4.6h-1.55v-1.4h4.84v1.4h-1.55v4.6Z" style="fill:#1d1d1b;"/><path d="M455.12,89.15h-1.74v-6h1.74v6Z" style="fill:#1d1d1b;"/><path d="M461.49,85.18h-1.68c-.01-.1-.04-.19-.08-.27s-.1-.16-.18-.23c-.08-.07-.17-.12-.28-.16-.11-.04-.23-.06-.37-.06-.33,0-.58.12-.75.35-.17.23-.26.57-.26,1.01v.65c0,.24.03.47.09.68s.16.38.32.52.37.2.64.2c.21,0,.38-.04.51-.12s.24-.18.3-.3.1-.24.1-.37v-.12h-.83v-1.16h2.46v1.14c0,.29-.05.58-.14.86-.1.28-.25.53-.45.75-.21.22-.47.4-.8.53-.33.13-.73.2-1.19.2-.49,0-.91-.07-1.26-.22-.35-.15-.64-.35-.85-.61-.22-.26-.38-.56-.49-.89-.1-.34-.16-.69-.16-1.06v-.68c0-.53.11-1,.32-1.41.21-.41.52-.74.93-.97.41-.24.92-.36,1.52-.36.43,0,.81.06,1.13.18.32.12.59.28.8.49s.37.43.48.69c.11.25.16.51.16.77Z" style="fill:#1d1d1b;"/><path d="M465.07,87.82c.26,0,.47-.08.63-.24.17-.16.25-.4.25-.74v-3.69h1.74v3.92c0,.44-.11.82-.32,1.15-.21.33-.51.58-.91.76-.39.18-.86.27-1.4.27s-1-.09-1.39-.27c-.39-.18-.69-.43-.91-.76s-.32-.71-.32-1.15v-3.92h1.74v3.69c0,.34.08.59.25.75.17.16.38.23.63.23Z" style="fill:#1d1d1b;"/><path d="M470.1,89.15h-1.72l1.85-6h2.18l1.84,6h-1.85l-.29-1.2h-1.7l-.3,1.2ZM471.31,84.61h-.09l-.52,2.1h1.12l-.51-2.1Z" style="fill:#1d1d1b;"/><path d="M478.16,89.15h-1.72l1.85-6h2.18l1.84,6h-1.85l-.29-1.2h-1.7l-.3,1.2ZM479.37,84.61h-.09l-.52,2.1h1.12l-.51-2.1Z" style="fill:#1d1d1b;"/><path d="M484.66,89.15h-1.6v-6h1.32l2.14,3.08h.07v-3.08h1.6v6h-1.31l-2.15-3.13h-.07v3.13Z" style="fill:#1d1d1b;"/><path d="M489.46,83.15h2.54c.64,0,1.17.12,1.57.37.4.25.7.59.89,1.03.19.44.29.97.29,1.57s-.1,1.14-.29,1.6c-.19.46-.49.81-.9,1.06-.4.25-.92.38-1.56.38h-2.54v-6ZM491.2,84.49v3.31h.49c.23,0,.43-.03.59-.1s.29-.17.39-.31c.1-.14.17-.31.22-.51s.07-.44.07-.72c0-.37-.04-.67-.13-.92s-.22-.43-.41-.56c-.19-.13-.43-.19-.74-.19h-.49Z" style="fill:#1d1d1b;"/><path d="M444.44,99.95v-6h2.83c.57,0,1.03.13,1.39.39.35.26.53.62.53,1.09,0,.27-.05.49-.16.67s-.25.33-.42.43c-.17.1-.35.17-.54.2v.08c.2,0,.41.06.63.17.21.1.39.26.54.47.14.21.22.48.22.8,0,.37-.09.68-.29.93s-.44.45-.76.58-.66.2-1.03.2h-2.93ZM446.16,95.12v1.2h.61c.17,0,.31-.03.42-.08s.19-.13.24-.22c.05-.09.08-.19.08-.3,0-.18-.06-.32-.18-.43-.12-.11-.29-.17-.52-.17h-.64ZM446.16,97.37v1.4h.67c.3,0,.53-.07.66-.2.14-.14.2-.3.2-.5,0-.13-.03-.25-.09-.36-.06-.11-.15-.19-.27-.25s-.28-.09-.47-.09h-.7Z" style="fill:#1d1d1b;"/><path d="M451.6,99.95h-1.72l1.85-6h2.18l1.84,6h-1.85l-.29-1.2h-1.7l-.3,1.2ZM452.81,95.41h-.09l-.52,2.1h1.12l-.51-2.1Z" style="fill:#1d1d1b;"/><path d="M459.2,93.95c.51,0,.94.08,1.28.25.35.17.61.41.78.71.18.31.26.66.26,1.07,0,.33-.06.6-.18.84-.12.23-.27.42-.43.56-.17.14-.31.24-.44.3l1.18,2.26h-1.91l-.98-2.04h-.56v2.04h-1.7v-6h2.69ZM458.21,96.74h.72c.22,0,.41-.06.57-.18s.24-.31.24-.57-.08-.45-.24-.58-.35-.2-.56-.2h-.73v1.53Z" style="fill:#1d1d1b;"/><path d="M462.53,99.95v-6h2.83c.57,0,1.03.13,1.39.39.35.26.53.62.53,1.09,0,.27-.05.49-.16.67s-.25.33-.42.43c-.17.1-.35.17-.54.2v.08c.2,0,.41.06.63.17.21.1.39.26.54.47.14.21.22.48.22.8,0,.37-.09.68-.29.93s-.44.45-.76.58-.66.2-1.03.2h-2.93ZM464.25,95.12v1.2h.61c.17,0,.31-.03.42-.08s.19-.13.24-.22c.05-.09.08-.19.08-.3,0-.18-.06-.32-.18-.43-.12-.11-.29-.17-.52-.17h-.64ZM464.25,97.37v1.4h.67c.3,0,.53-.07.66-.2.14-.14.2-.3.2-.5,0-.13-.03-.25-.09-.36-.06-.11-.15-.19-.27-.25s-.28-.09-.47-.09h-.7Z" style="fill:#1d1d1b;"/><path d="M471.04,98.62c.26,0,.47-.08.63-.24.17-.16.25-.4.25-.74v-3.69h1.74v3.92c0,.44-.11.82-.32,1.15-.21.33-.51.58-.91.76-.39.18-.86.27-1.4.27s-1-.09-1.39-.27c-.39-.18-.69-.43-.91-.76s-.32-.71-.32-1.15v-3.92h1.74v3.69c0,.34.08.59.25.75.17.16.38.23.63.23Z" style="fill:#1d1d1b;"/><path d="M474.87,93.95h2.54c.64,0,1.17.12,1.57.37.4.25.7.59.89,1.03.19.44.29.97.29,1.57s-.1,1.14-.29,1.6c-.19.46-.49.81-.9,1.06-.4.25-.92.38-1.56.38h-2.54v-6ZM476.6,95.29v3.31h.49c.23,0,.43-.03.59-.1s.29-.17.39-.31c.1-.14.17-.31.22-.51s.07-.44.07-.72c0-.37-.04-.67-.13-.92s-.22-.43-.41-.56c-.19-.13-.43-.19-.74-.19h-.49Z" style="fill:#1d1d1b;"/><path d="M482.13,99.95h-1.72l1.85-6h2.18l1.84,6h-1.85l-.29-1.2h-1.7l-.3,1.2ZM483.34,95.41h-.09l-.52,2.1h1.12l-.51-2.1Z" style="fill:#1d1d1b;"/><path d="M338.03,101.09h1.63c0,.08.03.15.07.22.04.07.1.14.18.2.08.06.17.11.29.14s.25.05.4.05c.2,0,.36-.02.48-.07.12-.05.21-.11.26-.19.05-.08.08-.17.08-.26,0-.17-.07-.29-.22-.36-.14-.08-.36-.14-.63-.19l-.76-.14c-.33-.06-.61-.16-.87-.3-.25-.14-.45-.33-.59-.57-.14-.24-.22-.54-.22-.9,0-.41.1-.75.31-1.04s.49-.51.86-.66c.37-.15.8-.23,1.29-.23.55,0,1,.09,1.36.27.36.18.62.41.8.7.17.28.26.58.27.9h-1.58c0-.09-.04-.19-.11-.28-.06-.09-.15-.17-.28-.23-.12-.06-.27-.09-.46-.09-.25,0-.43.05-.55.15-.12.1-.18.23-.18.37,0,.14.07.25.21.33s.33.14.58.18l.8.13c.29.05.56.13.81.26s.46.31.62.55c.16.24.24.56.24.96s-.09.73-.28,1.03c-.19.3-.47.54-.85.71-.38.17-.85.26-1.43.26-.47,0-.87-.05-1.19-.17-.32-.11-.58-.26-.78-.44s-.34-.39-.42-.62c-.09-.23-.13-.45-.13-.69Z" style="fill:#1d1d1b;"/><path d="M346.97,102.89h-1.74v-4.6h-1.55v-1.4h4.84v1.4h-1.55v4.6Z" style="fill:#1d1d1b;"/><path d="M348.33,102.08c0-.29.09-.52.28-.68.19-.16.41-.24.68-.24s.5.08.69.25.28.39.28.67-.09.51-.28.67c-.19.16-.42.24-.69.24s-.49-.08-.68-.24-.28-.38-.28-.67Z" style="fill:#1d1d1b;"/><path d="M358.79,96.89l-2.02,2.62,2.07,3.38h-2.02l-1.32-2.24-.45.55v1.69h-1.74v-6h1.74v2.41h.08l1.83-2.41h1.82Z" style="fill:#1d1d1b;"/><path d="M361.22,102.89h-1.74v-6h1.74v6Z" style="fill:#1d1d1b;"/><path d="M365.3,102.89h-1.74v-4.6h-1.55v-1.4h4.84v1.4h-1.55v4.6Z" style="fill:#1d1d1b;"/><path d="M370.46,102.89h-1.74v-4.6h-1.55v-1.4h4.84v1.4h-1.55v4.6Z" style="fill:#1d1d1b;"/><path d="M372.57,101.09h1.63c0,.08.03.15.07.22.04.07.1.14.18.2.08.06.17.11.29.14s.25.05.4.05c.2,0,.36-.02.48-.07.12-.05.21-.11.26-.19.05-.08.08-.17.08-.26,0-.17-.07-.29-.22-.36-.14-.08-.36-.14-.63-.19l-.76-.14c-.33-.06-.61-.16-.87-.3-.25-.14-.45-.33-.59-.57-.14-.24-.22-.54-.22-.9,0-.41.1-.75.31-1.04s.49-.51.86-.66c.37-.15.8-.23,1.29-.23.55,0,1,.09,1.36.27.36.18.62.41.8.7.17.28.26.58.27.9h-1.58c0-.09-.04-.19-.11-.28-.06-.09-.15-.17-.28-.23-.12-.06-.27-.09-.46-.09-.25,0-.43.05-.55.15-.12.1-.18.23-.18.37,0,.14.07.25.21.33s.33.14.58.18l.8.13c.29.05.56.13.81.26s.46.31.62.55c.16.24.24.56.24.96s-.09.73-.28,1.03c-.19.3-.47.54-.85.71-.38.17-.85.26-1.43.26-.47,0-.87-.05-1.19-.17-.32-.11-.58-.26-.78-.44s-.34-.39-.42-.62c-.09-.23-.13-.45-.13-.69Z" style="fill:#1d1d1b;"/><path d="M381.81,102.89h-1.72l1.85-6h2.18l1.84,6h-1.85l-.29-1.2h-1.7l-.3,1.2ZM383.02,98.35h-.09l-.52,2.1h1.12l-.51-2.1Z" style="fill:#1d1d1b;"/><path d="M388.32,102.89h-1.6v-6h1.32l2.14,3.08h.07v-3.08h1.6v6h-1.31l-2.15-3.13h-.07v3.13Z" style="fill:#1d1d1b;"/><path d="M393.11,96.89h2.54c.64,0,1.17.12,1.57.37.4.25.7.59.89,1.03.19.44.29.97.29,1.57s-.1,1.14-.29,1.6c-.19.46-.49.81-.9,1.06-.4.25-.92.38-1.56.38h-2.54v-6ZM394.85,98.24v3.31h.49c.23,0,.43-.03.59-.1s.29-.17.39-.31c.1-.14.17-.31.22-.51s.07-.44.07-.72c0-.37-.04-.67-.13-.92s-.22-.43-.41-.56c-.19-.13-.43-.19-.74-.19h-.49Z" style="fill:#1d1d1b;"/><path d="M357.14,113.69h-1.6v-6h1.32l2.14,3.08h.07v-3.08h1.6v6h-1.31l-2.15-3.13h-.07v3.13Z" style="fill:#1d1d1b;"/><path d="M366.15,112.34v1.34h-4.21v-6h4.21v1.34h-2.49v1.04h2.33v1.22h-2.33v1.05h2.49Z" style="fill:#1d1d1b;"/><path d="M368.55,113.69l-1.81-6h2.03l.92,4.21h.08l.9-4.21h1.9l-1.77,6h-2.25Z" style="fill:#1d1d1b;"/><path d="M375.05,113.69h-1.74v-6h1.74v6Z" style="fill:#1d1d1b;"/><path d="M376.05,111.89h1.63c0,.08.03.15.07.22.04.07.1.14.18.2.08.06.17.11.29.14s.25.05.4.05c.2,0,.36-.02.48-.07.12-.05.21-.11.26-.19.05-.08.08-.17.08-.26,0-.17-.07-.29-.22-.36-.14-.08-.36-.14-.63-.19l-.76-.14c-.33-.06-.61-.16-.87-.3-.25-.14-.45-.33-.59-.57-.14-.24-.22-.54-.22-.9,0-.41.1-.75.31-1.04s.49-.51.86-.66c.37-.15.8-.23,1.29-.23.55,0,1,.09,1.36.27.36.18.62.41.8.7.17.28.26.58.27.9h-1.58c0-.09-.04-.19-.11-.28-.06-.09-.15-.17-.28-.23-.12-.06-.27-.09-.46-.09-.25,0-.43.05-.55.15-.12.1-.18.23-.18.37,0,.14.07.25.21.33s.33.14.58.18l.8.13c.29.05.56.13.81.26s.46.31.62.55c.16.24.24.56.24.96s-.09.73-.28,1.03c-.19.3-.47.54-.85.71-.38.17-.85.26-1.43.26-.47,0-.87-.05-1.19-.17-.32-.11-.58-.26-.78-.44s-.34-.39-.42-.62c-.09-.23-.13-.45-.13-.69Z" style="fill:#1d1d1b;"/></g></g></svg>