<svg xmlns="http://www.w3.org/2000/svg" viewBox="0 0 137.72 137.71" width="137.72" height="137.71" role="img" aria-label="Olympe logo">
  <path fill="#c96b4e" d="M68.85,0C30.82,0,0,30.83,0,68.86s30.82,68.85,68.85,68.85,68.86-30.83,68.86-68.85S106.88,0,68.85,0ZM98.77,70.25c-.01.33-.02.66-.03.98-.02.6-.04,1.19-.08,1.78-.89,15.8-6.86,29.7-15.74,38.77-6.75,6.92-15.2,11.03-24.36,11.03-22.22,0-40.23-24.16-40.23-53.95S36.34,14.91,58.56,14.91c9.14,0,17.57,4.09,24.31,10.98,8.9,9.07,14.89,22.99,15.79,38.82.04.59.06,1.18.08,1.77l.03.99c.01.46.01.92.01,1.39s0,.93-.01,1.39Z"/>
  <path fill="#c96b4e" d="M66.26,21.83c.23-.05.39-.26.39-.5s-.18-.44-.41-.48c-1.77-.31-3.56-.47-5.33-.47-21.15,0-38.36,21.75-38.36,48.48s17.21,48.47,38.36,48.47c1.77,0,3.56-.16,5.33-.47.23-.04.41-.24.41-.48,0-.24-.16-.45-.39-.5-13.87-3.2-24.32-23.41-24.32-47.02s10.46-43.83,24.32-47.03z"/>
</svg>